<svg xmlns="http://www.w3.org/2000/svg" width="120.682" height="16.291" viewBox="0 0 120.682 16.291"><path d="M69.923,4.419H65.367V9.54h-1.31v1.745h1.31v3.073H67V11.285h2.925a3.6,3.6,0,0,0,3.749-3.432,3.6,3.6,0,0,0-3.751-3.434m.292,5.121H67V6.166h3.215a1.641,1.641,0,0,1,1.6,1.687,1.644,1.644,0,0,1-1.6,1.687"/><path d="M59.338,6.564a2.551,2.551,0,0,0-2.241,1.1,2.553,2.553,0,0,0-2.24-1.1c-1.944,0-2.823,1.47-2.823,3.286v4.508h1.632V10.275c0-1.178.3-2.125,1.308-2.125s1.3.947,1.3,2.125v4.083h1.637V10.275c0-1.178.3-2.125,1.306-2.125s1.31.947,1.31,2.125v4.083h1.632l0-4.508c0-1.816-.881-3.286-2.821-3.286"/><path d="M30.464,7.365V6.723H28.827v7.635h1.637V8.94a1.437,1.437,0,0,1,1.807-.591L32.9,6.723a2.059,2.059,0,0,0-2.436.642"/><path d="M111.23,7.369V6.723H109.6v7.635h1.631V8.943a1.438,1.438,0,0,1,1.812-.594l.629-1.626a2.065,2.065,0,0,0-2.441.646"/><path d="M104.112,6.611h-.049a4.02,4.02,0,1,0,0,8.038h.1a4.263,4.263,0,0,0,3.541-1.845l-.14-.077-1.37-.767a2.464,2.464,0,0,1-2.133,1.281c-.02,0-.042,0-.062,0a2.516,2.516,0,0,1-2.366-2.089h6.5a4.089,4.089,0,0,0,.038-.518,4.026,4.026,0,0,0-.08-.791,4.091,4.091,0,0,0-3.983-3.228M101.7,9.839A2.51,2.51,0,0,1,104,8.018a2.417,2.417,0,0,1,2.187,1.821Z"/><path d="M48.685,6.723V7.76A3.606,3.606,0,0,0,46,6.531a3.875,3.875,0,0,0-3.734,4.009A3.876,3.876,0,0,0,46,14.547a3.61,3.61,0,0,0,2.69-1.23v1.041h1.633V6.723Zm-2.474,6.268A2.453,2.453,0,1,1,48.6,10.54a2.453,2.453,0,0,1-2.387,2.451"/><path d="M80.921,7.762a3.6,3.6,0,0,0-2.687-1.231A3.879,3.879,0,0,0,74.5,10.54a3.879,3.879,0,0,0,3.736,4.007,3.607,3.607,0,0,0,2.687-1.23v1.041h1.634V6.723H80.921Zm-2.474,5.229a2.453,2.453,0,1,1,2.388-2.451,2.453,2.453,0,0,1-2.388,2.451"/><polygon points="99.734 6.723 97.646 6.723 95.722 9.696 94.896 9.696 94.896 4.419 93.264 4.419 93.264 9.696 92.143 9.696 92.143 11.194 93.264 11.194 93.264 14.358 94.896 14.358 94.896 11.194 95.826 11.194 97.873 14.358 99.959 14.358 97.176 10.377 99.734 6.723"/><path d="M119.977,10.561a3.317,3.317,0,0,0-1.749-.6l-1.083-.129a1.8,1.8,0,0,1-.849-.4.706.706,0,0,1-.271-.561c0-.534.463-.982,1.418-.982a3.021,3.021,0,0,1,2.025.827l.984-1.084a4.417,4.417,0,0,0-2.961-1.07c-1.98,0-3.19.976-3.19,2.366a1.887,1.887,0,0,0,.657,1.53,3.389,3.389,0,0,0,1.777.771l1.1.134a1.518,1.518,0,0,1,.813.275.8.8,0,0,1,.279.656c0,.622-.562.959-1.619.959a3.628,3.628,0,0,1-2.215-.993l-1.153.983a4.928,4.928,0,0,0,3.345,1.323c2.092,0,3.394-1.06,3.394-2.347a2,2,0,0,0-.7-1.652"/><path d="M22.083,4.419H17.992v9.939h4.091a5.193,5.193,0,0,0,5.39-4.973,5.19,5.19,0,0,0-5.39-4.966m.518,8.129H19.624V6.224H22.6a3.072,3.072,0,0,1,2.977,3.161A3.074,3.074,0,0,1,22.6,12.548"/><path d="M90,11.96a2.451,2.451,0,0,1-2.13,1.281c-.021,0-.041,0-.061,0a2.515,2.515,0,0,1-2.367-2.089,2.486,2.486,0,0,1-.049-.518,2.655,2.655,0,0,1,.116-.791,2.509,2.509,0,0,1,2.3-1.821h.061a2.456,2.456,0,0,1,2.106,1.25L91.3,8.427A4.122,4.122,0,0,0,87.92,6.611h-.049a4.02,4.02,0,1,0,0,8.038h.1A4.253,4.253,0,0,0,91.509,12.8l-.136-.077Z"/><path d="M37.3,6.611h-.049a4.02,4.02,0,1,0,0,8.038h.1A4.246,4.246,0,0,0,40.886,12.8l-.133-.077-1.372-.767a2.459,2.459,0,0,1-2.132,1.281c-.021,0-.042,0-.065,0a2.517,2.517,0,0,1-2.364-2.089h6.5a4.283,4.283,0,0,0,.038-.518,4.026,4.026,0,0,0-.083-.791A4.091,4.091,0,0,0,37.3,6.611M34.889,9.839a2.506,2.506,0,0,1,2.295-1.821,2.418,2.418,0,0,1,2.19,1.821Z"/><path d="M0,16.291V.887A.89.89,0,0,1,.886,0h9.467a2.469,2.469,0,0,1,1.51.628l2.006,2A2.467,2.467,0,0,1,14.5,4.144v6.072a2.459,2.459,0,0,1-.627,1.512l-2.006,2a2.45,2.45,0,0,1-1.51.627H2.213Z"/></svg>