<svg xmlns="http://www.w3.org/2000/svg" xmlns:xlink="http://www.w3.org/1999/xlink" width="353.774" height="304.003" viewBox="0 0 353.774 304.003"><defs><clipPath id="a" transform="translate(60.087 -16.884)"><circle cx="101.6" cy="101.6" r="101.6" fill="none"/></clipPath><clipPath id="b" transform="translate(60.087 -16.884)"><path d="M64.8,161.6s40.8,16,69.6-.8c0,0,8.8,6.4,12.8,27.2s8,69.6,7.2,78.4-.8,12.668-.8,12.668-8,.132-8,.932-2.4,26.4-2.4,26.4-52.8,6.4-83.2-.8L59.2,280l-9.6-.8S45.6,193.6,64.8,161.6Z" fill="none"/></clipPath></defs><g clip-path="url(#a)"><g clip-path="url(#b)"><line x1="172.887" y1="101.516" x2="1.687" y2="302.316" fill="none" stroke="#ffe200" stroke-linecap="round" stroke-linejoin="round" stroke-width="3.374"/><line x1="198.487" y1="101.516" x2="27.287" y2="302.316" fill="none" stroke="#ffe200" stroke-linecap="round" stroke-linejoin="round" stroke-width="3.374"/><line x1="224.087" y1="101.516" x2="52.887" y2="302.316" fill="none" stroke="#ffe200" stroke-linecap="round" stroke-linejoin="round" stroke-width="3.374"/><line x1="249.687" y1="101.516" x2="78.487" y2="302.316" fill="none" stroke="#ffe200" stroke-linecap="round" stroke-linejoin="round" stroke-width="3.374"/><line x1="275.287" y1="101.516" x2="104.087" y2="302.316" fill="none" stroke="#ffe200" stroke-linecap="round" stroke-linejoin="round" stroke-width="3.374"/><line x1="300.887" y1="101.516" x2="129.687" y2="302.316" fill="none" stroke="#ffe200" stroke-linecap="round" stroke-linejoin="round" stroke-width="3.374"/><line x1="326.487" y1="101.516" x2="155.287" y2="302.316" fill="none" stroke="#ffe200" stroke-linecap="round" stroke-linejoin="round" stroke-width="3.374"/><line x1="352.087" y1="101.516" x2="180.887" y2="302.316" fill="none" stroke="#ffe200" stroke-linecap="round" stroke-linejoin="round" stroke-width="3.374"/></g><path d="M59.046,69.816c-.149.7-.1.493-.274,1.4-.075.391-.055.881-.152,1.422-.076.425-.206.886-.293,1.4-.074.44-.21.9-.29,1.4-.071.446-.194.908-.269,1.4-.068.451-.09.928-.16,1.415-.066.455-.043.938-.11,1.423-.062.458-.1.932-.162,1.415-.059.461-.289.912-.347,1.394-.056.463.007.949-.047,1.431-.053.464-.052.943-.1,1.424s-.051.943-.1,1.424-.175.932-.218,1.413-.164.936-.2,1.415.011.951-.025,1.431-.162.939-.194,1.418-.09.946-.118,1.425.074.954.05,1.433-.072.944-.092,1.421-.111.944-.126,1.421.119.952.108,1.429-.135.946-.141,1.424.064.95.062,1.427.049.949.053,1.427-.041.95-.033,1.428.063.949.076,1.426.041.95.06,1.427.033.951.057,1.427.06.95.091,1.426,0,.954.038,1.43.01.956.052,1.431.025.956.074,1.43.272.93.328,1.4.064.953.127,1.425.213.933.284,1.4.117.946.2,1.416.028.964.114,1.432.339.907.435,1.373,0,.977.1,1.441.253.923.367,1.385.214.933.339,1.391.26.921.4,1.377.275.916.421,1.368.276.918.433,1.366.356.89.526,1.333.442.853.626,1.292.408.862.6,1.294.4.868.608,1.293.342.9.569,1.317.487.823.729,1.232.6.752.854,1.151.36.909.635,1.3.643.715.934,1.09.545.789.854,1.15.592.756.919,1.1.814.535,1.158.865.645.7,1.006,1.013.655.707,1.033,1,.759.582,1.153.853.8.517,1.213.766.829.471,1.252.7.893.338,1.327.541.823.489,1.268.669.905.3,1.359.452.927.211,1.39.345.906.263,1.375.375.908.274,1.381.364.942.094,1.42.163.924.239,1.4.288.954-.046,1.436-.016.942.053,1.425.065.947.1,1.431.1.908,0,1.392-.017c.258.671.109.7.138,1.42s-.052.721-.023,1.439.112.715.142,1.433-.1.725-.07,1.444.107.716.136,1.434.153.715.182,1.435-.093.726-.063,1.448.131.717.16,1.438" transform="translate(60.087 -16.884)" fill="none" stroke="#231815" stroke-linecap="round" stroke-linejoin="round" stroke-width="3.374"/><path d="M95.546,81.047a3.615,3.615,0,0,0,.127-1.472,2.3,2.3,0,0,0-.63-1.354,2.409,2.409,0,0,0-2.9-.008,3.478,3.478,0,0,0-.733,1.381,7.023,7.023,0,0,0-.544,1.469,5.553,5.553,0,0,0-.026,1.561,2.987,2.987,0,0,0,.585,1.454,1.606,1.606,0,0,0,1.379.716,5.8,5.8,0,0,0,1.358-.142,1.788,1.788,0,0,0,.911-.983,3.646,3.646,0,0,0,.508-1.258A12.91,12.91,0,0,0,95.546,81.047Z" transform="translate(60.087 -16.884)" fill="#231815"/><path d="M112.718,80.836a7.463,7.463,0,0,0-.083-1.2,3.5,3.5,0,0,0-.271-1.187,1.415,1.415,0,0,0-1-.658,2.489,2.489,0,0,0-1.383.19,2.545,2.545,0,0,0-1.117.793,4.142,4.142,0,0,0-.9,1.139,5.136,5.136,0,0,0-.215,1.449c-.029.532-.034,1.058-.053,1.545a4.956,4.956,0,0,0,.107,1.532,1.353,1.353,0,0,0,1.059.95,2.534,2.534,0,0,0,1.374.064,2.857,2.857,0,0,0,1.305-.592,3.765,3.765,0,0,0,.723-1.242,5.376,5.376,0,0,0,.457-1.352A10.381,10.381,0,0,0,112.718,80.836Z" transform="translate(60.087 -16.884)" fill="#231815"/><path d="M91.475,116.792c.581.446.524.2,1.337.622.371.19.83.35,1.35.549a14.381,14.381,0,0,0,1.38.449,13.861,13.861,0,0,0,1.41.372,14.049,14.049,0,0,0,1.441.329c.47.032.967-.058,1.475-.073.472-.013.948-.141,1.451-.2.47-.057.962-.053,1.457-.159.464-.1.915-.294,1.4-.441.454-.138.926-.256,1.4-.441.443-.173.915-.314,1.372-.532" transform="translate(60.087 -16.884)" fill="none" stroke="#231815" stroke-linecap="round" stroke-linejoin="round" stroke-width="3.374"/><path d="M99.392,88.733c-.236.67-.093.545-.331,1.386-.111.394-.377.824-.5,1.341-.1.432-.174.91-.27,1.4-.087.451-.117.933-.186,1.415-.067.464.015.951-.025,1.429s-.072.942-.075,1.416-.18.966-.135,1.431a10.087,10.087,0,0,0,.218,1.423,7.012,7.012,0,0,0,.516,1.343,4.809,4.809,0,0,0,.92,1.082" transform="translate(60.087 -16.884)" fill="none" stroke="#231815" stroke-linecap="round" stroke-linejoin="round" stroke-width="3.374"/><path d="M86.108,47.182a13.712,13.712,0,0,0,.59,1.263c.181.348.379.777.645,1.24.211.369.447.775.713,1.2.231.371.551.722.824,1.13.247.37.427.815.71,1.209.261.364.656.651.948,1.032.275.358.585.7.888,1.073.288.351.531.753.845,1.111s.582.717.907,1.063.7.606,1.037.94.674.632,1.02.954.631.682.988.992.677.638,1.045.935.784.5,1.162.785.7.615,1.087.883.858.383,1.254.637.752.544,1.158.783.746.57,1.162.792.858.363,1.282.569.822.44,1.254.629.908.234,1.348.407c.457.179.846.538,1.305.7s.954.25,1.417.4.954.24,1.42.381.919.361,1.388.489.953.249,1.425.364.987.1,1.46.2.926.4,1.4.488,1.006-.027,1.484.043c.494.072.972.189,1.451.24.5.054.977.222,1.456.253.5.032,1-.084,1.475-.077.5.007.994.065,1.467.043.508-.023.985-.17,1.452-.227.509-.063.987-.128,1.441-.231a11.3,11.3,0,0,0,1.455-.27,6.569,6.569,0,0,0,1.29-.721,4.249,4.249,0,0,0,1.048-1.026" transform="translate(60.087 -16.884)" fill="none" stroke="#231815" stroke-linecap="round" stroke-linejoin="round" stroke-width="3.374"/><path d="M83.306,52.067c-.391.627-.118.589-.619,1.357-.231.355-.647.678-.956,1.14-.254.379-.563.766-.858,1.2-.268.39-.391.907-.686,1.323-.279.394-.7.7-1,1.108s-.5.856-.8,1.25-.715.7-1.02,1.084-.573.823-.887,1.19c-.334.39-.7.729-1.02,1.074-.362.384-.65.8-.989,1.1a7.932,7.932,0,0,1-1.186.89,1.573,1.573,0,0,1-1.37.276,3.174,3.174,0,0,1-1.322-.794,4.386,4.386,0,0,1-.7-1.387,7.445,7.445,0,0,1-.429-1.5c-.112-.872.487-.944-.006-1.539-.453-.547-.192.486-.671,1.227a8.855,8.855,0,0,1-.769,1.2,11.037,11.037,0,0,1-1.009,1.012,11.88,11.88,0,0,1-1.162.829,11.871,11.871,0,0,1-1.189.8,13.678,13.678,0,0,1-1.323.548c-.422.166-.87.342-1.347.478-.437.125-.929.108-1.415.2-.447.086-.918.1-1.408.16-.453.051-.908.277-1.4.3-.459.02-.939-.028-1.432-.036-.461-.007-.939-.02-1.431-.055a7.253,7.253,0,0,1-1.438-.17,4.766,4.766,0,0,1-1.332-.6,3.946,3.946,0,0,1-1.023-1.044A4.594,4.594,0,0,1,50.5,63.37a6.954,6.954,0,0,1-.028-1.443,9.291,9.291,0,0,1-.036-1.423,13.489,13.489,0,0,1,.254-1.406c.095-.46.146-.94.283-1.4s.4-.871.564-1.32.259-.929.449-1.363.445-.859.658-1.276c.224-.443.468-.854.7-1.249.258-.439.418-.908.672-1.271a10.662,10.662,0,0,1,.894-1.123,1.563,1.563,0,0,1,1.188-.638c.3.033.5.326.437,1.16a9.111,9.111,0,0,1-.162,1.428" transform="translate(60.087 -16.884)" fill="none" stroke="#231815" stroke-linecap="round" stroke-linejoin="round" stroke-width="3.374"/><path d="M61.423,42.721c.134-.268.278-.742.56-1.328.181-.374.374-.818.62-1.3.2-.393.454-.807.7-1.26.219-.4.583-.746.839-1.182.233-.4.434-.837.7-1.26.248-.394.463-.829.739-1.24.261-.389.618-.727.905-1.128.274-.382.543-.78.842-1.169.287-.374.632-.712.942-1.09s.55-.782.872-1.149.638-.709.972-1.063.655-.694,1-1.034.611-.747.97-1.074.776-.568,1.147-.88.758-.584,1.141-.881.8-.519,1.2-.8.8-.516,1.209-.779.738-.623,1.156-.868.851-.438,1.28-.665.8-.537,1.242-.744.89-.36,1.338-.547.913-.292,1.369-.459.9-.316,1.364-.462.877-.422,1.347-.547.95-.152,1.425-.256.928-.257,1.408-.34.97,0,1.453-.067.947-.082,1.42-.131.934-.236,1.409-.273.958.083,1.434.059.947-.087,1.423-.1.951-.016,1.426-.015.956-.138,1.431-.123.954.042,1.429.069.951.078,1.425.118.955.047,1.428.1.921.313,1.392.378.939.141,1.408.219.976-.045,1.443.046.93.222,1.394.326.935.195,1.4.311.922.252,1.379.381.861.446,1.314.588.919.248,1.369.4.947.182,1.392.35.87.4,1.309.577.821.5,1.255.693.959.2,1.387.406.822.49,1.242.712.778.561,1.191.8.926.306,1.332.554.708.662,1.105.924.849.445,1.237.72.765.568,1.143.857.667.689,1.035.99.736.6,1.093.913.818.515,1.163.843.6.744.937,1.084.725.623,1.045.976.653.7.96,1.06.477.836.77,1.212.594.739.872,1.126.667.694.931,1.092.519.8.767,1.207.387.874.619,1.291.456.831.672,1.258.407.855.606,1.289.358.877.541,1.318.473.834.639,1.282.364.881.513,1.336.279.91.412,1.37.224.924.34,1.388.238.92.338,1.389.1.948.179,1.42.195.929.263,1.4.093.943.144,1.42.086.945.122,1.423.079.946.1,1.426" transform="translate(60.087 -16.884)" fill="none" stroke="#231815" stroke-linecap="round" stroke-linejoin="round" stroke-width="3.374"/><path d="M113.559,152.445c-.411.1-.791.283-1.18.359-.417.08-.829.1-1.216.154-.424.061-.75.12-1.133.151a3.919,3.919,0,0,0-.08,1.472c.04.74.224.731.264,1.471s-.157.752-.117,1.494.19.734.23,1.477.024.742.064,1.484-.07.749-.03,1.492.162.738.2,1.482.007.746.047,1.49" transform="translate(60.087 -16.884)" fill="none" stroke="#231815" stroke-linecap="round" stroke-linejoin="round" stroke-width="3.374"/><path d="M113.579,152.53c.445-.106.9-.236,1.369-.371.443-.127.887-.293,1.347-.447.438-.148.894-.281,1.345-.455.433-.166.839-.422,1.282-.613.426-.185.926-.233,1.36-.442s.818-.471,1.242-.7.821-.462,1.236-.7.761-.56,1.165-.818.858-.412,1.251-.686.692-.651,1.074-.94.782-.53,1.151-.834.785-.536,1.142-.856.654-.683,1-1.016.58-.75.909-1.1.742-.6,1.057-.957.666-.674.967-1.046.519-.793.8-1.177.506-.8.776-1.191.528-.78.783-1.185.622-.728.861-1.143.309-.907.533-1.331.417-.843.624-1.275.512-.8.7-1.239.3-.9.474-1.343.342-.878.5-1.329.376-.869.522-1.326.341-.884.472-1.345.047-.966.165-1.431.369-.883.472-1.352.152-.952.241-1.432.126-.955.2-1.437.139-.953.2-1.437.2-.947.246-1.432.153-.957.19-1.442.021-.969.047-1.455-.044-.969-.027-1.455.187-.961.194-1.447-.009-.968-.01-1.455-.177-.966-.186-1.452-.018-.966-.034-1.451.071-.973.048-1.458-.019-.925-.048-1.409c.46-.132.889-.227,1.332-.392s.864-.428,1.293-.626.859-.428,1.27-.66.864-.437,1.253-.7.686-.688,1.048-.986a13.759,13.759,0,0,0,1.066-.941,12.552,12.552,0,0,0,1.053-.976,9.757,9.757,0,0,0,.818-1.188,7.683,7.683,0,0,0,.466-1.361A6.2,6.2,0,0,0,151.1,95.9a5.59,5.59,0,0,0,.1-1.433,5.735,5.735,0,0,0-.552-1.326,4.616,4.616,0,0,0-1.672-2.283,5.01,5.01,0,0,0-1.233-.711,5.249,5.249,0,0,0-1.353-.458,6.331,6.331,0,0,0-1.425.106,8.714,8.714,0,0,0-1.442.061,10.975,10.975,0,0,0-1.327.571c-.467.192-.948.316-1.338.526a12.182,12.182,0,0,0-1.149.76c-.075-.473-.1-.906-.18-1.373s-.152-.944-.233-1.41-.265-.924-.35-1.389-.1-.954-.191-1.418-.333-.911-.424-1.373-.166-.944-.26-1.405-.1-.958-.2-1.417-.319-.913-.419-1.371c-.1-.473-.058-.97-.161-1.426-.106-.473-.351-.905-.456-1.358-.111-.475-.04-.982-.148-1.434-.114-.477-.36-.909-.471-1.357-.118-.48-.15-.964-.264-1.409-.122-.481-.349-.914-.463-1.353-.128-.487-.171-.968-.287-1.4-.135-.5-.235-.963-.351-1.379-.147-.527-.243-1-.353-1.378-.255-.881-.257-.664-.467-1.342" transform="translate(60.087 -16.884)" fill="none" stroke="#231815" stroke-linecap="round" stroke-linejoin="round" stroke-width="3.374"/><path d="M69.145,162.077a11.775,11.775,0,0,0,1.232.7c.363.158.868.18,1.373.385.4.162.806.414,1.287.6.412.159.846.348,1.317.519.423.153.871.3,1.338.464.43.147.9.227,1.367.378.435.141.873.32,1.338.463.439.134.868.347,1.333.482.443.127.892.28,1.357.407.447.121.913.208,1.379.326.45.115.942.091,1.409.2.452.107.877.368,1.345.471s.955.018,1.424.114.895.311,1.365.4.933.117,1.4.2.907.276,1.379.348.932.139,1.4.2.937.1,1.411.155.935.118,1.409.167.944-.015,1.417.025.936.082,1.409.114.934.145,1.409.168.945-.105,1.42-.091.939.145,1.414.15.943.008,1.418,0,.943-.04,1.418-.052.938-.128,1.413-.149.945.013,1.419-.018.95.039,1.424,0,.937-.135,1.41-.185.946-.05,1.418-.111.931-.167,1.4-.237.909-.292,1.377-.372.938-.111,1.4-.2.926-.176,1.391-.276.906-.268,1.368-.378.968-.017,1.428-.137.877-.374,1.334-.5.938-.162,1.392-.3.869-.385,1.32-.536.877-.349,1.325-.51.88-.337,1.324-.509.935-.2,1.374-.383.9-.318,1.331-.509.811-.5,1.242-.7.833-.448,1.26-.659.841-.429,1.263-.65" transform="translate(60.087 -16.884)" fill="none" stroke="#231815" stroke-linecap="round" stroke-linejoin="round" stroke-width="3.374"/><path d="M64.583,167.663c-.406.581-.19.475-.668,1.257-.208.339-.578.673-.849,1.148-.213.373-.43.8-.674,1.249-.209.39-.312.871-.538,1.318-.2.4-.515.777-.728,1.223-.2.41-.424.829-.627,1.275-.189.418-.325.877-.517,1.325-.181.423-.447.826-.628,1.275-.173.429-.326.879-.5,1.331-.164.433-.3.889-.46,1.344-.156.438-.312.886-.464,1.343s-.161.934-.3,1.394-.364.872-.5,1.334-.15.934-.272,1.4-.251.908-.364,1.374-.322.893-.425,1.361-.191.925-.283,1.4-.223.919-.3,1.391-.137.934-.209,1.407,0,.955-.06,1.43-.158.931-.208,1.407-.248.928-.287,1.406.137.959.109,1.437q-.041.69-.091,1.423c-.031.462-.19.927-.226,1.413-.035.463-.052.938-.091,1.422-.037.465-.01.944-.052,1.427-.039.465-.2.929-.238,1.411-.041.466-.1.938-.142,1.419s-.005.948-.05,1.428-.068.944-.114,1.423-.111.937-.157,1.415-.029.946-.075,1.423-.287.922-.333,1.4-.075.943-.122,1.42-.035.948-.082,1.425-.095.942-.142,1.419,0,.952-.047,1.429-.053.948-.1,1.424-.225.932-.271,1.408.023.956-.023,1.432-.072.948-.118,1.424-.079.947-.124,1.423-.3.923-.347,1.4.08.96.037,1.434-.165.938-.207,1.413-.168.938-.209,1.413.011.955-.03,1.43-.148.943-.187,1.418-.02.954-.058,1.429-.11.947-.147,1.422-.066.951-.1,1.427.027.958-.008,1.434-.061.952-.095,1.427-.121.949-.153,1.424-.055.954-.086,1.429-.136.949-.165,1.425-.075.952-.1,1.428-.079.956-.1,1.433.006.96-.017,1.438.079.963.058,1.44-.041.958-.059,1.435-.093.956-.11,1.433.08.961.067,1.438-.166.955-.178,1.431-.07.958-.078,1.434.034.959.029,1.434.037.958.035,1.434.086.956.088,1.431-.174.958-.168,1.432.175.953.185,1.426-.1.957-.087,1.43.016.954.034,1.426.1.95.126,1.421.084.952.113,1.422-.095.966-.06,1.437.24.938.282,1.406-.007.96.042,1.427.023.959.08,1.424.19,1.044.256,1.507c.7.249.779-.051,1.52-.006s.744,0,1.487.049.748-.036,1.492.009.732.241,1.475.286" transform="translate(60.087 -16.884)" fill="none" stroke="#231815" stroke-linecap="round" stroke-linejoin="round" stroke-width="3.374"/><path d="M64.275,191.458c-.081.711-.035.5-.137,1.425-.044.4-.236.859-.3,1.41-.046.43,0,.916-.059,1.435-.047.445-.087.922-.14,1.428-.047.452-.174.92-.226,1.42-.047.455-.1.928-.154,1.42-.047.459.087.952.037,1.442-.047.461-.126.933-.175,1.421-.047.464-.272.921-.32,1.408-.046.465.11.96.062,1.446-.045.467-.07.944-.116,1.429-.046.468-.271.926-.317,1.41s.036.957-.009,1.441c-.044.469-.248.931-.293,1.413s.125.967.081,1.449-.14.943-.184,1.425-.16.941-.2,1.422,0,.956-.045,1.438-.126.945-.168,1.426-.047.953-.089,1.434-.068.951-.109,1.431-.188.942-.228,1.422.006.958-.033,1.438-.039.95-.078,1.428-.14.943-.178,1.42,0,.955-.04,1.433-.1.947-.134,1.425-.22.939-.256,1.417.042.959.006,1.437-.2.942-.235,1.42.063.962.029,1.44,0,.957-.033,1.436-.257.939-.29,1.418.125.966.092,1.445-.072.95-.1,1.427-.119.949-.15,1.426-.173.946-.2,1.424-.037.955-.066,1.433.1.964.07,1.442-.09.954-.117,1.432-.11.953-.137,1.431-.166.951-.192,1.43,0,.96-.025,1.439.107.966.083,1.445-.145.954-.168,1.433.06.964.039,1.443-.132.956-.153,1.435-.012.961-.032,1.441-.055.96-.074,1.439.036.963.019,1.442-.208.956-.224,1.435-.07.961-.085,1.44.059.964.046,1.443-.108.96-.12,1.439.169.967.159,1.446-.144.96-.153,1.438.081.964.074,1.443,0,.962,0,1.44-.143.962-.147,1.44-.035.962-.037,1.44.015.962.015,1.44-.044.962-.042,1.439.227.96.232,1.437-.082.962-.075,1.438.034.961.044,1.436.1.959.11,1.434-.084.963-.068,1.437.022.961.041,1.434.062.96.084,1.433.074.96.1,1.433-.024.966.006,1.438.079.961.114,1.432.163.954.2,1.424.125.955.171,1.423c.048.484-.109.982-.056,1.449.055.485.172.954.233,1.419.063.484.166.953.235,1.415.073.485.065.972.145,1.432.084.482.341.919.432,1.373.1.482.067,1.015.174,1.463.5.5.514.086,1.431.283.384.083.836.239,1.377.345.418.082.9.078,1.412.171.433.078.891.206,1.39.29.44.074.908.145,1.4.222.446.07.9.231,1.389.3.451.066.93.058,1.416.124.454.061.942-.021,1.426.041.456.058.911.229,1.394.287.459.054.935.048,1.418.1.459.051.914.251,1.395.3.461.047.952-.107,1.432-.061.463.043.925.18,1.406.221.463.041.936.061,1.416.1.464.037.941.01,1.42.045s.932.148,1.411.18.937.083,1.416.111.944-.039,1.423-.014.937.1,1.415.12.937.119,1.416.138.938.1,1.417.12.943-.007,1.421.006.944-.1,1.423-.09.939.108,1.417.116.943-.069,1.421-.064.941.151,1.419.154.943-.082,1.42-.082.943-.017,1.42-.019.943-.052,1.42-.057.94.035,1.415.027.939-.075,1.414-.085.94-.045,1.415-.057.941-.02,1.417-.035.945.085,1.421.068.936-.165,1.412-.184.942-.046,1.418-.068.947.062,1.423.038.943-.053,1.418-.079.939-.125,1.415-.153.948.027,1.424,0,.935-.188,1.41-.221.945-.048,1.42-.084.94-.043,1.413-.08.934-.13,1.408-.17.955.107,1.429.065.928-.219,1.4-.262.956.07,1.43.024.941-.09,1.415-.138.936-.156,1.41-.206.934-.17,1.409-.222.947-.053,1.422-.107.941-.078,1.413-.134.936-.147,1.408-.2.933-.179,1.406-.239.962.037,1.435-.025.918-.273,1.39-.337.963.026,1.436-.041.914-.308,1.387-.377.947-.087,1.423-.158c.107-.45.207-.91.305-1.395.092-.455.178-.926.262-1.411.079-.459.236-.92.308-1.405.069-.462-.017-.958.046-1.442.06-.465.146-.936.2-1.42.052-.467.126-.94.174-1.424.046-.468.011-.951.052-1.434s.2-.935.241-1.418-.023-.953.008-1.436.086-.946.113-1.429-.02-.952,0-1.434.153-.945.172-1.427.14-.948.156-1.43-.035-.953-.022-1.435.019-.952.029-1.434-.117-.955-.11-1.436.04-.952.045-1.434.148-.952.151-1.433-.1-.954-.1-1.435-.063-.954-.064-1.435.22-.955.216-1.436-.015-.955-.02-1.435-.053-.955-.06-1.435,0-.952-.006-1.43-.1-.95-.106-1.428-.132-.95-.143-1.428.142-.957.129-1.436-.158-.949-.173-1.427-.015-.955-.031-1.433.113-.959.1-1.438-.167-.95-.185-1.428.03-.958.011-1.436.007-.958-.013-1.437-.116-.951-.137-1.429,0-.958-.02-1.436.02-.96,0-1.438-.064-.956-.088-1.435-.079-.956-.1-1.435,0-.962-.026-1.44-.121-.956-.148-1.435-.2-.951-.227-1.43.107-.968.078-1.446-.246-.946-.276-1.424.132-.971.1-1.448-.114-.955-.145-1.433-.055-.959-.087-1.437-.148-.952-.181-1.43.082-.969.048-1.446-.19-.95-.224-1.427-.089-.957-.124-1.434-.007-.963-.043-1.44-.2-.949-.237-1.425.122-.973.085-1.45-.208-.948-.246-1.424-.091-.957-.129-1.432-.082-.958-.121-1.434-.012-.963-.051-1.438-.117-.955-.156-1.43-.092-.957-.132-1.431-.089-.957-.129-1.431.067-.971.026-1.444-.056-.96-.1-1.433-.1-.956-.147-1.428-.266-.943-.309-1.414.116-.978.072-1.45-.127-.956-.171-1.428-.265-.944-.309-1.414-.016-.969-.06-1.439-.074-.963-.119-1.432c-.047-.486-.127-.959-.172-1.427-.048-.486.061-.978.015-1.444-.048-.487-.206-.952-.252-1.416-.049-.49-.171-.958-.218-1.421-.05-.491.021-.98-.026-1.44-.051-.5-.264-.957-.312-1.416-.052-.5-.056-.98-.1-1.433-.053-.506.053-1,.006-1.443-.055-.518-.154-.987-.2-1.417-.06-.55-.256-1.01-.3-1.407a6.868,6.868,0,0,1-.04-1.43" transform="translate(60.087 -16.884)" fill="none" stroke="#231815" stroke-linecap="round" stroke-linejoin="round" stroke-width="3.374"/><path d="M139.832,167.629c.407.581.1.534.581,1.316.207.339.57.675.841,1.15.213.373.47.773.714,1.226.209.39.4.826.626,1.274.2.4.391.837.605,1.283.2.411.455.814.658,1.26.189.418.4.846.589,1.294.181.423.256.9.437,1.354.173.428.328.875.5,1.326.165.434.409.848.571,1.3.156.438.244.909.4,1.365s.277.9.42,1.356.314.888.447,1.349.325.887.447,1.351.258.909.371,1.376.019.963.122,1.431.253.909.345,1.379.32.9.4,1.372.17.93.242,1.4-.005.956.056,1.431.132.936.182,1.412.173.935.212,1.412.031.948.059,1.426c.028.46-.072.943-.039,1.431.032.462.117.933.154,1.418.035.464.2.927.243,1.411.038.465.129.934.17,1.416.04.466-.072.953-.03,1.434s.142.935.186,1.416.151.935.2,1.415-.076.956-.031,1.436.1.938.146,1.416.159.933.205,1.41.1.94.148,1.417.175.934.222,1.411-.112.962-.065,1.439.237.928.284,1.405.042.948.089,1.425.065.946.112,1.423.179.936.226,1.412.09.946.135,1.422.128.942.173,1.418.08.947.125,1.423.063.946.107,1.42.069.946.112,1.42.016.952.058,1.426.13.942.171,1.417.089.946.13,1.421.161.942.2,1.417-.054.959-.016,1.435,0,.955.04,1.43.22.939.256,1.415.047.953.082,1.428.056.953.089,1.428-.019.958.013,1.434.19.944.221,1.42-.028.958,0,1.434.188.946.215,1.422-.072.964-.047,1.441.206.949.229,1.426,0,.961.019,1.438.024.959.043,1.436-.106.963-.089,1.44.18.953.194,1.43,0,.959.009,1.436-.119.961-.111,1.437.1.956.1,1.432-.03.958-.028,1.433.138.957.136,1.432-.122.955-.127,1.429-.036.955-.045,1.428-.007.955-.021,1.427.117.959.1,1.43-.06.954-.084,1.424-.147.949-.176,1.419-.076.954-.111,1.425.027.96-.014,1.427-.23.938-.279,1.4.082.97.025,1.435-.191,1.008-.257,1.47c-.7.25-.772-.124-1.513-.079s-.742.06-1.484.1-.735.188-1.479.233-.746-.006-1.49.039" transform="translate(60.087 -16.884)" fill="none" stroke="#231815" stroke-linecap="round" stroke-linejoin="round" stroke-width="3.374"/><path d="M51.053,279.669a3.96,3.96,0,0,0-.01,1.44c.059.4.21.872.3,1.41.072.436.066.926.158,1.431.083.448.34.889.439,1.379.092.454.213.918.32,1.4.1.458.153.938.269,1.411s.323.9.45,1.369.067.976.2,1.437.426.875.578,1.329.178.961.346,1.4.424.875.612,1.308c.2.451.373.9.586,1.317.226.442.466.862.712,1.256a11.774,11.774,0,0,0,.84,1.172,7.969,7.969,0,0,0,.96,1.08,4.841,4.841,0,0,0,1.27.679" transform="translate(60.087 -16.884)" fill="none" stroke="#231815" stroke-linecap="round" stroke-linejoin="round" stroke-width="3.374"/><path d="M150.893,279.894c-.037.71.05.523-.035,1.419-.038.4-.119.872-.183,1.411-.052.432-.1.9-.174,1.409-.063.444-.087.92-.167,1.411-.074.45-.237.9-.327,1.385-.085.454-.059.943-.159,1.42-.1.454-.266.9-.377,1.374q-.162.681-.346,1.379c-.121.454-.259.907-.4,1.366s-.128.954-.278,1.407-.447.85-.613,1.3-.379.87-.562,1.308-.285.913-.487,1.341-.5.812-.726,1.228" transform="translate(60.087 -16.884)" fill="none" stroke="#231815" stroke-linecap="round" stroke-linejoin="round" stroke-width="3.374"/></g></svg>