<svg xmlns="http://www.w3.org/2000/svg" xmlns:xlink="http://www.w3.org/1999/xlink" width="258.137" height="308.844" viewBox="0 0 258.137 308.844"><defs><clipPath id="a" transform="translate(-17.692)"><circle cx="127" cy="159.285" r="127" fill="none"/></clipPath><clipPath id="b" transform="translate(-17.692)"><path d="M55,264.285s4-24,16-27,31-6,31-6,6,37,8,43c2.852-.069,16.981,6.278,24-2,7.825-9.229,11.557-42.175,14-42,14,1,36,6,39,7s11,5,15,12,7,21,7,21l.724,24.029-155-4Z" fill="none"/></clipPath></defs><g clip-path="url(#a)"><path d="M71.267,144.38s-4.78-2.868-6.692-1.912-6.692,4.78-6.692,3.824-3.824-12.428-3.824-12.428-6.692-10.516-6.692-12.428-1.912-35.372,14.34-47.8S91.343,44,138.187,52.6c0,0,14.34-7.648,36.328,8.6s19.12,44.932,19.12,44.932.956,13.384-4.78,21.032-10.516,8.6-10.516,8.6l-6.692,1.912s-15.3-19.12-20.076-24.856-21.988-17.208-28.68-17.208l14.34,19.12s-11.472,4.78-33.46-15.3c0,0-22.944,7.648-27.724,21.032A78.6,78.6,0,0,0,71.267,144.38Z" transform="translate(-17.692)" fill="#3b2d28"/><g clip-path="url(#b)"><line x1="65.308" y1="216.285" x2="3.308" y2="308.285" fill="none" stroke="#ffe200" stroke-miterlimit="10" stroke-width="2"/><line x1="77.308" y1="216.285" x2="15.308" y2="308.285" fill="none" stroke="#ffe200" stroke-miterlimit="10" stroke-width="2"/><line x1="89.308" y1="216.285" x2="27.308" y2="308.285" fill="none" stroke="#ffe200" stroke-miterlimit="10" stroke-width="2"/><line x1="101.308" y1="216.285" x2="39.308" y2="308.285" fill="none" stroke="#ffe200" stroke-miterlimit="10" stroke-width="2"/><line x1="113.308" y1="216.285" x2="51.308" y2="308.285" fill="none" stroke="#ffe200" stroke-miterlimit="10" stroke-width="2"/><line x1="125.308" y1="216.285" x2="63.308" y2="308.285" fill="none" stroke="#ffe200" stroke-miterlimit="10" stroke-width="2"/><line x1="137.308" y1="216.285" x2="75.308" y2="308.285" fill="none" stroke="#ffe200" stroke-miterlimit="10" stroke-width="2"/><line x1="149.308" y1="216.285" x2="87.308" y2="308.285" fill="none" stroke="#ffe200" stroke-miterlimit="10" stroke-width="2"/><line x1="161.308" y1="216.285" x2="99.308" y2="308.285" fill="none" stroke="#ffe200" stroke-miterlimit="10" stroke-width="2"/><line x1="173.308" y1="216.285" x2="111.308" y2="308.285" fill="none" stroke="#ffe200" stroke-miterlimit="10" stroke-width="2"/><line x1="185.308" y1="216.285" x2="123.308" y2="308.285" fill="none" stroke="#ffe200" stroke-miterlimit="10" stroke-width="2"/><line x1="197.308" y1="216.285" x2="135.308" y2="308.285" fill="none" stroke="#ffe200" stroke-miterlimit="10" stroke-width="2"/><line x1="209.308" y1="216.285" x2="147.308" y2="308.285" fill="none" stroke="#ffe200" stroke-miterlimit="10" stroke-width="2"/><line x1="221.308" y1="216.285" x2="159.308" y2="308.285" fill="none" stroke="#ffe200" stroke-miterlimit="10" stroke-width="2"/><line x1="233.308" y1="216.285" x2="171.308" y2="308.285" fill="none" stroke="#ffe200" stroke-miterlimit="10" stroke-width="2"/><line x1="245.308" y1="216.285" x2="183.308" y2="308.285" fill="none" stroke="#ffe200" stroke-miterlimit="10" stroke-width="2"/><line x1="257.308" y1="216.285" x2="195.308" y2="308.285" fill="none" stroke="#ffe200" stroke-miterlimit="10" stroke-width="2"/></g><path d="M70.981,143.915c-.023.588-.074,1.178-.088,1.773s-.071,1.18-.076,1.774.112,1.182.115,1.776-.146,1.184-.134,1.777.2,1.177.222,1.77.059,1.18.088,1.773-.093,1.189-.055,1.781.176,1.174.222,1.765.113,1.176.168,1.766-.027,1.192.037,1.781.288,1.158.361,1.746.212,1.165.293,1.751.183,1.168.274,1.753.134,1.177.234,1.76.139,1.178.249,1.759.137,1.182.257,1.761.225,1.166.356,1.742.258,1.159.4,1.733.515,1.092.666,1.664.095,1.2.257,1.771.381,1.126.555,1.69.488,1.088.674,1.649.341,1.135.539,1.691.268,1.165.479,1.716.576,1.049.8,1.594.4,1.117.642,1.657.359,1.142.611,1.675.756.951,1.023,1.478.328,1.168.61,1.685.747.942,1.045,1.451.475,1.1.789,1.6.77.915,1.1,1.4.519,1.086.868,1.562.813.874,1.179,1.336.827.851,1.212,1.3.587,1.067.991,1.5.953.728,1.375,1.141.882.787,1.323,1.179.847.829,1.307,1.2.949.7,1.428,1.054.862.838,1.357,1.161,1.075.517,1.587.814,1.01.618,1.538.889,1.11.414,1.652.656,1.075.48,1.631.692,1.1.43,1.663.613,1.112.389,1.688.543,1.142.291,1.725.414,1.174.113,1.764.207,1.153.233,1.748.3,1.167.13,1.764.168,1.176.013,1.776.025,1.2.091,1.8.077c.318.841.065.905.1,1.8s.008.9.045,1.8.107.9.144,1.793.031.9.068,1.8.036.9.073,1.8-.058.9-.021,1.8-.091.907-.054,1.808.2.9.233,1.8" transform="translate(-17.692)" fill="none" stroke="#231815" stroke-linecap="round" stroke-linejoin="round" stroke-width="4.217"/><path d="M117.121,144.208c.123-.914.342-.887.213-1.832a2.746,2.746,0,0,0-.891-1.58,2.415,2.415,0,0,0-1.648-.649,2.592,2.592,0,0,0-1.835.572,4.227,4.227,0,0,0-1.065,1.634,8.922,8.922,0,0,0-.667,1.866,8,8,0,0,0-.094,1.987,4.064,4.064,0,0,0,.774,1.889,2.16,2.16,0,0,0,1.84.822,6.934,6.934,0,0,0,1.623-.407,1.9,1.9,0,0,0,1.211-1.017,4.718,4.718,0,0,0,.543-1.585A15.071,15.071,0,0,0,117.121,144.208Z" transform="translate(-17.692)" fill="#231815"/><path d="M138.62,143.951a6.129,6.129,0,0,0,.015-1.515,4.264,4.264,0,0,0-.586-1.381,1.645,1.645,0,0,0-1.085-.946,3.426,3.426,0,0,0-1.8.089,3.6,3.6,0,0,0-1.507,1.026,5.278,5.278,0,0,0-.825,1.619,6.3,6.3,0,0,0-.415,1.764c-.036.664.032,1.323.009,1.932a6.279,6.279,0,0,0,.087,1.909,1.694,1.694,0,0,0,1.311,1.21,3.179,3.179,0,0,0,1.751.175,3.784,3.784,0,0,0,1.42-1.042,4.064,4.064,0,0,0,1.189-1.316,8.158,8.158,0,0,0,.3-1.761A11.277,11.277,0,0,0,138.62,143.951Z" transform="translate(-17.692)" fill="#231815"/><path d="M143.021,213.122c-.512.123-1.015.2-1.5.3-.521.1-1.021.179-1.5.248-.531.077-1.007.246-1.486.285a4.969,4.969,0,0,0,.012,1.855c.05.926.244.915.294,1.841s.024.929.074,1.856-.067.934-.017,1.862.2.919.253,1.845-.141.94-.091,1.869.228.92.278,1.851-.182.943-.132,1.873" transform="translate(-17.692)" fill="none" stroke="#231815" stroke-linecap="round" stroke-linejoin="round" stroke-width="4.217"/><path d="M143.05,213.244c.58-.139,1.157-.3,1.734-.455s1.139-.355,1.709-.536,1.145-.338,1.708-.545,1.073-.521,1.626-.757,1.173-.3,1.714-.563,1.026-.609,1.552-.907,1.017-.614,1.526-.942c.493-.318.921-.748,1.412-1.1.473-.345,1.041-.587,1.512-.972.453-.37.8-.881,1.251-1.291.432-.393.915-.749,1.345-1.18.412-.413.911-.764,1.32-1.214.393-.431.727-.935,1.118-1.4.374-.447.625-1.009,1-1.49.358-.462.849-.838,1.2-1.333.341-.475.75-.921,1.09-1.427.326-.486.563-1.047.888-1.563.312-.5.558-1.045.869-1.57.3-.5.6-1.018.9-1.549.286-.511.735-.947,1.02-1.484.274-.517.353-1.15.626-1.692.265-.524.511-1.067.775-1.615.255-.53.648-1.006.9-1.559.246-.534.4-1.119.645-1.675.238-.54.478-1.088.716-1.648.229-.544.539-1.065.768-1.628.22-.541.5-1.1.707-1.7.187-.561.111-1.226.282-1.836.16-.573.494-1.118.64-1.728.14-.583.214-1.2.341-1.806.123-.591.187-1.2.3-1.815.108-.6.207-1.2.3-1.813s.286-1.194.366-1.806.233-1.209.3-1.82.072-1.23.127-1.841-.008-1.236.034-1.846.278-1.221.308-1.83.028-1.238.044-1.845c.017-.624-.189-1.243-.187-1.848,0-.626,0-1.237-.019-1.836-.017-.63.083-1.223.047-1.816.576-.165,1.143-.287,1.7-.494s1.135-.408,1.671-.656,1.036-.617,1.55-.906,1.029-.62,1.514-.95c.5-.34,1.03-.637,1.482-1.008a17.13,17.13,0,0,0,1.183-1.352,14.659,14.659,0,0,0,1.191-1.315A12.78,12.78,0,0,0,189,145.886a9.934,9.934,0,0,0,.766-1.635,7.913,7.913,0,0,0,.224-1.786,6.748,6.748,0,0,0-.091-1.765,6.825,6.825,0,0,0-.342-1.764,8.438,8.438,0,0,0-1.074-1.443,8.156,8.156,0,0,0-1.145-1.377,6.3,6.3,0,0,0-3.28-1.328,7.887,7.887,0,0,0-1.783-.129,10.547,10.547,0,0,0-1.723.483,15.1,15.1,0,0,0-1.774.344,16.048,16.048,0,0,0-1.562.9c-.61.327-1.2.546-1.6.811" transform="translate(-17.692)" fill="none" stroke="#231815" stroke-linecap="round" stroke-linejoin="round" stroke-width="4.217"/><path d="M84.487,98.383c-7.508,3.735-10.014,13.085-11.2,21.388a205.115,205.115,0,0,0-2.04,31.243" transform="translate(-17.692)" fill="none" stroke="#231815" stroke-linecap="round" stroke-linejoin="round" stroke-width="4.217"/><path d="M66.56,142.793c-2.624-1.6-6.261-.456-8.255,1.88s-2.65,5.533-2.809,8.6a10.445,10.445,0,0,0,1.094,6.031c2.186,3.571,7.129,3.96,11.317,3.95" transform="translate(-17.692)" fill="none" stroke="#231815" stroke-linecap="round" stroke-linejoin="round" stroke-width="4.217"/><path d="M55.48,264.088l4.631-13.269a29.686,29.686,0,0,1,4.063-8.565c2.793-3.615,7.112-5.747,11.493-7.041a84.267,84.267,0,0,1,14.523-2.5l20.332-2.282" transform="translate(-17.692)" fill="none" stroke="#231815" stroke-linecap="round" stroke-linejoin="round" stroke-width="4.217"/><path d="M139.917,229.2l15.659,1.585" transform="translate(-17.692)" fill="none" stroke="#231815" stroke-linecap="round" stroke-linejoin="round" stroke-width="4.217"/><path d="M102.476,93.607a58.185,58.185,0,0,0,38.975,21.718L125.335,93.2A72.385,72.385,0,0,1,171,135.423" transform="translate(-17.692)" fill="none" stroke="#231815" stroke-linecap="round" stroke-linejoin="round" stroke-width="4.217"/><path d="M94.514,101.545a55.3,55.3,0,0,0-23.709,31.871" transform="translate(-17.692)" fill="none" stroke="#231815" stroke-linecap="round" stroke-linejoin="round" stroke-width="4.217"/><path d="M132.825,47.272a69.336,69.336,0,0,0-86.441,77.6" transform="translate(-17.692)" fill="none" stroke="#231815" stroke-linecap="round" stroke-linejoin="round" stroke-width="4.217"/><path d="M52.093,132.115l2.838,9.739" transform="translate(-17.692)" fill="none" stroke="#231815" stroke-linecap="round" stroke-linejoin="round" stroke-width="4.217"/><path d="M147.738,46.372C167.023,45.1,186.491,57,194.164,74.736c5.514,12.751,5.147,27.193,4.169,41.051" transform="translate(-17.692)" fill="none" stroke="#231815" stroke-linecap="round" stroke-linejoin="round" stroke-width="4.217"/><path d="M186.9,134.619l8.432-9.21" transform="translate(-17.692)" fill="none" stroke="#231815" stroke-linecap="round" stroke-linejoin="round" stroke-width="4.217"/><path d="M113.688,127.407a32.246,32.246,0,0,1-13.045,6.479" transform="translate(-17.692)" fill="none" stroke="#231815" stroke-linecap="round" stroke-linejoin="round" stroke-width="4.217"/><path d="M124.858,162.121v1.307" transform="translate(-17.692)" fill="none" stroke="#231815" stroke-linecap="round" stroke-linejoin="round" stroke-width="4.217"/><path d="M118.8,184.709a9.688,9.688,0,0,1,13.859-.969" transform="translate(-17.692)" fill="none" stroke="#231815" stroke-linecap="round" stroke-linejoin="round" stroke-width="4.217"/><path d="M164.214,232.855c7.092-.229,14.022,1.911,20.795,4.029,4.77,1.492,9.774,3.129,13.148,6.816,2.428,2.653,3.757,6.107,4.975,9.491q2.867,7.962,5.312,16.068" transform="translate(-17.692)" fill="none" stroke="#231815" stroke-linecap="round" stroke-linejoin="round" stroke-width="4.217"/><path d="M147.91,231.3q-6.946,16.314-12.507,33.172" transform="translate(-17.692)" fill="none" stroke="#231815" stroke-linecap="round" stroke-linejoin="round" stroke-width="4.217"/><path d="M101.786,231.654q3.7,16.555,7.017,33.195" transform="translate(-17.692)" fill="none" stroke="#231815" stroke-linecap="round" stroke-linejoin="round" stroke-width="4.217"/><path d="M167.414,235.42l-3.38,13.969a117.876,117.876,0,0,1-15.4,1.8q5.071,4.109,10.361,7.938a32.736,32.736,0,0,0-11.665,9.113" transform="translate(-17.692)" fill="none" stroke="#231815" stroke-linecap="round" stroke-linejoin="round" stroke-width="4.217"/><path d="M83.473,233.148l2.064,15.612a97.263,97.263,0,0,1,11.73-.132,49.684,49.684,0,0,0-8.064,8.358,95.7,95.7,0,0,1,9.515,8.332" transform="translate(-17.692)" fill="none" stroke="#231815" stroke-linecap="round" stroke-linejoin="round" stroke-width="4.217"/></g><path d="M34.532,13.875l-4.7,3.389A13.529,13.529,0,0,1,34.221,4.487c2.018-1.715,4.753-2.822,7.329-2.207C46.269,3.406,47.934,9.2,48.4,14.024a15.253,15.253,0,0,1-.311,6.162,5.743,5.743,0,0,1-4.266,4.077,2.38,2.38,0,0,1-1.683-.281A3,3,0,0,1,41.1,21.943a9.723,9.723,0,0,1,.631-6.2,5.467,5.467,0,0,1,5.106-3.1c2.377.225,4.21,2.45,4.623,4.8A11.667,11.667,0,0,1,50.1,24.366a13.148,13.148,0,0,1-4.8,5.818,6.725,6.725,0,0,1-7.227.031,6.019,6.019,0,0,1-2.186-5.89A7.842,7.842,0,0,1,39.7,19.157a2.368,2.368,0,0,1,1.6-.422c.8.158,1.273.975,1.578,1.731a15.355,15.355,0,0,1-2,14.779c-1.765,2.307-4.445,4.157-7.347,4.028-2.59-.115-4.835-1.738-6.907-3.3-2.189-1.645-4.439-3.359-5.782-5.745s-1.538-5.643.283-7.687a8.947,8.947,0,0,1,4.24-2.292,42.143,42.143,0,0,1,6.582-1.427c2.024-.272,4.329-.311,5.822,1.083,2.475,2.311.335,7.042-3,7.635s-6.58-1.856-8.16-4.852a10.135,10.135,0,0,1-.3-9.394c1.56-2.867,5.237-4.6,8.285-3.432,2.171.832,3.653,2.864,4.672,4.954a22.163,22.163,0,0,1,2.171,7.987c.131,1.705-.38,3.946-2.082,4.119-1.723.176-2.687-2.292-1.828-3.8s2.663-2.15,4.332-2.614c2.916-.811,6.742-1.088,8.274,1.523a5.855,5.855,0,0,1,.607,3.246,14.511,14.511,0,0,1-5.856,10.894c-.786.573-1.964,1.034-2.643.338a1.779,1.779,0,0,1-.4-1.277c.045-3.8,4.584-5.647,8.288-6.515a10.484,10.484,0,0,1,1.433,6.88" transform="translate(-17.692)" fill="none" stroke="#231815" stroke-linecap="round" stroke-linejoin="round" stroke-width="4.217"/></svg>