<svg xmlns="http://www.w3.org/2000/svg" xmlns:xlink="http://www.w3.org/1999/xlink" width="132.713" height="206.131" viewBox="0 0 132.713 206.131"><defs><clipPath id="a" transform="translate(-31.666 -13.069)"><circle cx="101.6" cy="101.6" r="101.6" fill="none"/></clipPath></defs><g clip-path="url(#a)"><path d="M73.6,212c.8-2.4-1.442-21.288-1.442-21.288s-.279-3.521,4.982-4.317,35.533-1.992,35.533-1.992,7.149-3.763,7.638,4.317S123.2,216.8,123.2,216.8l-52.8,2.4Z" transform="translate(-31.666 -13.069)" fill="#ffe200"/><path d="M51.066,95.7c-.018.47-.024.943-.035,1.417s.085.945.08,1.42.06.942.063,1.417.034.942.043,1.416-.124.948-.108,1.422.149.939.172,1.413-.016.947.014,1.42.1.941.137,1.414-.047.954,0,1.426.09.943.141,1.415.3.918.356,1.389-.087.967-.022,1.436.358.905.431,1.373-.03.965.05,1.431.3.91.387,1.375.166.933.262,1.4.034.964.139,1.425.3.906.409,1.366.309.9.43,1.357.16.939.29,1.394.321.894.461,1.346.232.922.381,1.37.24.923.4,1.368.38.873.548,1.314.4.861.582,1.3.327.893.517,1.325.354.883.556,1.31.46.832.673,1.253.491.814.717,1.229.351.892.589,1.3.594.751.846,1.15.5.805.765,1.2.592.741.871,1.121.4.892.69,1.261.686.667.994,1.024.551.783.874,1.127.787.557,1.125.887.687.647,1.04.962.721.606,1.089.9.73.6,1.112.876.767.548,1.163.807.787.519,1.2.758.82.461,1.243.677.772.579,1.206.773.92.25,1.365.42.867.38,1.32.527.919.215,1.38.338.905.259,1.372.357.918.222,1.39.3.939.089,1.415.142.931.161,1.409.192.945-.04,1.425-.031.837.095,1.317.084a2.942,2.942,0,0,1,.175,1.4c.03.718-.056.722-.027,1.439s.152.714.182,1.432-.066.724-.037,1.443.164.713.193,1.431-.007.722.022,1.442-.1.727-.074,1.448.016.722.046,1.443" transform="translate(-31.666 -13.069)" fill="none" stroke="#231815" stroke-linecap="round" stroke-linejoin="round" stroke-width="3.374"/><path d="M88.248,95.959a3.656,3.656,0,0,0-.063-1.475,2.1,2.1,0,0,0-.628-1.278,1.973,1.973,0,0,0-1.317-.619,2.09,2.09,0,0,0-1.441.6,3.292,3.292,0,0,0-.85,1.284,7.135,7.135,0,0,0-.561,1.48,4.73,4.73,0,0,0,.075,1.568,2.918,2.918,0,0,0,.593,1.427A1.57,1.57,0,0,0,85.4,99.7a5.56,5.56,0,0,0,1.3-.309,1.578,1.578,0,0,0,1.035-.785,4.027,4.027,0,0,0,.4-1.3A9.637,9.637,0,0,0,88.248,95.959Z" transform="translate(-31.666 -13.069)" fill="#231815"/><path d="M105.367,95.733c0-.133-.058-.632-.147-1.2a3.256,3.256,0,0,0-.391-1.114,1.183,1.183,0,0,0-.882-.635,2.481,2.481,0,0,0-1.373.067,2.591,2.591,0,0,0-1.131.8,4.148,4.148,0,0,0-.882,1.157,5.074,5.074,0,0,0-.139,1.454c-.03.532-.122,1.053-.141,1.541a5.245,5.245,0,0,0,.049,1.553,1.452,1.452,0,0,0,1.123.958,2.571,2.571,0,0,0,1.409.138,3.06,3.06,0,0,0,1.14-.84,3.235,3.235,0,0,0,.878-1.089,6.17,6.17,0,0,0,.262-1.388A8.191,8.191,0,0,0,105.367,95.733Z" transform="translate(-31.666 -13.069)" fill="#231815"/><path d="M108.827,151.112c-.411.1-.817.156-1.206.231-.417.081-.812.185-1.2.24-.424.061-.914.1-1.3.13-.145.728.176.756.216,1.5s.026.742.066,1.482.09.739.131,1.481.045.742.085,1.484-.123.751-.083,1.492.1.74.141,1.483.039.744.079,1.489.075.742.115,1.486" transform="translate(-31.666 -13.069)" fill="none" stroke="#231815" stroke-linecap="round" stroke-linejoin="round" stroke-width="3.374"/><path d="M108.824,151.1c.464-.111.925-.231,1.386-.357s.93-.217,1.387-.362.905-.3,1.356-.463.867-.393,1.309-.582.93-.255,1.363-.468.79-.54,1.211-.778.782-.532,1.189-.795.906-.353,1.3-.639c.378-.276.74-.6,1.117-.905.362-.3.726-.612,1.087-.939.345-.314.666-.671,1.01-1.016.33-.33.664-.672.992-1.032s.624-.71.936-1.083.5-.81.8-1.2c.286-.369.672-.675.956-1.071.273-.38.421-.857.693-1.262.26-.389.654-.7.914-1.115.249-.4.5-.805.75-1.225.238-.4.426-.846.664-1.27.229-.409.5-.8.732-1.233.22-.414.438-.84.657-1.274.212-.419.4-.859.614-1.3s.289-.912.492-1.355c.2-.427.5-.816.691-1.261s.3-.906.488-1.355.527-.812.711-1.263c.175-.432.337-.9.5-1.388.149-.449.265-.93.4-1.418.128-.458.206-.946.323-1.434.112-.466.333-.921.435-1.41.1-.473.184-.959.272-1.449s.165-.963.241-1.452.14-.971.205-1.46-.013-.991.041-1.48.1-.978.146-1.467.112-.979.146-1.467.17-.982.194-1.47.019-.99.032-1.475c.013-.5-.087-.994-.086-1.477,0-.5.032-.992.019-1.471-.013-.5-.063-1.013-.092-1.487.46-.132.951-.231,1.395-.4s.912-.31,1.341-.508.848-.458,1.259-.69.827-.5,1.216-.76.814-.526,1.176-.824a13.5,13.5,0,0,0,.966-1.063,11.666,11.666,0,0,0,.932-1.071,10.2,10.2,0,0,0,.918-1.107,7.844,7.844,0,0,0,.571-1.322,6.344,6.344,0,0,0,.25-1.412,5.629,5.629,0,0,0,.056-1.442,5.827,5.827,0,0,0-.616-1.3,6.076,6.076,0,0,0-.614-1.285,6.175,6.175,0,0,0-1.009-1.02,4.27,4.27,0,0,0-2.585-1.189,6.373,6.373,0,0,0-1.431.089,8.354,8.354,0,0,0-1.409.207,11.016,11.016,0,0,0-1.356.461c-.467.193-.946.321-1.336.531a14.139,14.139,0,0,0-1.205.776" transform="translate(-31.666 -13.069)" fill="none" stroke="#231815" stroke-linecap="round" stroke-linejoin="round" stroke-width="3.374"/><path d="M61.989,59.278c-6.006,2.989-8.011,10.469-8.958,17.11A163.922,163.922,0,0,0,51.4,101.383" transform="translate(-31.666 -13.069)" fill="none" stroke="#231815" stroke-linecap="round" stroke-linejoin="round" stroke-width="3.374"/><path d="M99.2,51.781C92.181,70.43,72.9,83.751,52.976,83.718" transform="translate(-31.666 -13.069)" fill="none" stroke="#231815" stroke-linecap="round" stroke-linejoin="round" stroke-width="3.374"/><path d="M103.575,62.276l10.491,11.641c4.8,5.328,10.228,11,17.342,11.911" transform="translate(-31.666 -13.069)" fill="none" stroke="#231815" stroke-linecap="round" stroke-linejoin="round" stroke-width="3.374"/><path d="M85.023,56.009A38.975,38.975,0,0,1,61.352,69.54" transform="translate(-31.666 -13.069)" fill="none" stroke="#231815" stroke-linecap="round" stroke-linejoin="round" stroke-width="3.374"/><path d="M50.251,104.5C44,99.614,40.179,92.1,38.525,84.343s-1.313-15.809-.446-23.7c.786-7.137,2.038-14.361,5.328-20.744,5.705-11.068,17.411-18.542,29.77-20.074,2.913-.361,5.864-.42,8.751-.953,2.765-.51,5.431-1.446,8.145-2.18a57.082,57.082,0,0,1,69.366,38,78.37,78.37,0,0,1,3.2,21.115c.307,10.049-.691,20.42-5.282,29.364S144.026,121.4,134,122.081" transform="translate(-31.666 -13.069)" fill="none" stroke="#231815" stroke-linecap="round" stroke-linejoin="round" stroke-width="3.374"/><path d="M88.023,116.548a4.535,4.535,0,0,1,6.286-2.134" transform="translate(-31.666 -13.069)" fill="none" stroke="#231815" stroke-linecap="round" stroke-linejoin="round" stroke-width="3.374"/><path d="M91.136,137.92a4.892,4.892,0,0,1-5.885-2.588,6.69,6.69,0,0,1,.891-6.675A10.77,10.77,0,0,1,92,124.93a11.089,11.089,0,0,1,9.075,1.07c2.607,1.754,4.073,5.324,2.848,8.219a7.825,7.825,0,0,1-5.812,4.227,23.153,23.153,0,0,1-7.444-.146" transform="translate(-31.666 -13.069)" fill="none" stroke="#231815" stroke-linecap="round" stroke-linejoin="round" stroke-width="3.374"/><path d="M33.353,201.213q1.176-7.008,3.047-13.875c1.073-3.937,2.4-7.983,5.245-10.913a23.021,23.021,0,0,1,8-4.853A84.106,84.106,0,0,1,79.611,165.3" transform="translate(-31.666 -13.069)" fill="none" stroke="#231815" stroke-linecap="round" stroke-linejoin="round" stroke-width="3.374"/><path d="M108.917,164.435l19.341.722c6.924.259,14.383.709,19.766,5.072a22.172,22.172,0,0,1,4.674,5.486,35.413,35.413,0,0,1,5.38,20.307" transform="translate(-31.666 -13.069)" fill="none" stroke="#231815" stroke-linecap="round" stroke-linejoin="round" stroke-width="3.374"/><path d="M69.273,165.735c5.055,12.3,3.413,34.682,5.127,47.865" transform="translate(-31.666 -13.069)" fill="none" stroke="#231815" stroke-linecap="round" stroke-linejoin="round" stroke-width="3.374"/><path d="M122.8,164.2c-2.289,4.093-2.615,8.968-2.7,13.656-.149,8.27.293,16.537.734,24.795.2-.287-1.032,11.232-.829,10.945" transform="translate(-31.666 -13.069)" fill="none" stroke="#231815" stroke-linecap="round" stroke-linejoin="round" stroke-width="3.374"/><path d="M72.549,186.4q23.647-1.669,47.373-1.741" transform="translate(-31.666 -13.069)" fill="none" stroke="#231815" stroke-linecap="round" stroke-linejoin="round" stroke-width="3.374"/></g></svg>