<svg xmlns="http://www.w3.org/2000/svg" xmlns:xlink="http://www.w3.org/1999/xlink" width="247.768" height="296.001" viewBox="0 0 247.768 296.001"><defs><clipPath id="a" transform="translate(-0.232)"><circle cx="144.5" cy="147.893" r="144.5" fill="none"/></clipPath><clipPath id="b" transform="translate(-0.232)"><path d="M54,296.393s-.871-29,8.065-33.5,11.791-8.306,19.863-8.4a102.779,102.779,0,0,0,15.662-1.528,66.01,66.01,0,0,0,7.639,6.112c4.771,3.318,20.988,13.42,34.379,13.369s36.3-6.048,39.345-9.55,7.047-9.5,18.047-10.5,23.528,2.363,26.264,6.682S236,273.393,228,301.393Z" fill="none"/></clipPath></defs><g clip-path="url(#a)"><path d="M117.3,236.625s-40.413,2.823-51.089-10.772S55.944,190.821,58.546,180.1s9.494-47.747,10.727-52.143,14.057-51.6,40.866-54.8S157.781,70.6,174.5,79.534s33.1,34.732,34.736,45.226,7.254,39.735,5.383,60.205c0,0-9,54.152-17.132,56.318s-27.788,5.09-33.4,4.115-26.2-3.9-26.2-3.9Z" transform="translate(-0.232)" fill="#3b2d28"/><path d="M115.9,100.132s13.862-7.545,23.981-1.142,22.741,7.626,28.93,43.015c0,0,9.457,34.311,13.323,40.349A46.091,46.091,0,0,0,191,192.393s-12.423,28.474-23.712,33.737S152,232.393,152,232.393l2,25-25-1-1-23s-19.46,1.009-29.23-14.5-18.876-21.726-13.323-66.616S103,112.393,103,112.393Z" transform="translate(-0.232)" fill="#fff"/><g clip-path="url(#b)"><line x1="40.768" y1="267.393" x2="247.768" y2="267.393" fill="none" stroke="#ffe200" stroke-miterlimit="10" stroke-width="3"/><line x1="40.768" y1="277.893" x2="247.768" y2="277.893" fill="none" stroke="#ffe200" stroke-miterlimit="10" stroke-width="3"/><line x1="40.768" y1="288.393" x2="247.768" y2="288.393" fill="none" stroke="#ffe200" stroke-miterlimit="10" stroke-width="3"/></g><path d="M84.074,162.026c-.023.589-.1,1.177-.111,1.772s-.113,1.179-.118,1.773-.009,1.182-.006,1.776.2,1.178.21,1.771-.082,1.184-.061,1.777.122,1.177.151,1.769-.129,1.192-.091,1.783.036,1.185.082,1.776.278,1.164.333,1.753-.071,1.2-.008,1.786.19,1.171.262,1.758.151,1.176.233,1.762.35,1.145.441,1.73.178,1.169.278,1.752.184,1.169.294,1.751.273,1.152.393,1.731,0,1.213.127,1.79.261,1.159.4,1.733.542,1.085.694,1.657.267,1.154.429,1.722.355,1.129.529,1.694.34,1.133.526,1.694.157,1.2.355,1.756.459,1.1.67,1.648.6,1.039.822,1.585.395,1.119.632,1.659.329,1.156.58,1.689.764.948,1.03,1.474.462,1.095.744,1.613.439,1.116.737,1.625.821.89,1.136,1.389.446,1.125.777,1.613.783.9,1.132,1.377.7.958,1.065,1.42.619,1.03,1,1.477.8.884,1.2,1.314.968.713,1.39,1.125.758.924,1.2,1.317.968.691,1.428,1.062.946.706,1.425,1.054.849.855,1.345,1.178,1.019.613,1.531.91,1.118.421,1.646.691,1.055.52,1.6.762,1.029.6,1.585.811,1.112.405,1.678.588,1.124.366,1.7.519,1.138.328,1.721.451,1.186.073,1.776.168,1.17.117,1.764.183,1.165.129,1.762.167,1.172.1,1.772.114c.585.012,1.241.034,1.841.021.318.841-.077.924-.04,1.823s.085.9.121,1.792,0,.9.034,1.8.025.9.062,1.8.054.9.091,1.795-.067.9-.029,1.805.3.89.337,1.792-.175.91-.138,1.811" transform="translate(-0.232)" fill="none" stroke="#231815" stroke-linecap="round" stroke-linejoin="round" stroke-width="4.217"/><path d="M130.231,162.331a4.515,4.515,0,0,0,.052-1.84,2.858,2.858,0,0,0-.719-1.716,2.742,2.742,0,0,0-1.768-.555,2.6,2.6,0,0,0-1.83.614,4.224,4.224,0,0,0-1.1,1.616,8.334,8.334,0,0,0-.386,1.92,9.929,9.929,0,0,0-.226,1.929,3.816,3.816,0,0,0,.726,1.844,2.086,2.086,0,0,0,1.766.9,7.271,7.271,0,0,0,1.7-.189,2.281,2.281,0,0,0,1.153-1.242,4.856,4.856,0,0,0,.5-1.6A12.263,12.263,0,0,0,130.231,162.331Z" transform="translate(-0.232)" fill="#231815"/><path d="M151.76,162.059c0-.165-.084-.8-.195-1.5a4.186,4.186,0,0,0-.489-1.408,1.533,1.533,0,0,0-1.139-.789,3.381,3.381,0,0,0-1.771-.041,3.468,3.468,0,0,0-1.408,1.1,5.015,5.015,0,0,0-.846,1.564,6.185,6.185,0,0,0-.438,1.737c-.037.663-.058,1.318-.081,1.927a5.751,5.751,0,0,0,.23,1.877,1.55,1.55,0,0,0,1.212,1.2,3.153,3.153,0,0,0,1.685.016,3.409,3.409,0,0,0,1.612-.692,4.516,4.516,0,0,0,.945-1.508,7.241,7.241,0,0,0,.406-1.716A10.321,10.321,0,0,0,151.76,162.059Z" transform="translate(-0.232)" fill="#231815"/><path d="M156.027,231.254c-.513.122-.986.36-1.471.454-.521.1-1.029.182-1.514.251-.531.077-1.007.067-1.487.1a4.973,4.973,0,0,0-.058,1.853c.05.925.2.917.25,1.843s-.024.931.026,1.858.234.918.284,1.846-.189.94-.139,1.867.155.923.2,1.852.008.933.059,1.863.054.93.105,1.861" transform="translate(-0.232)" fill="none" stroke="#231815" stroke-linecap="round" stroke-linejoin="round" stroke-width="4.217"/><path d="M156.067,231.424c.581-.138,1.138-.377,1.714-.534s1.144-.341,1.715-.522,1.093-.476,1.656-.683,1.119-.394,1.672-.63,1.14-.366,1.68-.633,1.082-.5,1.608-.8,1.007-.633,1.516-.961c.493-.318,1-.637,1.493-1,.474-.345.85-.835,1.321-1.219.453-.37,1-.649,1.451-1.059.432-.393.737-.936,1.168-1.368.411-.412.959-.712,1.369-1.162.393-.431.7-.958,1.087-1.425.374-.447.847-.833,1.219-1.315.357-.462.649-.99,1.005-1.485.341-.475.6-1.019.941-1.525.326-.486.833-.869,1.158-1.385.312-.5.539-1.06.849-1.585.3-.5.494-1.08.792-1.611.286-.511.76-.932,1.045-1.469.275-.518.5-1.074.776-1.617.264-.524.49-1.08.754-1.628.255-.53.544-1.056.8-1.608.245-.534.47-1.089.715-1.645.237-.54.344-1.145.581-1.706.23-.544.572-1.05.8-1.614.219-.54.414-1.124.616-1.731.186-.561.474-1.118.645-1.728.16-.574.131-1.215.278-1.825.14-.583.311-1.172.437-1.783.123-.591.345-1.174.454-1.785s.278-1.194.373-1.806.132-1.22.213-1.831-.064-1.243,0-1.855.322-1.2.377-1.813-.1-1.243-.058-1.853.193-1.223.223-1.832.224-1.229.24-1.836c.017-.624-.11-1.244-.108-1.848,0-.627-.068-1.239-.083-1.838-.017-.63.09-1.184.055-1.777.575-.165,1.1-.293,1.655-.5s1.021-.66,1.557-.908,1.172-.337,1.685-.626,1.051-.6,1.537-.928,1.006-.68,1.458-1.052a16.8,16.8,0,0,0,1.236-1.306,14.26,14.26,0,0,0,1.095-1.407,11.7,11.7,0,0,0,.933-1.5,9.555,9.555,0,0,0,.777-1.581,7.956,7.956,0,0,0,.506-1.708,15.722,15.722,0,0,0-.554-3.513,16.781,16.781,0,0,0-2.155-2.86,6.226,6.226,0,0,0-1.627-.745,6.457,6.457,0,0,0-1.662-.6,7.911,7.911,0,0,0-1.789-.1,10.773,10.773,0,0,0-1.784.258,13.769,13.769,0,0,0-1.668.685,16.741,16.741,0,0,0-1.6.805c-.609.327-1.178.573-1.578.838" transform="translate(-0.232)" fill="none" stroke="#231815" stroke-linecap="round" stroke-linejoin="round" stroke-width="4.217"/><path d="M108.42,102.148a33.715,33.715,0,0,1,35.543-4.6c14.555,6.975,21.922,23.385,25.944,39.016s6.092,32.27,14.9,45.8a25.143,25.143,0,0,0,6.883,7.457c6.359,4.222,14.658,3.553,22.246,2.724" transform="translate(-0.232)" fill="none" stroke="#fff" stroke-linecap="round" stroke-linejoin="round" stroke-width="4.217"/><path d="M107.42,105.148a33.715,33.715,0,0,1,35.543-4.6c14.555,6.975,21.922,23.385,25.944,39.016s6.092,32.27,14.9,45.8a25.143,25.143,0,0,0,6.883,7.457c6.359,4.222,14.658,3.553,22.246,2.724" transform="translate(-0.232)" fill="none" stroke="#231815" stroke-linecap="round" stroke-linejoin="round" stroke-width="4.217"/><path d="M97.487,116.491c-7.508,3.735-10.014,13.086-11.2,21.388a205.115,205.115,0,0,0-2.04,31.243" transform="translate(-0.232)" fill="none" stroke="#231815" stroke-linecap="round" stroke-linejoin="round" stroke-width="4.217"/><path d="M117.626,69.419C103.2,67.618,89.764,77.8,81.5,89.77c-15.163,21.961-18.238,49.711-23.994,75.77-2.908,13.166-6.627,26.612-4.541,39.933s12.006,26.594,25.467,27.381" transform="translate(-0.232)" fill="none" stroke="#231815" stroke-linecap="round" stroke-linejoin="round" stroke-width="4.217"/><path d="M131.333,66.646c14.032.4,28.409.876,41.425,6.131,18.209,7.352,31.865,23.6,39.292,41.775s9.188,38.2,8.728,57.835" transform="translate(-0.232)" fill="none" stroke="#231815" stroke-linecap="round" stroke-linejoin="round" stroke-width="4.217"/><path d="M211.847,214.17a74.753,74.753,0,0,1-1.557,13.885,24.136,24.136,0,0,1-2.993,8.262c-2.6,4.034-7.11,6.533-11.767,7.7s-9.518,1.144-14.318,1.115" transform="translate(-0.232)" fill="none" stroke="#231815" stroke-linecap="round" stroke-linejoin="round" stroke-width="4.217"/><path d="M197.282,172.865a4.8,4.8,0,0,1-1.109-9.541,7.671,7.671,0,0,1,3.057.315c1.917.519,3.969,1.589,4.458,3.514.5,1.965-.948,4-2.78,4.876a13.349,13.349,0,0,1-5.972.824" transform="translate(-0.232)" fill="#ffe200" stroke="#231815" stroke-linecap="round" stroke-linejoin="round" stroke-width="4.217"/><path d="M135.191,175.639a37.774,37.774,0,0,0-1.221,9.721l4.491.962" transform="translate(-0.232)" fill="none" stroke="#231815" stroke-linecap="round" stroke-linejoin="round" stroke-width="4.217"/><path d="M118.873,252.044l-32.516,1.7c-6.09.317-12.463.718-17.679,3.878-4.547,2.755-7.728,7.374-9.694,12.313s-2.833,10.237-3.654,15.49" transform="translate(-0.232)" fill="none" stroke="#231815" stroke-linecap="round" stroke-linejoin="round" stroke-width="4.217"/><path d="M172.462,252.842l24.811-.775c7.538-.235,15.539-.358,22.034,3.474,6.1,3.6,9.92,10.3,11.371,17.229s.782,14.137-.4,21.122" transform="translate(-0.232)" fill="none" stroke="#231815" stroke-linecap="round" stroke-linejoin="round" stroke-width="4.217"/><path d="M101.78,252.718c5.474,11.221,18.673,16.379,31.027,18.185,10.592,1.548,21.551,1.355,31.821-1.664s19.823-9,26.185-17.606" transform="translate(-0.232)" fill="none" stroke="#231815" stroke-linecap="round" stroke-linejoin="round" stroke-width="4.217"/><path d="M130.112,197.556l17.32-.363a12.169,12.169,0,0,1-5.42,12.784" transform="translate(-0.232)" fill="none" stroke="#231815" stroke-linecap="round" stroke-linejoin="round" stroke-width="4.217"/></g><path d="M22.629,24.049C13.485,28.936,11.446,42.118,17.04,50.72,23.706,61.191,36.9,59.3,42.833,71.09l.75,2.1,4.2,4.726c1.837.616,3.59,2.71,7.387,2.128,3.656-.7,6.894-4.726,7.053-7.542a6.287,6.287,0,0,1,.514-2.81c.308-1.918-2.525-6.222-3.246-7.492l-1.57-.726,0-.057a8.95,8.95,0,0,1-.708.683c.6-5.729-3.511-11.11-2.882-17.031C58.768,27.067,37.445,10.617,22.629,24.049Z" transform="translate(-0.232)" fill="#fff"/><path d="M30.387,26.761C20.761,29.2,11.959,37.036,16.519,48.025c2.833,6.3,6.954,8.4,11.572,10.952.535.046,1.663.28,1.931.336L30,59.306c.109.024.1.023.025.007A18.352,18.352,0,0,1,33.5,60.6a16.861,16.861,0,0,1,5.742,4.219,41.072,41.072,0,0,1,4.12,5.989c3.887-1.357,12.428-4.2,11.494-7-5.1-7.222-5.566-11.97-4.045-19.653C50.836,32.973,40.975,23.507,30.387,26.761Z" transform="translate(-0.232)" fill="#ffe200"/><path d="M57.914,38.363C57.755,30.878,54,24.766,47.05,20.686a22.088,22.088,0,0,0-16.961-2.094,25.9,25.9,0,0,0-5.108,1.956,21.493,21.493,0,0,0-7.216,6.1l-.215.284a24.268,24.268,0,0,0-4.734,13.427A22.046,22.046,0,0,0,25.657,60.52a27.033,27.033,0,0,0,4.1,1.509c4.417,1.244,7.475,3.3,9.623,6.457.069.1.133.207.218.353a2.538,2.538,0,0,0,.793.948,5.716,5.716,0,0,1,2.586,3.935,9.2,9.2,0,0,0,2.088,3.331c.292.346.566.673.823,1.007a3.628,3.628,0,0,0,3.363,1.545,2.55,2.55,0,0,1,1.6.554l.121.074a6.473,6.473,0,0,0,5.215.753h0a15.488,15.488,0,0,0,4.384-2.176,9.845,9.845,0,0,0,2.452-2.2l.072-.095a6.64,6.64,0,0,0,1.267-4.727,2.254,2.254,0,0,1,.173-1.518c1.076-1.662.553-3.229-.1-4.543-.493-.993-1.028-1.962-1.679-3.113a3.558,3.558,0,0,0-1.976-1.964l-.72-.211.124-.737a3.841,3.841,0,0,0-.575-2.353l-.64-1.339c-1.417-2.955-2.641-5.508-1.753-8.734A30.616,30.616,0,0,0,57.914,38.363ZM61.7,70.469a9.13,9.13,0,0,1-.715,2.316,8.834,8.834,0,0,1-.907,1.52,8.636,8.636,0,0,1-4.364,3.12c-.094.029-.189.056-.284.081a7.667,7.667,0,0,1-4.868-.314l-.7-.282A73.874,73.874,0,0,0,61.8,69.882ZM47.9,74.592l-.08-.092c-.472-.545-.839-1-1.152-1.429L46.6,73.1,45.514,71.8l.912-.489a110.407,110.407,0,0,0,12.029-7.439l.865-.543L59.8,64.52l0,.093.437.776c.2.359.41.735.613,1.117l.118.223C56.692,69.467,52.131,71.814,47.9,74.592ZM53.425,45.68c-1.208,5.479.751,9.925,3.044,14.372l.332.642-.581.425a80.137,80.137,0,0,1-11.235,6.94l-.615.315-1.251-1.58c-.806-1.018-1.594-2.012-2.388-3a12.331,12.331,0,0,0-7.044-4.656,33.552,33.552,0,0,1-7.98-3.207A16.821,16.821,0,0,1,17.24,45.767,18.2,18.2,0,0,1,18.358,32.33a22.737,22.737,0,0,1,2.117-3.5l.182-.24a17.671,17.671,0,0,1,8.761-6.211c.381-.123.772-.237,1.162-.34C42.49,18.9,48.613,25.961,50.206,28.2,53.84,33.311,54.893,39.029,53.425,45.68Z" transform="translate(-0.232)" fill="#231815"/><path d="M9.125,22.734a1.734,1.734,0,0,0-1.276-1.788A21.821,21.821,0,0,0,2.3,19.855,1.731,1.731,0,0,0,.326,20.968a1.542,1.542,0,0,0,.933,1.941A16.6,16.6,0,0,0,6.98,24.557a2.962,2.962,0,0,0,.91-.132A1.948,1.948,0,0,0,9.125,22.734Z" transform="translate(-0.232)" fill="#231815"/><path d="M32.124,8.809A1.935,1.935,0,0,0,34.39,7.325,18.464,18.464,0,0,0,35.352,2.3a8.009,8.009,0,0,0-.132-1.261C34.46-.33,33.026-.329,32.351.945A16.365,16.365,0,0,0,30.665,6.86,1.636,1.636,0,0,0,32.124,8.809Z" transform="translate(-0.232)" fill="#231815"/><path d="M11.822,15.046a1.816,1.816,0,0,0,2.525-.15c.8-.772.678-1.639.1-2.6a19.521,19.521,0,0,0-4.176-3.628,1.559,1.559,0,0,0-2.061.1,1.422,1.422,0,0,0-.174,1.881A16.59,16.59,0,0,0,11.822,15.046Z" transform="translate(-0.232)" fill="#231815"/><path d="M22.437,9.865c1.369-.562,1.422-1.743,1.009-2.885-.491-1.357-1.091-2.673-1.532-3.734-.673-1.075-1.22-1.97-2.426-1.5-1.121.439-1.038,1.48-.85,2.349a39.482,39.482,0,0,0,1.2,4.341C20.23,9.6,21.043,10.437,22.437,9.865Z" transform="translate(-0.232)" fill="#231815"/></svg>