<svg xmlns="http://www.w3.org/2000/svg" xmlns:xlink="http://www.w3.org/1999/xlink" width="413.955" height="355.718" viewBox="0 0 413.955 355.718"><defs><clipPath id="a" transform="translate(42.839 -19.756)"><circle cx="146.353" cy="118.883" r="118.883" fill="none"/></clipPath><clipPath id="b" transform="translate(42.839 -19.756)"><path d="M103.293,189.09s47.74,18.722,81.439-.936c0,0,10.3,7.489,14.978,31.827s9.361,81.44,8.425,91.737-.936,14.823-.936,14.823-9.361.154-9.361,1.09-2.809,30.891-2.809,30.891-61.782,7.489-97.353-.936l-.936-29.955L85.507,326.7S80.826,226.534,103.293,189.09Z" fill="none"/></clipPath></defs><g clip-path="url(#a)"><g clip-path="url(#b)"><line x1="202.297" y1="118.785" x2="1.974" y2="353.744" fill="none" stroke="#ffe200" stroke-linecap="round" stroke-linejoin="round" stroke-width="3.948"/><line x1="232.252" y1="118.785" x2="31.929" y2="353.744" fill="none" stroke="#ffe200" stroke-linecap="round" stroke-linejoin="round" stroke-width="3.948"/><line x1="262.207" y1="118.785" x2="61.884" y2="353.744" fill="none" stroke="#ffe200" stroke-linecap="round" stroke-linejoin="round" stroke-width="3.948"/><line x1="292.161" y1="118.785" x2="91.838" y2="353.744" fill="none" stroke="#ffe200" stroke-linecap="round" stroke-linejoin="round" stroke-width="3.948"/><line x1="322.116" y1="118.785" x2="121.793" y2="353.744" fill="none" stroke="#ffe200" stroke-linecap="round" stroke-linejoin="round" stroke-width="3.948"/><line x1="352.071" y1="118.785" x2="151.748" y2="353.744" fill="none" stroke="#ffe200" stroke-linecap="round" stroke-linejoin="round" stroke-width="3.948"/><line x1="382.026" y1="118.785" x2="181.703" y2="353.744" fill="none" stroke="#ffe200" stroke-linecap="round" stroke-linejoin="round" stroke-width="3.948"/><line x1="411.981" y1="118.785" x2="211.658" y2="353.744" fill="none" stroke="#ffe200" stroke-linecap="round" stroke-linejoin="round" stroke-width="3.948"/></g><path d="M96.56,81.693c-.174.816-.119.577-.321,1.638-.088.459-.065,1.031-.178,1.665-.089.5-.241,1.037-.342,1.634-.087.515-.246,1.054-.339,1.638-.084.524-.229,1.067-.316,1.643-.081.53-.107,1.091-.189,1.662-.077.533-.051,1.1-.128,1.665-.073.536-.117,1.091-.19,1.656-.069.539-.338,1.066-.406,1.63-.066.542.009,1.111-.055,1.675-.062.543-.06,1.1-.119,1.666-.058.545-.06,1.1-.115,1.666-.054.546-.2,1.091-.256,1.652s-.191,1.1-.237,1.657.013,1.113-.029,1.674-.19,1.1-.227,1.659-.105,1.106-.138,1.667.087,1.117.059,1.677-.085,1.108-.108,1.668-.13,1.1-.148,1.663.14,1.113.127,1.671-.158,1.107-.165,1.666.075,1.111.073,1.67.058,1.11.062,1.669-.048,1.112-.038,1.67.073,1.111.089,1.669.048,1.111.07,1.669.039,1.112.067,1.67.071,1.111.106,1.668,0,1.116.045,1.672.012,1.119.062,1.674.029,1.12.086,1.674.318,1.088.383,1.642.076,1.115.15,1.667.249,1.091.332,1.642.137,1.108.229,1.657.032,1.129.134,1.676.4,1.06.508,1.606,0,1.143.12,1.686.3,1.08.43,1.62.251,1.091.4,1.627.3,1.078.462,1.61.323,1.073.494,1.6.322,1.074.507,1.6.416,1.041.615,1.56.517,1,.732,1.51.478,1.01.709,1.515.463,1.015.711,1.513.4,1.051.665,1.539.571.963.854,1.441.7.881,1,1.347.422,1.064.743,1.517.752.836,1.094,1.275.637.923,1,1.346.693.884,1.076,1.289.952.627,1.355,1.012.754.822,1.177,1.186.766.827,1.208,1.168.889.681,1.349,1,.941.6,1.419.9.971.551,1.465.816,1.045.395,1.554.633.962.571,1.483.782,1.058.345,1.59.529,1.084.246,1.625.4,1.061.308,1.609.438,1.062.321,1.616.426,1.1.111,1.661.191,1.081.279,1.643.337,1.116-.054,1.68-.018,1.1.061,1.667.075,1.107.118,1.674.112c.551-.006,1.062,0,1.628-.02.3.786.128.821.162,1.662s-.061.844-.027,1.683.132.837.166,1.678-.117.848-.082,1.69.125.837.16,1.677.178.837.213,1.68-.11.849-.075,1.693.153.839.188,1.683" transform="translate(42.839 -19.756)" fill="none" stroke="#231815" stroke-linecap="round" stroke-linejoin="round" stroke-width="3.948"/><path d="M139.268,94.835a4.224,4.224,0,0,0,.149-1.723,2.694,2.694,0,0,0-.736-1.585,2.822,2.822,0,0,0-3.4-.01,4.085,4.085,0,0,0-.859,1.617,8.171,8.171,0,0,0-.636,1.719,6.5,6.5,0,0,0-.03,1.826,3.484,3.484,0,0,0,.684,1.7,1.876,1.876,0,0,0,1.614.838,6.738,6.738,0,0,0,1.589-.166A2.086,2.086,0,0,0,138.71,97.9a4.265,4.265,0,0,0,.595-1.473A15.022,15.022,0,0,0,139.268,94.835Z" transform="translate(42.839 -19.756)" fill="#231815"/><path d="M159.362,94.587a8.782,8.782,0,0,0-.1-1.405,4.077,4.077,0,0,0-.318-1.388,1.65,1.65,0,0,0-1.164-.77,2.913,2.913,0,0,0-1.618.223,2.975,2.975,0,0,0-1.307.927,4.848,4.848,0,0,0-1.057,1.333,5.961,5.961,0,0,0-.25,1.695c-.035.623-.041,1.238-.063,1.809a5.807,5.807,0,0,0,.126,1.792,1.584,1.584,0,0,0,1.239,1.112,2.962,2.962,0,0,0,1.608.074,3.343,3.343,0,0,0,1.526-.692,4.425,4.425,0,0,0,.846-1.453,6.315,6.315,0,0,0,.535-1.582A12.193,12.193,0,0,0,159.362,94.587Z" transform="translate(42.839 -19.756)" fill="#231815"/><path d="M143.769,103.827c-.276.785-.108.638-.387,1.622-.131.462-.442.965-.587,1.57-.121.5-.2,1.065-.315,1.64-.1.527-.137,1.091-.218,1.656-.078.542.018,1.112-.029,1.671s-.085,1.1-.088,1.656-.21,1.131-.158,1.675a11.762,11.762,0,0,0,.255,1.665,8.065,8.065,0,0,0,.6,1.572,5.7,5.7,0,0,0,1.076,1.267" transform="translate(42.839 -19.756)" fill="none" stroke="#231815" stroke-linecap="round" stroke-linejoin="round" stroke-width="3.948"/><path d="M128.225,55.208c.041.1.257.645.693,1.484.212.408.444.909.755,1.451.247.431.523.906.835,1.407.27.434.644.844.964,1.322.289.432.5.953.83,1.414.307.427.77.764,1.113,1.21.321.419.684.824,1.038,1.255.337.411.622.882.989,1.3.351.4.681.839,1.061,1.244.365.39.822.707,1.214,1.1s.788.738,1.192,1.115.739.8,1.156,1.16.792.746,1.222,1.093.918.588,1.359.919.82.719,1.272,1.033,1,.448,1.468.744.879.637,1.354.916.873.667,1.359.927,1,.424,1.5.665.962.514,1.467.735,1.063.275,1.577.476c.535.21.99.63,1.527.824s1.116.293,1.658.473,1.116.281,1.661.446,1.076.422,1.625.572,1.115.291,1.667.425,1.154.114,1.708.232,1.084.471,1.641.572c.573.1,1.177-.032,1.736.05.578.084,1.137.221,1.7.281.583.063,1.144.259,1.7.295.587.038,1.168-.1,1.726-.09.59.009,1.164.077,1.717.051.595-.027,1.153-.2,1.7-.266a16.944,16.944,0,0,0,1.686-.27,13.121,13.121,0,0,0,1.7-.316,7.612,7.612,0,0,0,1.51-.843,4.955,4.955,0,0,0,1.226-1.2" transform="translate(42.839 -19.756)" fill="none" stroke="#231815" stroke-linecap="round" stroke-linejoin="round" stroke-width="3.948"/><path d="M124.947,60.925c-.458.734-.139.689-.726,1.589-.27.415-.757.793-1.119,1.333-.3.447-.661.9-1.009,1.408-.313.455-.457,1.06-.8,1.547-.327.461-.818.822-1.165,1.295s-.587,1-.938,1.462-.836.82-1.194,1.267-.67.962-1.037,1.391c-.39.456-.813.853-1.192,1.255-.424.45-.76.934-1.157,1.291a9.256,9.256,0,0,1-1.384,1.04,1.843,1.843,0,0,1-1.6.323,3.724,3.724,0,0,1-1.547-.928,5.14,5.14,0,0,1-.821-1.624,8.6,8.6,0,0,1-.5-1.751c-.132-1.02.569-1.1-.008-1.8-.53-.64-.225.568-.786,1.435a10.175,10.175,0,0,1-.9,1.411,12.981,12.981,0,0,1-1.185,1.188,14.118,14.118,0,0,1-1.36.969,13.819,13.819,0,0,1-1.39.93,16.276,16.276,0,0,1-1.548.641c-.494.194-1.017.4-1.576.558-.511.146-1.086.127-1.655.236-.523.1-1.073.122-1.647.187-.532.061-1.067.324-1.643.35-.536.024-1.1-.032-1.672-.042-.538-.009-1.1-.024-1.67-.064a8.528,8.528,0,0,1-1.683-.2,5.563,5.563,0,0,1-1.558-.7,4.6,4.6,0,0,1-1.2-1.221,5.381,5.381,0,0,1-.718-1.547,8.279,8.279,0,0,1-.033-1.69,10.9,10.9,0,0,1-.041-1.665,15.9,15.9,0,0,1,.3-1.645c.111-.538.171-1.1.331-1.642s.466-1.019.66-1.544.3-1.087.526-1.595c.229-.523.521-1.006.769-1.494.262-.516.547-1,.818-1.458.3-.513.489-1.061.786-1.486a12.329,12.329,0,0,1,1.046-1.314,1.844,1.844,0,0,1,1.39-.751c.355.036.587.379.514,1.356A10.741,10.741,0,0,1,93.43,60.9" transform="translate(42.839 -19.756)" fill="none" stroke="#231815" stroke-linecap="round" stroke-linejoin="round" stroke-width="3.948"/><path d="M99.341,49.988c.157-.313.325-.868.656-1.554.211-.437.437-.957.724-1.517.237-.461.532-.945.823-1.474.255-.466.681-.873.981-1.383.273-.466.508-.98.818-1.475.29-.462.542-.97.865-1.451.305-.455.722-.851,1.058-1.319.321-.448.636-.913.985-1.369.336-.438.74-.833,1.1-1.275s.643-.916,1.021-1.344.746-.83,1.137-1.244.767-.813,1.172-1.211.716-.874,1.136-1.256.908-.665,1.342-1.03.887-.683,1.335-1.03.94-.608,1.4-.936.938-.6,1.414-.911.863-.729,1.353-1.016,1-.513,1.5-.778.939-.629,1.452-.871,1.042-.42,1.566-.639,1.068-.342,1.6-.537,1.055-.37,1.6-.541,1.026-.493,1.576-.64,1.112-.178,1.667-.3,1.086-.3,1.648-.4,1.134,0,1.7-.078,1.107-.1,1.661-.153,1.093-.277,1.648-.319,1.122.1,1.678.068,1.109-.1,1.666-.114,1.112-.02,1.669-.018,1.118-.161,1.674-.144,1.116.05,1.672.081,1.113.092,1.668.138,1.117.055,1.67.116,1.078.367,1.629.443,1.1.165,1.648.256,1.142-.053,1.688.053,1.087.26,1.63.381,1.095.229,1.634.365,1.078.294,1.614.445,1.007.522,1.538.689,1.075.289,1.6.471,1.109.213,1.629.41,1.017.462,1.531.675.961.583,1.469.811,1.123.23,1.623.474.961.574,1.454.834.91.657,1.393.932,1.084.358,1.558.649.829.774,1.293,1.081.994.52,1.448.843.895.664,1.338,1,.78.806,1.211,1.159.861.7,1.278,1.068.958.6,1.362.986.7.87,1.095,1.268.849.73,1.224,1.142.763.814,1.123,1.24.558.979.9,1.419.694.865,1.02,1.318.781.812,1.089,1.278.609.934.9,1.411.452,1.024.724,1.512.533.972.786,1.471.475,1,.709,1.509.419,1.026.633,1.542.554.975.748,1.5.425,1.031.6,1.563.326,1.065.482,1.6.262,1.081.4,1.625.279,1.076.395,1.625.113,1.109.21,1.661.228,1.088.307,1.643.109,1.1.169,1.662.1,1.105.143,1.665.092,1.106.117,1.668" transform="translate(42.839 -19.756)" fill="none" stroke="#231815" stroke-linecap="round" stroke-linejoin="round" stroke-width="3.948"/><path d="M160.346,178.377c-.481.115-.926.332-1.381.42-.487.095-.97.117-1.422.181-.5.072-.878.141-1.326.176a4.584,4.584,0,0,0-.094,1.723c.047.866.262.855.309,1.721s-.183.881-.136,1.748.221.86.268,1.729.028.868.075,1.736-.082.876-.035,1.746.19.863.237,1.734.008.873.055,1.744" transform="translate(42.839 -19.756)" fill="none" stroke="#231815" stroke-linecap="round" stroke-linejoin="round" stroke-width="3.948"/><path d="M160.369,178.477c.521-.124,1.055-.276,1.6-.434.517-.149,1.038-.342,1.575-.523.513-.173,1.046-.329,1.574-.532.506-.195.982-.494,1.5-.718.5-.216,1.084-.273,1.591-.517s.958-.551,1.454-.815.961-.541,1.446-.824.89-.655,1.363-.957,1-.482,1.464-.8.81-.762,1.257-1.1.915-.62,1.347-.976.918-.628,1.336-1,.766-.8,1.168-1.19.679-.878,1.064-1.284.868-.7,1.237-1.119.78-.789,1.131-1.225.607-.928.941-1.377.592-.932.908-1.394.618-.911.916-1.385.728-.852,1.008-1.338.361-1.062.623-1.558.488-.986.731-1.491.6-.937.823-1.451.348-1.049.554-1.571.4-1.026.589-1.555.44-1.016.611-1.551.4-1.035.552-1.574.055-1.129.193-1.674.431-1.033.553-1.582.177-1.114.281-1.676.148-1.117.235-1.681.162-1.115.233-1.681.231-1.108.288-1.676.178-1.119.221-1.688.025-1.133.056-1.7-.052-1.134-.032-1.7.218-1.126.227-1.7-.011-1.133-.012-1.7-.207-1.13-.217-1.7-.022-1.13-.041-1.7.084-1.138.057-1.706-.022-1.081-.056-1.648c.538-.154,1.039-.265,1.559-.459s1.01-.5,1.512-.732,1-.5,1.485-.771,1.01-.511,1.464-.82.8-.8,1.225-1.152a15.922,15.922,0,0,0,1.247-1.1,14.47,14.47,0,0,0,1.234-1.142,11.539,11.539,0,0,0,.958-1.39,8.967,8.967,0,0,0,.546-1.594,7.228,7.228,0,0,0,.322-1.626,6.55,6.55,0,0,0,.122-1.677,6.674,6.674,0,0,0-.646-1.553,5.384,5.384,0,0,0-1.956-2.671,5.909,5.909,0,0,0-1.443-.833,6.083,6.083,0,0,0-1.584-.535,7.312,7.312,0,0,0-1.667.124,10.135,10.135,0,0,0-1.687.071,12.861,12.861,0,0,0-1.551.667c-.547.225-1.111.37-1.567.616a14.459,14.459,0,0,0-1.345.89c-.087-.554-.119-1.061-.21-1.607s-.178-1.1-.273-1.649-.311-1.082-.409-1.625-.121-1.117-.224-1.66-.389-1.066-.5-1.607-.194-1.1-.3-1.643c-.113-.554-.119-1.121-.233-1.659-.117-.553-.374-1.068-.491-1.6-.121-.554-.067-1.136-.187-1.669-.125-.554-.411-1.059-.535-1.589-.129-.556-.046-1.148-.172-1.675-.134-.558-.421-1.061-.55-1.585-.139-.562-.176-1.128-.309-1.649-.143-.564-.409-1.071-.543-1.584-.149-.571-.2-1.134-.336-1.638-.157-.583-.275-1.128-.41-1.614-.172-.618-.285-1.166-.414-1.614-.3-1.032-.3-.778-.546-1.571" transform="translate(42.839 -19.756)" fill="none" stroke="#231815" stroke-linecap="round" stroke-linejoin="round" stroke-width="3.948"/><path d="M108.377,189.648a13.514,13.514,0,0,0,1.442.822c.424.184,1.015.21,1.605.451.466.189.944.483,1.506.7.483.185.991.408,1.542.607.5.18,1.019.356,1.566.543.5.173,1.054.266,1.6.442.509.165,1.021.375,1.566.542.514.157,1.017.407,1.562.564.518.15,1.043.329,1.588.477.522.141,1.068.243,1.614.382.525.134,1.1.105,1.648.235.529.126,1.026.431,1.574.552.532.117,1.117.021,1.666.133s1.046.364,1.6.467,1.092.137,1.643.231,1.062.324,1.614.408,1.09.162,1.643.238,1.1.115,1.651.181,1.094.138,1.648.194,1.109-.017,1.664.03,1.1.1,1.653.134,1.094.17,1.651.2,1.106-.123,1.661-.106,1.1.169,1.654.175,1.1.009,1.658,0,1.1-.047,1.659-.062,1.1-.149,1.653-.175,1.105.016,1.66-.021,1.111.046,1.666,0,1.095-.158,1.649-.217,1.106-.059,1.658-.129,1.09-.2,1.64-.278,1.063-.341,1.611-.435,1.1-.13,1.643-.236,1.084-.206,1.628-.323,1.059-.313,1.6-.442,1.133-.02,1.671-.161,1.026-.437,1.561-.59,1.1-.19,1.628-.354,1.016-.451,1.544-.627,1.026-.409,1.549-.6,1.029-.4,1.548-.595,1.095-.238,1.609-.45,1.046-.371,1.556-.595.948-.587,1.453-.822.974-.524,1.473-.771.983-.5,1.477-.759" transform="translate(42.839 -19.756)" fill="none" stroke="#231815" stroke-linecap="round" stroke-linejoin="round" stroke-width="3.948"/><path d="M103.039,196.184c-.476.68-.222.556-.782,1.471-.243.4-.676.788-.993,1.343-.249.437-.5.932-.789,1.462-.245.456-.364,1.019-.63,1.542-.238.47-.6.909-.852,1.431-.23.48-.5.969-.733,1.492-.221.489-.38,1.026-.605,1.55-.211.5-.523.967-.735,1.493-.2.5-.382,1.027-.582,1.556-.193.507-.35,1.041-.539,1.573-.182.512-.364,1.037-.542,1.571-.172.518-.189,1.094-.355,1.632-.162.521-.426,1.02-.581,1.561s-.177,1.093-.32,1.636-.293,1.062-.425,1.608-.377,1.045-.5,1.593-.224,1.081-.332,1.631-.26,1.075-.356,1.627-.161,1.094-.245,1.647,0,1.117-.071,1.672-.184,1.091-.243,1.647-.289,1.086-.335,1.645.16,1.122.127,1.681c-.032.538-.067,1.094-.106,1.665-.037.541-.222,1.085-.265,1.653-.041.543-.06,1.1-.106,1.665-.044.544-.012,1.105-.06,1.669-.047.545-.229,1.088-.279,1.651-.049.546-.116,1.1-.167,1.661s-.006,1.11-.058,1.671-.08,1.1-.133,1.665-.131,1.1-.185,1.66-.034,1.11-.088,1.669-.335,1.079-.39,1.637-.087,1.1-.142,1.661-.041,1.11-.1,1.667-.112,1.1-.166,1.661,0,1.114-.055,1.672-.062,1.109-.117,1.666-.263,1.09-.317,1.647.028,1.119-.026,1.676-.085,1.109-.138,1.666-.093,1.108-.145,1.665-.355,1.084-.406,1.641.093,1.122.042,1.677-.192,1.1-.242,1.653-.2,1.1-.245,1.653.014,1.118-.034,1.674-.173,1.1-.219,1.658-.023,1.116-.068,1.672-.128,1.107-.172,1.664-.076,1.112-.119,1.669.032,1.12-.009,1.677-.072,1.113-.111,1.67-.142,1.109-.18,1.666-.064,1.115-.1,1.672-.159,1.109-.192,1.666-.088,1.114-.12,1.671-.092,1.115-.122,1.672.008,1.12-.019,1.676.092,1.124.068,1.68-.048,1.117-.07,1.673-.108,1.115-.127,1.671.094,1.121.077,1.677-.194,1.113-.207,1.669-.082,1.116-.092,1.672.04,1.124.034,1.681.043,1.123.04,1.68.1,1.121.1,1.677-.2,1.123-.2,1.678.2,1.117.216,1.672-.117,1.122-.1,1.675.018,1.119.04,1.671.12,1.115.147,1.666.1,1.116.132,1.667-.111,1.13-.07,1.68.281,1.1.33,1.649-.009,1.126.049,1.674.027,1.124.094,1.669.222,1.224.3,1.766c.817.293.911-.059,1.778-.007s.872.006,1.74.058.876-.042,1.746.011.857.281,1.727.334" transform="translate(42.839 -19.756)" fill="none" stroke="#231815" stroke-linecap="round" stroke-linejoin="round" stroke-width="3.948"/><path d="M102.678,224.027c-.095.832-.041.582-.16,1.668-.052.465-.276,1-.346,1.649-.054.5,0,1.073-.069,1.68-.056.52-.1,1.078-.164,1.671-.056.529-.2,1.077-.265,1.661-.055.534-.122,1.09-.181,1.668-.055.538.1,1.117.043,1.692-.054.54-.148,1.091-.2,1.662-.054.543-.318,1.078-.374,1.647-.054.545.129,1.124.073,1.692-.053.546-.082,1.1-.136,1.672-.053.548-.317,1.084-.371,1.651-.052.548.043,1.119-.011,1.685-.051.549-.29,1.089-.342,1.654s.146,1.131.094,1.7-.163,1.1-.214,1.666-.188,1.1-.238,1.665,0,1.119-.053,1.682-.148,1.106-.2,1.669-.055,1.114-.1,1.677-.081,1.113-.128,1.675-.22,1.1-.267,1.663.007,1.121-.039,1.683-.046,1.116-.091,1.678-.164,1.107-.209,1.668,0,1.117-.047,1.676-.114,1.108-.157,1.668-.257,1.1-.3,1.657.049,1.122.007,1.682-.234,1.1-.275,1.661.074,1.125.034,1.684,0,1.12-.038,1.679-.3,1.1-.34,1.659.146,1.131.109,1.69-.086,1.116-.122,1.675-.139,1.11-.175,1.668-.2,1.107-.237,1.666-.044,1.117-.078,1.676.116,1.128.083,1.687-.106,1.115-.138,1.675-.128,1.115-.159,1.675-.2,1.112-.225,1.672,0,1.123-.03,1.683.126,1.13.1,1.691-.17,1.115-.2,1.676.07,1.127.044,1.688-.154,1.118-.178,1.678-.015,1.125-.038,1.685-.064,1.123-.086,1.684.042,1.127.022,1.687-.244,1.118-.262,1.678-.082,1.124-.1,1.685.069,1.128.053,1.688-.126,1.123-.14,1.684.2,1.13.186,1.691-.169,1.122-.179,1.682.095,1.128.086,1.688,0,1.125,0,1.685-.167,1.124-.171,1.683-.042,1.126-.044,1.685.017,1.126.017,1.684-.051,1.126-.048,1.684.265,1.123.271,1.68-.1,1.126-.088,1.683.04,1.124.052,1.68.114,1.121.129,1.677-.1,1.126-.08,1.681.026,1.124.048,1.677.073,1.123.1,1.677.086,1.123.116,1.675-.028,1.131.008,1.683.091,1.124.133,1.675c.042.566.191,1.115.238,1.664.048.566.145,1.117.2,1.664.056.567-.127,1.15-.066,1.7.065.568.2,1.116.273,1.661.074.566.195,1.114.276,1.654.085.568.076,1.138.169,1.675.1.565.4,1.076.506,1.607.114.564.078,1.188.2,1.712.589.585.6.1,1.674.331.45.1.978.279,1.612.4.489.1,1.054.092,1.652.2.507.092,1.042.242,1.626.34.516.087,1.063.17,1.639.26.522.082,1.054.27,1.625.354.527.076,1.088.067,1.657.144.531.072,1.1-.024,1.668.048.534.068,1.067.269,1.632.336.536.063,1.094.057,1.658.119.538.059,1.071.293,1.634.351.54.055,1.114-.125,1.677-.072.541.051,1.082.211,1.644.259.542.048,1.1.071,1.657.116.543.043,1.1.011,1.662.052.544.04,1.09.174,1.651.211.545.036,1.1.1,1.657.13.545.033,1.1-.046,1.665-.016.546.029,1.1.114,1.656.14s1.1.139,1.656.162,1.1.121,1.658.14,1.1-.009,1.663.007,1.1-.118,1.664-.1,1.1.125,1.659.135,1.1-.081,1.663-.075,1.1.177,1.66.18,1.1-.095,1.662-.095,1.1-.02,1.661-.023,1.1-.061,1.661-.067,1.1.041,1.662.032,1.1-.088,1.66-.1,1.1-.053,1.655-.067,1.1-.024,1.657-.042,1.106.1,1.663.08,1.095-.193,1.652-.216,1.1-.053,1.658-.079,1.108.073,1.665.045,1.1-.062,1.659-.093,1.1-.146,1.655-.179,1.11.031,1.666,0,1.093-.22,1.65-.259,1.105-.056,1.661-.1,1.106-.051,1.662-.095,1.1-.153,1.653-.2,1.117.125,1.67.076,1.085-.256,1.639-.307,1.117.082,1.671.029,1.1-.106,1.655-.162,1.094-.182,1.648-.241,1.092-.2,1.647-.26,1.108-.061,1.662-.125,1.1-.091,1.653-.156,1.093-.172,1.646-.24,1.09-.21,1.643-.28,1.124.044,1.678-.029,1.074-.319,1.625-.394,1.125.03,1.678-.047,1.069-.361,1.622-.441,1.108-.1,1.664-.185c.125-.526.242-1.066.357-1.632q.16-.8.306-1.651c.093-.538.276-1.077.361-1.644.081-.542-.02-1.121.053-1.688.071-.545.171-1.1.235-1.662.062-.546.148-1.1.2-1.666.054-.548.013-1.113.061-1.679.047-.55.24-1.095.282-1.661.041-.551-.026-1.115.01-1.681s.1-1.106.132-1.671-.024-1.114,0-1.679.179-1.1.2-1.669.164-1.109.183-1.673-.041-1.116-.026-1.679.023-1.115.034-1.678-.137-1.117-.129-1.681.048-1.114.053-1.677.174-1.114.177-1.677-.118-1.116-.118-1.679-.072-1.116-.074-1.678.257-1.119.253-1.681-.018-1.117-.024-1.68-.062-1.117-.071-1.679,0-1.118-.006-1.68-.112-1.116-.124-1.677-.154-1.111-.168-1.671.167-1.119.151-1.679-.185-1.111-.2-1.671-.018-1.116-.036-1.676.132-1.122.112-1.682-.195-1.111-.217-1.671.035-1.12.013-1.68.008-1.12-.016-1.68-.134-1.114-.16-1.674,0-1.122-.023-1.681.023-1.123,0-1.683-.075-1.119-.1-1.679-.092-1.118-.122-1.679,0-1.124-.031-1.685-.141-1.117-.173-1.678-.233-1.11-.266-1.67.126-1.132.092-1.691-.288-1.107-.323-1.666.154-1.135.118-1.694-.134-1.118-.17-1.677-.064-1.121-.1-1.68-.173-1.115-.211-1.673.095-1.134.056-1.692-.222-1.111-.262-1.67-.1-1.119-.145-1.677-.009-1.127-.05-1.685-.236-1.11-.278-1.667.143-1.139.1-1.7-.244-1.109-.288-1.666-.107-1.12-.151-1.676-.1-1.121-.142-1.677-.013-1.128-.059-1.683-.137-1.118-.184-1.673-.106-1.12-.153-1.674-.1-1.12-.152-1.674.079-1.136.031-1.69-.066-1.123-.115-1.676-.122-1.119-.171-1.671-.312-1.1-.362-1.655.135-1.144.084-1.695-.149-1.119-.2-1.671-.31-1.1-.362-1.655c-.053-.566-.018-1.133-.07-1.682-.054-.568-.086-1.128-.139-1.676-.055-.568-.148-1.122-.2-1.67-.056-.569.071-1.144.018-1.689-.057-.57-.241-1.114-.3-1.657-.057-.572-.2-1.121-.255-1.662-.058-.575.025-1.147-.03-1.685-.059-.578-.308-1.115-.364-1.649-.061-.585-.065-1.148-.121-1.677-.062-.593.063-1.17.007-1.69-.064-.607-.18-1.157-.234-1.66-.07-.644-.3-1.183-.35-1.648-.12-1.083.006-.841-.089-1.672" transform="translate(42.839 -19.756)" fill="none" stroke="#231815" stroke-linecap="round" stroke-linejoin="round" stroke-width="3.948"/><path d="M191.088,196.145c.476.68.12.624.68,1.539.242.4.667.79.984,1.346.249.436.55.9.835,1.434.246.457.468.967.733,1.49.239.471.457.981.708,1.5.23.48.533.951.77,1.474.221.489.465.989.689,1.514.212.5.3,1.058.512,1.584.2.5.383,1.023.584,1.552.192.507.478.992.667,1.523.183.513.286,1.063.463,1.6.172.517.325,1.049.492,1.586.162.522.368,1.039.523,1.579s.38,1.039.524,1.582.3,1.064.434,1.61.023,1.126.143,1.674.295,1.064.4,1.614.374,1.054.47,1.6.2,1.089.283,1.642-.005,1.119.066,1.674.154,1.095.213,1.651.2,1.094.248,1.653.036,1.109.07,1.668c.032.538-.085,1.1-.046,1.674.037.541.137,1.092.18,1.66.041.542.239,1.085.285,1.651.043.544.151,1.092.2,1.657.046.545-.086,1.115-.036,1.678.049.546.166,1.094.217,1.657.05.546.177,1.093.23,1.655.051.547-.089,1.119-.036,1.68s.116,1.1.17,1.662.187,1.095.242,1.654.118,1.1.173,1.658.2,1.092.259,1.65-.131,1.126-.077,1.684.279,1.086.333,1.644.05,1.11.1,1.667.077,1.108.131,1.665.21,1.095.264,1.652.106,1.107.159,1.664.149,1.1.2,1.659.094,1.108.146,1.665.075,1.111.126,1.668.081,1.106.131,1.661.019,1.113.068,1.668.152,1.1.2,1.658.1,1.107.151,1.663.188,1.1.234,1.657-.063,1.122-.018,1.678,0,1.118.046,1.674.257,1.1.3,1.655.056,1.114.1,1.671.066,1.114.105,1.67-.023,1.121.015,1.678.222,1.1.258,1.661-.033,1.121,0,1.678.221,1.106.252,1.663-.085,1.124-.056,1.681.242,1.107.269,1.663,0,1.12.021,1.677.028,1.118.05,1.674-.124,1.123-.1,1.679.211,1.112.227,1.668,0,1.119.011,1.675-.14,1.12-.13,1.676.112,1.12.118,1.678-.035,1.122-.033,1.679.162,1.122.16,1.678-.142,1.12-.148,1.675-.042,1.12-.053,1.674-.008,1.119-.024,1.672.137,1.124.116,1.676-.071,1.118-.1,1.669-.173,1.112-.207,1.664-.088,1.115-.129,1.665.032,1.126-.017,1.674-.269,1.1-.327,1.647.1,1.138.03,1.682c-.069.56-.224,1.182-.3,1.725-.818.292-.9-.145-1.771-.093s-.868.071-1.736.123-.86.219-1.731.272-.873-.007-1.743.046" transform="translate(42.839 -19.756)" fill="none" stroke="#231815" stroke-linecap="round" stroke-linejoin="round" stroke-width="3.948"/><path d="M86.955,327.259c.1.836.086.624.24,1.67.07.473.247,1.021.351,1.65.085.509.077,1.084.186,1.674.1.525.4,1.04.513,1.614.108.531.249,1.073.374,1.635.12.536.18,1.1.315,1.652.132.538.379,1.054.526,1.6s.08,1.143.241,1.682.5,1.023.676,1.554.208,1.125.4,1.645.5,1.024.717,1.531c.229.527.436,1.053.685,1.541.264.516.545,1.007.833,1.467A13.826,13.826,0,0,0,94,349.548a9.248,9.248,0,0,0,1.125,1.264,5.62,5.62,0,0,0,1.486.8" transform="translate(42.839 -19.756)" fill="none" stroke="#231815" stroke-linecap="round" stroke-linejoin="round" stroke-width="3.948"/><path d="M204.031,327.507c-.043.831.058.612-.041,1.661-.045.469-.14,1.02-.215,1.65-.06.506-.119,1.058-.2,1.65-.073.519-.1,1.076-.195,1.65-.087.527-.277,1.057-.382,1.621-.1.531-.069,1.1-.187,1.661-.112.532-.311,1.058-.441,1.608q-.189.8-.405,1.613c-.141.531-.3,1.062-.463,1.6s-.15,1.116-.326,1.646-.522,1-.716,1.517-.444,1.018-.658,1.531-.334,1.068-.571,1.569-.588.95-.849,1.437" transform="translate(42.839 -19.756)" fill="none" stroke="#231815" stroke-linecap="round" stroke-linejoin="round" stroke-width="3.948"/><path d="M132.007,135.609c.949,1.5,3.223,1.283,4.843.553s3.286-1.814,5.023-1.442c1.171.25,2.17,1.147,3.367,1.189,1.663.059,2.983-1.534,4.639-1.695a5.632,5.632,0,0,1,2.83.742l4.1,1.893" transform="translate(42.839 -19.756)" fill="none" stroke="#231815" stroke-linecap="round" stroke-linejoin="round" stroke-width="3.948"/><path d="M73.919,95.037A30.607,30.607,0,0,0,61.028,93.32a9.7,9.7,0,0,0-3.948.992,4.165,4.165,0,0,0-2.256,3.219,2.336,2.336,0,0,0,.442,1.589,3.4,3.4,0,0,0,1.634.967,23.645,23.645,0,0,0,9.959,1.166" transform="translate(42.839 -19.756)" fill="none" stroke="#231815" stroke-linecap="round" stroke-linejoin="round" stroke-width="3.948"/><path d="M78.041,126.989a71.523,71.523,0,0,0-10.389,4.61c-1.988,1.079-4.026,2.358-5.041,4.38-.5.988-.637,2.354.213,3.061a2.828,2.828,0,0,0,1.6.506,13.882,13.882,0,0,0,8.843-2.3" transform="translate(42.839 -19.756)" fill="none" stroke="#231815" stroke-linecap="round" stroke-linejoin="round" stroke-width="3.948"/></g><polygon points="57.035 159.612 57.566 220.283 46.219 248.521 48.233 250.112 152.691 249.9 157.569 248.945 146.222 220.736 145.586 159.941 57.035 159.612" fill="#fff"/><path d="M.877,273H109.851a.876.876,0,0,0,.811-1.208l-11.3-27.681a.855.855,0,0,1-.065-.327l-.24-59.629a.877.877,0,0,0-.877-.873H11.6a.877.877,0,0,0-.876.891l.006.341V244.28a.89.89,0,0,1-.06.319L.061,271.8A.876.876,0,0,0,.877,273Zm18.289-81.746H91.339a.877.877,0,0,1,.877.876v45.536a.877.877,0,0,1-.877.876H19.166a.876.876,0,0,1-.876-.876V192.125A.876.876,0,0,1,19.166,191.249Z" transform="translate(42.839 -19.756)" fill="#ffe200"/><path d="M98.048,188.844c0-2.174-.756-3.2-2.874-3.28-.784-.031-1.567-.09-2.351-.091q-16.918-.009-33.836,0-17.133,0-34.265.008c-4.73.009-4.976.208-5.009,4.933-.094,13.614-.125,27.228-.168,40.842-.013,4,1.3,5.357,5.349,5.361q34.052.031,68.1.007c3.187,0,5.519-1.58,5.435-5.441C98.119,217.071,98.078,202.956,98.048,188.844Zm-3.375,44.169H23.234V189.256H94.673Z" transform="translate(42.839 -19.756)" fill="#231815"/><path d="M12.4,238.618a8.383,8.383,0,0,0,.205,1.9,1.877,1.877,0,0,0,3.715-.069,13.287,13.287,0,0,0,.2-2.546c-.038-18.179.125-36.358-.23-54.536a2.587,2.587,0,0,1,.257-1.762H101.5c0,1,0,1.84,0,2.684q-.088,18.714-.175,37.427c-.021,5.846-.005,11.692.015,17.538,0,1.363.3,2.774,1.951,2.81,1.809.04,2.052-1.433,2.085-2.88q.007-.319.007-.641-.082-28.659-.171-57.317c-.011-3.181-.365-3.466-3.608-3.352-.57.02-1.142-.017-1.713-.019-14.493-.039-28.987-.11-43.48-.107-13.28,0-26.56.1-39.84.127-3.79.007-3.8-.051-3.888,3.64C12.221,200.548,12.454,219.584,12.4,238.618Z" transform="translate(42.839 -19.756)" fill="#231815"/><path d="M106.663,246.051a4.565,4.565,0,0,0-1.372-1.912,1.771,1.771,0,0,0-1.8-.263,1.374,1.374,0,0,0-.971,1.548,6.951,6.951,0,0,0,.564,1.635c2.53,5.749,5.084,11.491,7.6,17.245a12.176,12.176,0,0,1,1.323,3.769H5.893a5.356,5.356,0,0,1,.746-2.627q4.131-9.431,8.3-18.848c.436-.989.834-2.073-.539-2.663-1.467-.629-2.332.33-2.825,1.357-3.537,7.375-7.157,14.724-10.009,22.341-.8,2.131-.235,2.7,2.225,3.434a12.23,12.23,0,0,0,3.583.393q27.5,0,55,0c16.278,0,32.557.11,48.832-.065,6.127-.066,6.124-1.643,4.426-5.506C112.713,259.253,109.665,252.66,106.663,246.051Z" transform="translate(42.839 -19.756)" fill="#231815"/><path d="M98.22,241.887c-.046-1.118-.883-1.552-1.9-1.652-.495-.049-1-.043-1.5-.047q-35.959-.3-71.918.008c-1.388.012-3.258-.266-3.28,1.761-.023,2.06,1.891,1.789,3.251,1.793,12.057.033,24.115.019,36.172.019v.1q15.947,0,31.893-.008c1.782,0,3.566-.087,5.347-.17C97.42,243.638,98.272,243.135,98.22,241.887Z" transform="translate(42.839 -19.756)" fill="#231815"/><path d="M90.765,253.421c.93-.178,1.617-.711,1.533-1.736a1.564,1.564,0,0,0-1.591-1.45c-.852-.075-1.709-.117-2.564-.118q-14.55-.012-29.1,0v-.083c-7.275,0-14.55-.015-21.825.006-3.138.01-6.276.088-9.414.145-1.148.02-2.27.247-2.246,1.677s1.182,1.591,2.3,1.658c.284.017.57.014.855.014q30.173,0,60.345,0A9.2,9.2,0,0,0,90.765,253.421Z" transform="translate(42.839 -19.756)" fill="#231815"/><path d="M85.93,258.009q-27,0-53.993,0a8.209,8.209,0,0,0-2.111.276,1.42,1.42,0,0,0-1.143,1.384,1.466,1.466,0,0,0,1.267,1.5,7.478,7.478,0,0,0,1.7.129q13.6.011,27.209,0,13.711,0,27.424-.009c1.2,0,2.727.154,2.765-1.556s-1.5-1.589-2.692-1.72A4.08,4.08,0,0,0,85.93,258.009Z" transform="translate(42.839 -19.756)" fill="#231815"/><path d="M50.133,206.052c-.751-2.2.89-4.677,3.045-5.562s4.611-.55,6.862.049a6.963,6.963,0,0,1,2.628,1.155c2,1.608,1.882,4.874.411,6.977s-3.893,3.3-6.245,4.328a1.153,1.153,0,0,0-.619.463,1.136,1.136,0,0,0-.05.632q.131,1.131.308,2.257" transform="translate(42.839 -19.756)" fill="none" stroke="#231815" stroke-linecap="round" stroke-linejoin="round" stroke-width="3.948"/><path d="M57.683,228.491a2.107,2.107,0,0,1-2.361-.14,2.577,2.577,0,0,1-.94-2.228,2.817,2.817,0,0,1,2.095-2.468,2.608,2.608,0,0,1,2.879,1.4,2.43,2.43,0,0,1-.945,3.013,4.385,4.385,0,0,1-2.441.353" transform="translate(42.839 -19.756)" fill="none" stroke="#231815" stroke-linecap="round" stroke-linejoin="round" stroke-width="3.948"/></svg>