<svg xmlns="http://www.w3.org/2000/svg" xmlns:xlink="http://www.w3.org/1999/xlink" width="127.777" height="218.249" viewBox="0 0 127.777 218.249"><defs><clipPath id="a" transform="translate(-47.513 -30.551)"><circle cx="115.6" cy="115.6" r="115.6" fill="none"/></clipPath></defs><g clip-path="url(#a)"><path d="M70,248.8s-3.726-37.673-9.463-44.436c-.137-1.964-4.253-5.151,1.8-5.158S88.9,198.175,88.9,198.175s2.247,4.489,5.673,5.157,22.155,4.542,27.59,1.805,10.149-6.156,17.793-6.446,16.277-.225,16.76-.258,8.979-.78,5.931,7.993S157.2,244.8,158,248.8Z" transform="translate(-47.513 -30.551)" fill="#ffe200"/><path d="M64.411,126.105c-.018.469-.029.941-.04,1.415s-.134.94-.139,1.415.083.944.086,1.418-.016.944-.007,1.418.125.941.142,1.415.007.944.03,1.418.042.943.072,1.416-.03.95.007,1.423.171.935.215,1.407-.057.957-.006,1.429.167.934.225,1.405.213.927.279,1.4.025.954.1,1.422.2.928.283,1.394.192.929.28,1.394.131.94.227,1.4.1.95.2,1.412.376.886.488,1.346.183.932.305,1.389.24.918.37,1.372.335.89.474,1.342.139.951.287,1.4.475.84.633,1.285.148.957.317,1.4.387.869.566,1.306.445.843.635,1.275.352.882.554,1.309.5.812.71,1.233.363.881.588,1.3.5.81.734,1.217.429.85.681,1.249.484.819.749,1.21.67.687.949,1.068.426.868.719,1.238.685.666.993,1.023.633.7.956,1.048.6.738.939,1.068.652.693,1,1.008.731.608,1.1.906.8.513,1.183.791.739.595,1.135.854.815.481,1.225.72.812.486,1.234.7.8.521,1.237.714.94.2,1.385.372.892.3,1.345.442.881.336,1.342.458.895.307,1.362.406.945.065,1.417.141.925.173,1.4.226.931.15,1.409.181.942.063,1.421.073,1.029-.051,1.509-.062c.255.673.025.748.055,1.467s-.07.721-.041,1.439-.051.722-.021,1.44.2.713.232,1.432-.158.726-.129,1.445.04.719.07,1.439.136.717.166,1.438-.045.725-.016,1.446" transform="translate(-47.513 -30.551)" fill="none" stroke="#231815" stroke-linecap="round" stroke-linejoin="round" stroke-width="3.374"/><path d="M122.007,181.429c-.411.1-.8.224-1.189.3-.416.08-.8.266-1.186.321-.424.061-.822.053-1.2.083-.145.729.014.74.054,1.481s-.04.745,0,1.486l.08,1.483c.04.743.077.741.117,1.483s.074.74.114,1.481.144.738.184,1.481-.044.749,0,1.493-.054.749-.014,1.494" transform="translate(-47.513 -30.551)" fill="none" stroke="#231815" stroke-linecap="round" stroke-linejoin="round" stroke-width="3.374"/><path d="M122.041,181.571c.464-.111.94-.187,1.4-.313s.866-.433,1.323-.578.966-.118,1.417-.284.811-.533,1.254-.722.922-.264,1.354-.478.845-.434,1.266-.672.826-.467,1.233-.73.83-.47,1.222-.756.722-.618,1.1-.926c.362-.3.706-.63,1.066-.957s.661-.673,1.005-1.017c.329-.33.634-.694.962-1.054s.6-.721.916-1.094.7-.643,1-1.029c.286-.369.551-.767.836-1.163.273-.38.459-.83.731-1.235.261-.389.626-.721.886-1.134.25-.4.512-.8.761-1.217.239-.4.378-.874.616-1.3.229-.409.609-.746.837-1.176.22-.414.418-.851.637-1.285s.336-.892.547-1.331.437-.843.64-1.285.4-.862.594-1.307.388-.869.578-1.317.321-.9.5-1.349c.176-.432.381-.88.543-1.366.149-.449.333-.908.469-1.4.129-.459.183-.953.3-1.44.112-.467.267-.936.369-1.424s.1-.972.191-1.461.124-.966.2-1.455.267-.95.331-1.439-.018-.991.036-1.48.106-.975.151-1.464.266-.967.3-1.455.073-.989.1-1.476-.061-.993-.048-1.477c.013-.5.064-.992.065-1.475,0-.5-.095-.991-.107-1.469-.014-.5.051-.982.023-1.456.46-.132.9-.272,1.345-.438s.879-.379,1.308-.577.871-.4,1.282-.635.825-.494,1.214-.758.85-.48,1.212-.777a13.725,13.725,0,0,0,.962-1.072,11.562,11.562,0,0,0,.9-1.1,9.656,9.656,0,0,0,.818-1.161,7.927,7.927,0,0,0,.654-1.27,6.4,6.4,0,0,0,.352-1.395,5.544,5.544,0,0,0-.216-1.416,5.3,5.3,0,0,0-.379-1.353,6.228,6.228,0,0,0-.657-1.264,6.3,6.3,0,0,0-1-1.032,4.309,4.309,0,0,0-2.587-1.216,6.465,6.465,0,0,0-1.431.173,8.522,8.522,0,0,0-1.428.107,11.438,11.438,0,0,0-1.37.446,12.61,12.61,0,0,0-1.227.75c-.487.262-.94.451-1.26.663" transform="translate(-47.513 -30.551)" fill="none" stroke="#231815" stroke-linecap="round" stroke-linejoin="round" stroke-width="3.374"/><path d="M75.189,89.678c-6.006,2.989-8.011,10.469-8.958,17.11A163.922,163.922,0,0,0,64.6,131.783" transform="translate(-47.513 -30.551)" fill="none" stroke="#231815" stroke-linecap="round" stroke-linejoin="round" stroke-width="3.374"/><path d="M153.426,140.377a3.843,3.843,0,0,1-.888-7.632,6.142,6.142,0,0,1,2.446.252c1.534.415,3.175,1.271,3.567,2.811a3.654,3.654,0,0,1-2.225,3.9,10.658,10.658,0,0,1-4.777.66" transform="translate(-47.513 -30.551)" fill="#ffe200" stroke="#231815" stroke-linecap="round" stroke-linejoin="round" stroke-width="3.374"/><path d="M92.3,198.121l-26.012,1.356c-4.873.254-4.371-1.025-8.544,1.5a19.89,19.89,0,0,0-7.755,9.851c-1.573,3.951-.13,13.767-.787,17.969" transform="translate(-47.513 -30.551)" fill="none" stroke="#231815" stroke-linecap="round" stroke-linejoin="round" stroke-width="3.374"/><path d="M135.17,198.759c6.616-.207,4.432-.413,11.049-.62,6.03-.188,12.431-.287,17.627,2.78,4.88,2.88,7.936,8.235,9.1,13.782s.626,11.31-.319,16.9" transform="translate(-47.513 -30.551)" fill="none" stroke="#231815" stroke-linecap="round" stroke-linejoin="round" stroke-width="3.374"/><path d="M62.076,123.651a14.347,14.347,0,0,0-4.307.133,4.851,4.851,0,0,0-3.364,2.479,6.343,6.343,0,0,0-.429,2.693,10.651,10.651,0,0,0,1.267,5.6,6.773,6.773,0,0,0,7.218,2.927" transform="translate(-47.513 -30.551)" fill="none" stroke="#231815" stroke-linecap="round" stroke-linejoin="round" stroke-width="3.374"/><path d="M59.755,144.4a2.669,2.669,0,0,1-3.1-.544,4.887,4.887,0,0,1-1.277-3.062,4.286,4.286,0,0,1,.608-2.93c1.145-1.581,3.512-1.554,5.4-1.042a3.407,3.407,0,0,1,1.913,1.063,2.753,2.753,0,0,1,.44,1.83,5.251,5.251,0,0,1-5.637,4.695" transform="translate(-47.513 -30.551)" fill="#ffe200" stroke="#231815" stroke-linecap="round" stroke-linejoin="round" stroke-width="3.374"/><path d="M88.1,125.12a9.228,9.228,0,0,1,10.19-1.231,6.627,6.627,0,0,1,2.426,2.066,8.212,8.212,0,0,1,1.19,3.52,8.617,8.617,0,0,1-.921,5.984c-2.187,3.3-9.189,5.051-12.506,2.744C84.136,135.181,84.3,128.529,88.1,125.12Z" transform="translate(-47.513 -30.551)" fill="none" stroke="#231815" stroke-linecap="round" stroke-linejoin="round" stroke-width="3.374"/><path d="M110.742,136.082a8.742,8.742,0,0,1-1.45-6,9.671,9.671,0,1,1,18.837,4A6.067,6.067,0,0,1,126.7,136.6a6.888,6.888,0,0,1-2.056,1.317C120.376,139.849,113.789,140.393,110.742,136.082Z" transform="translate(-47.513 -30.551)" fill="none" stroke="#231815" stroke-linecap="round" stroke-linejoin="round" stroke-width="3.374"/><path d="M93.9,130.209v1.276" transform="translate(-47.513 -30.551)" fill="none" stroke="#231815" stroke-linecap="round" stroke-linejoin="round" stroke-width="3.374"/><path d="M118.511,129.478a2.747,2.747,0,0,0-.174,1.459" transform="translate(-47.513 -30.551)" fill="none" stroke="#231815" stroke-linecap="round" stroke-linejoin="round" stroke-width="3.374"/><path d="M103.978,141.517l-.4,7.109" transform="translate(-47.513 -30.551)" fill="none" stroke="#231815" stroke-linecap="round" stroke-linejoin="round" stroke-width="3.374"/><path d="M103.378,132.018l4.739-.215" transform="translate(-47.513 -30.551)" fill="none" stroke="#231815" stroke-linecap="round" stroke-linejoin="round" stroke-width="3.374"/><path d="M98.616,157.015q7.188-.847,14.422-1.229a11.555,11.555,0,0,1-2.823,7.326" transform="translate(-47.513 -30.551)" fill="none" stroke="#231815" stroke-linecap="round" stroke-linejoin="round" stroke-width="3.374"/><path d="M70.87,110.635c5.851-6.985,15.546-9.3,24.621-10.121a114.721,114.721,0,0,1,42.4,4.143" transform="translate(-47.513 -30.551)" fill="none" stroke="#231815" stroke-linecap="round" stroke-linejoin="round" stroke-width="3.374"/><path d="M57.25,122.57c-2-15.191-1.176-31.649,7.442-44.318C72.015,67.488,84.459,60.684,97.382,59.1s26.192,1.789,37.487,8.263A44.25,44.25,0,0,1,143.5,73.6c5.816,5.55,9.344,13.19,10.975,21.062s1.481,16.008.778,24.016" transform="translate(-47.513 -30.551)" fill="none" stroke="#231815" stroke-linecap="round" stroke-linejoin="round" stroke-width="3.374"/><path d="M103.337,68.526A60.01,60.01,0,0,0,86.163,97.049" transform="translate(-47.513 -30.551)" fill="none" stroke="#231815" stroke-linecap="round" stroke-linejoin="round" stroke-width="3.374"/><path d="M113.438,68.256a52.071,52.071,0,0,1,7.567,33.359" transform="translate(-47.513 -30.551)" fill="none" stroke="#231815" stroke-linecap="round" stroke-linejoin="round" stroke-width="3.374"/><path d="M117.329,59.067c-.164-4.975-.325-10,.645-14.884.744-3.75,2.311-7.575,5.43-9.787,2.685-1.905,6.165-2.349,9.447-2.091,8.721.686,17.1,6.518,19.815,14.836s-1.178,18.561-9.16,22.141" transform="translate(-47.513 -30.551)" fill="none" stroke="#231815" stroke-linecap="round" stroke-linejoin="round" stroke-width="3.374"/><path d="M136.391,103.505a49.631,49.631,0,0,1,11.115,7.268" transform="translate(-47.513 -30.551)" fill="none" stroke="#231815" stroke-linecap="round" stroke-linejoin="round" stroke-width="3.374"/><path d="M131.722,64.082a21.994,21.994,0,0,1-2.142-9.236,10.662,10.662,0,0,1,1.234-5.6,5.326,5.326,0,0,1,4.774-2.75c2.735.228,4.592,3.233,4.417,5.971s-1.851,5.15-3.723,7.156" transform="translate(-47.513 -30.551)" fill="none" stroke="#231815" stroke-linecap="round" stroke-linejoin="round" stroke-width="3.374"/><path d="M137.164,83.886a9.982,9.982,0,0,1,6.419,4.63,23.059,23.059,0,0,1,2.817,7.6,69,69,0,0,1,1.473,19.323" transform="translate(-47.513 -30.551)" fill="none" stroke="#231815" stroke-linecap="round" stroke-linejoin="round" stroke-width="3.374"/><path d="M91.336,199.3a11.315,11.315,0,0,0,6.94,5.6,33.543,33.543,0,0,0,9.067,1.2,51.777,51.777,0,0,0,10.889-.327,17.389,17.389,0,0,0,9.655-4.686" transform="translate(-47.513 -30.551)" fill="none" stroke="#231815" stroke-linecap="round" stroke-linejoin="round" stroke-width="3.374"/><path d="M57.521,201.654c4.244,4.97,6.752,11.232,8.138,17.619s1.712,12.95,2.034,19.477" transform="translate(-47.513 -30.551)" fill="none" stroke="#231815" stroke-linecap="round" stroke-linejoin="round" stroke-width="3.374"/><path d="M164.933,201.813c-3.107,4.866-4.392,10.659-5.263,16.366a138.014,138.014,0,0,0-1.538,17.343" transform="translate(-47.513 -30.551)" fill="none" stroke="#231815" stroke-linecap="round" stroke-linejoin="round" stroke-width="3.374"/></g></svg>