<svg xmlns="http://www.w3.org/2000/svg" xmlns:xlink="http://www.w3.org/1999/xlink" width="264.206" height="281.293" viewBox="0 0 264.206 281.293"><defs><clipPath id="a" transform="translate(0 -30.189)"><circle cx="180.593" cy="144.5" r="144.5" fill="none"/></clipPath></defs><g clip-path="url(#a)"><path d="M132.593,303s-4.657-47.091-11.828-55.546c-.172-2.454-5.317-6.438,2.256-6.446s33.2-1.289,33.2-1.289,2.808,5.611,7.091,6.446,27.694,5.678,34.488,2.256,12.686-7.694,22.24-8.058,20.347-.281,20.951-.322,11.223-.975,7.413,9.992S241.593,298,242.593,303Z" transform="translate(0 -30.189)" fill="#ffe200"/><path d="M125.607,149.631c-.022.588-.036,1.179-.05,1.774s-.168,1.178-.173,1.772.1,1.182.107,1.776-.02,1.182-.008,1.776.157,1.177.177,1.77.009,1.181.038,1.774.053,1.18.091,1.772-.038,1.188.008,1.779.215,1.168.27,1.758-.071,1.2-.007,1.786.209,1.168.281,1.756.266,1.158.348,1.745.032,1.192.123,1.777.254,1.159.354,1.742.241,1.16.351,1.741.163,1.176.283,1.755.124,1.187.254,1.764.47,1.108.611,1.682.229,1.165.381,1.736.3,1.147.463,1.715.418,1.112.592,1.676.174,1.19.36,1.75.593,1.05.791,1.606.185,1.2.4,1.747.484,1.086.708,1.632.556,1.053.793,1.593.441,1.1.693,1.635.621,1.016.888,1.542.453,1.1.735,1.618.62,1.011.918,1.52.536,1.062.851,1.561.6,1.024.936,1.511.838.86,1.186,1.335.533,1.085.9,1.547.855.832,1.24,1.279.792.878,1.195,1.309.751.922,1.173,1.335.816.866,1.257,1.258.913.761,1.373,1.132,1,.641,1.479.989.923.744,1.419,1.067,1.018.6,1.531.9,1.014.608,1.542.878,1,.65,1.546.892,1.175.251,1.73.464,1.115.37,1.682.553,1.1.419,1.676.572,1.119.383,1.7.507,1.181.081,1.771.176,1.156.216,1.751.282,1.163.188,1.76.227,1.177.078,1.777.09,1.286-.063,1.885-.077c.318.841.032.935.069,1.833s-.088.9-.051,1.8-.064.9-.027,1.8.253.891.29,1.79-.2.907-.161,1.8.05.9.087,1.8.171.9.208,1.8-.057.905-.02,1.806" transform="translate(0 -30.189)" fill="none" stroke="#231815" stroke-linecap="round" stroke-linejoin="round" stroke-width="4.217"/><path d="M197.6,218.787c-.512.122-1,.279-1.482.373-.521.1-1,.333-1.485.4-.531.076-1.028.065-1.507.1-.183.91.017.924.067,1.851s-.05.931,0,1.857.049.927.1,1.854.1.926.147,1.854.092.924.142,1.851.181.922.231,1.851-.056.936,0,1.866-.068.937-.018,1.867" transform="translate(0 -30.189)" fill="none" stroke="#231815" stroke-linecap="round" stroke-linejoin="round" stroke-width="4.217"/><path d="M197.645,218.964c.58-.139,1.174-.233,1.751-.391s1.083-.542,1.654-.722,1.208-.149,1.771-.356,1.014-.667,1.567-.9,1.153-.33,1.693-.6,1.056-.542,1.582-.84,1.033-.584,1.542-.912c.493-.319,1.037-.588,1.527-.946.474-.345.9-.772,1.374-1.157.453-.37.882-.787,1.333-1.2.433-.393.827-.842,1.258-1.273.412-.413.793-.868,1.2-1.318.393-.431.755-.9,1.145-1.367.375-.448.88-.8,1.253-1.286.357-.461.689-.959,1.044-1.454.342-.475.574-1.038.914-1.544.326-.486.782-.9,1.107-1.416.312-.5.641-1,.952-1.522.3-.5.472-1.093.77-1.624.286-.511.761-.932,1.046-1.469.274-.517.522-1.064.8-1.606.265-.524.42-1.115.684-1.663.255-.53.545-1.054.8-1.607.245-.534.5-1.077.741-1.632.238-.54.485-1.086.723-1.647.229-.543.4-1.121.63-1.685.219-.54.476-1.1.678-1.708.187-.561.416-1.135.587-1.745.16-.573.228-1.19.374-1.8.14-.583.335-1.169.462-1.78.122-.591.129-1.215.238-1.826s.156-1.21.251-1.822.333-1.187.414-1.8-.023-1.238.045-1.849.132-1.219.188-1.83.333-1.209.375-1.819.092-1.233.122-1.842-.077-1.24-.061-1.846c.016-.625.08-1.24.081-1.844,0-.627-.118-1.239-.134-1.837-.016-.63.065-1.227.029-1.82.575-.165,1.127-.341,1.681-.547s1.1-.474,1.635-.722,1.089-.5,1.6-.793,1.03-.616,1.516-.946,1.061-.6,1.512-.97a16.505,16.505,0,0,0,1.2-1.339,14.327,14.327,0,0,0,1.133-1.37,12.083,12.083,0,0,0,1.023-1.451,9.805,9.805,0,0,0,.818-1.588,7.982,7.982,0,0,0,.442-1.745,6.943,6.943,0,0,0-.269-1.771,6.652,6.652,0,0,0-.474-1.692,7.7,7.7,0,0,0-.822-1.581,7.838,7.838,0,0,0-1.247-1.29,6.763,6.763,0,0,0-1.483-1.034,6.679,6.679,0,0,0-1.751-.486,8.027,8.027,0,0,0-1.789.216,10.636,10.636,0,0,0-1.785.134,14.139,14.139,0,0,0-1.71.557,15.67,15.67,0,0,0-1.535.937c-.61.328-1.176.564-1.576.829" transform="translate(0 -30.189)" fill="none" stroke="#231815" stroke-linecap="round" stroke-linejoin="round" stroke-width="4.217"/><path d="M139.08,104.1c-7.508,3.735-10.014,13.085-11.2,21.388a205.114,205.114,0,0,0-2.039,31.243" transform="translate(0 -30.189)" fill="none" stroke="#231815" stroke-linecap="round" stroke-linejoin="round" stroke-width="4.217"/><path d="M236.876,167.472a4.8,4.8,0,0,1-1.109-9.541,7.675,7.675,0,0,1,3.057.315c1.917.519,3.968,1.589,4.458,3.514.5,1.965-.948,4-2.78,4.876a13.351,13.351,0,0,1-5.972.824" transform="translate(0 -30.189)" fill="#ffe200" stroke="#231815" stroke-linecap="round" stroke-linejoin="round" stroke-width="4.217"/><path d="M160.466,239.651l-32.515,1.695c-6.091.318-5.463-1.281-10.679,1.879-4.548,2.755-7.728,7.373-9.7,12.313s-.163,17.209-.984,22.462" transform="translate(0 -30.189)" fill="none" stroke="#231815" stroke-linecap="round" stroke-linejoin="round" stroke-width="4.217"/><path d="M214.056,240.449c8.27-.258,5.541-.517,13.811-.775,7.538-.235,15.539-.359,22.033,3.474,6.1,3.6,9.921,10.3,11.371,17.229s.783,14.137-.4,21.122" transform="translate(0 -30.189)" fill="none" stroke="#231815" stroke-linecap="round" stroke-linejoin="round" stroke-width="4.217"/><path d="M122.689,146.563a17.942,17.942,0,0,0-5.384.168,6.06,6.06,0,0,0-4.206,3.1,7.919,7.919,0,0,0-.536,3.365,13.316,13.316,0,0,0,1.584,7,8.467,8.467,0,0,0,9.023,3.66" transform="translate(0 -30.189)" fill="none" stroke="#231815" stroke-linecap="round" stroke-linejoin="round" stroke-width="4.217"/><path d="M119.787,172.5a3.339,3.339,0,0,1-3.879-.68,6.1,6.1,0,0,1-1.595-3.828,5.355,5.355,0,0,1,.759-3.662c1.431-1.977,4.39-1.943,6.746-1.3a4.265,4.265,0,0,1,2.392,1.328,3.447,3.447,0,0,1,.55,2.289,6.565,6.565,0,0,1-7.046,5.869" transform="translate(0 -30.189)" fill="#ffe200" stroke="#231815" stroke-linecap="round" stroke-linejoin="round" stroke-width="4.217"/><path d="M155.221,148.4a11.537,11.537,0,0,1,12.738-1.539,8.3,8.3,0,0,1,3.033,2.582,10.286,10.286,0,0,1,1.487,4.4c.364,2.555.273,5.329-1.152,7.48-2.733,4.126-11.486,6.313-15.632,3.429C150.264,160.976,150.465,152.662,155.221,148.4Z" transform="translate(0 -30.189)" fill="none" stroke="#231815" stroke-linecap="round" stroke-linejoin="round" stroke-width="4.217"/><path d="M183.521,162.1a10.928,10.928,0,0,1-1.812-7.506,12.089,12.089,0,1,1,23.545,5,7.586,7.586,0,0,1-1.789,3.157,8.6,8.6,0,0,1-2.57,1.646C195.563,166.812,187.329,167.491,183.521,162.1Z" transform="translate(0 -30.189)" fill="none" stroke="#231815" stroke-linecap="round" stroke-linejoin="round" stroke-width="4.217"/><path d="M162.464,154.761v1.595" transform="translate(0 -30.189)" fill="none" stroke="#231815" stroke-linecap="round" stroke-linejoin="round" stroke-width="4.217"/><path d="M193.232,153.848a3.433,3.433,0,0,0-.217,1.823" transform="translate(0 -30.189)" fill="none" stroke="#231815" stroke-linecap="round" stroke-linejoin="round" stroke-width="4.217"/><path d="M174.316,157.022l5.924-.268" transform="translate(0 -30.189)" fill="none" stroke="#231815" stroke-linecap="round" stroke-linejoin="round" stroke-width="4.217"/><path d="M133.681,130.294c7.314-8.731,19.432-11.628,30.776-12.651a143.377,143.377,0,0,1,53,5.179" transform="translate(0 -30.189)" fill="none" stroke="#231815" stroke-linecap="round" stroke-linejoin="round" stroke-width="4.217"/><path d="M116.656,145.213c-2.5-18.989-1.471-39.562,9.3-55.4,9.153-13.455,24.709-21.96,40.861-23.935s32.741,2.236,46.859,10.329A55.227,55.227,0,0,1,224.462,84c7.27,6.937,11.68,16.487,13.72,26.326s1.85,20.011.971,30.021" transform="translate(0 -30.189)" fill="none" stroke="#231815" stroke-linecap="round" stroke-linejoin="round" stroke-width="4.217"/><path d="M174.264,77.658A75.006,75.006,0,0,0,152.8,113.312" transform="translate(0 -30.189)" fill="none" stroke="#231815" stroke-linecap="round" stroke-linejoin="round" stroke-width="4.217"/><path d="M186.891,77.32a65.083,65.083,0,0,1,9.458,41.7" transform="translate(0 -30.189)" fill="none" stroke="#231815" stroke-linecap="round" stroke-linejoin="round" stroke-width="4.217"/><path d="M191.754,65.833c-.2-6.218-.405-12.5.807-18.6.93-4.688,2.889-9.469,6.787-12.234,3.356-2.381,7.707-2.936,11.809-2.614,10.9.858,21.382,8.148,24.77,18.545s-1.474,23.2-11.452,27.676" transform="translate(0 -30.189)" fill="none" stroke="#231815" stroke-linecap="round" stroke-linejoin="round" stroke-width="4.217"/><path d="M215.582,121.381a62.057,62.057,0,0,1,13.894,9.085" transform="translate(0 -30.189)" fill="none" stroke="#231815" stroke-linecap="round" stroke-linejoin="round" stroke-width="4.217"/><path d="M209.746,72.1a27.493,27.493,0,0,1-2.678-11.546,13.314,13.314,0,0,1,1.543-7,6.656,6.656,0,0,1,5.968-3.438c3.418.286,5.739,4.041,5.521,7.464s-2.314,6.437-4.654,8.944" transform="translate(0 -30.189)" fill="none" stroke="#231815" stroke-linecap="round" stroke-linejoin="round" stroke-width="4.217"/><path d="M216.548,96.857a12.474,12.474,0,0,1,8.024,5.788,28.786,28.786,0,0,1,3.521,9.5,86.264,86.264,0,0,1,1.842,24.153" transform="translate(0 -30.189)" fill="none" stroke="#231815" stroke-linecap="round" stroke-linejoin="round" stroke-width="4.217"/><path d="M159.263,241.127c1.611,3.468,5.04,5.819,8.676,7s7.513,1.345,11.334,1.5a64.727,64.727,0,0,0,13.61-.409c4.482-.773,8.913-2.583,12.069-5.858" transform="translate(0 -30.189)" fill="none" stroke="#231815" stroke-linecap="round" stroke-linejoin="round" stroke-width="4.217"/><path d="M117,244.067c5.3,6.213,8.44,14.04,10.172,22.024s2.141,16.187,2.543,24.347" transform="translate(0 -30.189)" fill="none" stroke="#231815" stroke-linecap="round" stroke-linejoin="round" stroke-width="4.217"/><path d="M251.259,244.266c-3.883,6.083-5.489,13.323-6.579,20.457a172.823,172.823,0,0,0-1.922,21.679" transform="translate(0 -30.189)" fill="none" stroke="#231815" stroke-linecap="round" stroke-linejoin="round" stroke-width="4.217"/><path d="M164.586,129.573a15.2,15.2,0,0,1-12,6.112" transform="translate(0 -30.189)" fill="none" stroke="#231815" stroke-linecap="round" stroke-linejoin="round" stroke-width="4.217"/><path d="M177.577,170.128,178,179.4" transform="translate(0 -30.189)" fill="none" stroke="#231815" stroke-linecap="round" stroke-linejoin="round" stroke-width="4.217"/><path d="M171.076,194.506c1.55-1.977,4.3-2.5,6.8-2.669a43.262,43.262,0,0,1,10.866.653" transform="translate(0 -30.189)" fill="none" stroke="#231815" stroke-linecap="round" stroke-linejoin="round" stroke-width="4.217"/><path d="M106.512,98.105a46.933,46.933,0,0,0-16.679-4.379,5.06,5.06,0,0,0-2.954.418c-1.362.8-1.716,2.583-1.934,4.15-.167,1.206-.278,2.594.556,3.48a3.961,3.961,0,0,0,2.172.953,46.667,46.667,0,0,0,10.19.928" transform="translate(0 -30.189)" fill="none" stroke="#231815" stroke-linecap="round" stroke-linejoin="round" stroke-width="4.217"/><path d="M98.126,123.306a32.061,32.061,0,0,0-12.113,6.609,9.077,9.077,0,0,0-2.935,3.9,3.817,3.817,0,0,0,1.335,4.384,4.73,4.73,0,0,0,2.279.54,13.358,13.358,0,0,0,9.235-3.324" transform="translate(0 -30.189)" fill="none" stroke="#231815" stroke-linecap="round" stroke-linejoin="round" stroke-width="4.217"/></g><polygon points="11.914 169.835 3.848 171.941 25.319 278.086 27.537 279.811 113.755 261.887 116.864 259.689 95.656 153.59 87.22 155.276 86.461 153.945 11.769 168.875 11.914 169.835" fill="#fff"/><path d="M83.427,186.223l19.82,99.153L28.311,300.355,8.8,201.02l-6.713,1.342C1.387,203.4.7,204.446,0,205.489L20.872,309.906l1.876.926,86.927-17.376,2.577-2.726L91.057,184.7Z" transform="translate(0 -30.189)" fill="#ffe200"/><path d="M79.739,210.28c-.146.029-.292.065-.433.1-.115.028-.225.056-.344.08h0q-4.807.93-9.609,1.9l-8.006,1.6-.008-.044-8.858,1.769q-3.9.78-7.8,1.568c-.967.2-1.933.448-2.867.692l-.334.087a1.362,1.362,0,0,0,.405,2.694,10.115,10.115,0,0,0,1.634-.187q9.718-1.935,19.437-3.875,8.254-1.65,16.511-3.314c.1-.019.2-.036.3-.054.124-.021.25-.043.377-.068a2.094,2.094,0,0,0,1.366-.723,1.442,1.442,0,0,0,.19-1.153C81.57,210.71,81.124,210,79.739,210.28Z" transform="translate(0 -30.189)" fill="#231815"/><path d="M32.6,213.394l-.115.025c-.292.068-.586.13-.881.189-.261.052-.522.1-.783.152s-.522.1-.829.161H29.99c-3.963.8-4.057.928-3.333,4.707.043.217.081.436.119.655a11.32,11.32,0,0,0,.328,1.5,2.058,2.058,0,0,0,2.419,1.7c.806-.126,1.594-.253,2.372-.408.679-.136,1.278-.28,1.833-.44,1.9-.548,2.454-1.464,2.041-3.382-.269-1.252-.6-2.5-.861-3.44A1.791,1.791,0,0,0,32.6,213.394Zm.459,5.673-3.507.7-.608-3.04a15.91,15.91,0,0,1,1.628-.41c.537-.108,1.121-.2,1.873-.3A13.742,13.742,0,0,1,33.062,219.067Z" transform="translate(0 -30.189)" fill="#231815"/><path d="M83.445,228.817c-.146.029-.293.065-.433.1-.115.028-.226.056-.345.08h0q-4.808.93-9.609,1.9l-8.006,1.6-.009-.044-8.858,1.769q-3.9.78-7.8,1.568c-.968.2-1.934.448-2.868.692l-.333.087a1.362,1.362,0,0,0,.4,2.694,10.216,10.216,0,0,0,1.634-.187q9.718-1.935,19.438-3.875,8.253-1.65,16.511-3.314c.1-.019.2-.036.3-.054.123-.021.25-.043.376-.068a2.1,2.1,0,0,0,1.367-.723,1.442,1.442,0,0,0,.189-1.153C85.275,229.247,84.83,228.54,83.445,228.817Z" transform="translate(0 -30.189)" fill="#231815"/><path d="M36.308,231.931l-.115.025c-.292.068-.586.13-.881.189-.26.052-.521.1-.782.152s-.523.1-.83.161H33.7c-3.963.8-4.056.929-3.333,4.708.044.217.081.436.119.655a11.119,11.119,0,0,0,.329,1.5,2.057,2.057,0,0,0,2.418,1.7c.806-.127,1.595-.253,2.372-.408.679-.136,1.279-.28,1.833-.44,1.9-.548,2.454-1.464,2.041-3.382-.269-1.252-.6-2.5-.861-3.44A1.791,1.791,0,0,0,36.308,231.931Zm.46,5.673-3.508.7-.607-3.039a15.633,15.633,0,0,1,1.627-.41c.538-.108,1.122-.2,1.873-.3A13.8,13.8,0,0,1,36.768,237.6Z" transform="translate(0 -30.189)" fill="#231815"/><path d="M87.15,247.354c-.146.029-.292.065-.433.1-.115.028-.225.056-.344.08h0q-4.807.93-9.609,1.9l-8.006,1.6-.009-.044-8.858,1.769q-3.9.78-7.8,1.568c-.968.2-1.933.448-2.867.692l-.334.087a1.362,1.362,0,0,0,.4,2.694,10.216,10.216,0,0,0,1.634-.187q9.72-1.935,19.438-3.875,8.255-1.65,16.511-3.314c.1-.019.2-.036.3-.054.123-.021.25-.043.376-.068a2.094,2.094,0,0,0,1.367-.723,1.442,1.442,0,0,0,.19-1.153C88.981,247.784,88.535,247.077,87.15,247.354Z" transform="translate(0 -30.189)" fill="#231815"/><path d="M40.014,250.468l-.115.025c-.293.068-.587.13-.881.189q-.392.078-.783.151c-.261.05-.522.1-.83.161h0c-3.964.8-4.057.929-3.333,4.708.043.217.081.436.118.655a11.436,11.436,0,0,0,.329,1.5,2.058,2.058,0,0,0,2.418,1.7c.807-.127,1.595-.253,2.373-.408.679-.136,1.278-.28,1.833-.44,1.9-.548,2.453-1.464,2.041-3.382-.27-1.252-.6-2.5-.862-3.44A1.79,1.79,0,0,0,40.014,250.468Zm.459,5.673-3.507.7-.608-3.039a15.7,15.7,0,0,1,1.627-.41c.538-.108,1.122-.2,1.873-.3A13.686,13.686,0,0,1,40.473,256.141Z" transform="translate(0 -30.189)" fill="#231815"/><path d="M90.855,265.891c-.146.029-.292.065-.433.1-.114.028-.225.056-.344.08h0q-4.808.93-9.609,1.895l-8,1.605-.009-.044L63.6,271.3q-3.9.78-7.8,1.568c-.967.2-1.933.448-2.867.692l-.334.087A1.362,1.362,0,0,0,53,276.337a10.229,10.229,0,0,0,1.634-.187q9.718-1.935,19.437-3.875,8.254-1.65,16.511-3.314c.1-.019.2-.037.3-.054.124-.022.251-.043.377-.068a2.1,2.1,0,0,0,1.366-.723,1.442,1.442,0,0,0,.19-1.153C92.686,266.321,92.24,265.614,90.855,265.891Z" transform="translate(0 -30.189)" fill="#231815"/><path d="M43.719,269.005l-.115.025c-.292.068-.586.13-.881.189q-.391.078-.783.151c-.261.05-.522.1-.829.161h0c-3.963.8-4.057.929-3.333,4.708.044.217.081.436.119.655a11.306,11.306,0,0,0,.328,1.5,2.058,2.058,0,0,0,2.419,1.7c.806-.127,1.594-.253,2.372-.409.679-.135,1.279-.279,1.833-.439,1.9-.548,2.454-1.465,2.041-3.382-.269-1.252-.6-2.5-.861-3.44A1.79,1.79,0,0,0,43.719,269.005Zm.459,5.673-3.507.7-.608-3.039a15.654,15.654,0,0,1,1.628-.41c.537-.108,1.121-.2,1.873-.3A13.742,13.742,0,0,1,44.178,274.678Z" transform="translate(0 -30.189)" fill="#231815"/><path d="M100.343,196.75c-.676-3.358-1.431-7.026-2.374-11.542-.565-2.71-2.177-3.483-3.5-3.3-.738.1-1.538.237-2.446.419-.809.162-1.616.341-2.421.519l-.066.014a2.572,2.572,0,0,0-.6.223,2.324,2.324,0,0,0-2.874-1.346l-.165.034-.948.18L35.822,191.78q-2.627.525-5.256,1.063-2.674.544-5.352,1.084c-4.07.813-8.9,1.749-13.873,2.522-.038.007-.076.013-.113.021a2.142,2.142,0,0,0-1.573,1.2,2.173,2.173,0,0,0-.158,1.214,4.32,4.32,0,0,0-.649.071l-.26.051c-.3.06-.6.126-.9.192s-.575.127-.862.184c-.4.081-.736.135-1.043.171-.235.027-.455.062-.662.1-3.159.631-3.071,3.081-2.73,4.87,4.733,24.813,9.771,50,14.644,74.348q2.863,14.321,5.717,28.644a4.9,4.9,0,0,0,1.939,3.311,4.982,4.982,0,0,0,3.817.5q24.719-4.932,49.437-9.871,18.6-3.719,37.2-7.447a4.749,4.749,0,0,0,3.111-1.889,4.618,4.618,0,0,0,.575-3.58Q109.59,242.647,100.343,196.75Zm-36.394-6.633a2.878,2.878,0,0,0,.043.8c.146.753.3,1.5.465,2.34l.032.157-25.843,5.164a10.288,10.288,0,0,1-2.029.31,8.572,8.572,0,0,1-.632-2.042l-.062-.268a3.243,3.243,0,0,0-.3-.8ZM13.794,200.142l18.021-3.6a3.068,3.068,0,0,0,.039.933c.171.91.345,1.82.532,2.727.522,2.549,1.957,3.5,4.515,2.994q9.5-1.884,19-3.786l1.737-.347q1.491-.3,2.981-.6t2.976-.6c.785-.158,1.572-.313,2.392-.471a3.158,3.158,0,0,0,2.785-3.352,17.684,17.684,0,0,0-.578-3.23c-.065-.265-.13-.53-.191-.794a2.581,2.581,0,0,0-.254-.654L85.6,185.788c1.932,8.008,18.192,88.848,19.563,97.262L33.24,297.427Zm82.057-4.272q9.3,46.626,18.585,93.253c.032.16.077.322.123.483.016.057.03.109.043.156L27.214,307.23,7.9,210.785c-.425-2.13-.864-4.332-1.356-6.491a2.195,2.195,0,0,1-.073-.531.97.97,0,0,1,.126-.032,2.151,2.151,0,0,1,.237-.033,12.135,12.135,0,0,0,1.321-.2c.515-.1,1.007-.226,1.55-.364a4.736,4.736,0,0,0,.81-.271q9.25,46.6,18.485,93.194c.233,1.176.4,2.258.516,3.307a2.228,2.228,0,0,0,2.765,2.161c1.32-.186,2.617-.433,3.822-.673l30.015-5.973q19.308-3.843,38.616-7.683c.947-.189,1.917-.339,2.882-.448.1-.011.2-.027.3-.045a1.99,1.99,0,0,0,1.667-2.388,7.389,7.389,0,0,0-.127-.74l-3.062-15.268q-7.972-39.763-15.959-79.524c-.121-.6-.267-1.2-.42-1.792.091,0,.18,0,.275-.011.654-.074,1.3-.2,1.846-.305l1.135-.23c.141-.028.446-.089.664-.117.065.233.139.61.213.98Z" transform="translate(0 -30.189)" fill="#231815"/></svg>