<svg xmlns="http://www.w3.org/2000/svg" xmlns:xlink="http://www.w3.org/1999/xlink" width="165.6" height="185.171" viewBox="0 0 165.6 185.171"><defs><clipPath id="a" transform="translate(-32.8 -48.915)"><circle cx="115.6" cy="115.6" r="115.6" fill="none"/></clipPath><clipPath id="b" transform="translate(-32.8 -48.915)"><path d="M43.2,234.4s-.7-23.2,6.452-26.8,9.433-6.645,15.89-6.723a82.2,82.2,0,0,0,12.53-1.222,52.808,52.808,0,0,0,6.111,4.889c3.817,2.655,16.79,10.737,27.5,10.7s29.038-4.839,31.476-7.64,5.637-7.6,14.437-8.4,18.822,1.89,21.011,5.345S188.8,216,182.4,238.4Z" fill="none"/></clipPath></defs><g clip-path="url(#a)"><path d="M93.837,186.586s-32.33,2.258-40.871-8.618-8.211-28.026-6.13-36.607,7.6-38.2,8.582-41.714,11.246-41.28,32.693-43.842,38.114-2.038,51.492,5.108,26.478,27.785,27.789,36.18,5.8,31.789,4.306,48.164c0,0-7.2,43.322-13.705,45.055s-22.231,4.072-26.723,3.292-20.962-3.119-20.962-3.119Z" transform="translate(-32.8 -48.915)" fill="#3b2d28"/><path d="M92.72,77.391s11.09-6.035,19.185-.913,18.193,6.1,23.144,34.411c0,0,7.566,27.449,10.658,32.28A36.878,36.878,0,0,0,152.8,151.2s-9.939,22.779-18.969,26.99S121.6,183.2,121.6,183.2l1.6,20-20-.8-.8-18.4s-15.568.807-23.384-11.6-15.1-17.381-10.658-53.293S82.4,87.2,82.4,87.2Z" transform="translate(-32.8 -48.915)" fill="#fff"/><g clip-path="url(#b)"><line y1="162.285" x2="165.6" y2="162.285" fill="none" stroke="#ffe200" stroke-miterlimit="10" stroke-width="2.4"/><line y1="170.685" x2="165.6" y2="170.685" fill="none" stroke="#ffe200" stroke-miterlimit="10" stroke-width="2.4"/><line y1="179.085" x2="165.6" y2="179.085" fill="none" stroke="#ffe200" stroke-miterlimit="10" stroke-width="2.4"/></g><path d="M67.259,126.907c-.018.469-.077.939-.088,1.413s-.091.941-.1,1.415-.007.944,0,1.418.158.941.168,1.415-.066.946-.049,1.42.1.941.121,1.414-.1.953-.074,1.426.029.947.066,1.42.222.931.266,1.4-.057.957-.006,1.428.151.937.209,1.408.12.94.186,1.409.28.916.353,1.385.141.935.222,1.4.146.936.235,1.4.218.922.314,1.385,0,.971.1,1.433.209.927.321,1.387.434.868.555,1.325.213.924.343,1.378.284.9.423,1.356.273.907.421,1.355.125.961.284,1.406.367.878.536,1.319.479.831.658,1.268.315.9.5,1.328.263.925.464,1.352.611.758.824,1.179.37.876.595,1.291.351.893.59,1.3.657.711.908,1.111.357.9.622,1.291.626.721.905,1.1.559.767.852,1.137.495.825.8,1.182.64.708.963,1.052.774.571,1.112.9.606.74.959,1.054.775.552,1.143.85.757.565,1.14.844.68.683,1.076.942.815.491,1.226.729.894.336,1.316.553.845.416,1.279.61.824.479,1.268.649.89.324,1.343.47.9.293,1.36.416.911.262,1.378.361.949.058,1.42.134.936.094,1.412.147.933.1,1.41.134.938.081,1.418.091.993.027,1.473.016c.254.673-.062.74-.032,1.459s.068.716.1,1.433,0,.72.027,1.439.02.719.05,1.439.043.718.073,1.436-.054.723-.024,1.444.24.712.27,1.433-.14.728-.111,1.45" transform="translate(-32.8 -48.915)" fill="none" stroke="#231815" stroke-linecap="round" stroke-linejoin="round" stroke-width="3.374"/><path d="M104.186,127.144a4.933,4.933,0,0,0,.04-1.466,2.275,2.275,0,0,0-.575-1.372,2.184,2.184,0,0,0-1.414-.444,2.078,2.078,0,0,0-1.465.491,3.388,3.388,0,0,0-.877,1.293,6.68,6.68,0,0,0-.309,1.535,7.864,7.864,0,0,0-.18,1.544,3.049,3.049,0,0,0,.58,1.475,1.668,1.668,0,0,0,1.413.721,5.8,5.8,0,0,0,1.363-.152,1.822,1.822,0,0,0,.922-.993,3.9,3.9,0,0,0,.4-1.28A9.777,9.777,0,0,0,104.186,127.144Z" transform="translate(-32.8 -48.915)" fill="#231815"/><path d="M121.408,126.933c0-.133-.067-.637-.156-1.2a3.345,3.345,0,0,0-.391-1.127,1.228,1.228,0,0,0-.912-.631,2.712,2.712,0,0,0-1.417-.033,2.78,2.78,0,0,0-1.126.881,4.039,4.039,0,0,0-.676,1.251,4.925,4.925,0,0,0-.351,1.389c-.029.532-.046,1.057-.065,1.545a4.616,4.616,0,0,0,.185,1.5,1.24,1.24,0,0,0,.969.956,2.518,2.518,0,0,0,1.348.013,2.72,2.72,0,0,0,1.29-.554,3.622,3.622,0,0,0,.756-1.206,5.873,5.873,0,0,0,.325-1.373A8.4,8.4,0,0,0,121.408,126.933Z" transform="translate(-32.8 -48.915)" fill="#231815"/><path d="M124.821,182.289c-.411.1-.79.288-1.179.363-.416.081-.823.146-1.21.2-.424.061-.805.053-1.188.084a3.988,3.988,0,0,0-.046,1.482c.04.741.159.734.2,1.475s-.018.744.022,1.486.187.735.227,1.477-.151.752-.111,1.493.123.739.164,1.482.006.746.046,1.49.044.745.084,1.489" transform="translate(-32.8 -48.915)" fill="none" stroke="#231815" stroke-linecap="round" stroke-linejoin="round" stroke-width="3.374"/><path d="M124.854,182.425c.464-.111.91-.3,1.371-.428s.915-.273,1.371-.417.876-.381,1.326-.547.9-.315,1.338-.5.911-.292,1.344-.5.865-.4,1.285-.641.806-.506,1.213-.769.8-.509,1.195-.8.68-.668,1.056-.976.8-.519,1.161-.847.589-.748.932-1.092.768-.57,1.1-.93c.314-.345.557-.766.87-1.14.3-.358.677-.667.975-1.052s.52-.792.805-1.188c.272-.38.481-.815.753-1.22.261-.389.666-.7.926-1.109.25-.4.431-.848.68-1.268.238-.4.394-.863.632-1.288.229-.408.609-.745.837-1.175.22-.414.4-.859.62-1.294.212-.419.393-.864.6-1.3s.436-.845.639-1.287.376-.872.572-1.316.276-.917.466-1.366.458-.84.641-1.291c.176-.432.332-.9.493-1.385.149-.449.379-.9.516-1.383.128-.458.1-.972.222-1.46.112-.466.249-.937.35-1.426.1-.473.276-.939.364-1.428s.221-.954.3-1.443.106-.975.171-1.465-.051-.994,0-1.484.258-.961.3-1.45-.081-1-.047-1.483.155-.981.179-1.468.179-.984.192-1.469-.088-1-.087-1.478c0-.5-.054-.991-.066-1.47-.013-.5.072-.947.044-1.421.46-.132.881-.235,1.324-.4s.817-.528,1.246-.727.938-.27,1.349-.5.842-.48,1.231-.744.806-.545,1.168-.843a13.616,13.616,0,0,0,.989-1.045,11.526,11.526,0,0,0,.875-1.126,9.4,9.4,0,0,0,.745-1.2,7.581,7.581,0,0,0,.62-1.265,6.325,6.325,0,0,0,.405-1.365,12.574,12.574,0,0,0-.444-2.809,13.548,13.548,0,0,0-1.724-2.287,4.993,4.993,0,0,0-1.3-.6,5.149,5.149,0,0,0-1.329-.481,6.315,6.315,0,0,0-1.431-.08,8.473,8.473,0,0,0-1.428.206,10.941,10.941,0,0,0-1.335.548,13.82,13.82,0,0,0-1.278.644c-.487.262-.942.458-1.262.67" transform="translate(-32.8 -48.915)" fill="none" stroke="#231815" stroke-linecap="round" stroke-linejoin="round" stroke-width="3.374"/><path d="M102.431,155.923a3.158,3.158,0,0,0,1.1,1,9.793,9.793,0,0,0,1.3.732,11.356,11.356,0,0,0,1.389.551,14.568,14.568,0,0,0,1.464.281c.457.087.959.039,1.48.087.467.043.951.095,1.472.1.471,0,.966.091,1.482.054.471-.033.964-.074,1.473-.145.472-.066.942-.257,1.448-.358.469-.095.994-.032,1.493-.16" transform="translate(-32.8 -48.915)" fill="none" stroke="#231815" stroke-linecap="round" stroke-linejoin="round" stroke-width="3.374"/><path d="M86.736,79a26.972,26.972,0,0,1,28.435-3.677c11.644,5.58,17.537,18.708,20.755,31.213s4.874,25.816,11.918,36.637a20.123,20.123,0,0,0,5.506,5.966c5.088,3.378,11.726,2.843,17.8,2.179" transform="translate(-32.8 -48.915)" fill="none" stroke="#fff" stroke-linecap="round" stroke-linejoin="round" stroke-width="3.374"/><path d="M85.936,81.4a26.972,26.972,0,0,1,28.435-3.677c11.644,5.58,17.537,18.708,20.755,31.213s4.874,25.816,11.918,36.637a20.123,20.123,0,0,0,5.506,5.966c5.088,3.378,11.726,2.843,17.8,2.179" transform="translate(-32.8 -48.915)" fill="none" stroke="#231815" stroke-linecap="round" stroke-linejoin="round" stroke-width="3.374"/><path d="M77.989,90.478c-6.006,2.989-8.011,10.469-8.958,17.11a163.922,163.922,0,0,0-1.631,25" transform="translate(-32.8 -48.915)" fill="none" stroke="#231815" stroke-linecap="round" stroke-linejoin="round" stroke-width="3.374"/><path d="M94.1,52.821C82.557,51.38,71.811,59.528,65.2,69.1,53.071,86.67,50.611,108.87,46.007,129.718c-2.327,10.533-5.3,21.289-3.633,31.946s9.6,21.275,20.373,21.905" transform="translate(-32.8 -48.915)" fill="none" stroke="#231815" stroke-linecap="round" stroke-linejoin="round" stroke-width="3.374"/><path d="M105.067,50.6c11.225.323,22.727.7,33.14,4.905,14.567,5.882,25.492,18.877,31.433,33.42s7.35,30.563,6.982,46.268" transform="translate(-32.8 -48.915)" fill="none" stroke="#231815" stroke-linecap="round" stroke-linejoin="round" stroke-width="3.374"/><path d="M169.478,168.621a59.776,59.776,0,0,1-1.246,11.109,19.325,19.325,0,0,1-2.394,6.609c-2.082,3.228-5.688,5.227-9.414,6.159a46.015,46.015,0,0,1-11.455.892" transform="translate(-32.8 -48.915)" fill="none" stroke="#231815" stroke-linecap="round" stroke-linejoin="round" stroke-width="3.374"/><path d="M157.826,135.577a3.843,3.843,0,0,1-.888-7.632,6.142,6.142,0,0,1,2.446.252c1.534.415,3.175,1.271,3.567,2.811a3.654,3.654,0,0,1-2.225,3.9,10.658,10.658,0,0,1-4.777.66" transform="translate(-32.8 -48.915)" fill="#ffe200" stroke="#231815" stroke-linecap="round" stroke-linejoin="round" stroke-width="3.374"/><path d="M108.153,137.8a30.177,30.177,0,0,0-.977,7.776l3.593.77" transform="translate(-32.8 -48.915)" fill="none" stroke="#231815" stroke-linecap="round" stroke-linejoin="round" stroke-width="3.374"/><path d="M95.1,198.921l-26.012,1.356c-4.873.254-9.971.575-14.144,3.1a19.89,19.89,0,0,0-7.755,9.851,57.094,57.094,0,0,0-2.923,12.392" transform="translate(-32.8 -48.915)" fill="none" stroke="#231815" stroke-linecap="round" stroke-linejoin="round" stroke-width="3.374"/><path d="M137.97,199.559l19.849-.62c6.03-.188,12.431-.287,17.627,2.78,4.88,2.88,7.936,8.235,9.1,13.782s.626,11.31-.319,16.9" transform="translate(-32.8 -48.915)" fill="none" stroke="#231815" stroke-linecap="round" stroke-linejoin="round" stroke-width="3.374"/><path d="M81.424,199.46c4.379,8.976,14.939,13.1,24.821,14.548a59.818,59.818,0,0,0,25.458-1.332c8.215-2.415,15.858-7.2,20.948-14.084" transform="translate(-32.8 -48.915)" fill="none" stroke="#231815" stroke-linecap="round" stroke-linejoin="round" stroke-width="3.374"/></g></svg>