<svg xmlns="http://www.w3.org/2000/svg" width="297.704" height="488.54" viewBox="0 0 297.704 488.54"><path d="M149.957,253s63.5-2.516,88.75,26.742,25.759,63.768,27,67.513,1.058,29.052-2.348,36.4S244.457,406.5,244.457,406.5L204.07,386.589l-113.892.587-22.309,7.632L50.457,402.5S26.94,388.083,27.949,366.041,27.957,267,110.457,252.5Z" fill="#ffe200"/><path d="M253.788,401.782c13.7-15.984,19.471-49.245,5.009-89.585s-39.58-43.386-39.58-43.386" fill="none" stroke="#231815" stroke-linecap="round" stroke-miterlimit="10" stroke-width="6.867"/><path d="M135.966,354.829c-.093-1.576.2-1.237.124-3.167-.037-.913-.376-1.973-.408-3.147-.026-.99.291-2.06.277-3.164-.013-1.027-.268-2.087-.263-3.158,0-1.054-.149-2.122-.12-3.168.03-1.08.218-2.141.28-3.159.069-1.116.235-2.175.353-3.146a23.647,23.647,0,0,1,.475-3.133c.428-1.554,1.069-2.189,1.879-1.946a7.867,7.867,0,0,1,2.93,1.688,34.087,34.087,0,0,1,2.522,2.37c.761.823,1.631,1.63,2.38,2.525s1.308,1.97,1.993,2.845c.778.993,1.321,2.06,1.929,2.877,1.232,1.655,2.048,2.555,2.048,2.555.9-1.344.835-1.013,1.96-2.576.556-.773,1.161-1.7,1.874-2.635.632-.826,1.58-1.47,2.278-2.314s1.1-1.951,1.809-2.713a22.444,22.444,0,0,1,2.569-1.987,4.905,4.905,0,0,1,2.725-1.429c.746,0,1.443.819,1.871,2.416.245.911.123,2.079.286,3.31.135,1.026.629,2.1.718,3.253.082,1.076.043,2.2.092,3.319s.1,2.229.127,3.316c.025,1.152-.061,2.273-.057,3.319,0,1.226-.156,2.35-.167,3.312a14.46,14.46,0,0,0,.3,3.308" fill="none" stroke="#040000" stroke-linecap="round" stroke-linejoin="round" stroke-width="10.3"/><path d="M288.836,146.915c-.067,1.1-.293,2.194-.38,3.289s-.445,2.175-.554,3.268-.19,2.2-.32,3.287-.154,2.2-.306,3.291-.073,2.223-.248,3.308-.47,2.161-.667,3.243-.59,2.133-.81,3.21-.112,2.236-.356,3.307-.928,2.048-1.2,3.114-.262,2.213-.554,3.272-.794,2.069-1.111,3.121-.408,2.186-.75,3.231-.883,2.032-1.25,3.068-.659,2.109-1.052,3.136-.783,2.065-1.2,3.082-1.084,1.935-1.529,2.941-.519,2.19-.99,3.183-1.133,1.906-1.631,2.887-1.029,1.952-1.553,2.92-.886,2.036-1.437,2.988-1.35,1.765-1.928,2.7-1.035,1.957-1.639,2.877-1.354,1.747-1.986,2.649-1.423,1.687-2.081,2.57-1.091,1.939-1.775,2.8-1.393,1.71-2.1,2.553-1.608,1.52-2.343,2.341-1.3,1.8-2.06,2.6-1.478,1.64-2.262,2.416-1.708,1.4-2.516,2.155-1.648,1.458-2.478,2.185-1.547,1.58-2.4,2.282-1.709,1.392-2.583,2.067-1.715,1.388-2.609,2.036-1.927,1.088-2.84,1.71-1.79,1.279-2.722,1.874-1.794,1.284-2.743,1.851-1.9,1.11-2.868,1.649-2.064.805-3.045,1.316-1.811,1.292-2.807,1.775-2,.914-3.013,1.369-2.1.689-3.119,1.116-2,.9-3.037,1.3-2.046.806-3.089,1.179-2.135.542-3.188.888-1.976,1.044-3.037,1.363-2.151.486-3.22.779-2.093.7-3.168.966-2.15.472-3.232.715-2.219.123-3.305.341-2.16.369-3.252.564c-1.077.191-2.136.519-3.231.689s-2.14.546-3.239.693-2.174.339-3.276.464-2.212-.015-3.316.088-2.165.495-3.272.577c-1.092.082-2.217-.214-3.324-.152s-2.19.169-3.3.21-2.189.32-3.3.342-2.2-.088-3.31-.084-2.2-.247-3.306-.262c-1.095-.015-2.2.266-3.312.233s-2.2,0-3.313-.055-2.2-.109-3.309-.176-2.179-.36-3.263-.44c-1.1-.081-2.2-.062-3.282-.156-1.1-.1-2.159-.5-3.241-.605s-2.183-.213-3.263-.338-2.179-.25-3.257-.391c-1.093-.143-2.171-.31-3.246-.468-1.091-.16-2.175-.291-3.247-.466-1.088-.178-2.189-.222-3.257-.415-1.085-.2-2.136-.518-3.2-.729-1.081-.215-2.169-.348-3.23-.578-1.077-.234-2.2-.224-3.259-.474-1.073-.253-2.149-.474-3.2-.744-1.068-.274-2.1-.676-3.142-.967-1.062-.3-2.058-.788-3.1-1.1-1.056-.317-2.136-.528-3.168-.862-1.049-.34-2.124-.584-3.149-.941-1.041-.363-2.018-.884-3.035-1.265-1.033-.387-1.994-.93-3-1.335-1.023-.411-2.019-.855-3.017-1.284s-2.03-.832-3.017-1.287-2.011-.88-2.985-1.36c-.989-.487-2-.916-2.959-1.422s-2.036-.858-2.984-1.391-1.931-1.059-2.863-1.619-1.639-1.523-2.554-2.11-1.975-.987-2.873-1.6-1.676-1.428-2.555-2.069-1.763-1.3-2.622-1.963-1.744-1.323-2.582-2.018-1.775-1.3-2.59-2.017-1.566-1.534-2.358-2.282-1.554-1.54-2.321-2.314-1.6-1.5-2.344-2.3-1.594-1.515-2.309-2.339-1.294-1.775-1.982-2.622-1.555-1.566-2.215-2.436S39.926,219,39.3,218.106s-1.316-1.75-1.918-2.662-1.3-1.772-1.869-2.7-.879-2.021-1.422-2.97-1-1.941-1.51-2.907-1.268-1.8-1.751-2.786-.864-2.01-1.317-3.006-1.071-1.919-1.495-2.928-.649-2.1-1.044-3.118-.785-2.038-1.151-3.07-.665-2.08-1-3.122-.6-2.1-.91-3.15-.507-2.121-.79-3.18-.711-2.069-.967-3.135-.62-2.1-.85-3.17-.363-2.154-.568-3.231-.312-2.161-.492-3.242-.272-2.164-.428-3.249-.459-2.139-.591-3.228-.37-2.156-.48-3.248-.239-2.173-.327-3.266-.247-2.175-.314-3.271-.074-2.185-.12-3.281.146-2.19.121-3.287-.123-2.182-.129-3.278-.031-2.186-.018-3.283-.125-2.189-.094-3.285.493-2.168.543-3.265-.031-2.187.035-3.282.191-2.191.286-3.282-.109-2.225.015-3.314.291-2.186.444-3.272.5-2.152.678-3.233.418-2.16.629-3.236.461-2.15.7-3.22.661-2.1.929-3.164.176-2.229.472-3.285.74-2.077,1.065-3.125.489-2.158.842-3.2.886-2.023,1.266-3.052.751-2.069,1.159-3.088,1.106-1.92,1.541-2.928.777-2.056,1.239-3.052.678-2.114,1.166-3.1,1.322-1.792,1.836-2.763.746-2.1,1.285-3.053,1.358-1.753,1.922-2.7,1-1.965,1.586-2.892,1.047-1.944,1.66-2.856,1.451-1.67,2.087-2.566,1.122-1.9,1.781-2.781,1.25-1.816,1.932-2.678,1.558-1.569,2.261-2.413,1.429-1.669,2.153-2.495,1.4-1.7,2.143-2.507,1.365-1.737,2.131-2.526,1.767-1.344,2.552-2.113,1.548-1.558,2.352-2.308,1.453-1.67,2.276-2.4,1.834-1.241,2.674-1.95,1.558-1.566,2.415-2.254,1.919-1.111,2.793-1.778,1.724-1.355,2.615-2,1.588-1.56,2.494-2.183,1.811-1.253,2.732-1.854,1.994-.961,2.929-1.539,1.739-1.375,2.688-1.93,2-.925,2.966-1.457,2.007-.9,2.982-1.411,1.869-1.168,2.856-1.653,1.959-1,2.958-1.458,1.933-1.066,2.942-1.5,2.127-.613,3.147-1.026,2.064-.749,3.093-1.137,2.013-.889,3.051-1.253,2.13-.553,3.177-.892,2.043-.821,3.1-1.135,2.108-.619,3.17-.909,2.1-.644,3.171-.908,2.2-.232,3.274-.47,2.063-.864,3.143-1.077,2.231-.012,3.316-.2,2.145-.47,3.234-.632,2.174-.3,3.266-.435,2.174-.316,3.269-.426,2.2-.044,3.3-.129,2.176-.33,3.275-.39,2.2.116,3.3.082,2.187-.352,3.289-.361,2.193.229,3.294.245,2.2-.192,3.3-.15,2.182.321,3.282.388,2.22-.179,3.312-.087,2.188.274,3.278.39,2.193.21,3.28.351,2.181.31,3.265.477,2.132.59,3.212.781,2.143.484,3.218.7,2.238.056,3.307.3,2.105.669,3.169.935,2.1.656,3.159.947,2.152.474,3.2.79,2.118.6,3.161.943,2.075.734,3.11,1.1,2.144.552,3.169.942,1.965,1.022,2.981,1.436,2.1.686,3.106,1.124,1.849,1.251,2.844,1.713,2.162.575,3.146,1.061,1.849,1.219,2.821,1.728,1.927,1.055,2.887,1.587,2.07.811,3.017,1.366,1.846,1.2,2.779,1.783,1.853,1.188,2.772,1.788,1.762,1.321,2.667,1.943,1.914,1.1,2.8,1.745,1.757,1.327,2.63,1.992,1.707,1.39,2.564,2.076,1.655,1.449,2.5,2.156,1.625,1.48,2.447,2.207,1.743,1.35,2.547,2.1,1.722,1.385,2.508,2.151,1.511,1.6,2.278,2.39,1.533,1.58,2.28,2.385,1.279,1.807,2.007,2.63,1.631,1.5,2.337,2.336,1.427,1.676,2.112,2.535,1.282,1.79,1.946,2.665,1.4,1.7,2.038,2.595,1.274,1.8,1.893,2.7,1.185,1.855,1.781,2.778,1.222,1.83,1.794,2.768,1.093,1.91,1.64,2.863,1.062,1.926,1.585,2.892,1.019,1.948,1.517,2.927.825,2.042,1.3,3.034.953,1.977,1.4,2.981.983,1.967,1.4,2.983.915,2,1.308,3.028.874,2.024,1.24,3.061.625,2.111.963,3.157.7,2.086,1.012,3.141.3,2.2.579,3.26.8,2.062,1.052,3.132.564,2.127.789,3.2.312,2.179.508,3.262.5,2.145.666,3.233.411,2.164.549,3.256-.021,2.215.087,3.31.27,2.18.349,3.278.3,2.183.354,3.283.1,2.2.116,3.3-.354,2.2-.363,3.3.182,2.2.145,3.3S288.9,145.815,288.836,146.915Z" fill="#ffe200"/><path d="M30.075,207.252c.446,1,1.173,1.873,1.65,2.858s.6,2.154,1.11,3.124,1.27,1.808,1.813,2.76,1.1,1.892,1.68,2.824,1.041,1.939,1.651,2.85,1.261,1.8,1.906,2.684,1.491,1.617,2.17,2.48,1.174,1.866,1.886,2.7,1.676,1.436,2.421,2.245,1.277,1.8,2.055,2.581,1.474,1.629,2.282,2.378,1.762,1.312,2.6,2.029,1.529,1.584,2.394,2.269,1.845,1.187,2.735,1.839,1.823,1.2,2.737,1.82c.9.609,1.857,1.139,2.794,1.726.92.576,1.75,1.319,2.707,1.873.94.543,2.03.832,3.006,1.353.957.512,1.764,1.337,2.756,1.827.974.48,2.048.777,3.055,1.236.988.45,2.035.787,3.056,1.215,1,.42,1.9,1.111,2.938,1.511,1.012.391,2.044.773,3.087,1.144,1.022.363,2.12.548,3.173.892,1.03.336,2.124.5,3.185.82,1.038.311,2.1.575,3.165.868,1.045.286,2.016.9,3.089,1.165,1.052.263,2.182.243,3.262.489,1.057.24,2.1.6,3.183.818,1.062.219,2.1.609,3.192.811,1.067.2,2.145.417,3.238.6,1.071.179,2.208.008,3.3.171,1.075.16,2.155.338,3.253.483,1.076.142,2.173.178,3.272.305,1.079.124,2.155.342,3.256.452,1.081.108,2.175.161,3.278.255,1.084.093,2.176.171,3.282.25,1.084.077,2.167.3,3.272.361,1.086.063,2.171.379,3.279.429,1.087.049,2.054-.01,3.162.026,1.071,1.218.161,1.215.6,3.087a27.415,27.415,0,0,0,1.175,3.024,18.664,18.664,0,0,0,1.291,2.954,14.545,14.545,0,0,0,1.794,2.712,11.975,11.975,0,0,0,2.727,1.748,10.874,10.874,0,0,0,2.824,1.625,14.287,14.287,0,0,0,3.271.09" fill="none" stroke="#231815" stroke-linecap="round" stroke-miterlimit="10" stroke-width="6.867"/><path d="M256.013,214.93c-.637.9-1.29,1.791-1.951,2.678s-1.312,1.776-2,2.646-1.255,1.826-1.961,2.678-1.447,1.672-2.175,2.505-1.62,1.513-2.371,2.326-1.442,1.672-2.215,2.465-1.649,1.469-2.443,2.24-1.5,1.62-2.318,2.368-1.545,1.586-2.381,2.311-1.761,1.338-2.617,2.04-1.55,1.6-2.427,2.279-1.854,1.213-2.75,1.865-1.875,1.172-2.789,1.8-1.878,1.155-2.811,1.754-1.686,1.469-2.636,2.041-2.063.844-3.029,1.388-1.9,1.11-2.886,1.627-1.855,1.221-2.852,1.709-1.973,1-2.983,1.455-2.06.8-3.084,1.23-2.111.657-3.146,1.058-1.959,1.058-3,1.43-2.214.332-3.27.676-2.019.92-3.085,1.235-2.118.614-3.192.9-2.171.4-3.253.663-2.137.524-3.224.755-2.112.674-3.206.878-2.212.141-3.31.317-2.133.657-3.236.807c-1.088.148-2.224-.017-3.329.107s-2.2.105-3.313.2c-1.094.1-2.179.4-3.291.471" fill="none" stroke="#231815" stroke-linecap="round" stroke-miterlimit="10" stroke-width="6.867"/><path d="M205.863,13.865c1.016.426,2.046.814,3.048,1.264s1.947,1.029,2.938,1.5,2.073.772,3.052,1.27,1.93,1.061,2.9,1.583,1.98.973,2.933,1.519,1.806,1.272,2.745,1.841,1.992.965,2.918,1.557,1.744,1.355,2.655,1.969S230.9,27.562,231.8,28.2s1.773,1.3,2.653,1.961,1.67,1.435,2.534,2.114,1.709,1.379,2.556,2.079,1.83,1.242,2.66,1.962,1.67,1.436,2.482,2.176,1.514,1.6,2.308,2.362,1.425,1.684,2.2,2.462,1.623,1.483,2.38,2.28,1.569,1.541,2.306,2.356,1.5,1.61,2.216,2.443,1.444,1.659,2.141,2.509,1.339,1.745,2.015,2.611,1.295,1.776,1.95,2.659,1.348,1.736,1.982,2.635,1.4,1.708,2.01,2.622,1.239,1.821,1.829,2.749,1.145,1.881,1.711,2.824.844,2.052,1.387,3.008,1.292,1.8,1.813,2.765.848,2.036,1.345,3.017.95,1.979,1.422,2.972,1,1.954,1.452,2.959.878,2.013,1.3,3.028.856,2.023,1.254,3.048.931,2,1.3,3.034.7,2.084,1.053,3.128.484,2.151.806,3.2.716,2.078,1.012,3.137.444,2.153.714,3.22.653,2.1.9,3.172.61,2.117.828,3.2.3,2.18.489,3.264.638,2.124.8,3.213.161,2.2.3,3.291.124,2.2.236,3.292.118,2.192.2,3.29.5,2.169.554,3.269-.222,2.208-.19,3.309.1,2.193.1,3.295.23,2.2.209,3.3" fill="none" stroke="#231815" stroke-linecap="round" stroke-miterlimit="10" stroke-width="6.867"/><path d="M18.623,127.191c.094-1.089.169-2.177.288-3.258s.1-2.19.243-3.268.72-2.1.89-3.174.258-2.165.455-3.235.37-2.149.592-3.214.446-2.134.694-3.193.264-2.184.537-3.237.779-2.051,1.078-3.1.392-2.162.716-3.2.635-2.093.985-3.124,1.1-1.926,1.474-2.948.78-2.032,1.18-3.045.54-2.134.964-3.137,1.12-1.889,1.568-2.882.516-2.166.989-3.147,1.346-1.767,1.842-2.737.771-2.057,1.291-3.014.906-2,1.448-2.94,1.438-1.685,2-2.616.785-2.082,1.372-3,1.336-1.736,1.945-2.639,1.48-1.626,2.111-2.514,1.092-1.9,1.744-2.771,1.283-1.765,1.956-2.622,1.551-1.547,2.245-2.387,1.111-1.915,1.825-2.739,1.72-1.387,2.453-2.193,1.311-1.755,2.064-2.544,1.652-1.43,2.423-2.2,1.455-1.627,2.244-2.378,1.431-1.666,2.238-2.4S64.3,37.109,65.128,36.4s1.553-1.538,2.395-2.23,1.672-1.4,2.53-2.075,1.823-1.2,2.7-1.855,1.563-1.56,2.453-2.19,2-.94,2.906-1.549,1.628-1.492,2.547-2.079,1.957-.985,2.89-1.549,1.857-1.142,2.8-1.684,1.822-1.213,2.781-1.732S91.041,18.4,92.012,17.9s2.037-.8,3.02-1.276,1.925-1.031,2.92-1.48,2.041-.775,3.046-1.2,1.993-.885,3.008-1.285,2.078-.666,3.1-1.04,1.982-.937,3.015-1.287,2.088-.633,3.13-.958,2.059-.73,3.109-1.029,2.151-.4,3.208-.672,2.062-.746,3.125-.994,2.168-.3,3.236-.519,2.125-.49,3.2-.685,2.151-.356,3.229-.526,2.173-.19,3.256-.333,2.161-.258,3.247-.375,2.146-.44,3.234-.531,2.173-.19,3.263-.255,2.184.036,3.276,0,2.179.156,3.272.145,2.173-.128,3.266-.113,2.179-.05,3.271-.009,2.179.047,3.27.114c1.055.064,2.109.115,3.156.2s2.1.245,3.144.357,2.089.295,3.132.431,2.1.224,3.139.384,2.113.164,3.148.348,2.086.354,3.117.562,2.063.459,3.089.692,1.979.791,3,1.048" fill="none" stroke="#231815" stroke-linecap="round" stroke-miterlimit="10" stroke-width="6.867"/><path d="M120.675,124.723c-1.471-.528-1.246-.156-3.076-.037a12.135,12.135,0,0,0-3.053.459,11.318,11.318,0,0,0-2.916,1.145,12.411,12.411,0,0,0-2.234,2.194,14.324,14.324,0,0,0-1.679,2.6,17.1,17.1,0,0,0-1.551,2.72,25.681,25.681,0,0,0-.739,3.046,30.929,30.929,0,0,0-.6,3.08c-.122,1.071,0,2.139-.08,3.157-.088,1.079-.144,2.124-.191,3.141-.049,1.086-.393,2.131-.4,3.145,0,1.092.191,2.144.237,3.149.051,1.1-.052,2.169.055,3.163.119,1.1.267,2.162.451,3.133a27.659,27.659,0,0,0,.82,3.06,15.973,15.973,0,0,0,1.491,2.783,9.66,9.66,0,0,0,1.678,2.614,4.755,4.755,0,0,0,2.777,1.239,14.673,14.673,0,0,0,3.469.19,10.2,10.2,0,0,0,3.365-.895,9.92,9.92,0,0,0,2.809-2.064,13.59,13.59,0,0,0,2.031-2.834,21.852,21.852,0,0,0,1.283-3.24,27.908,27.908,0,0,0,1.389-3.244c.252-1.064.383-2.241.577-3.469.171-1.092.284-2.262.406-3.489.119-1.19.211-2.329.3-3.415.1-1.2-.079-2.35-.025-3.428.061-1.212.318-2.342.318-3.411,0-1.226-.275-2.347-.368-3.4a21.611,21.611,0,0,0-.567-3.344,14.142,14.142,0,0,0-.841-3.333,10.639,10.639,0,0,0-2.144-2.732A13.873,13.873,0,0,0,120.675,124.723Z" fill="none" stroke="#231815" stroke-miterlimit="10" stroke-width="6.867"/><path d="M179.786,124.676c-1.471-.528-1.266-.15-3.1-.03a12.539,12.539,0,0,0-3.024.582,11.143,11.143,0,0,0-2.89,1.141,11.826,11.826,0,0,0-2.434,1.984,14.908,14.908,0,0,0-1.656,2.663,18.437,18.437,0,0,0-1.243,2.854,24.755,24.755,0,0,0-.79,3.01,30.526,30.526,0,0,0-.66,3.059c-.121,1.072-.337,2.11-.42,3.127-.088,1.079-.041,2.139-.087,3.156-.05,1.087.051,2.14.047,3.154,0,1.092-.146,2.145-.1,3.151.05,1.1.278,2.137.386,3.131.119,1.1.072,2.176.256,3.148a24.819,24.819,0,0,0,1.1,2.965,20.154,20.154,0,0,0,.869,3.033,10.069,10.069,0,0,0,1.786,2.645,5.072,5.072,0,0,0,2.924,1.179,14.7,14.7,0,0,0,3.491.141,10.046,10.046,0,0,0,3.286-1.107,9.622,9.622,0,0,0,2.842-1.953,13.739,13.739,0,0,0,1.933-2.872,20.152,20.152,0,0,0,1.524-3.127,29.364,29.364,0,0,0,1.194-3.3c.253-1.064.282-2.25.475-3.478.172-1.092.193-2.26.316-3.487.119-1.191.535-2.3.623-3.383.1-1.2.074-2.345.128-3.422.061-1.212.192-2.352.191-3.421,0-1.226-.273-2.353-.366-3.406a21.79,21.79,0,0,0-.549-3.36,13.922,13.922,0,0,0-.929-3.31,10.475,10.475,0,0,0-2.274-2.587A13.072,13.072,0,0,0,179.786,124.676Z" fill="none" stroke="#231815" stroke-miterlimit="10" stroke-width="6.867"/><path d="M117.705,139.731c-1.283-.447-1.348-.7-2.541.1a3.618,3.618,0,0,0-1.266,2.3,21.652,21.652,0,0,0-.474,3.178,9.2,9.2,0,0,0,.2,3.145c.311,1.174.775,1.936,1.965,2.034,1.49.124,2.589.048,3.368-.569.758-.6,1.061-1.627,1.246-3.161a15.389,15.389,0,0,0,.1-2.748,6.91,6.91,0,0,0-.439-2.718A3.482,3.482,0,0,0,117.705,139.731Z" fill="#231815"/><path d="M177.27,139.852c-1.21-.583-1.219-.625-2.48.028a3.278,3.278,0,0,0-1.561,1.986,21.561,21.561,0,0,0-.943,3.043,9.525,9.525,0,0,0-.214,3.158,2.208,2.208,0,0,0,1.886,2.115,4.2,4.2,0,0,0,3.238-.292,4.033,4.033,0,0,0,1.842-2.741,15.284,15.284,0,0,0,.3-2.721,6.3,6.3,0,0,0-.383-2.638A3.234,3.234,0,0,0,177.27,139.852Z" fill="#231815"/><path d="M143.059,166.312c-1.764.137-1.763-.112-3.353,1.1a7.458,7.458,0,0,0-1.853,2.992,9.408,9.408,0,0,0-.923,3.36,13.264,13.264,0,0,0,.119,3.484,11.153,11.153,0,0,0,1.16,3.324,9.931,9.931,0,0,0,2.51,2.434,8.025,8.025,0,0,0,2.983,1.626" fill="none" stroke="#231815" stroke-linecap="round" stroke-miterlimit="10" stroke-width="6.867"/><path d="M131.18,145.8c1.638.039,1.239.077,3.277.09.937.006,2.044.127,3.276.122,1.015-.005,2.116-.091,3.278-.109,1.048-.017,2.143-.184,3.273-.215,1.067-.029,2.163-.071,3.273-.117,1.084-.045,2.192.112,3.29.049s2.174-.421,3.256-.505c1.11-.087,2.232.091,3.3-.021,1.123-.118,2.166-.633,3.208-.783,1.143-.165,2.249-.186,3.251-.393" fill="none" stroke="#231815" stroke-linecap="round" stroke-miterlimit="10" stroke-width="6.867"/><path d="M269.933,157.841c1.605-.806,1.382-.52,3.431-1.076a22.152,22.152,0,0,1,3.523-.575,17.3,17.3,0,0,1,3.594-.35,15.229,15.229,0,0,1,3.453,1.063,13.436,13.436,0,0,1,3.131,1.7,7.89,7.89,0,0,1,2.388,2.175,13.642,13.642,0,0,1,1.242,3.006,19.282,19.282,0,0,1,.464,3.192,22.62,22.62,0,0,1,.069,3.2,24.4,24.4,0,0,1,.073,3.233,26.741,26.741,0,0,1-.719,3.154,27.042,27.042,0,0,1-1.058,3.054,19.265,19.265,0,0,1-3.362,5.473,25.883,25.883,0,0,1-1.84,2.66,26.913,26.913,0,0,1-2.415,2.15,29.024,29.024,0,0,1-2.8,1.6,28.008,28.008,0,0,1-2.688,1.743,31.2,31.2,0,0,1-2.892,1.419c-.974.369-1.965.834-3.031,1.129" fill="none" stroke="#231815" stroke-linecap="round" stroke-miterlimit="10" stroke-width="6.867"/><path d="M24.871,157.938a14.311,14.311,0,0,0-3.248-1.267,21.315,21.315,0,0,0-3.523-.736,18.731,18.731,0,0,0-3.574.348,14.137,14.137,0,0,0-3.53.534,13.507,13.507,0,0,0-3.209,1.633A8.251,8.251,0,0,0,5.9,161.02a12.493,12.493,0,0,0-1.344,2.855,17.647,17.647,0,0,0-.865,3.088,22.355,22.355,0,0,0-.257,3.217,26.832,26.832,0,0,0,.613,3.169,25.774,25.774,0,0,0,.615,3.133,29.326,29.326,0,0,0,2.383,5.927,25.767,25.767,0,0,0,1.584,2.8,27,27,0,0,0,2.292,2.267,25.866,25.866,0,0,0,2.286,2.233A26.974,26.974,0,0,0,15.6,191.9a30.664,30.664,0,0,0,2.9,1.439c.932.466,1.97.767,3,1.158.974.369,2.022.571,3.088.866" fill="none" stroke="#231815" stroke-linecap="round" stroke-miterlimit="10" stroke-width="6.867"/><path d="M112.19,53.754c-.554,1.519-.274,1.186-1.018,3.072-.338.856-.828,1.834-1.3,2.964-.38.922-.726,1.954-1.182,3.014-.406.944-.865,1.924-1.325,2.949-.429.954-.939,1.91-1.41,2.912-.45.958-1.051,1.867-1.535,2.849-.473.959-.668,2.073-1.17,3.036s-1.041,1.9-1.564,2.841-1.3,1.756-1.848,2.675c-.561.941-1.184,1.819-1.763,2.708-.6.926-1.105,1.884-1.724,2.732-.66.9-1.182,1.87-1.853,2.659a28.511,28.511,0,0,1-2.23,2.359,17.111,17.111,0,0,1-2.484,2.127A8.462,8.462,0,0,1,86.7,93.815a5.284,5.284,0,0,1-3.058-.855c-1.319-.952-.935-.848-2.25-2.293-.641-.7-1.4-1.507-2.157-2.426-.661-.8-1.605-1.463-2.265-2.363-.64-.873-1.064-1.922-1.626-2.838a25.283,25.283,0,0,1-1.678-2.8,11.447,11.447,0,0,1-.735-3.173,5.131,5.131,0,0,1,.267-3.239A5.183,5.183,0,0,1,75.841,71.9a11.269,11.269,0,0,1,3.151-.918,26.96,26.96,0,0,1,3.279.042c.952.027,1.3,1.019,1.454,2.525a12.251,12.251,0,0,1-.113,3.169,24.619,24.619,0,0,1-.592,3.159c-.28.971-.585,2.006-1,3.072-.371.96-.667,2.013-1.148,3.029-.446.941-1.138,1.8-1.68,2.773-.51.916-1.155,1.777-1.752,2.707-.57.886-1.009,1.885-1.659,2.773-.626.853-1.185,1.79-1.886,2.633-.678.817-1.556,1.481-2.306,2.279-.728.774-1.342,1.686-2.138,2.434-.776.728-1.645,1.379-2.486,2.074-.821.679-1.581,1.471-2.465,2.111-.863.623-1.841,1.117-2.765,1.7-.9.566-1.846,1.093-2.808,1.611-.936.5-1.847,1.111-2.84,1.564-.968.442-2.023.733-3.045,1.121-.994.377-2.048.623-3.095.944" fill="none" stroke="#231815" stroke-linecap="round" stroke-miterlimit="10" stroke-width="6.867"/><path d="M56,116.01a11.415,11.415,0,0,1-2.152,2.6c-.646.677-1.75,1.139-2.718,1.982-.761.663-1.476,1.54-2.451,2.263-.835.62-1.708,1.322-2.707,1.959-.89.568-1.92,1.015-2.946,1.579-.934.513-1.841,1.19-2.892,1.685-.969.458-2.03.822-3.1,1.254-1,.4-2.108.6-3.2.971-1.021.348-2.071.691-3.173,1.006-1.04.3-2.065.769-3.18,1.03-1.056.247-2.176.33-3.3.54-1.068.2-2.141.528-3.272.689-1.076.154-2.192.2-3.327.316-1.083.11-2.186.284-3.323.357-1.089.07-2.2.1-3.343.13-1.091.031-2.206-.021-3.345-.026" fill="none" stroke="#231815" stroke-linecap="round" stroke-miterlimit="10" stroke-width="6.867"/><path d="M119.373,198.03s6.779,12.429,24.858,12.429,22.033-3.955,25.988-10.734" fill="none" stroke="#231815" stroke-linecap="round" stroke-miterlimit="10" stroke-width="6.867"/><path d="M233.643,103.659a6.877,6.877,0,0,0,1.65,2.256,10.937,10.937,0,0,0,5.428,2.276c8.669,1.585,17.588-.769,25.761-4.063A113.248,113.248,0,0,0,292.335,89.5" fill="none" stroke="#231815" stroke-linecap="round" stroke-linejoin="round" stroke-width="6.867"/><path d="M133.645,36.689A86.292,86.292,0,0,0,129.8,62.644c.027,4.673.46,9.444,2.34,13.722,5.165,11.756,20.146,16.514,32.755,14.088s23.385-10.3,33.692-17.955c-2.72,7.075-3.294,16.619,3.066,20.741a16.283,16.283,0,0,0,7.736,2.132A48.4,48.4,0,0,0,239,87.8c-2.23,2.61-4.512,5.31-5.591,8.569a10.175,10.175,0,0,0,.23,7.289" fill="none" stroke="#231815" stroke-linecap="round" stroke-linejoin="round" stroke-width="6.867"/><polygon points="79.147 392.993 223.772 392.993 297.704 488.54 11.858 488.54 79.147 392.993" fill="#fff"/><polygon points="72.844 387.237 217.469 387.237 291.401 482.784 5.555 482.784 72.844 387.237" fill="none" stroke="#231815" stroke-linecap="round" stroke-linejoin="round" stroke-width="6.867"/><path d="M223.746,383.054s-13.723,3.357-13.07,7.274,9.149,4.476,10.456,6.154S244,421.1,244,421.1s13.07,7.273,12.417-.56.653-11.749-9.8-24.618S223.746,383.054,223.746,383.054Z" fill="#ffe200" stroke="#231815" stroke-linecap="round" stroke-miterlimit="10" stroke-width="6.867"/><path d="M71.354,383.054s13.723,3.357,13.07,7.274-9.149,4.476-10.456,6.154S51.1,421.1,51.1,421.1s-13.07,7.273-12.417-.56-.653-11.749,9.8-24.618S71.354,383.054,71.354,383.054Z" fill="#ffe200" stroke="#231815" stroke-linecap="round" stroke-miterlimit="10" stroke-width="6.867"/><path d="M75.883,268.811S50.765,271.856,36.3,312.2s-7.674,70.866,6.027,86.851" fill="none" stroke="#231815" stroke-linecap="round" stroke-miterlimit="10" stroke-width="6.867"/><path d="M59.647,337.068s-.911,33.724,11.849,45.573" fill="#fff" stroke="#231815" stroke-linecap="round" stroke-miterlimit="10" stroke-width="6.867"/><path d="M237.382,337.068s1.043,33.315-7.292,44.662" fill="#fff" stroke="#231815" stroke-linecap="round" stroke-miterlimit="10" stroke-width="6.867"/><line x1="241.959" y1="462.644" x2="62.817" y2="462.644" fill="none" stroke="#231815" stroke-linecap="round" stroke-linejoin="round" stroke-width="6.867"/><line x1="223.818" y1="439.968" x2="181.489" y2="439.968" fill="none" stroke="#231815" stroke-linecap="round" stroke-linejoin="round" stroke-width="6.867"/><line x1="161.837" y1="439.968" x2="71.888" y2="439.968" fill="none" stroke="#231815" stroke-linecap="round" stroke-linejoin="round" stroke-width="6.867"/><line x1="80.958" y1="415.78" x2="93.052" y2="415.78" fill="none" stroke="#231815" stroke-linecap="round" stroke-linejoin="round" stroke-width="6.867"/><line x1="108.926" y1="415.78" x2="121.02" y2="415.78" fill="none" stroke="#231815" stroke-linecap="round" stroke-linejoin="round" stroke-width="6.867"/><line x1="136.893" y1="415.78" x2="148.987" y2="415.78" fill="none" stroke="#231815" stroke-linecap="round" stroke-linejoin="round" stroke-width="6.867"/><line x1="164.86" y1="415.78" x2="211.724" y2="415.78" fill="none" stroke="#231815" stroke-linecap="round" stroke-linejoin="round" stroke-width="6.867"/></svg>