<svg xmlns="http://www.w3.org/2000/svg" width="446.914" height="343.757" viewBox="0 0 446.914 343.757"><path d="M108.249,215.09c.063,1.041-.006,2.086.077,3.12s-.07,2.1.033,3.131.254,2.071.378,3.1.372,2.055.516,3.082.533,2.025.7,3.049.242,2.07.43,3.089.215,2.082.425,3.1.759,1.966.992,2.976.074,2.126.33,3.131.8,1.944,1.078,2.943.387,2.057.69,3.05.849,1.915,1.176,2.9.493,2.032.845,3.008.8,1.923,1.18,2.89.785,1.928,1.186,2.885.6,2.012,1.025,2.958,1.234,1.721,1.686,2.656.752,1.947,1.23,2.869.953,1.849,1.456,2.758,1.19,1.713,1.718,2.607.852,1.915,1.406,2.793,1.252,1.666,1.831,2.529,1.051,1.8,1.656,2.646,1.085,1.788,1.715,2.615,1.5,1.47,2.153,2.278,1.309,1.612,1.989,2.4,1.2,1.713,1.908,2.48,1.588,1.36,2.315,2.105,1.512,1.421,2.263,2.143,1.385,1.558,2.158,2.256,1.529,1.409,2.323,2.083,1.706,1.193,2.521,1.843,1.634,1.274,2.469,1.9,1.705,1.176,2.559,1.774,1.581,1.361,2.453,1.934,1.778,1.071,2.667,1.617,1.839.96,2.744,1.48,1.8,1.021,2.721,1.513,1.71,1.208,2.644,1.674,2,.633,2.943,1.072,1.869.889,2.829,1.3,1.83,1,2.8,1.385,1.956.69,2.937,1.05,1.96.677,2.951,1.011,1.913.827,2.913,1.135,2.089.246,3.1.529,1.96.68,2.974.939,2.037.378,3.057.613,2.008.5,3.032.708,1.968.736,3,.924,2.036.409,3.069.574,2.072.177,3.109.32,2.08.064,3.12.186,2.062.176,3.1.277,2.043.43,3.087.51,2.086-.136,3.131-.076,2.052.46,3.1.5,2.075.018,3.121.04,2.076-.2,3.123-.2,2.073.116,3.121.1c1.033-.014,2.079.2,3.126.166s2.064-.359,3.111-.406,2.068-.169,3.115-.232,2.1-.134,3.138-.211,2.115.045,3.153-.046,2.087-.3,3.123-.4c1.051-.108,2.126.058,3.16-.064,1.049-.124,2.091-.271,3.123-.409,1.048-.14,2.087-.3,3.117-.453s2.086-.306,3.113-.478,2.072-.391,3.095-.581c1.039-.192,2.044-.527,3.063-.735,1.036-.21,2.087-.317,3.1-.543,1.031-.231,2.034-.553,3.045-.8s1.98-.746,2.985-1.013c1.022-.27,2.017-.588,3.017-.876s2.05-.479,3.043-.788c1.01-.314,2.065-.458,3.051-.789,1-.337,1.956-.79,2.934-1.144,1-.36,1.937-.826,2.907-1.2.986-.383,2.013-.635,2.974-1.037s2-.686,2.949-1.113,1.931-.852,2.87-1.3,1.873-.972,2.8-1.448,1.842-1.026,2.755-1.529,1.8-1.092,2.7-1.622,1.7-1.247,2.582-1.8,1.746-1.163,2.61-1.746,1.977-.84,2.822-1.45,1.556-1.435,2.382-2.072,1.784-1.136,2.589-1.8,1.609-1.359,2.392-2.049,1.54-1.435,2.3-2.15,1.414-1.56,2.149-2.3,1.531-1.442,2.241-2.208,1.439-1.531,2.123-2.322,1.286-1.661,1.943-2.475,1.186-1.732,1.815-2.568,1.376-1.59,1.977-2.447,1-1.851,1.571-2.728,1.345-1.627,1.888-2.522,1-1.84,1.518-2.753.908-1.888,1.392-2.818,1.2-1.74,1.656-2.685.965-1.866,1.39-2.825.582-2.03.978-3,.861-1.91,1.229-2.893.543-2.027.883-3.021.841-1.925,1.152-2.928.6-2.006.881-3.018.6-2.006.86-3.025.558-2.02.789-3.045.542-2.027.748-3.058.243-2.086.424-3.121.231-2.081.389-3.121.38-2.058.514-3.1.335-2.069.447-3.114.281-2.078.37-3.125.015-2.1.083-3.149.013-2.094.061-3.144.054-2.089.081-3.14-.034-2.09-.026-3.141.052-2.09.041-3.142.185-2.1.156-3.146-.143-2.091-.19-3.141-.129-2.09-.192-3.14-.292-2.058-.383-3.088.2-2.108.087-3.136-.381-2.049-.527-3.073-.266-2.063-.439-3.083-.658-1.989-.859-3-.392-2.034-.621-3.044-.308-2.059-.564-3.062-.492-2.019-.775-3.015-.56-2-.87-2.989-.482-2.031-.82-3.011-1.037-1.834-1.4-2.8-.621-1.983-1.011-2.943-.957-1.846-1.373-2.795-.695-1.961-1.136-2.9-.92-1.859-1.387-2.785-.7-1.98-1.187-2.892-1.094-1.771-1.61-2.671-1.279-1.653-1.818-2.539-.791-1.953-1.354-2.824-1.4-1.559-1.99-2.415-.943-1.873-1.55-2.714-1.357-1.579-1.986-2.4-1.4-1.538-2.049-2.346-1.121-1.763-1.793-2.553-1.5-1.447-2.188-2.22-1.462-1.468-2.174-2.223-1.269-1.655-2-2.392-1.46-1.475-2.209-2.193-1.56-1.367-2.327-2.066-1.659-1.251-2.443-1.93-1.379-1.579-2.181-2.238-1.636-1.277-2.454-1.916-1.781-1.081-2.614-1.7-1.518-1.437-2.367-2.035-1.813-1.021-2.676-1.6-1.566-1.4-2.444-1.951-1.785-1.063-2.676-1.6-1.95-.769-2.854-1.28-1.815-.99-2.731-1.479-1.715-1.193-2.642-1.659-1.969-.689-2.908-1.133-1.8-1.046-2.747-1.466-1.839-.976-2.8-1.373-1.987-.62-2.956-.993-1.952-.7-2.929-1.046-2.005-.533-2.992-.86-1.891-.884-2.885-1.186-1.97-.654-2.971-.932-2.033-.42-3.04-.674-1.976-.653-2.989-.883-2.058-.294-3.076-.5-2.034-.393-3.058-.574-2.053-.27-3.081-.427-2.013-.572-3.044-.7-2.1.136-3.135.029-2.026-.588-3.063-.671-2.076-.047-3.113-.106-2.071-.115-3.11-.149-2.074,0-3.114-.011-2.074-.164-3.114-.15-2.07.207-3.11.246-2.084-.121-3.122-.058-2.055.418-3.085.5-2.092-.035-3.12.075-2.038.459-3.064.593-2.089.069-3.112.228-2,.635-3.018.818-2.053.305-3.067.512-2.023.46-3.032.69-2.023.462-3.026.716-2.071.3-3.068.575-2.025.489-3.015.792-1.868.98-2.851,1.306-2.019.507-2.994.857-1.989.613-2.955.986-1.889.873-2.846,1.269-1.895.846-2.842,1.265-1.909.817-2.845,1.259-1.784,1.073-2.71,1.538-1.954.735-2.868,1.222-1.747,1.128-2.65,1.637-1.991.707-2.881,1.238-1.577,1.4-2.453,1.953-1.884.908-2.747,1.482-1.738,1.14-2.586,1.735-1.521,1.439-2.354,2.054-1.713,1.171-2.532,1.807-1.642,1.266-2.444,1.921-1.678,1.229-2.464,1.905-1.445,1.5-2.214,2.193-1.549,1.377-2.3,2.091-1.533,1.4-2.266,2.13-1.517,1.419-2.232,2.17-1.473,1.466-2.169,2.234-1.273,1.645-1.949,2.431-1.218,1.683-1.874,2.485-1.36,1.564-2,2.384-1.255,1.648-1.869,2.483-1.435,1.524-2.028,2.375-.983,1.841-1.553,2.707-1.108,1.75-1.656,2.631-1.167,1.716-1.692,2.61-.958,1.84-1.46,2.747-.989,1.82-1.467,2.74-.986,1.823-1.439,2.757-.851,1.888-1.279,2.833-.884,1.874-1.288,2.83-.815,1.906-1.192,2.872-.756,1.93-1.108,2.907-.848,1.9-1.173,2.888-.614,1.983-.913,2.978-.479,2.02-.751,3.022-.44,2.026-.684,3.035-.374,2.037-.591,3.052-.511,2.008-.7,3.029-.325,2.044-.486,3.07-.611,2.007-.744,3.037-.01,2.087-.115,3.12-.127,2.066-.2,3.1-.259,2.058-.308,3.1.033,2.073.012,3.112.061,2.067.068,3.107-.242,2.075-.207,3.115S108.186,214.051,108.249,215.09Z" fill="#ffe200"/><path d="M358.228,232.182c-.134,1.037,0,2.108-.149,3.137s-.7,2.005-.864,3.031-.092,2.1-.275,3.123-.374,2.055-.575,3.074-.559,2.016-.78,3.031-.43,2.041-.672,3.052-.282,2.082-.546,3.087-.776,1.952-1.064,2.95-.3,2.092-.612,3.083-.917,1.9-1.256,2.878-.809,1.922-1.176,2.9-.561,2.018-.957,2.979-1.008,1.833-1.434,2.782-.7,1.97-1.156,2.905-.857,1.9-1.346,2.823-.93,1.87-1.451,2.772-1.23,1.693-1.784,2.575-.9,1.9-1.491,2.762-1.473,1.508-2.093,2.347-1.108,1.77-1.762,2.584-1.239,1.679-1.926,2.467-1.594,1.361-2.312,2.122-1.437,1.492-2.185,2.224-1.381,1.558-2.159,2.26-1.453,1.5-2.259,2.167-1.591,1.344-2.423,1.983-1.853.984-2.709,1.59-1.553,1.4-2.432,1.98c-.863.565-1.812,1.018-2.711,1.561-.884.533-1.87.9-2.788,1.415-.9.5-1.828.967-2.764,1.447-.918.471-1.706,1.226-2.658,1.676-.932.44-1.895.85-2.861,1.27-.945.411-1.876.9-2.854,1.292-.957.383-1.968.668-2.957,1.032-.967.355-1.938.746-2.936,1.082-.977.329-1.97.657-2.977.967-.984.3-2.025.463-3.037.749-.991.279-2.059.311-3.078.572-1,.257-2,.539-3.02.778-1,.235-1.993.57-3.023.788-1.008.213-1.984.648-3.019.845-1.013.192-2.059.275-3.1.452-1.017.174-2.074.166-3.116.324-1.02.155-2.006.632-3.05.773-1.022.137-2.108-.147-3.153-.024-1.024.121-2.028.515-3.075.621-1.027.105-2.083.01-3.132.1-1.03.089-2.051.411-3.1.487-1.03.074-2.083-.043-3.133.018-1.033.061-2.071.207-3.123.255-1.034.047-2.078.107-3.131.142" fill="none" stroke="#231815" stroke-linecap="round" stroke-miterlimit="10" stroke-width="6.531"/><path d="M138.311,278.351c.61.864,1.229,1.725,1.863,2.574s1.3,1.674,1.953,2.506,1.436,1.558,2.114,2.372,1.341,1.634,2.042,2.429,1.262,1.711,1.984,2.487,1.515,1.481,2.259,2.236,1.4,1.593,2.169,2.327,1.623,1.365,2.409,2.077,1.664,1.308,2.471,2,1.54,1.454,2.366,2.119,1.815,1.106,2.661,1.747,1.6,1.381,2.468,2,1.656,1.321,2.54,1.91,1.722,1.234,2.623,1.8,1.968.829,2.886,1.364,1.68,1.321,2.614,1.829,1.887.956,2.836,1.436,1.988.74,2.95,1.191,1.93.845,2.905,1.268,1.9.92,2.887,1.315,1.9.945,2.9,1.311,2.078.45,3.087.788,1.887,1.032,2.906,1.342,2.1.359,3.124.641,2.04.541,3.075.795,2.02.633,3.061.859,2.072.41,3.119.609,2.114.16,3.166.332,2.05.566,3.107.712c1.041.145,2.129-.028,3.188.093s2.07.513,3.134.609c1.048.094,2.1.3,3.164.37" fill="none" stroke="#231815" stroke-linecap="round" stroke-miterlimit="10" stroke-width="6.531"/><path d="M184.982,91.519c-.962.4-1.9.866-2.847,1.292s-1.949.756-2.888,1.207-1.785,1.094-2.713,1.568S174.66,96.5,173.745,97s-1.779,1.086-2.681,1.606-1.894.892-2.783,1.434-1.662,1.271-2.538,1.835-1.843.988-2.7,1.574-1.683,1.23-2.53,1.837-1.7,1.207-2.53,1.835-1.736,1.165-2.551,1.813-1.635,1.3-2.435,1.966-1.454,1.506-2.237,2.194-1.54,1.4-2.306,2.108-1.62,1.318-2.368,2.044-1.636,1.316-2.365,2.06-1.373,1.577-2.084,2.339-1.35,1.592-2.042,2.372-1.341,1.595-2.014,2.392-1.317,1.615-1.969,2.427-1.338,1.6-1.971,2.428-1.3,1.632-1.911,2.477-1.165,1.729-1.756,2.588-1.033,1.814-1.6,2.687-1.1,1.765-1.648,2.652-1.105,1.763-1.63,2.663-1.3,1.656-1.809,2.569-.785,1.944-1.266,2.87-1.119,1.769-1.576,2.706-.931,1.868-1.365,2.817-.786,1.933-1.2,2.892-.812,1.921-1.2,2.89-.738,1.95-1.1,2.929-.57,2.007-.907,3-.689,1.964-1,2.959-.8,1.935-1.088,2.938-.48,2.03-.743,3.04-.64,1.99-.877,3.007-.34,2.06-.552,3.082-.279,2.067-.465,3.095-.478,2.031-.638,3.063-.049,2.094-.183,3.129-.4,2.046-.512,3.084-.335,2.06-.418,3.1-.239,2.074-.3,3.118.224,2.092.193,3.136-.359,2.077-.364,3.122.049,2.085.07,3.13" fill="none" stroke="#231815" stroke-linecap="round" stroke-miterlimit="10" stroke-width="6.531"/><path d="M358.925,196.787c-.09-1.044-.222-2.081-.337-3.117s-.39-2.059-.53-3.092.1-2.132-.065-3.162-.438-2.052-.63-3.078-.432-2.051-.649-3.071-.46-2.044-.7-3.059-.733-1.972-1-2.981-.344-2.076-.637-3.077-.809-1.94-1.127-2.934-.676-1.976-1.019-2.961-.334-2.1-.7-3.082-.732-1.966-1.124-2.934-1.056-1.828-1.472-2.785-.6-2.026-1.042-2.973-1.265-1.713-1.729-2.648-.574-2.057-1.061-2.981-1.207-1.726-1.718-2.638-1.169-1.736-1.7-2.635-.757-1.987-1.312-2.872-1.46-1.547-2.037-2.417-1.027-1.827-1.625-2.684-.975-1.876-1.6-2.718-1.422-1.55-2.063-2.375-1.324-1.619-1.985-2.428-1.151-1.766-1.831-2.559-1.641-1.343-2.341-2.118-1.148-1.788-1.867-2.546-1.6-1.361-2.342-2.1-1.357-1.6-2.113-2.327-1.613-1.341-2.386-2.044-1.7-1.228-2.494-1.912-1.406-1.574-2.214-2.238-1.719-1.2-2.543-1.842-1.674-1.25-2.514-1.873-1.595-1.361-2.45-1.963-1.893-.933-2.762-1.514-1.549-1.45-2.433-2.009-1.943-.828-2.841-1.365-1.7-1.234-2.608-1.748-1.839-.993-2.762-1.484-1.919-.834-2.854-1.3-1.885-.892-2.832-1.337-1.817-1.045-2.774-1.466-1.958-.733-2.926-1.13-1.895-.885-2.873-1.258-1.974-.683-2.961-1.031-1.935-.8-2.931-1.121-2.05-.44-3.053-.738-1.989-.633-3-.906-2.04-.44-3.057-.687-1.989-.66-3.012-.882-2.083-.225-3.112-.421-2.02-.555-3.053-.725-2.07-.268-3.108-.412-2.066-.3-3.107-.414-2.064-.351-3.107-.443-2.082-.185-3.127-.251-2.095.092-3.142.052-2.085-.045-3.133-.059-2.086-.159-3.134-.147-2.1-.171-3.144-.133-2.085.2-3.132.262c-1.12.068-2.231.237-3.343.333s-2.227.253-3.336.379-2.221.291-3.326.446-2.224.273-3.325.458-2.218.331-3.314.545-2.184.5-3.273.745-2.142.661-3.225.934" fill="none" stroke="#231815" stroke-linecap="round" stroke-miterlimit="10" stroke-width="6.531"/><path d="M278.376,197.047c1.5-.712,1.354-.6,3.281-.614a12.122,12.122,0,0,1,3.3.538,10.987,10.987,0,0,1,2.9,1.564,11.379,11.379,0,0,1,2.575,2.06,15.2,15.2,0,0,1,1.957,2.7,24.05,24.05,0,0,1,1.041,3.163,28.141,28.141,0,0,1,.992,3.161c.246,1.09.372,2.168.567,3.2.207,1.1.6,2.136.751,3.172.163,1.115.3,2.194.4,3.229.109,1.131-.12,2.229-.082,3.261.042,1.146.2,2.22.164,3.24a28.03,28.03,0,0,1-.469,3.2,18.467,18.467,0,0,1-.733,3.123,9.594,9.594,0,0,1-1.375,2.858,4.939,4.939,0,0,1-2.454,2.076,13.477,13.477,0,0,1-3.26.249,9.661,9.661,0,0,1-3.243-.4,9.464,9.464,0,0,1-2.773-1.731,12.728,12.728,0,0,1-2.152-2.427,19.343,19.343,0,0,1-1.648-2.8,29.169,29.169,0,0,1-1.274-2.994c-.34-.957-.805-1.955-1.107-3.069-.268-.991-.131-2.138-.367-3.259-.229-1.088-.53-2.1-.721-3.1-.21-1.1-.429-2.13-.587-3.119-.178-1.114-.333-2.155-.44-3.142-.122-1.132-.436-2.173-.455-3.155a19.358,19.358,0,0,1,.374-3.168,12.674,12.674,0,0,1,.6-3.131,9.8,9.8,0,0,1,1.692-2.734A12.67,12.67,0,0,1,278.376,197.047Z" fill="none" stroke="#231815" stroke-miterlimit="10" stroke-width="6.531"/><path d="M223.267,197.906c1.5-.713,1.335-.6,3.262-.62a11.816,11.816,0,0,1,3.32.42,11.121,11.121,0,0,1,2.931,1.57,11.848,11.848,0,0,1,2.382,2.255,14.707,14.707,0,0,1,1.98,2.643,21.4,21.4,0,0,1,1.336,3.039,29.346,29.346,0,0,1,.943,3.194c.246,1.09.311,2.184.5,3.217.207,1.1.279,2.186.43,3.222.163,1.115.4,2.172.5,3.207.11,1.13.3,2.2.341,3.235.042,1.146-.115,2.228-.157,3.248a31.937,31.937,0,0,1-.155,3.244,17.718,17.718,0,0,1-.919,3.107,10.9,10.9,0,0,1-1.166,3.049,4.729,4.729,0,0,1-2.8,1.581,13.048,13.048,0,0,1-3.192.306,9.416,9.416,0,0,1-3.206-.278,9.265,9.265,0,0,1-2.771-1.675,12.351,12.351,0,0,1-2.319-2.29,20.4,20.4,0,0,1-1.566-2.867,28.4,28.4,0,0,1-1.368-2.967c-.34-.957-.563-2.032-.865-3.146-.268-.992-.319-2.093-.555-3.214-.229-1.087-.626-2.088-.816-3.081-.21-1.1-.515-2.122-.673-3.112-.178-1.113-.027-2.2-.133-3.188-.122-1.133-.291-2.173-.31-3.155a19.763,19.763,0,0,1,.253-3.155,12.583,12.583,0,0,1,.6-3.114,9.676,9.676,0,0,1,1.695-2.7A12.376,12.376,0,0,1,223.267,197.906Z" fill="none" stroke="#231815" stroke-miterlimit="10" stroke-width="6.531"/><path d="M282,210.754c1.071-.666,1.294-.542,2.538-.057a3.314,3.314,0,0,1,1.82,1.713,20.908,20.908,0,0,1,1.2,2.78,9.478,9.478,0,0,1,.542,3.01,2.518,2.518,0,0,1-1.718,2.419,4.34,4.34,0,0,1-3.227-.028,4.153,4.153,0,0,1-2.025-2.521,12.083,12.083,0,0,1-.8-3.824A3.968,3.968,0,0,1,282,210.754Z" fill="#231815"/><path d="M227.5,211a2.068,2.068,0,0,1,2.524-.131,3.546,3.546,0,0,1,1.656,1.912,20.413,20.413,0,0,1,.923,2.839,8.974,8.974,0,0,1,.322,2.958,2.446,2.446,0,0,1-1.645,2.388,4.691,4.691,0,0,1-3.306-.086c-.778-.428-1.227-1.462-1.628-2.823a11.949,11.949,0,0,1-.691-3.775A3.8,3.8,0,0,1,227.5,211Z" fill="#231815"/><path d="M262.326,235.424c1.638.127,1.408.346,2.885,1.468a6.09,6.09,0,0,1,2.271,2.347,9.965,9.965,0,0,1,.577,3.265,11.656,11.656,0,0,1-.331,3.2,9.411,9.411,0,0,1-1.251,2.922,10.084,10.084,0,0,1-1.841,2.643,8.072,8.072,0,0,1-2.853,1.586" fill="none" stroke="#231815" stroke-linecap="round" stroke-miterlimit="10" stroke-width="6.531"/><path d="M270.712,216.448c-1.521.036-1.15-.018-3.043-.006-.87,0-1.9-.106-3.041-.112-.942,0-1.963.059-3.043.042-.973-.016-1.994.1-3.044.071-.992-.027-2.01-.057-3.042-.1-1.006-.042-2.014-.292-3.033-.351s-2.054.143-3.06.065c-1.03-.081-2.022-.436-3.012-.541-1.043-.109-2.1.129-3.07-.01-1.062-.153-2.048-.481-2.979-.674" fill="none" stroke="#231815" stroke-linecap="round" stroke-miterlimit="10" stroke-width="6.531"/><path d="M137.511,227.435a9.926,9.926,0,0,0-2.71-1.926,19.645,19.645,0,0,0-3.036-1.4,17.366,17.366,0,0,0-3.309-.422,13.209,13.209,0,0,0-3.306-.256,12.523,12.523,0,0,0-3.246.81,7.779,7.779,0,0,0-2.381,2.09,12.134,12.134,0,0,0-1.877,2.524,17.293,17.293,0,0,0-1.431,2.851,21.523,21.523,0,0,0-.854,3.1,25.141,25.141,0,0,0,0,3.212,29.566,29.566,0,0,0,2.574,12.374,25.64,25.64,0,0,0,1.924,2.562,24.94,24.94,0,0,0,1.956,2.507,26.045,26.045,0,0,0,2.079,2.464,30.441,30.441,0,0,0,2.668,1.8c.857.579,1.838,1.018,2.808,1.543" fill="none" stroke="#231815" stroke-linecap="round" stroke-miterlimit="10" stroke-width="6.531"/><path d="M229.312,109.3c-.377,1.477-.169,1.126-.574,3-.184.848-.355,1.863-.575,3-.179.921-.231,1.95-.417,3.025-.165.953-.539,1.927-.7,2.978-.147.973-.4,1.972-.53,3.012-.128.987-.057,2.026-.165,3.058-.1,1-.072,2.024-.151,3.051-.079,1.008-.352,2.013-.4,3.035s.12,2.042.108,3.06-.088,2.041-.058,3.053c.03,1.028.236,2.033.317,3.037.082,1.031.061,2.053.2,3.044.148,1.03.308,2.034.528,3a28.362,28.362,0,0,0,.943,2.9,21.586,21.586,0,0,0,1.05,2.854,15.9,15.9,0,0,0,1.545,2.637,12.309,12.309,0,0,0,2.13,2.216,11.212,11.212,0,0,0,2.782,1.268,12.07,12.07,0,0,0,2.94.627c1.059.134,2.1.42,3.174.478s2.138.222,3.213.211,2.143-.121,3.214-.193,2.113-.387,3.177-.513,2.165-.008,3.22-.183,2.117-.388,3.162-.606,2.082-.557,3.115-.813c1.05-.261,2.111-.454,3.131-.745,1.045-.3,2.076-.607,3.082-.93,1.039-.333,2.093-.58,3.083-.931,1.036-.367,1.952-.989,2.925-1.366,1.035-.4,2-.884,2.947-1.285,1.038-.436,2.088-.713,3.015-1.134,1.048-.476,2.03-.919,2.916-1.356,1.087-.535,1.969-1.173,2.778-1.61,1.39-.752,2.509-1.069,2.926-1.37.847-.611,1.48-1.15,2.082-1.139,1.313.023,1.823.088,2.079,1.242.362,1.63-.067,1.356-.156,3.349-.043.983-.323,2.119-.288,3.34.031,1.071.333,2.182.472,3.318a25.533,25.533,0,0,0,.345,3.34,15.06,15.06,0,0,0,1.378,3.054,8.4,8.4,0,0,0,2.071,2.529,6.192,6.192,0,0,0,2.867,1.455c1.035.22,2,.508,2.972.653,1.038.156,2.035.3,3.02.358a24.887,24.887,0,0,0,3.036-.066,22.12,22.12,0,0,0,3.032-.247,23.46,23.46,0,0,0,2.966-.729c.92-.314,1.728-1,2.692-1.449.876-.408,1.885-.644,2.814-1.172.84-.477,1.732-.968,2.627-1.549.812-.529,1.778-1.306,2.645-1.925.905,1.242-.435,1.411-.709,3.144a18.213,18.213,0,0,0-.447,3.035,11.058,11.058,0,0,0,.324,3.073,5.634,5.634,0,0,0,1.854,2.437c.975,1.26.572,1.136,2.157,2.252a10.69,10.69,0,0,0,2.8,1.411,13.33,13.33,0,0,0,3.079.682,16.957,16.957,0,0,0,3.18.183,27.274,27.274,0,0,0,3.1-.768,30.493,30.493,0,0,0,3.072-.777c.948-.313,2.065-.364,3.107-.8.925-.388,1.824-.992,2.826-1.489.906-.449,1.78-1.062,2.751-1.607.887-.5,1.731-1.145,2.674-1.729.869-.538,1.934-.845,2.851-1.46.852-.572,1.753-1.145,2.647-1.787.836-.6,1.5-1.492,2.371-2.156.822-.625,1.684-1.243,2.54-1.927.809-.646,1.8-1.114,2.64-1.815.8-.664,1.477-1.509,2.3-2.225" fill="none" stroke="#231815" stroke-linecap="round" stroke-miterlimit="10" stroke-width="6.531"/><path d="M207.143,128.569c-.548,1.5-.278,1.177-1.015,3.038-.336.85-.82,1.82-1.284,2.938-.379.912-.726,1.931-1.179,2.976-.407.936-.864,1.907-1.323,2.919-.43.946-.939,1.892-1.41,2.88-.453.949-1.049,1.848-1.536,2.814-.479.95-.695,2.046-1.2,2.992s-1.057,1.874-1.588,2.8c-.54.939-1.311,1.728-1.872,2.621-.581.926-1.218,1.779-1.817,2.633-.635.907-1.173,1.831-1.822,2.629a30.777,30.777,0,0,1-2.015,2.5,16.68,16.68,0,0,1-2.479,2.054,8.525,8.525,0,0,1-2.923,1.421,5.379,5.379,0,0,1-3.272-.486c-1.229-.878-.614-1.126-1.834-2.468-.6-.655-1.3-1.394-2.009-2.247-.614-.743-1.272-1.517-1.885-2.354-.594-.811-1.433-1.482-1.955-2.333a21.717,21.717,0,0,1-1.22-2.785,11.463,11.463,0,0,1-1.028-2.858,4.531,4.531,0,0,1,.658-2.914,4.448,4.448,0,0,1,2.191-2.05,11.9,11.9,0,0,1,3-.536,20.787,20.787,0,0,1,3.031-.28c.921.026,1.527,1.13,1.644,2.636a15.02,15.02,0,0,1-.5,3.132,25.009,25.009,0,0,1-.712,3.069c-.291.95-.536,1.981-.96,3.02-.382.938-.783,1.92-1.275,2.908-.457.917-.844,1.919-1.4,2.863-.522.89-1.268,1.675-1.878,2.574-.583.859-1.286,1.648-1.95,2.5-.64.822-1.165,1.757-1.881,2.564-.692.781-1.331,1.642-2.1,2.4-.743.735-1.663,1.3-2.476,2.007-.792.684-1.492,1.508-2.35,2.154-.837.629-1.756,1.173-2.657,1.758-.878.57-1.714,1.253-2.654,1.774-.915.507-1.927.876-2.9,1.33-.948.442-1.935.839-2.94,1.225-.976.374-1.943.845-2.973,1.161" fill="none" stroke="#231815" stroke-linecap="round" stroke-miterlimit="10" stroke-width="6.531"/><path d="M154.953,186.4a10.666,10.666,0,0,1-2,2.414c-.6.628-1.633,1.05-2.532,1.833-.708.617-1.369,1.435-2.274,2.107-.775.576-1.586,1.229-2.513,1.821-.827.527-1.786.94-2.739,1.464-.867.476-1.709,1.109-2.684,1.569-.9.425-1.888.762-2.883,1.163-.926.374-1.959.552-2.97.9-.948.323-1.924.642-2.948.934-.966.276-1.917.719-2.952.961-.981.23-2.022.3-3.067.5-.991.185-1.986.493-3.035.643-1,.143-2.038.183-3.092.291-1.006.1-2.031.266-3.088.334-1.011.065-2.048.089-3.106.12-1.014.029-2.05-.021-3.108-.026" fill="none" stroke="#231815" stroke-linecap="round" stroke-miterlimit="10" stroke-width="6.531"/><path d="M69.7,340.492S56.08,310.149,55.3,307.566s-8.723-14.283-15.986-29.949-7.446-19.372-7.446-19.372c-.856-6.951,6.357-6.946,6.357-6.946-.507-5.8,8.167-7.181,8.167-7.181-1.046-3.445.328-5.116,6.095-7.806s23.291,23.029,23.291,23.029a82.189,82.189,0,0,1,7.619-7.955c3.009-2.481,5.741-1.743,10.032,1.031s14.142,10.443,13.465,14.411-4.409,5.1-6.706,5.8-8.868-5.46-11.738-4.589-6.147,2.738-4.456,10.376,12.651,9.4,12.651,9.4,6.439-10.465,8.413-13.258,7.787-.169,9.381,4.05-5.949,20.348-6.79,26.874-13.9,12.055-14.76,12.317l4.675,12.471" fill="#ffe200" stroke="#231815" stroke-linecap="round" stroke-linejoin="round" stroke-width="6.531"/><line x1="38.221" y1="251.299" x2="49.787" y2="270.601" fill="none" stroke="#231815" stroke-linecap="round" stroke-miterlimit="10" stroke-width="6.531"/><line x1="46.606" y1="245.586" x2="58.022" y2="262.027" fill="none" stroke="#231815" stroke-linecap="round" stroke-miterlimit="10" stroke-width="6.531"/><path d="M237.316,265.252s6.294,13.374,25.961,10.227" fill="none" stroke="#231815" stroke-linecap="round" stroke-miterlimit="10" stroke-width="6.531"/><path d="M14.931,250.793,3.265,247.17" fill="none" stroke="#231815" stroke-linecap="round" stroke-linejoin="round" stroke-width="6.531"/><path d="M14.927,268.366,4.041,272.391" fill="none" stroke="#231815" stroke-linecap="round" stroke-linejoin="round" stroke-width="6.531"/><path d="M23.824,290.549l-5.44,6.513" fill="none" stroke="#231815" stroke-linecap="round" stroke-linejoin="round" stroke-width="6.531"/><path d="M290.369.183l.383.066q6.217,1.069,7.422,7.478a7.55,7.55,0,0,1,0,3.036l-.11.641a2.171,2.171,0,0,1-2.682,1.782q-1.954-.336-1.667-4.114-.41-3.369-4.062-4l-.384-.066Q286.2,4.479,284.6,7.634a4.558,4.558,0,0,0-.327,1.131l-.088.513q-1.158,6.729,2.876,13.953,3.672,7.231,3.913,11.758a47.428,47.428,0,0,0,10.208-1.806,12.716,12.716,0,0,0,5.084-3.479,2.985,2.985,0,0,1,1.777-.354q2.361.835,2.016,2.854-.548,3.173-8.991,6.237a54.234,54.234,0,0,1-7.874,1.284q-2.913.06-3.127,1.309-1.887,2.711-4.481,2.264l-.257-.044q-2.368-.408-2.439-3.454a4.956,4.956,0,0,1,3.27-3.661l.021-.127q-.076-3.972-5.226-14.1a22.939,22.939,0,0,1-1.75-12.835l.22-1.281q1.074-6.249,7.93-7.74A10.374,10.374,0,0,1,290.369.183Z"/><path d="M324.191,20.449q7.811,2.874,6.935,13.913a17.64,17.64,0,0,1-.7,2.653l-.675,1.83.124.046a18.413,18.413,0,0,0,7.724-1.038,1.821,1.821,0,0,1,1.233.038l.611.224a2.449,2.449,0,0,1,1.1,3.038q-.862,2.351-9.754,2.785l-4.142-.415a16.888,16.888,0,0,1-5.693,4.555,11.159,11.159,0,0,1-8.323.4l-.611-.224q-6.468-2.381-7.2-10.549a16.545,16.545,0,0,1,.9-5.074,21.784,21.784,0,0,1,5.005-7.579q1.146-3.113,6.406-4.986A12.367,12.367,0,0,1,324.191,20.449ZM310.71,33.364l-.089.244q-2.053,5.583,1.167,8.881a5.559,5.559,0,0,0,1.695,1.039l.732.269q3.447,1.27,6.884-1.762l.045-.122-.61-.224a21.6,21.6,0,0,1-9.007-6.778A8.276,8.276,0,0,0,310.71,33.364Zm4.469-6.116-.181.488q-1.807,4.912,7.487,9.4l1.952.718q.366.137.949-1.452l.314-.854a10.039,10.039,0,0,0-.8-8.747q-.3-.7-2.416-1.72a.115.115,0,0,1-.167.078l.045-.122a6.26,6.26,0,0,0-6.794,1.518Z"/><path d="M383.953,42.731q1.553,1.123.452,3.374-1.524,2.109-5-.4-4.289-2.615-9.825-6.608l-.257.135q-1.965,3.392-3.791,5.923l-3.045,4.218q5.1,3.039,5.894,3.611,1.4,1.007.346,3.3-1.841,1.717-3.237.709-3.556-2.4-5.665-3.926l-.077.105-8.539,12.279a2.582,2.582,0,0,1-3.25.06q-1.264-.913-.605-3.162,4.736-7.006,11.734-16.708l-.105-.076.258-.135.076-.1a.116.116,0,0,0-.029-.182l.257-.135,6.163-8.541-.844-.61a2.157,2.157,0,0,1-.288-2.933q1.444-2,5.558.964Q374.261,36.381,383.953,42.731Z"/><path d="M394.425,70.1l.091.092q2.166,2.112-4.016,7.23-3.522,3.281-6.305,6.014-2.762,3.034-1.691,4.216l.547.557q1.914,1.947,8.926-.751,3.6-2.268,5.154-.691,1.454,2.032.065,3.4-1.625,1.6-8.216,3.516-5.895,1.236-9.545-1.922a7.3,7.3,0,0,1-2.057-6.914,3.25,3.25,0,0,1,.564-1.282,12.263,12.263,0,0,1-4.6.328,8.931,8.931,0,0,1-4.58-2.063q-3.075-3.129-.654-9.568a15.85,15.85,0,0,1,3.073-4.3q6.628-6.518,14.209-5.579a6.473,6.473,0,0,1,2.926,1.68l.092.093a8.88,8.88,0,0,1,2.429,6.181l.092.093Q392.874,68.524,394.425,70.1Zm-21.051,1.888q-2.574,2.736-1.646,5.652t5.136,1.585a22.644,22.644,0,0,0,8.215-4.93q4.007-3.6-.287-6.761-2.085-.869-5.464.424A15.937,15.937,0,0,0,373.374,71.987Z"/><path d="M409.18,86.452l.074.106q2.508,3.64-.6,7.838a11.342,11.342,0,0,1-2.241,2.018q-2.2,1.161-3.288-.418t.565-3.075q2.527-2.059,1.643-3.344l-.147-.214q-1.126-1.632-4.234-.872a3.971,3.971,0,0,0-.93.483,5.254,5.254,0,0,0-1.751,3.418q-1.956,10.509-3.107,11.3,7.335,6.63,8.459,5.856.406.59,5.678-1.386a2.447,2.447,0,0,1,2.251.975l.147.213q1.089,1.579-.7,3.33-1.527,1.051-6.247,1.936-3.62.246-7.618-2.8-3.908-3.149-5.993-5.029-3.5.874-5.144-1.507-1.385-2.007,1.011-4.488l.429-.3q1.471-1.014,3.717.123l.073.107a57.711,57.711,0,0,0,2.333-10.136q1.36-4.1,3.234-5.388l.964-.665q3.505-2.415,8.941-.318A8.563,8.563,0,0,1,409.18,86.452Z"/><path d="M434.338,100.329q.738,1.484-1.169,2.905-1.832.768-3.316,1.508l-.7.347,1.855,3.725q.81,2.355-.993,3.255l-.233.116q-1.776.883-3.2-1.168l-1.8-3.609-.232-.175q-3.607,1.651-5.295,2.493l-1.047.521q-15.366,7.651-14.844,8.7a4.483,4.483,0,0,0,.519,3.082q1.942,3.9,10.578,3.158,5.384-1.446,5.875-.456c.136-.067.348.165.639.7l.29.582q.693,1.4-1.169,2.905-2.24,1.116-9.6,1.439Q402.09,129.5,399.35,124a8.192,8.192,0,0,1,.187-8.374q.266-1.731,16.24-9.686l5.356-2.667a.114.114,0,0,1,.173.059.116.116,0,0,0,.059-.175l.64-.173.349-.174q-2.551-5.121-1.851-5.47a2.484,2.484,0,0,1,1.048-1.394q1.716-.853,2.964.994a40.335,40.335,0,0,1,2.262,3.958q6.166-2.782,6.805-1.5A2.441,2.441,0,0,1,434.338,100.329Z"/><path d="M412.673,141.76l.038.125q.615,1.986-1.754,3.129-2.416.1-2.889-1.419l-.153-.5q-.56-1.8,1.666-2.967Q412.067,139.8,412.673,141.76Zm34.187-10.49q.35,2.341-1.544,2.929l-4.844,1.5q-1.459.453-13.406,3.746l-8.694,2.694q-2.373.256-2.929-1.543l-.116-.374q-.345-1.118,1.085-2.649,3.1-1.1,4.93-1.664l2.112-.654q21.88-6.27,22.2-5.244A3.547,3.547,0,0,1,446.86,131.27Z"/></svg>