<svg xmlns="http://www.w3.org/2000/svg" width="338.282" height="715.587" viewBox="0 0 338.282 715.587"><path d="M119.121,308.524c-7.592,6.508-48.806,15.184-62.906,0C37.313,288.168,19.552,231.6,19.552,231.6c4.338-5.423,33.622-10.846,33.622-10.846L74.653,267.31c23.861,6.508,45.552-8.676,45.552-8.676S159.739,237,185.739,236s67.431,12.1,78.715,21.549c0,0,28.2,21.692,37.961,80.259" fill="#ffe200"/><path d="M47.468,221.064l-4.8-14.924s21.32-5.329,18.655-15.456-17.589-3.731-17.589-3.731-6.4-46.117-14.393-40.788-4.794,32.793-4.794,32.793S-1.034,181.09.032,194.415,9.093,215.2,18.687,213.6l5.33,13.858" fill="#ffe200"/><path d="M259.032,282.494s27.524,81.254,20.036,161.187a20.465,20.465,0,0,1-14.946,17.769c-24.244,6.675-78.6,17.583-138.733,2.987a14.889,14.889,0,0,1-11.3-13.723c-1.347-26.094,1.337-98.454,15.883-166.05" fill="#ffe200"/><path d="M331.7,139.562c-.063,1.048-.279,2.084-.362,3.124s-.422,2.066-.525,3.1-.181,2.085-.3,3.122-.147,2.093-.291,3.127-.07,2.111-.235,3.141-.447,2.054-.634,3.081-.561,2.027-.77,3.05-.107,2.123-.338,3.142-.882,1.945-1.136,2.958-.249,2.1-.527,3.108-.754,1.965-1.055,2.965-.388,2.076-.712,3.069-.839,1.93-1.188,2.914-.626,2-1,2.979-.743,1.962-1.141,2.928-1.03,1.838-1.452,2.793-.493,2.081-.941,3.025-1.077,1.81-1.55,2.742-.976,1.855-1.475,2.773-.841,1.934-1.365,2.839-1.282,1.677-1.832,2.567-.982,1.859-1.556,2.733-1.287,1.659-1.887,2.516-1.351,1.6-1.976,2.442-1.037,1.841-1.686,2.662-1.324,1.624-2,2.425-1.528,1.443-2.227,2.224-1.234,1.706-1.956,2.465-1.4,1.559-2.149,2.3-1.623,1.332-2.39,2.047-1.565,1.385-2.354,2.075-1.469,1.5-2.279,2.168-1.624,1.322-2.454,1.964-1.629,1.318-2.479,1.934-1.83,1.033-2.7,1.624-1.7,1.216-2.585,1.78-1.7,1.22-2.606,1.758-1.807,1.056-2.725,1.567-1.96.765-2.892,1.25-1.721,1.227-2.666,1.686-1.9.868-2.862,1.3-1.993.654-2.963,1.06-1.9.856-2.886,1.236-1.943.765-2.934,1.12-2.028.515-3.028.844-1.877.991-2.885,1.3-2.044.461-3.059.74-1.988.662-3.01.917-2.042.449-3.069.679-2.108.117-3.141.324-2.052.351-3.088.535-2.029.494-3.07.656-2.033.518-3.077.658-2.065.321-3.112.44-2.1-.014-3.15.084-2.057.47-3.108.549-2.106-.2-3.158-.145-2.08.16-3.133.2-2.079.3-3.133.324-2.09-.083-3.144-.08-2.086-.234-3.141-.249-2.093.253-3.146.221-2.094,0-3.148-.051-2.09-.1-3.143-.168-2.07-.341-3.1-.417c-1.045-.077-2.09-.059-3.118-.149-1.044-.091-2.051-.47-3.078-.574-1.042-.106-2.075-.2-3.1-.321s-2.071-.238-3.094-.372-2.063-.294-3.084-.444-2.066-.277-3.084-.444c-1.034-.169-2.08-.21-3.095-.393s-2.029-.493-3.04-.693c-1.028-.2-2.061-.331-3.069-.549-1.023-.223-2.092-.212-3.1-.45s-2.041-.45-3.04-.707c-1.014-.26-1.991-.642-2.984-.918-1.008-.281-1.955-.749-2.942-1.046-1-.3-2.029-.5-3.01-.819-1-.323-2.017-.554-2.991-.894-.99-.345-1.918-.84-2.884-1.2s-1.894-.883-2.851-1.267c-.972-.391-1.918-.812-2.866-1.22s-1.928-.791-2.866-1.223-1.91-.835-2.836-1.291-1.9-.871-2.811-1.352-1.934-.815-2.834-1.321-1.834-1.006-2.72-1.538-1.556-1.447-2.426-2-1.877-.938-2.73-1.521-1.591-1.356-2.426-1.965-1.675-1.231-2.491-1.866-1.657-1.257-2.452-1.917-1.687-1.229-2.462-1.915-1.487-1.458-2.239-2.168-1.476-1.463-2.2-2.2-1.522-1.422-2.226-2.181-1.515-1.439-2.194-2.221-1.229-1.687-1.882-2.491-1.478-1.488-2.1-2.314-1.039-1.819-1.639-2.666-1.25-1.662-1.822-2.528-1.231-1.684-1.775-2.568-.835-1.92-1.351-2.822-.947-1.843-1.434-2.761-1.2-1.714-1.664-2.646-.82-1.91-1.251-2.856-1.017-1.823-1.42-2.781-.616-1.992-.992-2.962-.745-1.936-1.093-2.917-.632-1.976-.953-2.966-.569-1.993-.864-2.992-.482-2.015-.751-3.021-.675-1.965-.918-2.978-.589-1.993-.807-3.011-.346-2.047-.54-3.07-.3-2.052-.467-3.079-.259-2.056-.407-3.087-.436-2.032-.562-3.066-.351-2.049-.455-3.085-.228-2.065-.311-3.1-.235-2.067-.3-3.107-.071-2.076-.114-3.117.138-2.081.114-3.122-.116-2.073-.122-3.115-.029-2.076-.017-3.118-.119-2.079-.089-3.121.468-2.059.515-3.1-.029-2.078.034-3.118.181-2.081.272-3.118-.1-2.113.014-3.147.276-2.077.421-3.109.472-2.044.645-3.071.4-2.052.6-3.074.438-2.043.666-3.059.627-2,.882-3.006.167-2.117.449-3.12.7-1.974,1.012-2.97.464-2.049.8-3.036.842-1.922,1.2-2.9.714-1.965,1.1-2.933,1.051-1.823,1.464-2.781.738-1.953,1.176-2.9.645-2.007,1.109-2.942,1.255-1.7,1.743-2.625.709-1.991,1.221-2.9,1.29-1.665,1.826-2.561.948-1.866,1.507-2.747.994-1.847,1.576-2.713,1.379-1.586,1.983-2.437,1.067-1.807,1.693-2.642,1.187-1.725,1.834-2.544,1.481-1.49,2.149-2.292,1.357-1.585,2.045-2.37,1.327-1.614,2.035-2.382,1.3-1.65,2.024-2.4,1.679-1.276,2.425-2.007,1.47-1.48,2.234-2.192,1.381-1.586,2.162-2.279,1.742-1.179,2.541-1.852,1.479-1.488,2.294-2.141,1.822-1.056,2.653-1.689,1.638-1.288,2.484-1.9,1.508-1.482,2.369-2.074,1.72-1.19,2.595-1.761,1.894-.913,2.783-1.462,1.651-1.306,2.553-1.834,1.9-.878,2.818-1.384,1.906-.856,2.832-1.34,1.775-1.109,2.713-1.571,1.861-.946,2.81-1.384,1.836-1.013,2.795-1.428,2.021-.582,2.99-.975,1.96-.711,2.938-1.08,1.912-.845,2.9-1.19,2.024-.525,3.018-.847,1.941-.78,2.943-1.079,2-.588,3.011-.863,2-.612,3.012-.863,2.09-.22,3.111-.446,1.959-.821,2.985-1.024,2.12-.011,3.15-.189,2.038-.447,3.073-.6,2.064-.284,3.1-.413,2.065-.3,3.106-.405,2.087-.041,3.13-.122,2.067-.313,3.112-.37,2.089.109,3.135.077,2.078-.334,3.124-.342,2.084.217,3.13.233,2.091-.183,3.137-.144,2.072.306,3.118.369,2.108-.169,3.146-.083,2.078.261,3.113.371,2.084.2,3.116.334,2.073.294,3.1.452,2.025.561,3.051.743,2.036.46,3.057.665,2.126.053,3.142.283,2,.635,3.01.888,2,.623,3,.9,2.044.449,3.042.75,2.012.572,3,.9,1.972.7,2.954,1.044,2.037.524,3.011.9,1.867.97,2.832,1.364,2,.651,2.951,1.067,1.756,1.189,2.7,1.627,2.054.547,2.989,1.008,1.756,1.158,2.68,1.642,1.83,1,2.742,1.508,1.967.77,2.866,1.3,1.753,1.145,2.64,1.694,1.76,1.129,2.633,1.7,1.674,1.254,2.533,1.845,1.819,1.047,2.664,1.658,1.669,1.261,2.5,1.893,1.621,1.319,2.436,1.971,1.571,1.377,2.369,2.048,1.544,1.406,2.325,2.1,1.655,1.282,2.42,1.992,1.635,1.315,2.382,2.043,1.435,1.524,2.164,2.27,1.456,1.5,2.166,2.266,1.215,1.717,1.906,2.5,1.549,1.421,2.221,2.22,1.355,1.592,2.006,2.408,1.218,1.7,1.848,2.531,1.327,1.619,1.936,2.466,1.211,1.7,1.8,2.567,1.125,1.761,1.691,2.638,1.161,1.739,1.7,2.63,1.037,1.814,1.558,2.719,1.008,1.83,1.5,2.748.968,1.85,1.441,2.781.784,1.939,1.233,2.882.9,1.877,1.329,2.831.934,1.869,1.332,2.834.87,1.9,1.244,2.877.829,1.922,1.177,2.907.594,2.006.915,3,.667,1.981.962,2.984.281,2.087.55,3.1.758,1.959,1,2.976.536,2.021.75,3.044.3,2.069.482,3.1.474,2.038.632,3.071.391,2.056.523,3.094-.021,2.1.082,3.144.256,2.07.331,3.114.289,2.074.336,3.119.091,2.088.111,3.134-.336,2.087-.345,3.133.173,2.088.137,3.134S331.761,138.517,331.7,139.562Z" fill="#ffe200"/><path d="M85.887,196.879c.424.953,1.114,1.779,1.567,2.715s.571,2.046,1.055,2.967,1.207,1.718,1.722,2.622,1.049,1.8,1.6,2.683.988,1.842,1.568,2.707,1.2,1.706,1.81,2.55,1.416,1.536,2.061,2.356,1.116,1.773,1.793,2.568,1.591,1.364,2.3,2.132,1.213,1.712,1.952,2.452,1.4,1.547,2.167,2.258,1.674,1.246,2.469,1.927,1.452,1.5,2.273,2.155,1.753,1.128,2.6,1.748,1.731,1.141,2.6,1.729c.854.578,1.764,1.082,2.654,1.639.874.547,1.662,1.254,2.571,1.779.893.517,1.929.791,2.856,1.287.909.485,1.676,1.27,2.619,1.735.924.456,1.945.738,2.9,1.174.938.427,1.932.747,2.9,1.154.951.4,1.81,1.056,2.791,1.435.961.372,1.942.735,2.933,1.088.971.345,2.013.52,3.014.847.979.319,2.018.477,3.026.779.986.295,1.992.546,3.006.824.993.272,1.915.853,2.935,1.108,1,.249,2.073.23,3.1.463,1,.228,2,.566,3.024.778,1.01.208,2,.578,3.033.77,1.014.189,2.038.4,3.076.569,1.017.17,2.1.008,3.139.163,1.02.152,2.046.321,3.09.458,1.022.135,2.064.17,3.108.29,1.025.118,2.047.325,3.093.429,1.027.1,2.066.154,3.114.243,1.03.088,2.067.163,3.117.237,1.03.074,2.059.283,3.108.343,1.033.06,2.063.361,3.115.408,1.034.047,1.953-.01,3,.025,1.017,1.157.153,1.154.568,2.932a26.271,26.271,0,0,0,1.117,2.873,17.8,17.8,0,0,0,1.226,2.806,13.724,13.724,0,0,0,1.705,2.576,11.361,11.361,0,0,0,2.59,1.661,10.342,10.342,0,0,0,2.683,1.543,13.552,13.552,0,0,0,3.107.086" fill="none" stroke="#231815" stroke-linecap="round" stroke-miterlimit="10" stroke-width="6.523"/><path d="M300.517,204.172c-.606.857-1.226,1.7-1.854,2.544s-1.246,1.688-1.9,2.514-1.193,1.735-1.864,2.544-1.374,1.589-2.066,2.38-1.539,1.437-2.252,2.209-1.37,1.589-2.1,2.341-1.566,1.4-2.321,2.129-1.428,1.538-2.2,2.249-1.468,1.506-2.262,2.2-1.672,1.271-2.486,1.937-1.472,1.522-2.305,2.165-1.761,1.153-2.613,1.772-1.78,1.113-2.649,1.707-1.784,1.1-2.67,1.666-1.6,1.395-2.5,1.939-1.96.8-2.878,1.318-1.808,1.055-2.741,1.546-1.762,1.16-2.709,1.623-1.875.946-2.835,1.382-1.957.76-2.929,1.169-2,.624-2.988,1.006-1.861,1-2.855,1.358-2.1.315-3.107.642-1.918.874-2.93,1.173-2.012.583-3.033.856-2.061.384-3.089.63-2.03.5-3.063.717-2.007.641-3.045.834-2.1.134-3.145.3-2.026.624-3.074.766-2.112-.016-3.163.1-2.092.1-3.146.194-2.07.377-3.126.447" fill="none" stroke="#231815" stroke-linecap="round" stroke-miterlimit="10" stroke-width="6.523"/><path d="M252.877,13.171c.964.405,1.944.774,2.895,1.2s1.85.977,2.791,1.428,1.969.733,2.9,1.206,1.834,1.008,2.752,1.5,1.88.924,2.786,1.442,1.715,1.209,2.607,1.749,1.893.917,2.772,1.479,1.657,1.288,2.522,1.871,1.759,1.131,2.61,1.736,1.685,1.237,2.521,1.862,1.586,1.364,2.407,2.008,1.624,1.311,2.428,1.976,1.739,1.179,2.527,1.863,1.586,1.365,2.358,2.068,1.438,1.522,2.192,2.243,1.353,1.6,2.09,2.339,1.542,1.409,2.261,2.166,1.49,1.464,2.191,2.238,1.423,1.529,2.105,2.32,1.371,1.577,2.033,2.384,1.272,1.657,1.915,2.481,1.23,1.687,1.852,2.525,1.281,1.65,1.883,2.5,1.328,1.623,1.909,2.491,1.178,1.73,1.737,2.612,1.088,1.787,1.626,2.682.8,1.95,1.318,2.858,1.227,1.706,1.722,2.627.806,1.933,1.278,2.866.9,1.879,1.351,2.823.953,1.856,1.379,2.81.833,1.913,1.236,2.877.813,1.922,1.191,2.9.884,1.9,1.239,2.882.669,1.979,1,2.971.459,2.044.766,3.043.68,1.973.961,2.98.421,2.045.678,3.058.62,1.995.852,3.014.58,2.01.787,3.035.282,2.071.464,3.1.607,2.018.764,3.052.152,2.089.284,3.127.117,2.086.223,3.127.113,2.082.193,3.125.471,2.061.527,3.106-.211,2.1-.181,3.143.094,2.083.1,3.13.22,2.089.2,3.136" fill="none" stroke="#231815" stroke-linecap="round" stroke-miterlimit="10" stroke-width="6.523"/><path d="M75.009,120.825c.089-1.035.16-2.069.273-3.095s.093-2.08.23-3.1.685-2,.847-3.015.245-2.058.431-3.074.352-2.041.563-3.052.423-2.028.659-3.034.25-2.075.51-3.075.74-1.948,1.024-2.943.372-2.053.681-3.04.6-1.988.935-2.968,1.044-1.829,1.4-2.8.742-1.93,1.121-2.892.513-2.027.916-2.98,1.064-1.8,1.489-2.738.491-2.058.94-2.99,1.279-1.679,1.75-2.6.733-1.953,1.226-2.863.861-1.9,1.376-2.793,1.366-1.6,1.9-2.485.745-1.977,1.3-2.849,1.269-1.649,1.848-2.507,1.406-1.544,2-2.388,1.037-1.8,1.657-2.633,1.218-1.676,1.858-2.49,1.474-1.47,2.133-2.268,1.055-1.819,1.733-2.6,1.634-1.318,2.331-2.084,1.245-1.667,1.959-2.416,1.57-1.359,2.3-2.09,1.381-1.546,2.132-2.259,1.358-1.582,2.125-2.278,1.732-1.169,2.515-1.846,1.476-1.461,2.276-2.119,1.588-1.332,2.4-1.97,1.732-1.144,2.562-1.763,1.485-1.481,2.33-2.08,1.9-.893,2.761-1.471,1.547-1.418,2.42-1.975,1.859-.936,2.745-1.472,1.764-1.084,2.663-1.6,1.73-1.153,2.641-1.646S143.8,17.474,144.724,17s1.935-.763,2.869-1.212,1.829-.98,2.773-1.406,1.939-.736,2.894-1.139,1.893-.841,2.858-1.221,1.973-.632,2.947-.988,1.882-.889,2.864-1.222,1.983-.6,2.973-.91,1.956-.694,2.953-.978,2.044-.378,3.047-.638,1.959-.709,2.969-.944,2.059-.282,3.075-.493,2.018-.465,3.038-.651,2.043-.338,3.068-.5,2.064-.181,3.093-.317,2.052-.245,3.084-.356,2.038-.418,3.072-.5,2.064-.181,3.1-.243,2.074.035,3.112,0,2.07.149,3.108.137,2.065-.12,3.1-.107,2.069-.046,3.107-.008,2.07.045,3.106.108c1,.061,2,.11,3,.193s1.992.233,2.986.339,1.985.28,2.976.409,1.994.213,2.981.365,2.008.156,2.991.331,1.981.336,2.96.534,1.96.436,2.935.657,1.88.752,2.849,1" fill="none" stroke="#231815" stroke-linecap="round" stroke-miterlimit="10" stroke-width="6.523"/><path d="M171.953,118.48c-1.4-.5-1.184-.148-2.922-.035a11.59,11.59,0,0,0-2.9.436,10.717,10.717,0,0,0-2.77,1.088,11.8,11.8,0,0,0-2.122,2.084,13.56,13.56,0,0,0-1.595,2.472,16.19,16.19,0,0,0-1.473,2.584,24.5,24.5,0,0,0-.7,2.893,29.716,29.716,0,0,0-.565,2.926c-.116,1.018,0,2.032-.076,3-.083,1.025-.137,2.018-.181,2.984-.047,1.032-.373,2.025-.377,2.988,0,1.037.181,2.036.225,2.991.048,1.044-.049,2.06.053,3,.113,1.049.253,2.054.428,2.977a26.032,26.032,0,0,0,.779,2.907,15.15,15.15,0,0,0,1.416,2.644,9.191,9.191,0,0,0,1.594,2.483,4.513,4.513,0,0,0,2.638,1.176,13.886,13.886,0,0,0,3.3.181,9.663,9.663,0,0,0,3.2-.851,9.392,9.392,0,0,0,2.668-1.96,12.9,12.9,0,0,0,1.93-2.692,20.78,20.78,0,0,0,1.219-3.078,26.606,26.606,0,0,0,1.319-3.081c.24-1.011.364-2.13.548-3.3.163-1.037.27-2.148.386-3.314.113-1.131.2-2.213.284-3.244.092-1.139-.075-2.233-.024-3.257.058-1.151.3-2.224.3-3.24,0-1.165-.261-2.229-.35-3.23a20.368,20.368,0,0,0-.538-3.176,13.423,13.423,0,0,0-.8-3.167,10.107,10.107,0,0,0-2.037-2.595A13.151,13.151,0,0,0,171.953,118.48Z" fill="none" stroke="#231815" stroke-miterlimit="10" stroke-width="6.523"/><path d="M228.105,118.435c-1.4-.5-1.2-.141-2.941-.028a11.926,11.926,0,0,0-2.873.553,10.549,10.549,0,0,0-2.745,1.084,11.217,11.217,0,0,0-2.312,1.884,14.16,14.16,0,0,0-1.573,2.531,17.438,17.438,0,0,0-1.181,2.711,23.437,23.437,0,0,0-.751,2.859,28.741,28.741,0,0,0-.626,2.906c-.116,1.018-.32,2-.4,2.971-.084,1.025-.04,2.032-.084,3-.046,1.032.049,2.033.046,3,0,1.037-.139,2.038-.095,2.993.048,1.044.265,2.029.367,2.974.113,1.049.068,2.068.243,2.99a23.675,23.675,0,0,0,1.042,2.818,19.16,19.16,0,0,0,.826,2.881,9.557,9.557,0,0,0,1.7,2.512,4.821,4.821,0,0,0,2.777,1.12,13.955,13.955,0,0,0,3.316.134,9.548,9.548,0,0,0,3.122-1.051,9.138,9.138,0,0,0,2.7-1.856,12.981,12.981,0,0,0,1.837-2.728,19.033,19.033,0,0,0,1.447-2.971,27.93,27.93,0,0,0,1.135-3.137c.24-1.011.268-2.137.451-3.3.164-1.037.184-2.146.3-3.312.113-1.131.509-2.183.592-3.214.093-1.139.07-2.227.122-3.251.058-1.151.182-2.233.181-3.249,0-1.165-.259-2.235-.348-3.236a20.667,20.667,0,0,0-.521-3.191,13.213,13.213,0,0,0-.883-3.145,9.974,9.974,0,0,0-2.16-2.458A12.489,12.489,0,0,0,228.105,118.435Z" fill="none" stroke="#231815" stroke-miterlimit="10" stroke-width="6.523"/><path d="M170.167,132.956c-1.1-.68-1.1-.933-2.376-.437a3.433,3.433,0,0,0-1.649,1.867,20.718,20.718,0,0,0-1.1,2.848,8.761,8.761,0,0,0-.469,2.956c.046,1.153.318,1.956,1.4,2.294a4.443,4.443,0,0,0,3.24.17c.827-.4,1.321-1.289,1.811-2.672a14.717,14.717,0,0,0,.661-2.528,6.531,6.531,0,0,0,.156-2.61A3.309,3.309,0,0,0,170.167,132.956Z" fill="#231815"/><path d="M226.005,133.051c-1.119-.613-1.125-.654-2.354-.1a3.114,3.114,0,0,0-1.581,1.805,20.468,20.468,0,0,0-1.048,2.84,9.06,9.06,0,0,0-.362,2.985,2.1,2.1,0,0,0,1.683,2.1,4,4,0,0,0,3.086-.114,3.833,3.833,0,0,0,1.886-2.507,14.515,14.515,0,0,0,.42-2.567,5.971,5.971,0,0,0-.231-2.521A3.071,3.071,0,0,0,226.005,133.051Z" fill="#231815"/><path d="M193.216,157.988c-1.676.13-1.675-.106-3.185,1.041a7.088,7.088,0,0,0-1.761,2.842,8.937,8.937,0,0,0-.876,3.192,12.6,12.6,0,0,0,.113,3.309,10.574,10.574,0,0,0,1.1,3.158,9.452,9.452,0,0,0,2.384,2.313,7.624,7.624,0,0,0,2.834,1.544" fill="none" stroke="#231815" stroke-linecap="round" stroke-miterlimit="10" stroke-width="6.523"/><path d="M181.932,138.5c1.555.037,1.177.073,3.112.085.89.006,1.942.121,3.113.116.964,0,2.01-.086,3.114-.1,1-.015,2.035-.174,3.109-.2,1.014-.028,2.055-.068,3.11-.111,1.029-.043,2.082.107,3.124.047s2.066-.4,3.094-.48c1.054-.083,2.12.087,3.132-.02,1.067-.112,2.058-.6,3.048-.744,1.086-.156,2.136-.176,3.088-.373" fill="none" stroke="#231815" stroke-linecap="round" stroke-miterlimit="10" stroke-width="6.523"/><path d="M313.74,149.941c1.524-.766,1.312-.494,3.259-1.022a20.894,20.894,0,0,1,3.346-.546,16.439,16.439,0,0,1,3.415-.333,14.435,14.435,0,0,1,3.28,1.01,12.745,12.745,0,0,1,2.974,1.616,7.484,7.484,0,0,1,2.269,2.066,12.951,12.951,0,0,1,1.18,2.855,18.216,18.216,0,0,1,.44,3.032,21.42,21.42,0,0,1,.066,3.037,23.342,23.342,0,0,1,.07,3.072,24.492,24.492,0,0,1-3.07,8.635,25.172,25.172,0,0,1-1.812,2.461,24.5,24.5,0,0,1-1.748,2.526,25.82,25.82,0,0,1-2.294,2.044,28.025,28.025,0,0,1-2.662,1.522,26.794,26.794,0,0,1-2.554,1.655,29.45,29.45,0,0,1-2.747,1.348c-.925.35-1.867.792-2.88,1.073" fill="none" stroke="#231815" stroke-linecap="round" stroke-miterlimit="10" stroke-width="6.523"/><path d="M81,150.125a10.136,10.136,0,0,0-3.142-1.295,20.087,20.087,0,0,0-3.347-.7,17.782,17.782,0,0,0-3.395.329,13.508,13.508,0,0,0-3.353.508,12.864,12.864,0,0,0-3.048,1.551,7.845,7.845,0,0,0-1.792,2.441,11.891,11.891,0,0,0-1.277,2.713,16.832,16.832,0,0,0-.821,2.933,21.179,21.179,0,0,0-.244,3.056,25.3,25.3,0,0,0,.582,3.011,24.687,24.687,0,0,0,.584,2.976,25.063,25.063,0,0,0,.977,2.876,24.8,24.8,0,0,0,1.287,2.755,24.468,24.468,0,0,0,1.505,2.662,25.917,25.917,0,0,0,2.176,2.154,24.792,24.792,0,0,0,2.172,2.12,25.716,25.716,0,0,0,2.268,2.083,28.939,28.939,0,0,0,2.754,1.367c.886.443,1.871.728,2.852,1.1.926.351,1.921.543,2.934.823" fill="none" stroke="#231815" stroke-linecap="round" stroke-miterlimit="10" stroke-width="6.523"/><path d="M163.892,51.063c-.526,1.444-.26,1.127-.967,2.919-.321.813-.787,1.742-1.23,2.816-.36.873-.688,1.851-1.12,2.856-.386.9-.822,1.828-1.259,2.8-.407.907-.892,1.815-1.339,2.766-.428.911-1,1.775-1.459,2.708-.45.911-.635,1.969-1.111,2.884s-.989,1.8-1.486,2.7-1.234,1.668-1.755,2.542c-.534.894-1.126,1.729-1.677,2.574-.574.88-1.05,1.79-1.638,2.595-.627.859-1.123,1.777-1.76,2.527a27.093,27.093,0,0,1-2.119,2.241,16.214,16.214,0,0,1-2.36,2.02,8,8,0,0,1-2.933,1.106,5.018,5.018,0,0,1-2.905-.812c-1.253-.9-.889-.805-2.137-2.178-.609-.67-1.328-1.432-2.049-2.3-.628-.76-1.525-1.39-2.152-2.246-.608-.829-1.011-1.825-1.544-2.695a23.848,23.848,0,0,1-1.595-2.662,10.905,10.905,0,0,1-.7-3.014,4.867,4.867,0,0,1,.254-3.077,4.919,4.919,0,0,1,2.51-1.832,10.71,10.71,0,0,1,2.993-.872,25.861,25.861,0,0,1,3.115.04c.9.026,1.233.969,1.381,2.4a11.58,11.58,0,0,1-.108,3.01,23.214,23.214,0,0,1-.562,3c-.266.923-.556,1.906-.947,2.918-.353.913-.634,1.913-1.091,2.878-.423.894-1.08,1.711-1.595,2.634-.485.87-1.1,1.688-1.665,2.571-.541.843-.959,1.791-1.576,2.635-.594.81-1.125,1.7-1.791,2.5-.644.776-1.479,1.407-2.191,2.165-.692.735-1.275,1.6-2.031,2.312-.737.692-1.562,1.31-2.362,1.971-.78.644-1.5,1.4-2.341,2-.82.593-1.749,1.061-2.627,1.613-.857.537-1.754,1.038-2.667,1.53-.89.479-1.754,1.055-2.7,1.486-.92.419-1.921.7-2.893,1.064-.944.358-1.946.593-2.94.9" fill="none" stroke="#231815" stroke-linecap="round" stroke-miterlimit="10" stroke-width="6.523"/><path d="M110.515,110.2a10.909,10.909,0,0,1-2.044,2.467c-.614.642-1.663,1.081-2.582,1.882-.724.631-1.4,1.463-2.329,2.15-.793.589-1.622,1.256-2.571,1.861-.846.539-1.825.965-2.8,1.5-.887.487-1.749,1.13-2.747,1.6-.921.435-1.929.781-2.947,1.191-.947.382-2,.569-3.036.922-.97.331-1.967.657-3.015.956-.988.282-1.961.73-3.02.978-1,.235-2.067.314-3.135.514-1.013.189-2.032.5-3.1.654-1.023.146-2.084.189-3.162.3-1.029.106-2.077.271-3.158.34-1.034.067-2.094.092-3.176.123-1.037.03-2.1-.019-3.179-.024" fill="none" stroke="#231815" stroke-linecap="round" stroke-miterlimit="10" stroke-width="6.523"/><path d="M182.139,337.062a16.352,16.352,0,0,0,.118-3c-.034-.866-.357-1.874-.387-2.989-.025-.94.276-1.957.263-3.005-.012-.976-.255-1.983-.25-3,0-1-.142-2.016-.114-3.009.028-1.026.207-2.035.267-3,.065-1.061.223-2.067.334-2.99a22.743,22.743,0,0,1,.452-2.976c.407-1.475,1.015-2.079,1.785-1.848a7.478,7.478,0,0,1,2.783,1.6,32.428,32.428,0,0,1,2.4,2.252c.723.782,1.549,1.548,2.261,2.4s1.242,1.871,1.893,2.7c.739.943,1.255,1.957,1.832,2.733,1.17,1.572,1.946,2.427,1.946,2.427.851-1.277.794-.962,1.862-2.447.528-.734,1.1-1.617,1.78-2.5.6-.785,1.5-1.4,2.164-2.2s1.043-1.854,1.718-2.577a21.392,21.392,0,0,1,2.441-1.888,4.655,4.655,0,0,1,2.589-1.357c.708,0,1.37.777,1.777,2.3.233.866.117,1.975.271,3.144.129.975.6,1.992.682,3.09.079,1.023.041,2.092.088,3.154s.1,2.118.121,3.15c.024,1.094-.059,2.159-.055,3.153,0,1.164-.148,2.231-.158,3.145-.022,1.91.335,1.579.283,3.149" fill="none" stroke="#040000" stroke-linecap="round" stroke-linejoin="round" stroke-width="9.784"/><path d="M170.716,188.118s6.44,11.807,23.613,11.807,20.931-3.757,24.688-10.2" fill="none" stroke="#231815" stroke-linecap="round" stroke-miterlimit="10" stroke-width="6.523"/><path d="M218.335,184.361a25.693,25.693,0,0,1,6.585,4.3" fill="none" stroke="#231815" stroke-linecap="round" stroke-miterlimit="10" stroke-width="6.523"/><path d="M172.383,183.52s-4.787,2.872-6.382,5.106" fill="none" stroke="#231815" stroke-linecap="round" stroke-miterlimit="10" stroke-width="6.523"/><path d="M279.267,98.471a6.5,6.5,0,0,0,1.567,2.142,10.392,10.392,0,0,0,5.156,2.163c8.235,1.506,16.708-.731,24.472-3.86a107.544,107.544,0,0,0,24.558-13.9" fill="none" stroke="#231815" stroke-linecap="round" stroke-linejoin="round" stroke-width="6.523"/><path d="M184.273,34.852a82.03,82.03,0,0,0-3.652,24.656c.026,4.44.437,8.972,2.223,13.036,4.907,11.168,19.138,15.687,31.116,13.383s22.215-9.781,32.006-17.056c-2.584,6.72-3.13,15.787,2.912,19.7a15.462,15.462,0,0,0,7.349,2.024,45.975,45.975,0,0,0,28.132-7.192c-2.119,2.48-4.286,5.044-5.312,8.141a9.671,9.671,0,0,0,.22,6.924" fill="none" stroke="#231815" stroke-linecap="round" stroke-linejoin="round" stroke-width="6.523"/><path d="M297.734,410.668c-6.271,15.794-13.011,25.09-13.011,25.09" fill="none" stroke="#231815" stroke-linecap="round" stroke-miterlimit="10" stroke-width="6.523"/><path d="M268.454,253.549s28.2,21.692,37.961,80.259" fill="none" stroke="#231815" stroke-linecap="round" stroke-miterlimit="10" stroke-width="6.523"/><path d="M124.205,254.634s-21.691,15.184-45.552,8.676L57.174,216.749S27.89,222.172,23.552,227.6c0,0,17.761,56.573,36.663,76.929,14.1,15.184,55.314,6.508,62.906,0" fill="none" stroke="#231815" stroke-linecap="round" stroke-linejoin="round" stroke-width="6.523"/><path d="M140.682,465.042s14.1,168.11,18.438,173.532c0,0,20.607,4.339,34.707,1.085l-1.4-170.941S151.528,469.38,140.682,465.042Z" fill="#231815" stroke="#231815" stroke-linecap="round" stroke-miterlimit="10" stroke-width="6.523"/><line x1="159.12" y1="638.574" x2="160.416" y2="670.759" fill="none" stroke="#231815" stroke-linecap="round" stroke-miterlimit="10" stroke-width="6.523"/><line x1="189.765" y1="640.336" x2="189.63" y2="665.083" fill="none" stroke="#231815" stroke-linecap="round" stroke-miterlimit="10" stroke-width="6.523"/><path d="M155.113,665.339s-1.072,10.3,16.826,9.707,19.414-9.707,19.414-9.707,3.589,7.561,3.589,14.065-20.929,39.01-63.883,31.915-4.675-25.738-4.675-25.738Z" fill="none" stroke="#231815" stroke-linecap="round" stroke-linejoin="round" stroke-width="6.523"/><path d="M258.693,465.042s-14.1,168.11-18.438,173.532c0,0-20.607,4.339-34.706,1.085l1.4-170.941S247.847,469.38,258.693,465.042Z" fill="#231815" stroke="#231815" stroke-linecap="round" stroke-miterlimit="10" stroke-width="6.523"/><line x1="237.966" y1="638.574" x2="236.67" y2="670.759" fill="none" stroke="#231815" stroke-linecap="round" stroke-miterlimit="10" stroke-width="6.523"/><line x1="207.321" y1="640.336" x2="207.455" y2="665.083" fill="none" stroke="#231815" stroke-linecap="round" stroke-miterlimit="10" stroke-width="6.523"/><path d="M241.973,665.339s1.071,10.3-16.826,9.707-19.415-9.707-19.415-9.707-3.588,7.561-3.588,14.065,20.929,39.01,63.883,31.915,4.674-25.738,4.674-25.738Z" fill="none" stroke="#231815" stroke-linecap="round" stroke-linejoin="round" stroke-width="6.523"/><path d="M51.468,217.064l-4.8-14.924s21.32-5.329,18.655-15.456-17.589-3.731-17.589-3.731-6.4-46.117-14.393-40.788-4.794,32.793-4.794,32.793S2.966,177.09,4.032,190.415,13.093,211.2,22.687,209.6l5.33,13.858" fill="none" stroke="#231815" stroke-linecap="round" stroke-linejoin="round" stroke-width="6.523"/><polygon points="280.746 343.569 324.271 342.362 324.853 413.705 285.052 415.397 280.746 343.569" fill="#fff"/><polyline points="286.359 336.466 318.35 335.212 318.35 409.228 292.005 409.856" fill="none" stroke="#231815" stroke-linecap="round" stroke-linejoin="round" stroke-width="6.523"/><path d="M263.032,278.494s27.524,81.254,20.036,161.187a20.465,20.465,0,0,1-14.946,17.769c-24.244,6.675-78.6,17.583-138.733,2.987a14.889,14.889,0,0,1-11.305-13.723c-1.347-26.094,1.337-98.454,15.883-166.05" fill="none" stroke="#231815" stroke-linecap="round" stroke-miterlimit="10" stroke-width="6.523"/></svg>