<svg xmlns="http://www.w3.org/2000/svg" width="353.056" height="483.071" viewBox="0 0 353.056 483.071"><path d="M222.63,337.015c.945-1.332,1.493-.435,3.1-.716s1.569-.516,3.178-.8,1.693.2,3.3-.081,1.584-.422,3.192-.7,1.664.038,3.273-.244,1.562-.547,3.17-.829,1.586-.424,3.195-.706,1.574-.481,3.183-.763,1.676.1,3.284-.178,1.576-.474,3.185-.756,1.645-.081,3.255-.363,1.631-.153,3.24-.435,1.533-.714,3.143-1,1.618-.231,3.228-.513,1.576-.473,3.185-.755,1.655-.023,3.265-.3,1.629-.17,3.239-.453,1.6-.347,3.208-.629,1.632-.152,3.242-.434,1.558-.564,3.165-.846,1.643-.083,3.251-.365,1.6-.369,3.205-.651,1.639-.1,3.247-.386,1.535-.71,3.145-.992,1.68.12,3.289-.162,1.58-.459,3.191-.741,1.644-.086,3.254-.368,1.579-.461,3.189-.743,1.671.055,3.282-.227,1.541-.685,3.152-.967,1.683.139,3.292-.143,1.545-.661,3.156-.944,1.623-.218,3.235-.5,1.615-.264,3.226-.547,1.654-.056,3.269-.339,1.924-1.86,3.265-.918.358,1.7.643,3.321.391,1.6.675,3.218.068,1.657.352,3.276.125,1.647.41,3.265.221,1.63.506,3.249.545,1.573.83,3.192.277,1.62.562,3.239.05,1.66.334,3.279.5,1.579.782,3.195.443,1.589.728,3.207.087,1.654.371,3.273.538,1.573.822,3.19.017,1.667.3,3.286.458,1.588.743,3.206-.251,1.715.033,3.334.883,1.514,1.168,3.133.01,1.668.295,3.288.126,1.648.411,3.269.564,1.571.849,3.192.333,1.61.618,3.228.357,1.608.642,3.228.007,1.67.292,3.29.539,1.577.824,3.2.079,1.66.364,3.283,1.61,1.936.642,3.27-1.67.294-3.312.541-1.655.164-3.3.411-1.612.457-3.254.705-1.631.322-3.273.569-1.686-.05-3.328.2-1.6.537-3.242.784-1.72-.259-3.363-.012-1.6.522-3.244.769-1.637.285-3.279.532-1.657.156-3.3.4-1.625.366-3.269.613-1.654.171-3.3.418-1.657.152-3.3.4-1.591.6-3.235.843-1.677.021-3.32.268-1.628.35-3.272.6-1.671.062-3.314.31-1.679.009-3.323.257-1.605.5-3.249.749-1.621.377-3.262.624-1.649.2-3.291.443-1.639.282-3.283.529-1.622.378-3.264.625-1.672.064-3.315.312-1.68,0-3.323.252-1.6.547-3.244.794-1.617.425-3.26.672-1.663.124-3.308.371-1.667.1-3.312.347-1.6.532-3.248.779-1.7-.147-3.345.1-1.62.416-3.265.663-1.653.195-3.3.443-1.632.337-3.277.584-1.685.011-3.333.259-1.991,1.681-3.336.7.135-1.761-.111-3.4-.352-1.618-.6-3.252-.573-1.584-.818-3.217.193-1.7-.052-3.334-.783-1.553-1.028-3.187,0-1.671-.246-3.3-.387-1.613-.633-3.246-.222-1.635-.468-3.266-.216-1.637-.462-3.269.007-1.672-.238-3.307-.368-1.614-.614-3.246,0-1.672-.241-3.306-.771-1.555-1.016-3.188-.085-1.659-.331-3.294-.107-1.655-.353-3.289-.284-1.629-.53-3.263-.394-1.614-.64-3.249-.217-1.64-.463-3.275.052-1.679-.193-3.312-.148-1.65-.394-3.286-.6-1.582-.849-3.217-.422-1.61-.668-3.246.454-1.818-.111-3.375C222.623,338.523,221.672,338.367,222.63,337.015Z" transform="translate(0 0)" fill="#fff"/><path d="M56.512,164.912c.142,1.091.788,2.11.945,3.193s-.1,2.238.077,3.318.455,2.155.646,3.232.567,2.13.778,3.2.334,2.175.565,3.244.372,2.17.625,3.235.72,2.085,1,3.144.45,2.154.749,3.206.927,2.014,1.252,3.058.422,2.169.774,3.2.446,2.175.827,3.2,1.022,1.963,1.432,2.978.715,2.084,1.155,3.086,1.072,1.925,1.544,2.913.859,2.024,1.363,3,1.3,1.79,1.834,2.745.888,2.016,1.46,2.952,1.262,1.793,1.868,2.708.97,1.994,1.611,2.886,1.465,1.644,2.14,2.511,1.341,1.731,2.05,2.571,1.406,1.679,2.148,2.492,1.421,1.672,2.2,2.456,1.742,1.345,2.547,2.1,1.694,1.372,2.528,2.093,1.527,1.57,2.389,2.258,1.491,1.651,2.379,2.306,2,.969,2.908,1.591c.9.613,1.827,1.188,2.762,1.777.919.58,1.781,1.269,2.737,1.825.939.547,1.8,1.265,2.773,1.79.956.514,2.184.523,3.176,1.016.972.483,1.834,1.21,2.841,1.672.987.452,2.043.767,3.064,1.2,1,.422,2.039.764,3.072,1.166,1.012.394,2.02.811,3.064,1.184,1.022.366,2,.876,3.056,1.222,1.031.339,2.094.6,3.156.924,1.038.313,2.033.818,3.1,1.111,1.045.288,2.116.531,3.19.8,1.052.264,2.111.555,3.191.8,1.058.242,2.2.161,3.281.385,1.062.22,2.076.744,3.165.948,1.067.2,2.121.562,3.214.745,1.071.179,2.213,0,3.309.162,1.075.161,2.1.758,3.2.9,1.077.142,2.208-.042,3.308.085,1.079.125,2.16.344,3.262.454,1.082.108,2.191.045,3.295.139,1.084.093,2.169.309,3.275.388,1.085.077,2.2-.131,3.3-.067,1.088.063,2.186.069,3.294.119,1.088.049,2.076.375,3.184.411,1.069,1.212.363,1.225.8,3.091a22.75,22.75,0,0,0,.833,3.108,19,19,0,0,0,1.44,2.873,14.192,14.192,0,0,0,1.984,2.5,7.291,7.291,0,0,0,5.329,3.408,13.052,13.052,0,0,0,3.212.5" transform="translate(0 0)" fill="none" stroke="#231815" stroke-linecap="round" stroke-miterlimit="10" stroke-width="6.844"/><path d="M292.623,214.245c-.635.9-1.174,1.864-1.833,2.748s-1.259,1.808-1.94,2.675-1.21,1.856-1.914,2.7-1.554,1.572-2.28,2.4-1.47,1.639-2.218,2.449-1.625,1.491-2.395,2.28-1.547,1.559-2.338,2.328-1.447,1.672-2.259,2.418-1.682,1.421-2.515,2.144-1.752,1.332-2.606,2.031-1.464,1.695-2.338,2.37-1.779,1.305-2.672,1.955-1.857,1.191-2.768,1.815-2.007.949-2.937,1.546-1.576,1.632-2.523,2.2-2.1.765-3.066,1.308-1.957.993-2.936,1.508-1.855,1.2-2.848,1.684-1.863,1.212-2.87,1.67-2.064.781-3.084,1.21-2.081.721-3.113,1.121-1.981.988-3.023,1.36-2.2.363-3.252.706-2.015.922-3.077,1.236-2.142.512-3.212.8-2.207.225-3.285.483-2.12.548-3.2.778-2.086.754-3.176.956-2.176.311-3.271.487-2.14.578-3.239.728-2.232-.147-3.334-.023-2.172.35-3.278.449-2.2.087-3.3.161" transform="translate(0 0)" fill="none" stroke="#231815" stroke-linecap="round" stroke-miterlimit="10" stroke-width="6.844"/><path d="M242.824,13.8c1.012.425,2.011.882,3.01,1.33s1.882,1.152,2.87,1.625,2.158.585,3.133,1.081,1.788,1.316,2.752,1.836,2.061.807,3.012,1.35,1.8,1.267,2.738,1.834,1.927,1.054,2.85,1.644,1.747,1.334,2.655,1.946,1.94,1.051,2.833,1.685,1.663,1.443,2.54,2.1,1.8,1.251,2.665,1.928,1.57,1.542,2.415,2.239,1.763,1.3,2.591,2.023,1.762,1.318,2.572,2.056,1.4,1.713,2.189,2.47,1.514,1.579,2.287,2.356,1.661,1.435,2.416,2.229,1.605,1.5,2.34,2.313,1.384,1.7,2.1,2.531,1.588,1.53,2.283,2.377,1.134,1.9,1.808,2.763,1.4,1.688,2.05,2.568,1.408,1.686,2.04,2.581,1.218,1.823,1.828,2.734,1.234,1.812,1.821,2.738,1.248,1.807,1.813,2.747.943,1.987,1.485,2.94,1.313,1.781,1.831,2.746.631,2.142,1.126,3.12,1.125,1.885,1.6,2.875.92,1.987,1.366,2.988.757,2.057,1.179,3.068.834,2.021,1.231,3.044,1.154,1.906,1.527,2.938.685,2.086,1.032,3.126.549,2.126.871,3.175.646,2.093.941,3.15.475,2.139.745,3.2.656,2.095.9,3.165.506,2.133.723,3.208.116,2.206.307,3.287.663,2.109.827,3.194.243,2.178.381,3.267.3,2.17.407,3.262.041,2.194.125,3.289.364,2.17.422,3.267.025,2.191.056,3.288-.209,2.191-.2,3.29.438,2.192.417,3.291" transform="translate(0 0)" fill="none" stroke="#231815" stroke-linecap="round" stroke-miterlimit="10" stroke-width="6.844"/><path d="M56.07,126.881c.093-1.086.309-2.157.428-3.234s.12-2.178.264-3.252.662-2.1.832-3.17.261-2.157.457-3.224.352-2.144.574-3.2.337-2.152.584-3.208.285-2.173.557-3.222.918-2.006,1.216-3.049.33-2.171.653-3.207.726-2.054,1.075-3.082,1.009-1.948,1.382-2.967.687-2.06,1.085-3.069S65.8,86.9,66.222,85.9s.941-1.962,1.387-2.951.617-2.115,1.087-3.093,1.43-1.718,1.924-2.685.825-2.018,1.343-2.972.7-2.107,1.235-3.048,1.631-1.563,2.194-2.492.751-2.092,1.337-3.006,1.194-1.822,1.8-2.722,1.452-1.639,2.081-2.524,1.151-1.85,1.8-2.72,1.388-1.675,2.059-2.529,1.386-1.671,2.078-2.509,1.33-1.72,2.042-2.541S90.166,48.6,90.9,47.8s1.3-1.752,2.055-2.537,1.724-1.349,2.493-2.117,1.435-1.634,2.222-2.383,1.314-1.781,2.119-2.511,1.934-1.094,2.757-1.8,1.4-1.707,2.242-2.4,1.8-1.232,2.655-1.9,1.871-1.127,2.742-1.776,1.468-1.675,2.355-2.3,2.085-.8,2.986-1.409,1.546-1.6,2.462-2.186,1.919-1.033,2.849-1.6,1.824-1.186,2.767-1.726,1.888-1.081,2.844-1.6,1.814-1.229,2.782-1.723,2.145-.571,3.125-1.042,1.861-1.15,2.852-1.6,2-.844,3.006-1.267,2.067-.685,3.078-1.083,2.069-.663,3.09-1.037,1.932-1.051,2.962-1.4,2.046-.744,3.085-1.068,2.048-.754,3.094-1.053,2.209-.162,3.262-.435,2.008-.936,3.068-1.183,2.181-.209,3.246-.431,2.142-.362,3.212-.557,2.144-.334,3.219-.5,2.131-.43,3.21-.573,2.159-.239,3.241-.355,2.135-.508,3.22-.6,2.174-.119,3.261-.183,2.177,0,3.265-.036,2.176.151,3.265.139,2.168-.021,3.257-.007,2.166.134,3.255.174,2.169.02,3.257.086c1.051.064,2.106.032,3.15.119s2.108.073,3.15.184,2.076.371,3.116.506,2.073.353,3.109.512,2.148-.079,3.18.105,2.021.655,3.048.863,2.1.253,3.122.485,1.94.928,2.957,1.184" transform="translate(0 0)" fill="none" stroke="#231815" stroke-linecap="round" stroke-miterlimit="10" stroke-width="6.844"/><path d="M150.473,124.653c-1.4-.682-1.191-.483-3.017-.561a13.277,13.277,0,0,0-3.052.428c-.945.193-2.119.029-3.113.535a13.225,13.225,0,0,0-2.36,2.094,14.645,14.645,0,0,0-1.843,2.462c-.554.783-1.583,1.373-2.068,2.387a29.7,29.7,0,0,0-.784,3.047,29.456,29.456,0,0,0-1.037,2.945c-.236,1.049-.437,2.079-.629,3.078-.2,1.06-.217,2.12-.373,3.123-.166,1.071-.589,2.073-.7,3.078-.122,1.081-.218,2.132-.281,3.134-.068,1.095-.021,2.153-.022,3.15,0,1.107-.233,2.183-.155,3.166a26.293,26.293,0,0,0,.64,3.109,16.693,16.693,0,0,0,1.051,2.968,9.6,9.6,0,0,0,1.479,2.749,4.663,4.663,0,0,0,2.681,1.38,15.089,15.089,0,0,0,3.388.769,10.186,10.186,0,0,0,3.423-.637,9.826,9.826,0,0,0,2.984-1.757,13.318,13.318,0,0,0,2.405-2.516,23.837,23.837,0,0,0,1.417-3.183c.471-.971,1.548-1.778,1.967-2.959.365-1.027.392-2.25.715-3.445.288-1.064.669-2.172.922-3.375.246-1.167.44-2.29.644-3.356.226-1.177.064-2.355.233-3.417.191-1.194.542-2.283.657-3.342.131-1.215.117-2.34.138-3.394a20.787,20.787,0,0,0-.278-3.362c-.165-1.21.024-2.417-.391-3.405a10.555,10.555,0,0,0-1.859-2.912A13.7,13.7,0,0,0,150.473,124.653Z" transform="translate(0 0)" fill="none" stroke="#231815" stroke-miterlimit="10" stroke-width="6.844"/><path d="M209.744,125.309c-1.4-.681-1.307-.309-3.133-.388a13.018,13.018,0,0,0-3.089.3,16.384,16.384,0,0,0-5.586,2.638,15.193,15.193,0,0,0-1.842,2.52,17.763,17.763,0,0,0-1.607,2.642,24.257,24.257,0,0,0-1.137,2.884,30.287,30.287,0,0,0-.977,2.963c-.236,1.048-.539,2.058-.731,3.057-.2,1.06-.163,2.131-.319,3.134-.166,1.071-.473,2.088-.586,3.092-.121,1.082-.307,2.123-.37,3.125-.068,1.094.072,2.153.072,3.149,0,1.107-.154,2.17-.075,3.153.088,1.119.758,2.077.944,3.029a21.65,21.65,0,0,0,.381,3.137,9.545,9.545,0,0,0,1.617,2.72,4.8,4.8,0,0,0,2.713,1.425,15.408,15.408,0,0,0,3.411.8,10.35,10.35,0,0,0,3.43-.737,9.877,9.877,0,0,0,2.944-1.817,13.243,13.243,0,0,0,2.382-2.517,22.192,22.192,0,0,0,1.584-3.09,27.337,27.337,0,0,0,1.82-3.025c.365-1.028.346-2.259.669-3.455.288-1.063.319-2.241.572-3.444.246-1.166,1.05-2.164,1.254-3.23.226-1.177.033-2.366.2-3.428.19-1.194.564-2.288.679-3.348.131-1.214.2-2.352.216-3.406a20.879,20.879,0,0,0-.339-3.393,13.767,13.767,0,0,0-.593-3.373,10.543,10.543,0,0,0-1.841-2.921A13.459,13.459,0,0,0,209.744,125.309Z" transform="translate(0 0)" fill="none" stroke="#231815" stroke-miterlimit="10" stroke-width="6.844"/><path d="M146.466,139.529c-1.15-.713-1.2-.868-2.536-.348a3.557,3.557,0,0,0-1.7,1.953,21.743,21.743,0,0,0-1.121,2.992,9.414,9.414,0,0,0-.6,3.082c.047,1.21.34,2.168,1.476,2.523a4.735,4.735,0,0,0,3.456.1c.867-.419,1.324-1.407,1.838-2.858a15.75,15.75,0,0,0,.806-2.626,6.759,6.759,0,0,0,.06-2.74A3.483,3.483,0,0,0,146.466,139.529Z" transform="translate(0 0)" fill="#231815"/><path d="M204.928,139.85c-1.174-.644-1.076-.752-2.366-.169a3.133,3.133,0,0,0-1.69,1.825,21.392,21.392,0,0,0-1,3,9.241,9.241,0,0,0-.366,3.1c.111,1.192.5,1.96,1.645,2.251a4.371,4.371,0,0,0,3.3-.067,4.178,4.178,0,0,0,1.905-2.727,15.132,15.132,0,0,0,.424-2.69,6.152,6.152,0,0,0-.269-2.619A3.032,3.032,0,0,0,204.928,139.85Z" transform="translate(0 0)" fill="#231815"/><path d="M167.778,165.97c-1.758.136-1.736-.164-3.321,1.039a7.331,7.331,0,0,0-1.845,2.959,9.432,9.432,0,0,0-.818,3.344,12.857,12.857,0,0,0,.141,3.432,11.279,11.279,0,0,0,1,3.349,9.776,9.776,0,0,0,2.56,2.359,7.647,7.647,0,0,0,2.952,1.561" transform="translate(0 0)" fill="none" stroke="#231815" stroke-linecap="round" stroke-miterlimit="10" stroke-width="6.844"/><path d="M158.756,145.5c1.632.039,1.235.161,3.266.174.934.006,2.038-.108,3.267-.114,1.011,0,2.108-.1,3.266-.12,1.044-.016,2.135-.173,3.261-.2,1.064-.03,2.156-.028,3.263-.074,1.08-.044,2.185.126,3.279.062s2.159-.518,3.238-.6c1.1-.086,2.218.067,3.28-.045,1.12-.118,2.177-.469,3.215-.619,1.14-.164,2.224-.273,3.223-.48" transform="translate(0 0)" fill="none" stroke="#231815" stroke-linecap="round" stroke-miterlimit="10" stroke-width="6.844"/><path d="M162.932,205.4c1.706-.688,1.445-.163,3.572-.966.99-.373,1.962-1.339,3.259-1.807,1.078-.388,2.312-.623,3.541-1.044,1.121-.385,2.433-.356,3.635-.746.992-.321,2-.693,3.11-.937,1.044-.231,2.055-.8,3.148-.963s2.168-.439,3.248-.54c1.111-.1,2.239.17,3.3.131,1.149-.042,2.248.04,3.27.071,1.221.036,2.36-.2,3.294-.066,1.6.233,2.9.685,3.2,1.193.379.652.042,2.108-.432,3.664a19.9,19.9,0,0,1-1.339,3.355,20.613,20.613,0,0,1-1.959,3.041,10.918,10.918,0,0,1-2.594,2.5,14.136,14.136,0,0,1-2.942,1.337,16.871,16.871,0,0,1-3.128.772,25.292,25.292,0,0,1-3.216.338c-1.037.026-2.12.112-3.244.057-1.038-.05-2.1-.327-3.22-.422" transform="translate(0 0)" fill="none" stroke="#231815" stroke-linecap="round" stroke-miterlimit="10" stroke-width="6.844"/><path d="M293.619,159.665c1.379-1.142,1.228-.776,3.094-1.774a20.316,20.316,0,0,1,3.2-1.565,17.42,17.42,0,0,1,3.443-1.118,15.662,15.662,0,0,1,3.591.455,13.177,13.177,0,0,1,3.453.808,7.919,7.919,0,0,1,2.763,1.65,13.555,13.555,0,0,1,1.846,2.656,19.277,19.277,0,0,1,1.078,3.016,21.879,21.879,0,0,1,.827,3.059,24.283,24.283,0,0,1,.892,3.1,26.869,26.869,0,0,1,.009,3.225,27.273,27.273,0,0,1-.494,3.179,26.194,26.194,0,0,1-.573,3.165,27.427,27.427,0,0,1-1.458,2.873c-.418.961-.4,2.178-.954,3.116a27.546,27.546,0,0,1-1.967,2.571,30.115,30.115,0,0,1-2.426,2.125,28.648,28.648,0,0,1-2.27,2.223,30.3,30.3,0,0,1-2.35,2.209c-.864.576-1.724,1.264-2.694,1.788" transform="translate(0 0)" fill="none" stroke="#231815" stroke-linecap="round" stroke-miterlimit="10" stroke-width="6.844"/><path d="M173.284,33.042c-.4,1.584.067,1.258-.367,3.268-.2.91-.585,1.952-.822,3.172-.191.988-.689,2.013-.888,3.167-.177,1.023-.279,2.12-.45,3.249-.159,1.044-.118,2.156-.262,3.271-.137,1.059-.186,2.153-.3,3.26-.112,1.072-.5,2.135-.583,3.236-.085,1.082-.252,2.173-.3,3.27s.086,2.194.073,3.286.224,2.187.256,3.273c.032,1.1-.345,2.221-.259,3.3.089,1.107.421,2.18.573,3.244.158,1.1.264,2.2.5,3.246A30.413,30.413,0,0,0,171.5,78.4a23.325,23.325,0,0,0,1.151,3.069,17.448,17.448,0,0,0,1.6,2.894,13.257,13.257,0,0,0,2.479,2.2,11.885,11.885,0,0,0,2.978,1.309,12.549,12.549,0,0,0,3.087.944c1.07.136,2.14.264,3.224.327s2.155-.034,3.241-.038,2.171.3,3.254.239,2.114-.637,3.191-.752,2.154-.139,3.223-.3,2.139-.305,3.2-.51,2.162-.255,3.21-.5,2.041-.785,3.077-1.063c1.058-.284,2.167-.329,3.191-.639,1.052-.318,2.035-.8,3.045-1.134,1.046-.35,2.05-.749,3.044-1.113,1.044-.382,2.027-.828,3-1.216,1.043-.414,2.077-.736,3.035-1.146,1.046-.448,2.111-.721,3.043-1.15,1.057-.487,2.035-.962,2.927-1.406,1.1-.545,2.075-1.024,2.891-1.468,1.4-.76,2.392-1.294,2.822-1.605a4.828,4.828,0,0,1,2.293-1.224c1.409.025,1.373.434,2.089,1.479a16.579,16.579,0,0,0-.412,3.067c-.048.916.323,1.994.334,3.15.009,1,.062,2.04.152,3.121.086,1.031-.1,2.12.088,3.155a22.135,22.135,0,0,0,.79,3.058,13.6,13.6,0,0,0,1.493,2.766,8.178,8.178,0,0,0,2.176,2.15,6.648,6.648,0,0,0,2.669,1.473c1.11.237,2.157.56,3.194.716,1.114.167,2.2.29,3.256.352a26.59,26.59,0,0,0,3.26-.247,23.521,23.521,0,0,0,3.2-.475,24.23,24.23,0,0,0,3.261-.441c.988-.337,1.9-1,2.93-1.485.94-.438,1.868-.989,2.864-1.556.9-.512,1.833-1.057,2.794-1.682.871-.566,1.879-1.019,2.81-1.684" transform="translate(0 0)" fill="none" stroke="#231815" stroke-linecap="round" stroke-miterlimit="10" stroke-width="6.844"/><path d="M264.969,102.387c1.187,1.092,1.024.708,2.781,1.711a29.064,29.064,0,0,0,2.984,1.226,26.66,26.66,0,0,0,3.016,1.1,27.846,27.846,0,0,0,3.1.9,31.853,31.853,0,0,0,3.215.405c1.023.066,2.111-.049,3.236-.082,1.029-.03,2.091-.236,3.2-.364,1.026-.119,2.139.009,3.236-.206,1.017-.2,1.974-.835,3.051-1.125,1-.271,2.027-.56,3.082-.918.985-.335,1.971-.74,3-1.158.965-.391,2.006-.677,3.011-1.147.945-.442,1.86-1,2.84-1.52.925-.486,1.908-.922,2.864-1.478.906-.527,1.751-1.2,2.685-1.792.885-.562,1.9-.979,2.806-1.6.866-.594,1.739-1.224,2.627-1.876.849-.622,1.654-1.34,2.522-2.017.831-.648,1.49-1.538,2.339-2.238.815-.671,1.9-1.055,2.727-1.775" transform="translate(0 0)" fill="none" stroke="#231815" stroke-linecap="round" stroke-miterlimit="10" stroke-width="6.844"/><path d="M149.3,53.652c-.552,1.515-.089,1.252-.831,3.132-.336.854-.752,1.86-1.217,2.987-.379.918-.856,1.892-1.31,2.949-.405.941-.959,1.875-1.418,2.9-.427.952-.891,1.924-1.36,2.922-.449.956-.9,1.932-1.387,2.911-.472.956-.847,1.974-1.347,2.934s-1.028,1.9-1.549,2.836-1.231,1.786-1.778,2.7c-.559.938-1.235,1.778-1.812,2.663-.6.924-1.1,1.874-1.72,2.719-.658.9-1.233,1.811-1.9,2.6a30.2,30.2,0,0,1-2.081,2.483,17.6,17.6,0,0,1-2.451,2.182A8.434,8.434,0,0,1,124,93.62a5.276,5.276,0,0,1-3.041-.865,9.52,9.52,0,0,1-2.326-2.2c-.639-.7-1.22-1.653-1.976-2.568-.659-.8-1.816-1.291-2.474-2.188-.638-.871-.982-1.978-1.541-2.891a25.8,25.8,0,0,1-1.753-2.765,11.242,11.242,0,0,1-.553-3.223c-.157-1.169-.413-2.372.112-3.275a5.411,5.411,0,0,1,2.763-1.78,10.705,10.705,0,0,1,3.1-1.074,25.848,25.848,0,0,1,3.28-.042c.949.027,1.42,1.158,1.574,2.659a12.793,12.793,0,0,1-.19,3.18,24.6,24.6,0,0,1-.616,3.148c-.279.968-.538,2.02-.949,3.082-.37.957-.767,1.965-1.246,2.978-.445.938-1.182,1.765-1.722,2.734-.509.913-.941,1.9-1.537,2.826-.568.884-1.163,1.776-1.811,2.661-.623.85-1.206,1.76-1.9,2.6-.675.814-1.382,1.63-2.129,2.425-.726.771-1.382,1.648-2.176,2.393-.773.726-1.738,1.267-2.576,1.96-.818.676-1.612,1.411-2.494,2.048-.86.622-1.7,1.316-2.621,1.894-.9.564-1.864,1.063-2.822,1.58-.934.5-1.85,1.1-2.841,1.556-.964.44-2.033.7-3.053,1.087-.991.376-2.085.493-3.128.813" transform="translate(0 0)" fill="none" stroke="#231815" stroke-linecap="round" stroke-miterlimit="10" stroke-width="6.844"/><path d="M93.277,115.664a10.457,10.457,0,0,1-1.962,2.729c-.644.674-1.766,1.123-2.73,1.963-.76.662-1.589,1.387-2.56,2.108-.833.617-1.721,1.273-2.716,1.908-.888.566-1.862,1.086-2.884,1.647-.931.512-1.776,1.3-2.823,1.795-.966.456-2.026.822-3.094,1.253-.994.4-2.068.7-3.152,1.073-1.018.348-2.078.672-3.177.985-1.037.3-2.129.494-3.24.754-1.053.246-2.157.36-3.278.569-1.064.2-2.125.552-3.252.714-1.073.153-2.159.429-3.29.545-1.079.11-2.2.115-3.329.188-1.085.069-2.193.214-3.328.247-1.088.031-2.2-.172-3.336-.178" transform="translate(0 0)" fill="none" stroke="#231815" stroke-linecap="round" stroke-miterlimit="10" stroke-width="6.844"/><path d="M144.837,260.308c-.581,1.528-.063,1.186-.773,3.2-.3.86-.811,1.839-1.218,3.037-.317.935-.587,2-.96,3.127-.318.967-.858,1.939-1.211,3.044-.315.986-.364,2.114-.7,3.207-.311,1-.581,2.055-.911,3.141q-.458,1.51-.937,3.13c-.3,1.015-.75,2.017-1.06,3.094-.295,1.02-.687,2.041-.99,3.115-.288,1.026-.572,2.078-.867,3.151-.283,1.03-.536,2.09-.823,3.163-.277,1.034-.825,2.017-1.1,3.089-.271,1.038-.231,2.174-.5,3.247-.265,1.04-.561,2.089-.827,3.162-.258,1.044-.73,2.051-.989,3.124-.252,1.047-.69,2.065-.942,3.139-.246,1.049.147,2.259-.1,3.333-.24,1.052-.791,2.045-1.03,3.12-.234,1.054-.505,2.111-.737,3.187-.228,1.056-.479,2.118-.7,3.195-.221,1.058-.272,2.161-.49,3.239-.215,1.06-.771,2.061-.982,3.14-.209,1.062-.137,2.187-.341,3.267-.2,1.064-.275,2.159-.473,3.239s-.59,2.1-.781,3.183-.226,2.167-.41,3.249-.182,2.174-.359,3.256-.76,2.082-.929,3.166.068,2.211-.094,3.3-.2,2.168-.355,3.253-.456,2.131-.6,3.217-.54,2.123-.68,3.21-.022,2.19-.156,3.277-.326,2.152-.452,3.24-.5,2.134-.619,3.222-.472,2.141-.583,3.23.409,2.228.307,3.318-.383,2.147-.477,3.236-.385,2.151-.472,3.24-.075,2.178-.153,3.268.125,2.189.055,3.28-.367,2.159-.429,3.25-.412,2.161-.466,3.253.316,2.195.272,3.288-.264,2.171-.3,3.263-.207,2.176-.234,3.269-.08,2.181-.1,3.274-.093,2.182-.1,3.275.36,2.182.36,3.276.066,2.179.076,3.272-.42,2.186-.4,3.279,0,2.184.033,3.276.191,2.178.23,3.27.363,2.168.412,3.259-.061,2.187,0,3.278.124,2.179.193,3.27.28,2.167.361,3.257.029,2.186.12,3.275.188,2.174.29,3.261.074,2.187.187,3.274.506,2.14.631,3.226-.058,2.206.077,3.29.162,2.183.31,3.265a9.025,9.025,0,0,0,5.221,7.264,10.618,10.618,0,0,0,2.636,1.47c.942.289,1.979.608,3.122.925.978.272,2,.65,3.128.933,1,.252,2.158.07,3.271.326,1.014.233,2,.787,3.109,1.018,1.025.214,2.045.662,3.15.872,1.034.2,2.113.358,3.217.547,1.041.179,2.19-.125,3.293.046,1.048.162,2.122.292,3.225.445,1.052.146,2.089.569,3.192.7,1.057.13,2.152.1,3.255.223,1.06.115,2.143.171,3.246.274,1.063.1,2.148.119,3.251.207,1.066.086,2.148.12,3.251.194,1.068.071,2.116.736,3.218.8,1.07.057,2.172-.209,3.274-.164,1.07.043,2.158-.042,3.259-.01,1.071.03,2.153.171,3.253.189,1.072.018,2.158-.081,3.258-.076,1.073,0,2.159.172,3.258.164,1.074-.008,2.162.081,3.261.06,1.074-.019,2.16-.069,3.258-.1,1.075-.032,2.16-.119,3.257-.164,1.075-.043,2.172.121,3.268.065,1.075-.055,2.145-.392,3.241-.459,1.075-.066,2.164-.064,3.259-.143,1.074-.077,2.149-.272,3.243-.361,1.074-.088,2.169-.041,3.262-.141,1.074-.1,2.171-.059,3.263-.17,1.073-.11,2.163-.159,3.254-.28,1.072-.12,2.1-.66,3.194-.792,1.071-.13,2.168-.118,3.255-.26,1.07-.14,2.171-.124,3.257-.275,1.07-.15,2.179-.1,3.264-.261,1.069-.16,2.088-.7,3.171-.873,1.067-.169,2.148-.3,3.229-.479s2.151-.286,3.23-.476c1.064-.187,2.072-.722,3.15-.92,1.062-.2,2.144-.319,3.22-.527,1.061-.205,2.181-.148,3.254-.364s2.132-.408,3.2-.633,2.094-.58,3.164-.813,2.064-.712,3.132-.954,2.2-.1,3.272-.349,2.04-.8,3.1-1.058,2.138-.394,3.2-.66,2.095-.567,3.154-.841,2.124-.467,3.183-.749,2.065-.684,3.121-.974,2.092-.593,3.147-.89,2.173-.311,3.226-.615a11.645,11.645,0,0,0,3.168-1.264,11.393,11.393,0,0,0,2.356-2.46,9.005,9.005,0,0,0,2.36-6.19c.068-1.1.306-2.163.366-3.224.061-1.08-.016-2.158.032-3.241.046-1.059.011-2.133.041-3.238.028-1.042-.189-2.117-.18-3.237.01-1.034.315-2.107.305-3.236-.009-1.03-.2-2.1-.229-3.234-.024-1.029.025-2.107-.016-3.238-.037-1.032-.264-2.1-.316-3.228-.048-1.035-.073-2.112-.134-3.238" transform="translate(0 0)" fill="none" stroke="#231815" stroke-linecap="round" stroke-miterlimit="10" stroke-width="6.844"/><path d="M125.746,286.56c-.773,1.433-.3,1.168-1.274,3.011-.427.812-.864,1.817-1.44,2.925-.457.881-1.2,1.727-1.735,2.774-.468.911-1.008,1.859-1.527,2.883-.472.928-.709,2.028-1.217,3.039-.472.939-.781,2-1.279,3-.471.949-1.28,1.763-1.77,2.761-.47.956-.96,1.929-1.443,2.925-.468.963-.65,2.083-1.127,3.079-.464.968-1.363,1.746-1.834,2.741-.46.973-.545,2.136-1.009,3.131-.456.978-.841,2-1.3,2.993s-1.193,1.84-1.643,2.836-.992,1.936-1.434,2.931-.623,2.1-1.057,3.1-.714,2.064-1.139,3.063-1.327,1.809-1.742,2.81-.844,2.017-1.248,3.02c-.41,1.018-.5,2.157-.887,3.162-.4,1.025-.833,2.026-1.211,3.034-.388,1.034-.815,2.039-1.176,3.05-.373,1.042-.936,2-1.277,3.013-.356,1.053-.468,2.164-.785,3.178-.333,1.066-.714,2.089-1,3.105-.3,1.081-.4,2.266-.645,3.283-1.111,1.269-1.4.969-2.678,2.066s-1.265,1.113-2.545,2.209-1.518.82-2.8,1.917-1.106,1.3-2.386,2.4-1.288,1.09-2.57,2.188-1.105,1.3-2.386,2.4-1.335,1.035-2.617,2.132-1.306,1.07-2.589,2.168-1.375.983-2.655,2.078-1.175,1.222-2.456,2.318-1.227,1.164-2.51,2.262-1.345,1.025-2.628,2.123-1.368,1-2.651,2.1-1.181,1.222-2.466,2.322-2.6.42-2.9,2.085c-.289,1.6,1.2,1.385,2.034,2.777s.689,1.479,1.522,2.871.866,1.374,1.7,2.766.567,1.555,1.4,2.95,1.212,1.17,2.047,2.565" transform="translate(0 0)" fill="none" stroke="#231815" stroke-linecap="round" stroke-miterlimit="10" stroke-width="6.844"/><path d="M116.694,397.621a19.675,19.675,0,0,1-2.25,2.474,30.218,30.218,0,0,1-1.985,2.731c-.77.724-1.749,1.32-2.641,2.071-.823.693-1.656,1.445-2.561,2.152-.858.67-1.746,1.354-2.66,2.028-.884.653-1.82,1.268-2.74,1.917-.905.639-2,1.02-2.924,1.649s-1.757,1.392-2.685,2-1.891,1.208-2.82,1.8c-.956.613-1.954,1.125-2.881,1.706-.971.607-1.882,1.257-2.8,1.82-.994.608-2,1.114-2.907,1.66-1.025.614-1.891,1.349-2.778,1.869-1.089.64-2,1.316-2.82,1.788a16.674,16.674,0,0,1-2.784,1.356c-.933-1.09-.961-1.066-1.894-2.157s-1.139-.917-2.073-2.009-1.173-.888-2.108-1.98" transform="translate(0 0)" fill="none" stroke="#231815" stroke-linecap="round" stroke-miterlimit="10" stroke-width="6.844"/><path d="M223.708,394.567c-.247-1.617-.042-1.648-.289-3.266s-.646-1.556-.893-3.174-.032-1.65-.279-3.268-.509-1.574-.756-3.189-.183-1.626-.43-3.242.113-1.672-.135-3.29-.669-1.552-.916-3.168.228-1.69-.019-3.308-.575-1.567-.822-3.184-.158-1.632-.405-3.25-.018-1.653-.265-3.27-.638-1.559-.885-3.177-.331-1.607-.578-3.226-.258-1.617-.5-3.236.136-1.676-.111-3.293-.577-1.569-.824-3.188-.143-1.635-.39-3.254-.1-1.642-.346-3.262-.5-1.584-.744-3.206-1.231-1.849-.258-3.17c1-1.352,1.508-.5,3.163-.789s1.712.031,3.369-.258,1.577-.731,3.232-1.02,1.717.061,3.374-.228,1.594-.644,3.249-.933,1.686-.128,3.343-.416,1.643-.363,3.3-.651,1.669-.218,3.326-.507,1.619-.51,3.277-.8,1.732.136,3.39-.153,1.624-.469,3.28-.757,1.695-.076,3.353-.365,1.607-.578,3.265-.866,1.666-.248,3.324-.537,1.7-.052,3.364-.342,1.64-.408,3.3-.7" transform="translate(0 0)" fill="none" stroke="#231815" stroke-linecap="round" stroke-miterlimit="10" stroke-width="6.844"/><path d="M319.9,312.078c1.8-.3,1.806-.253,3.6-.551s1.782-.419,3.583-.718,1.959-1.142,3.493-.152c1.394.9.4,1.415.667,3.052s.245,1.643.517,3.28.715,1.565.987,3.2-.347,1.74-.076,3.378.716,1.564.988,3.2.091,1.668.363,3.306.577,1.587.849,3.226.071,1.671.343,3.309.2,1.647.474,3.283.4,1.616.67,3.252.3,1.634.573,3.273-.051,1.69.22,3.327.5,1.6.777,3.238-.228,1.721.044,3.359.747,1.56,1.019,3.2.349,1.626.621,3.264.066,1.673.338,3.312.144,1.661.416,3.3.334,1.63.607,3.27.453,1.607.724,3.245.168,1.657.44,3.3.382,1.622.655,3.262.108,1.667.38,3.308.171,1.66.444,3.3,1.673,1.9.736,3.277c-.894,1.314-1.621.086-3.189.346s-1.568.272-3.137.532-1.532.481-3.1.742-1.593.116-3.163.377-1.563.3-3.133.564-1.609.021-3.179.282-1.534.472-3.1.732-1.563.305-3.133.566-1.629-.1-3.2.163-1.494.727-3.064.988-1.561.338-3.134.6-1.606.065-3.179.326" transform="translate(0 0)" fill="none" stroke="#231815" stroke-linecap="round" stroke-miterlimit="10" stroke-width="6.844"/><path d="M33.8,384.9a3.436,3.436,0,0,1-.211,3.154,15.336,15.336,0,0,1-1.857,2.47,27.01,27.01,0,0,1-2.042,2.282c-.687.67-1.6,1.183-2.424,1.869-.75.627-1.472,1.361-2.32,1.984-.8.587-1.868.819-2.74,1.389s-1.465,1.541-2.322,2.035c-.911.525-1.8,1.045-2.679,1.48-.958.475-2.028.592-2.919.953a24.868,24.868,0,0,1-2.922.791c-1.124.314-2.027,1.18-2.885,1.219A3.01,3.01,0,0,1,5.772,403.2c-.448-.687-.252-1.577.345-2.784A12.851,12.851,0,0,1,7.7,397.853a27.947,27.947,0,0,1,2.1-2.2c.687-.671,1.577-1.185,2.4-1.871.751-.627,1.531-1.255,2.379-1.879.8-.587,1.468-1.395,2.34-1.965s1.827-.95,2.684-1.445c.912-.525,1.613-1.378,2.489-1.813.958-.476,1.951-.79,2.842-1.15a23.881,23.881,0,0,1,2.982-.678,15.42,15.42,0,0,1,2.931-.789C32.187,384.005,33.353,384.211,33.8,384.9Z" transform="translate(0 0)" fill="none" stroke="#231815" stroke-linecap="round" stroke-miterlimit="10" stroke-width="6.844"/><path d="M48.044,394.509a3.1,3.1,0,0,1,.3,2.984,12.684,12.684,0,0,1-1.433,2.953c-.56.82-1.5,1.467-2.286,2.358-.677.771-1.365,1.609-2.192,2.415-.748.729-1.424,1.609-2.284,2.353-.8.691-1.623,1.418-2.509,2.112-.84.657-1.818,1.178-2.728,1.827-.873.623-1.762,1.26-2.693,1.868s-1.8,1.278-2.723,1.826c-.96.572-2.026.9-2.964,1.408-.991.532-1.936,1.074-2.891,1.528-1.027.487-1.931,1.15-2.9,1.542-1.072.433-2.194.549-3.173.859a28.651,28.651,0,0,1-3.13.93,12.863,12.863,0,0,1-3.247.225c-1.362-.094-2.574-.32-3.088-1.108" transform="translate(0 0)" fill="none" stroke="#231815" stroke-linecap="round" stroke-miterlimit="10" stroke-width="6.844"/><path d="M70.612,440.066c.467.715.318,1.684-.317,2.947a15.353,15.353,0,0,1-1.906,2.5c-.618.748-.922,1.925-1.746,2.725-.721.7-1.5,1.463-2.36,2.178-.786.654-1.787,1.129-2.674,1.781-.834.612-1.778,1.127-2.69,1.723s-1.654,1.437-2.55,1.955c-.952.549-2.079.723-2.994,1.179-1,.5-1.982.907-2.913,1.285a29.861,29.861,0,0,1-2.98,1.113,14.051,14.051,0,0,1-3.125.528c-1.411.074-2.6-.052-3.068-.766" transform="translate(0 0)" fill="none" stroke="#231815" stroke-linecap="round" stroke-miterlimit="10" stroke-width="6.844"/><path d="M3.422,408.464c.652,1.41.509,1.476,1.161,2.886s.543,1.46,1.195,2.87,1.128,1.192,1.781,2.6.118,1.66.771,3.073" transform="translate(0 0)" fill="none" stroke="#231815" stroke-linecap="round" stroke-miterlimit="10" stroke-width="6.844"/><path d="M39.4,384.966c1.028,1.164.991,1.2,2.02,2.36s.754,1.407,1.783,2.571,1.5.749,2.532,1.915,1.025,1.17,2.055,2.336" transform="translate(0 0)" fill="none" stroke="#231815" stroke-linecap="round" stroke-miterlimit="10" stroke-width="6.844"/><path d="M13.028,422.59c1.032,1.307.783,1.5,1.815,2.811s1.159,1.21,2.192,2.518.653,1.608,1.686,2.916,1.368,1.044,2.4,2.353,1.091,1.262,2.124,2.571,1.09,1.264,2.124,2.573.814,1.483,1.848,2.792.983,1.346,2.015,2.652,1.121,1.239,2.155,2.547,1.025,1.317,2.059,2.627,1.187,1.19,2.222,2.5.931,1.393,1.966,2.7,1.143,1.228,2.18,2.54.809,1.492,1.846,2.805" transform="translate(0 0)" fill="none" stroke="#231815" stroke-linecap="round" stroke-miterlimit="10" stroke-width="6.844"/><path d="M49.007,399.135c.782,1.471.629,1.552,1.41,3.023s.919,1.4,1.7,2.872.575,1.581,1.357,3.053.892,1.415,1.674,2.888,1.054,1.328,1.836,2.8.589,1.575,1.371,3.048.853,1.437,1.636,2.91.407,1.673,1.19,3.146,1.181,1.26,1.962,2.732.547,1.6,1.33,3.072.738,1.5,1.521,2.971,1.027,1.345,1.81,2.818.937,1.395,1.722,2.872.411,1.674,1.2,3.151" transform="translate(0 0)" fill="none" stroke="#231815" stroke-linecap="round" stroke-miterlimit="10" stroke-width="6.844"/><path d="M56.659,405.053c-1.115,1.113-1.312.592-2.488,2-.606.726-1.107,1.731-1.749,2.648a23.347,23.347,0,0,0-1.49,2.778,10.129,10.129,0,0,0-.9,2.953,3.669,3.669,0,0,0,.3,2.949,5.324,5.324,0,0,0,2.761,2.335,6.666,6.666,0,0,0,3.645-.437,21.329,21.329,0,0,0,3.1-1.86c.979-.58,1.913-1.35,2.956-2.051" transform="translate(0 0)" fill="#ffe200"/><path d="M56.659,405.053c-1.115,1.113-1.312.592-2.488,2-.606.726-1.107,1.731-1.749,2.648a23.347,23.347,0,0,0-1.49,2.778,10.129,10.129,0,0,0-.9,2.953,3.669,3.669,0,0,0,.3,2.949,5.324,5.324,0,0,0,2.761,2.335,6.666,6.666,0,0,0,3.645-.437,21.329,21.329,0,0,0,3.1-1.86c.979-.58,1.913-1.35,2.956-2.051" transform="translate(0 0)" fill="none" stroke="#231815" stroke-linecap="round" stroke-linejoin="round" stroke-width="6.844"/><path d="M54.8,399.46c-1.513.58-1.409.09-3.155.833-.893.381-1.906.855-2.953,1.343-.975.455-1.878,1.126-2.815,1.625-1.039.554-2.239.756-3.015,1.3" transform="translate(0 0)" fill="none" stroke="#231815" stroke-linecap="round" stroke-miterlimit="10" stroke-width="6.844"/><path d="M168.61,362.894c-.093-1.571.279-1.238.2-3.162-.036-.91-.278-1.969-.31-3.139-.026-.987.095-2.05.081-3.15-.013-1.024-.112-2.082-.107-3.149,0-1.05-.107-2.113-.078-3.155.03-1.077.062-2.142.124-3.156.069-1.113.47-2.144.587-3.112a23.8,23.8,0,0,1,.438-3.108c.426-1.548.978-2.347,1.785-2.1a8.242,8.242,0,0,1,2.929,1.759c.779.691,1.65,1.492,2.487,2.4.758.82,1.712,1.553,2.459,2.445s1.212,2.041,1.9,2.913c.775.99,1.333,2.043,1.938,2.857,1.228,1.65.452,2.487,2.171,2.549,1.609.057.662-1,1.783-2.554.554-.77,1.15-1.7,1.861-2.632.629-.823,1.66-1.394,2.355-2.236s.948-2.075,1.656-2.834a21.911,21.911,0,0,1,2.625-1.926,4.96,4.96,0,0,1,2.731-1.441c.743,0,1.283.892,1.711,2.485a29.4,29.4,0,0,1,.419,3.26c.135,1.022.632,2.089.721,3.24.082,1.073-.049,2.2,0,3.313s.1,2.219.126,3.3c.024,1.148-.092,2.263-.087,3.306,0,1.222.091,2.343.08,3.3a25.828,25.828,0,0,0,.146,3.3" transform="translate(0 0)" fill="none" stroke="#040000" stroke-linecap="round" stroke-linejoin="round" stroke-width="10.266"/><path d="M273.883,305.129a24.422,24.422,0,0,1,1.229,3.007c.311.858.469,1.955.844,3.139.3.942.771,1.933,1.085,3.063.273.98.412,2.063.681,3.173.243,1,.413,2.073.642,3.177.211,1.022.552,2.058.743,3.159q.267,1.554.492,3.208c.145,1.047.484,2.1.6,3.2.11,1.053-.221,2.167-.144,3.265.074,1.06.073,2.135.111,3.234.036,1.065.187,2.138.185,3.236,0,1.067-.051,2.143-.093,3.238-.04,1.068.415,2.181.332,3.273-.081,1.066-.359,2.137-.484,3.225-.122,1.063-.111,2.166-.278,3.246-.163,1.059-.526,2.1-.737,3.177-.206,1.052-.39,2.127-.644,3.19-.248,1.043-.781,2.027-1.079,3.079-.291,1.032-.824,1.994-1.165,3.033a26.032,26.032,0,0,1-1.24,2.981,32.649,32.649,0,0,1-1.249,3.019c-.544.917-1.146,1.826-1.783,2.739-.613.878-1.2,1.8-1.886,2.675-.666.843-1.374,1.677-2.1,2.51-.708.813-1.4,1.662-2.157,2.462s-1.614,1.463-2.395,2.234-1.616,1.459-2.416,2.2-1.486,1.609-2.3,2.33-1.813,1.244-2.643,1.943-1.387,1.765-2.228,2.444c-.86.693-1.824,1.242-2.674,1.9-.878.681-1.825,1.243-2.682,1.883-.9.671-1.648,1.5-2.51,2.126-.916.661-1.749,1.382-2.61,1.983-.941.657-2.059.967-2.916,1.545-.973.657-1.838,1.333-2.676,1.88-1.041.679-1.9,1.37-2.685,1.862-1.75,1.1-1.716.349-2.619,1.707a9.434,9.434,0,0,0,.585,3c.375.894.885,1.868,1.419,2.91.468.911,1.11,1.8,1.662,2.776.518.919,1.266,1.735,1.828,2.673s1.114,1.849,1.682,2.758c.584.935.825,2.068,1.393,2.948.616.955,1.333,1.788,1.892,2.631.665,1,1.177,1.98,1.7,2.751,1.115,1.639.588,1.685,1.946,2.556,1.336.856,1.1.135,3.138.107.888-.013,1.94-.093,3.154-.209.956-.091,2-.212,3.139-.4.976-.162,2-.387,3.1-.64.978-.226,2.069-.24,3.136-.552.971-.284,1.916-.805,2.955-1.171.961-.339,1.957-.687,2.97-1.1.946-.389,1.919-.8,2.907-1.267.931-.437,1.874-.916,2.838-1.425.911-.481,1.856-.957,2.794-1.507.891-.521,1.62-1.344,2.532-1.932.87-.559,1.709-1.184,2.6-1.807.848-.6,2.093-.683,2.956-1.339.826-.627,1.581-1.395,2.419-2.081s1.469-1.634,2.279-2.394c.79-.742,1.565-1.508,2.327-2.317.744-.788,1.845-1.286,2.561-2.135.7-.829,1.111-1.917,1.783-2.8.657-.864,1.514-1.607,2.144-2.52.616-.894,1.038-1.938,1.629-2.877.578-.92,1.081-1.9,1.634-2.86.542-.941.911-1.986,1.428-2.964.508-.961,1.283-1.8,1.767-2.792.475-.978.905-1.992,1.356-3,.445-.994.66-2.095,1.08-3.116s1.075-1.927,1.466-2.96.542-2.131.9-3.174,1.124-1.936,1.458-2.988.393-2.175.7-3.234.422-2.156.7-3.222.6-2.106.856-3.178.437-2.147.668-3.224.574-2.12.78-3.2.759-2.1.94-3.183.09-2.211.246-3.3-.011-2.213.12-3.305.3-2.171.409-3.265.374-2.17.456-3.266.525-2.172.581-3.268-.549-2.222-.518-3.32.391-2.189.4-3.286-.282-2.195-.3-3.292.3-2.207.251-3.3-.277-2.188-.351-3.282-.066-2.2-.168-3.293-.061-2.209-.193-3.3-.551-2.147-.712-3.23c-.166-1.117-.023-2.284-.238-3.371-.22-1.107-1.1-2.056-1.368-3.132-.272-1.1-.439-2.2-.758-3.258-.323-1.081-.563-2.171-.931-3.219-.373-1.064-.607-2.17-1.022-3.2-.421-1.046-.924-2.049-1.384-3.06-.467-1.027-1.245-1.886-1.747-2.876-.511-1.006-.786-2.118-1.329-3.086-.552-.986-.952-2.052-1.533-3-.592-.964-1.178-1.926-1.794-2.847-.629-.942-1.6-1.629-2.249-2.525-.665-.919-1.1-1.99-1.777-2.86-.7-.9-1.372-1.793-2.078-2.638-.731-.873-1.555-1.642-2.287-2.46-.762-.852-1.253-1.931-2.01-2.722-.792-.83-1.613-1.608-2.39-2.371-.823-.809-1.962-1.24-2.757-1.973q-1.283-1.183-2.494-2.236c-.893-.773-1.737-1.5-2.555-2.169-.94-.764-1.814-1.462-2.628-2.08-1.021-.775-1.8-1.613-2.574-2.155a24.364,24.364,0,0,0-2.875-1.714" transform="translate(0 0)" fill="#ffe200"/><path d="M273.883,305.129a24.422,24.422,0,0,1,1.229,3.007c.311.858.469,1.955.844,3.139.3.942.771,1.933,1.085,3.063.273.98.412,2.063.681,3.173.243,1,.413,2.073.642,3.177.211,1.022.552,2.058.743,3.159q.267,1.554.492,3.208c.145,1.047.484,2.1.6,3.2.11,1.053-.221,2.167-.144,3.265.074,1.06.073,2.135.111,3.234.036,1.065.187,2.138.185,3.236,0,1.067-.051,2.143-.093,3.238-.04,1.068.415,2.181.332,3.273-.081,1.066-.359,2.137-.484,3.225-.122,1.063-.111,2.166-.278,3.246-.163,1.059-.526,2.1-.737,3.177-.206,1.052-.39,2.127-.644,3.19-.248,1.043-.781,2.027-1.079,3.079-.291,1.032-.824,1.994-1.165,3.033a26.032,26.032,0,0,1-1.24,2.981,32.649,32.649,0,0,1-1.249,3.019c-.544.917-1.146,1.826-1.783,2.739-.613.878-1.2,1.8-1.886,2.675-.666.843-1.374,1.677-2.1,2.51-.708.813-1.4,1.662-2.157,2.462s-1.614,1.463-2.395,2.234-1.616,1.459-2.416,2.2-1.486,1.609-2.3,2.33-1.813,1.244-2.643,1.943-1.387,1.765-2.228,2.444c-.86.693-1.824,1.242-2.674,1.9-.878.681-1.825,1.243-2.682,1.883-.9.671-1.648,1.5-2.51,2.126-.916.661-1.749,1.382-2.61,1.983-.941.657-2.059.967-2.916,1.545-.973.657-1.838,1.333-2.676,1.88-1.041.679-1.9,1.37-2.685,1.862-1.75,1.1-1.716.349-2.619,1.707a9.434,9.434,0,0,0,.585,3c.375.894.885,1.868,1.419,2.91.468.911,1.11,1.8,1.662,2.776.518.919,1.266,1.735,1.828,2.673s1.114,1.849,1.682,2.758c.584.935.825,2.068,1.393,2.948.616.955,1.333,1.788,1.892,2.631.665,1,1.177,1.98,1.7,2.751,1.115,1.639.588,1.685,1.946,2.556,1.336.856,1.1.135,3.138.107.888-.013,1.94-.093,3.154-.209.956-.091,2-.212,3.139-.4.976-.162,2-.387,3.1-.64.978-.226,2.069-.24,3.136-.552.971-.284,1.916-.805,2.955-1.171.961-.339,1.957-.687,2.97-1.1.946-.389,1.919-.8,2.907-1.267.931-.437,1.874-.916,2.838-1.425.911-.481,1.856-.957,2.794-1.507.891-.521,1.62-1.344,2.532-1.932.87-.559,1.709-1.184,2.6-1.807.848-.6,2.093-.683,2.956-1.339.826-.627,1.581-1.395,2.419-2.081s1.469-1.634,2.279-2.394c.79-.742,1.565-1.508,2.327-2.317.744-.788,1.845-1.286,2.561-2.135.7-.829,1.111-1.917,1.783-2.8.657-.864,1.514-1.607,2.144-2.52.616-.894,1.038-1.938,1.629-2.877.578-.92,1.081-1.9,1.634-2.86.542-.941.911-1.986,1.428-2.964.508-.961,1.283-1.8,1.767-2.792.475-.978.905-1.992,1.356-3,.445-.994.66-2.095,1.08-3.116s1.075-1.927,1.466-2.96.542-2.131.9-3.174,1.124-1.936,1.458-2.988.393-2.175.7-3.234.422-2.156.7-3.222.6-2.106.856-3.178.437-2.147.668-3.224.574-2.12.78-3.2.759-2.1.94-3.183.09-2.211.246-3.3-.011-2.213.12-3.305.3-2.171.409-3.265.374-2.17.456-3.266.525-2.172.581-3.268-.549-2.222-.518-3.32.391-2.189.4-3.286-.282-2.195-.3-3.292.3-2.207.251-3.3-.277-2.188-.351-3.282-.066-2.2-.168-3.293-.061-2.209-.193-3.3-.551-2.147-.712-3.23c-.166-1.117-.023-2.284-.238-3.371-.22-1.107-1.1-2.056-1.368-3.132-.272-1.1-.439-2.2-.758-3.258-.323-1.081-.563-2.171-.931-3.219-.373-1.064-.607-2.17-1.022-3.2-.421-1.046-.924-2.049-1.384-3.06-.467-1.027-1.245-1.886-1.747-2.876-.511-1.006-.786-2.118-1.329-3.086-.552-.986-.952-2.052-1.533-3-.592-.964-1.178-1.926-1.794-2.847-.629-.942-1.6-1.629-2.249-2.525-.665-.919-1.1-1.99-1.777-2.86-.7-.9-1.372-1.793-2.078-2.638-.731-.873-1.555-1.642-2.287-2.46-.762-.852-1.253-1.931-2.01-2.722-.792-.83-1.613-1.608-2.39-2.371-.823-.809-1.962-1.24-2.757-1.973q-1.283-1.183-2.494-2.236c-.893-.773-1.737-1.5-2.555-2.169-.94-.764-1.814-1.462-2.628-2.08-1.021-.775-1.8-1.613-2.574-2.155a24.364,24.364,0,0,0-2.875-1.714" transform="translate(0 0)" fill="none" stroke="#231815" stroke-linecap="round" stroke-miterlimit="10" stroke-width="6.844"/><path d="M231.561,410.166a11.312,11.312,0,0,0-3.023-1.631,16.668,16.668,0,0,0-3.391-.6,8.543,8.543,0,0,0-3.454.073,5.576,5.576,0,0,0-2.615,2.206" transform="translate(0 0)" fill="none" stroke="#231815" stroke-linecap="round" stroke-miterlimit="10" stroke-width="6.844"/><path d="M213.475,414.3c-1.6.221-1.5.163-2.674,1.893a9.484,9.484,0,0,0-1.33,3.023,20.171,20.171,0,0,0-.24,3.259c-.057.959.153,2.024.218,3.224.054.987-.051,2.074.1,3.24a10.668,10.668,0,0,0,.894,3.131,8.5,8.5,0,0,0,1.88,2.656,9.6,9.6,0,0,0,2.821,1.582,13.6,13.6,0,0,0,3.033,1.219,21.918,21.918,0,0,0,3.276-.021,28.085,28.085,0,0,0,3.249-.037c1.063-.1,2.163-.133,3.247-.336,1.061-.2,2.159-.341,3.214-.62s2.061-.75,3.086-1.094c1.046-.352,2.009-.89,3-1.294,1.035-.424,2.093-.727,3.036-1.192,1.023-.5,2.092-.853,2.969-1.385" transform="translate(0 0)" fill="none" stroke="#231815" stroke-linecap="round" stroke-miterlimit="10" stroke-width="6.844"/></svg>