<svg xmlns="http://www.w3.org/2000/svg" width="456.992" height="355.403" viewBox="0 0 456.992 355.403"><path d="M342.146,185.632c-.067,1.1-.294,2.2-.382,3.293s-.445,2.177-.554,3.272-.19,2.2-.32,3.291-.154,2.206-.307,3.3-.073,2.225-.248,3.311-.471,2.165-.668,3.247-.59,2.137-.811,3.215-.112,2.238-.357,3.311-.929,2.051-1.2,3.118-.263,2.215-.555,3.277-.8,2.07-1.112,3.124-.409,2.189-.751,3.235-.884,2.034-1.252,3.072-.659,2.112-1.053,3.14-.783,2.068-1.2,3.086-1.085,1.937-1.53,2.944-.52,2.193-.992,3.188-1.134,1.908-1.633,2.89-1.03,1.955-1.555,2.924-.886,2.038-1.438,2.992-1.353,1.767-1.931,2.7-1.036,1.96-1.641,2.881-1.356,1.749-1.988,2.652-1.425,1.689-2.084,2.574-1.092,1.94-1.777,2.805-1.4,1.712-2.106,2.557-1.61,1.521-2.346,2.344-1.3,1.8-2.063,2.6-1.479,1.643-2.265,2.42-1.71,1.4-2.519,2.157-1.649,1.46-2.481,2.188-1.549,1.583-2.4,2.285-1.711,1.394-2.586,2.07-1.717,1.389-2.612,2.039-1.93,1.089-2.844,1.711-1.792,1.282-2.725,1.876-1.8,1.287-2.747,1.854-1.905,1.112-2.872,1.651-2.066.806-3.049,1.317-1.813,1.294-2.81,1.778-2.006.915-3.016,1.371-2.1.689-3.124,1.117-2.007.9-3.041,1.3-2.048.807-3.092,1.18-2.138.543-3.192.89-1.979,1.045-3.041,1.365-2.154.486-3.225.78-2.095.7-3.172.966-2.153.473-3.236.716-2.221.124-3.309.342-2.163.37-3.256.564-2.138.52-3.235.691-2.143.546-3.243.694-2.177.338-3.28.464-2.215-.015-3.32.088-2.169.5-3.276.578-2.22-.214-3.329-.152-2.192.168-3.3.21c-1.095.041-2.192.32-3.3.343s-2.2-.088-3.315-.085-2.2-.247-3.31-.263-2.206.267-3.316.234-2.207,0-3.318-.055c-1.1-.049-2.2-.109-3.313-.176s-2.181-.36-3.267-.44c-1.1-.082-2.2-.062-3.286-.157-1.1-.1-2.162-.5-3.244-.6-1.1-.112-2.187-.214-3.267-.339-1.1-.127-2.183-.25-3.262-.392-1.094-.143-2.174-.31-3.25-.468-1.092-.161-2.178-.292-3.251-.467-1.089-.178-2.192-.222-3.262-.415-1.086-.2-2.138-.519-3.205-.731s-2.171-.348-3.234-.578c-1.078-.235-2.205-.224-3.263-.474-1.074-.254-2.152-.475-3.2-.745-1.069-.275-2.1-.677-3.145-.968-1.064-.3-2.061-.789-3.1-1.1-1.057-.318-2.138-.529-3.172-.864-1.05-.34-2.126-.584-3.153-.942s-2.021-.885-3.039-1.266c-1.034-.388-2-.931-3-1.337-1.025-.411-2.022-.856-3.021-1.286-1.014-.436-2.033-.833-3.021-1.288s-2.013-.881-2.989-1.362-2-.917-2.963-1.424-2.039-.859-2.987-1.392-1.934-1.061-2.867-1.621-1.641-1.526-2.557-2.113-1.978-.989-2.877-1.6-1.677-1.43-2.558-2.071-1.765-1.3-2.625-1.966-1.746-1.325-2.585-2.021-1.778-1.3-2.594-2.019-1.568-1.536-2.361-2.285-1.556-1.542-2.324-2.317-1.6-1.5-2.346-2.3-1.6-1.517-2.313-2.342-1.3-1.777-1.984-2.625-1.557-1.568-2.218-2.439-1.095-1.918-1.727-2.81-1.318-1.752-1.921-2.665-1.3-1.774-1.871-2.706-.88-2.024-1.424-2.975-1-1.943-1.512-2.91-1.269-1.807-1.753-2.789-.865-2.013-1.319-3.01-1.072-1.922-1.5-2.932-.649-2.1-1.045-3.122-.786-2.041-1.152-3.074-.666-2.083-1-3.126-.6-2.1-.91-3.154-.509-2.124-.792-3.184-.711-2.072-.968-3.139-.62-2.1-.851-3.174-.364-2.157-.569-3.236-.312-2.163-.492-3.246-.273-2.166-.429-3.253-.459-2.142-.592-3.231-.37-2.16-.48-3.252-.24-2.176-.328-3.271-.247-2.178-.314-3.274-.074-2.189-.12-3.286.146-2.193.121-3.291-.123-2.185-.129-3.283-.031-2.188-.018-3.286-.126-2.192-.094-3.29.494-2.171.543-3.268-.031-2.191.035-3.287.192-2.194.287-3.287-.109-2.227.015-3.317.291-2.189.444-3.276.5-2.155.679-3.238.419-2.162.629-3.24.463-2.152.7-3.224.662-2.1.931-3.168.176-2.231.473-3.289.741-2.08,1.066-3.129.49-2.16.843-3.2.887-2.026,1.268-3.056.752-2.072,1.16-3.092,1.107-1.922,1.543-2.931.778-2.059,1.24-3.057.68-2.116,1.169-3.1,1.323-1.8,1.837-2.767.747-2.1,1.287-3.057,1.36-1.755,1.925-2.7,1-1.968,1.588-2.9,1.048-1.947,1.661-2.86,1.453-1.672,2.09-2.569,1.124-1.9,1.784-2.784,1.251-1.819,1.934-2.682,1.56-1.57,2.264-2.416,1.431-1.671,2.156-2.5,1.4-1.7,2.145-2.51,1.367-1.739,2.134-2.529,1.769-1.346,2.555-2.116,1.55-1.56,2.355-2.311,1.455-1.672,2.279-2.4,1.836-1.242,2.678-1.952,1.559-1.568,2.418-2.257,1.921-1.113,2.8-1.78,1.727-1.358,2.618-2,1.59-1.562,2.5-2.186,1.813-1.254,2.736-1.856,2-.962,2.933-1.541,1.741-1.377,2.691-1.933,2.007-.926,2.97-1.459,2.01-.9,2.986-1.412,1.871-1.169,2.859-1.655,1.962-1,2.962-1.46,1.935-1.067,2.946-1.505,2.13-.613,3.151-1.027,2.066-.75,3.1-1.139,2.015-.89,3.055-1.255,2.133-.553,3.181-.892,2.046-.822,3.1-1.137,2.11-.62,3.173-.91,2.106-.645,3.176-.909,2.2-.232,3.278-.471,2.065-.865,3.147-1.079,2.234-.011,3.32-.2,2.148-.471,3.238-.634,2.177-.3,3.271-.435,2.175-.316,3.273-.427,2.2-.043,3.3-.128,2.179-.331,3.28-.39,2.2.115,3.3.081,2.191-.352,3.294-.361,2.2.229,3.3.245,2.2-.192,3.307-.151,2.184.323,3.286.389,2.222-.178,3.316-.087,2.19.274,3.281.391,2.2.21,3.285.351,2.184.311,3.269.477,2.135.591,3.216.783,2.146.485,3.222.7,2.241.056,3.312.3,2.107.669,3.172.936,2.1.657,3.163.949,2.155.474,3.207.79,2.12.6,3.164.945,2.078.734,3.114,1.1,2.147.553,3.174.943,1.967,1.023,2.984,1.438,2.1.687,3.11,1.126,1.851,1.252,2.848,1.714,2.165.576,3.15,1.063,1.851,1.22,2.825,1.73,1.929,1.056,2.89,1.589,2.073.812,3.021,1.368,1.848,1.206,2.783,1.785,1.855,1.19,2.775,1.791,1.764,1.322,2.67,1.945,1.917,1.1,2.808,1.748,1.759,1.328,2.633,1.994,1.71,1.391,2.568,2.078,1.656,1.451,2.5,2.159,1.626,1.481,2.45,2.209,1.745,1.352,2.55,2.1,1.724,1.387,2.511,2.154,1.513,1.606,2.281,2.393,1.535,1.582,2.283,2.388,1.281,1.809,2.009,2.633,1.633,1.5,2.341,2.339,1.428,1.679,2.115,2.538,1.283,1.793,1.948,2.669,1.4,1.706,2.04,2.6,1.276,1.8,1.9,2.7,1.186,1.857,1.783,2.781,1.224,1.833,1.8,2.772,1.094,1.913,1.643,2.866,1.063,1.928,1.586,2.9,1.021,1.95,1.519,2.931.826,2.044,1.3,3.038.954,1.979,1.4,2.984.984,1.97,1.4,2.987.916,2,1.31,3.032.875,2.026,1.241,3.065.626,2.114.965,3.161.7,2.089,1.013,3.145.3,2.2.58,3.264.8,2.065,1.053,3.136.565,2.13.79,3.208.312,2.182.509,3.266.5,2.148.666,3.237.413,2.167.551,3.261-.022,2.217.087,3.314.27,2.182.349,3.282.3,2.186.354,3.288.1,2.2.116,3.3-.354,2.2-.363,3.3.183,2.2.145,3.3S342.212,184.53,342.146,185.632Z" fill="#ffe200"/><path d="M83.056,246.046c.447,1,1.174,1.875,1.652,2.861s.6,2.157,1.112,3.128,1.271,1.81,1.815,2.763,1.1,1.895,1.682,2.828,1.042,1.941,1.653,2.853,1.263,1.8,1.909,2.688,1.492,1.619,2.172,2.483,1.176,1.869,1.889,2.707,1.677,1.438,2.424,2.247,1.279,1.8,2.057,2.585,1.476,1.631,2.285,2.381,1.765,1.313,2.6,2.031,1.531,1.586,2.4,2.272,1.848,1.189,2.739,1.841,1.825,1.2,2.74,1.823,1.86,1.141,2.8,1.727c.921.577,1.752,1.322,2.71,1.876.941.544,2.033.834,3.01,1.356.958.512,1.767,1.338,2.76,1.828.975.481,2.05.779,3.059,1.238.989.45,2.037.788,3.059,1.217,1,.42,1.907,1.112,2.942,1.512,1.013.392,2.047.774,3.092,1.146,1.023.364,2.121.548,3.176.893,1.032.337,2.127.5,3.19.821,1.039.311,2.1.576,3.168.869,1.046.286,2.018.9,3.093,1.167,1.053.263,2.185.243,3.266.489,1.058.24,2.1.6,3.187.819,1.064.22,2.107.61,3.2.813,1.068.2,2.147.417,3.241.6,1.073.179,2.212.008,3.309.172,1.076.16,2.157.338,3.257.483,1.077.142,2.175.178,3.276.305,1.08.125,2.157.342,3.26.453,1.082.108,2.178.161,3.283.255,1.085.093,2.178.172,3.285.251,1.085.077,2.17.3,3.276.361,1.088.063,2.175.38,3.283.43,1.089.049,2.058-.011,3.167.026,1.072,1.219.161,1.216.6,3.091a27.652,27.652,0,0,0,1.177,3.028,18.74,18.74,0,0,0,1.292,2.957,14.557,14.557,0,0,0,1.8,2.716,12.036,12.036,0,0,0,2.73,1.75,10.916,10.916,0,0,0,2.828,1.627,14.321,14.321,0,0,0,3.275.09" fill="none" stroke="#231815" stroke-linecap="round" stroke-miterlimit="10" stroke-width="6.875"/><path d="M309.281,253.733c-.638.9-1.292,1.793-1.954,2.681s-1.313,1.779-2,2.65-1.257,1.828-1.964,2.681-1.449,1.675-2.178,2.508-1.622,1.515-2.373,2.329-1.445,1.675-2.218,2.468-1.651,1.471-2.446,2.243-1.506,1.622-2.322,2.371-1.547,1.588-2.384,2.314-1.763,1.34-2.62,2.043-1.552,1.6-2.43,2.282-1.856,1.215-2.753,1.867-1.877,1.173-2.793,1.8-1.881,1.156-2.815,1.756-1.688,1.47-2.639,2.043-2.065.845-3.033,1.39-1.906,1.112-2.889,1.629-1.857,1.223-2.856,1.711-1.975,1-2.987,1.457-2.063.8-3.087,1.231-2.114.658-3.15,1.06-1.962,1.059-3.009,1.432-2.217.332-3.275.677-2.022.921-3.089,1.236-2.12.615-3.2.9-2.173.4-3.256.664-2.14.525-3.229.756-2.115.675-3.21.879-2.215.141-3.314.318-2.136.657-3.241.807c-1.089.149-2.226-.017-3.333.108s-2.205.1-3.316.2-2.182.4-3.3.471" fill="none" stroke="#231815" stroke-linecap="round" stroke-miterlimit="10" stroke-width="6.875"/><path d="M259.067,52.413c1.017.427,2.049.815,3.052,1.265s1.95,1.031,2.942,1.506,2.075.773,3.055,1.272,1.933,1.062,2.9,1.584,1.981.975,2.936,1.521,1.808,1.274,2.749,1.843,1.994.967,2.921,1.559,1.746,1.358,2.658,1.972,1.854,1.192,2.751,1.829,1.776,1.305,2.657,1.963,1.672,1.437,2.537,2.117,1.712,1.381,2.56,2.082,1.832,1.244,2.663,1.965,1.672,1.437,2.485,2.178,1.516,1.605,2.311,2.365,1.426,1.686,2.2,2.466,1.625,1.484,2.383,2.282,1.571,1.543,2.309,2.36,1.5,1.611,2.219,2.445S310.8,90.649,311.5,91.5s1.341,1.746,2.018,2.614,1.3,1.778,1.952,2.662,1.351,1.739,1.985,2.638,1.4,1.711,2.013,2.625,1.24,1.824,1.83,2.753,1.147,1.884,1.714,2.827.845,2.056,1.389,3.013,1.294,1.8,1.815,2.768.849,2.039,1.347,3.021.951,1.981,1.424,2.976,1.005,1.957,1.453,2.963.879,2.015,1.3,3.032.857,2.025,1.256,3.052.931,2,1.305,3.038.706,2.086,1.054,3.131.485,2.154.808,3.208.716,2.08,1.013,3.141.444,2.155.715,3.223.654,2.1.9,3.177.611,2.119.829,3.2.3,2.183.489,3.268.64,2.127.8,3.217.161,2.2.3,3.3.125,2.2.236,3.3.119,2.194.2,3.294.5,2.172.554,3.274-.222,2.21-.19,3.312.1,2.2.1,3.3.231,2.2.209,3.306" fill="none" stroke="#231815" stroke-linecap="round" stroke-miterlimit="10" stroke-width="6.875"/><path d="M71.59,165.883c.094-1.091.169-2.18.288-3.263s.1-2.192.243-3.271.721-2.1.892-3.178.258-2.169.455-3.24.371-2.151.593-3.217.446-2.137.694-3.2.264-2.186.538-3.241.78-2.053,1.079-3.1.393-2.165.718-3.205.635-2.095.985-3.128,1.1-1.928,1.476-2.952.782-2.034,1.182-3.048.541-2.137.965-3.141,1.121-1.892,1.57-2.885.517-2.169.99-3.152,1.348-1.769,1.845-2.74.772-2.059,1.292-3.018.908-2,1.451-2.944,1.439-1.687,2-2.619.786-2.085,1.374-3,1.337-1.739,1.947-2.643,1.482-1.627,2.114-2.516,1.093-1.9,1.746-2.776,1.284-1.767,1.958-2.624,1.554-1.549,2.248-2.391,1.113-1.917,1.828-2.742,1.722-1.389,2.456-2.2,1.312-1.757,2.066-2.547,1.654-1.432,2.427-2.2,1.456-1.629,2.247-2.381,1.432-1.668,2.24-2.4,1.825-1.232,2.651-1.946,1.556-1.539,2.4-2.233,1.673-1.4,2.532-2.077,1.826-1.2,2.7-1.857,1.565-1.562,2.456-2.193,2-.941,2.91-1.551,1.63-1.494,2.55-2.082,1.96-.985,2.894-1.551,1.859-1.143,2.807-1.685,1.823-1.215,2.784-1.735,1.913-1.06,2.885-1.557,2.04-.8,3.024-1.277,1.928-1.033,2.924-1.482,2.043-.776,3.05-1.2,2-.886,3.011-1.286,2.081-.667,3.107-1.042,1.984-.938,3.019-1.288,2.09-.634,3.134-.959,2.061-.732,3.112-1.031,2.154-.4,3.212-.673,2.065-.747,3.129-.995,2.171-.3,3.241-.519,2.128-.491,3.2-.687,2.153-.356,3.233-.526,2.176-.19,3.26-.334,2.163-.258,3.251-.375,2.148-.441,3.238-.532,2.176-.19,3.267-.255,2.187.036,3.28,0,2.182.156,3.276.145,2.177-.128,3.271-.113,2.181-.05,3.275-.009,2.181.047,3.274.114c1.056.064,2.111.116,3.16.2s2.1.246,3.148.358,2.092.3,3.136.431,2.1.224,3.143.385,2.116.164,3.152.349,2.088.353,3.121.562,2.066.46,3.092.693,1.983.792,3,1.049" fill="none" stroke="#231815" stroke-linecap="round" stroke-miterlimit="10" stroke-width="6.875"/><path d="M173.771,163.412c-1.472-.529-1.248-.157-3.08-.038a12.175,12.175,0,0,0-3.057.46,11.341,11.341,0,0,0-2.919,1.146,12.449,12.449,0,0,0-2.238,2.2,14.33,14.33,0,0,0-1.68,2.606,16.944,16.944,0,0,0-1.553,2.724,25.676,25.676,0,0,0-.741,3.049,31.248,31.248,0,0,0-.595,3.084c-.122,1.073,0,2.142-.08,3.161-.088,1.08-.145,2.127-.191,3.145-.05,1.088-.394,2.134-.4,3.149,0,1.093.191,2.146.238,3.153.05,1.1-.053,2.171.055,3.167.119,1.105.267,2.164.451,3.137a27.593,27.593,0,0,0,.821,3.063A15.993,15.993,0,0,0,160.3,203.4a9.7,9.7,0,0,0,1.68,2.617,4.761,4.761,0,0,0,2.781,1.24,14.653,14.653,0,0,0,3.473.19,10.2,10.2,0,0,0,3.369-.9,9.929,9.929,0,0,0,2.813-2.067,13.655,13.655,0,0,0,2.033-2.837,21.8,21.8,0,0,0,1.285-3.244,28.052,28.052,0,0,0,1.39-3.248c.254-1.065.384-2.244.578-3.473.172-1.094.285-2.265.407-3.494.119-1.192.211-2.332.3-3.419.1-1.2-.079-2.354-.024-3.433.061-1.213.318-2.345.317-3.415,0-1.227-.275-2.35-.368-3.4a21.522,21.522,0,0,0-.568-3.348,14.173,14.173,0,0,0-.841-3.338,10.665,10.665,0,0,0-2.147-2.735A13.825,13.825,0,0,0,173.771,163.412Z" fill="none" stroke="#231815" stroke-miterlimit="10" stroke-width="6.875"/><path d="M232.957,163.364c-1.473-.528-1.267-.149-3.1-.03a12.614,12.614,0,0,0-3.028.583,11.207,11.207,0,0,0-2.894,1.142,11.887,11.887,0,0,0-2.436,1.987,14.9,14.9,0,0,0-1.659,2.667,18.447,18.447,0,0,0-1.245,2.858,24.808,24.808,0,0,0-.79,3.013,30.388,30.388,0,0,0-.661,3.063c-.122,1.073-.337,2.112-.42,3.131-.089,1.081-.042,2.142-.088,3.16-.049,1.088.051,2.143.048,3.158,0,1.093-.146,2.148-.1,3.155.05,1.1.279,2.139.386,3.135.119,1.105.073,2.179.257,3.152a24.805,24.805,0,0,0,1.1,2.968,20.174,20.174,0,0,0,.87,3.037,10.085,10.085,0,0,0,1.789,2.648,5.087,5.087,0,0,0,2.928,1.182,14.728,14.728,0,0,0,3.5.14,10.076,10.076,0,0,0,3.29-1.107,9.639,9.639,0,0,0,2.845-1.956,13.753,13.753,0,0,0,1.937-2.876A20.159,20.159,0,0,0,237,198.443a29.632,29.632,0,0,0,1.2-3.306c.253-1.066.282-2.253.475-3.483.173-1.093.194-2.262.317-3.491.119-1.192.535-2.3.624-3.388.1-1.2.073-2.347.127-3.426.062-1.214.193-2.355.192-3.425,0-1.228-.274-2.356-.367-3.411a21.831,21.831,0,0,0-.549-3.363,13.937,13.937,0,0,0-.931-3.315,10.46,10.46,0,0,0-2.277-2.59A13.114,13.114,0,0,0,232.957,163.364Z" fill="none" stroke="#231815" stroke-miterlimit="10" stroke-width="6.875"/><path d="M171.889,178.669c-1.156-.716-1.164-.983-2.5-.461a3.627,3.627,0,0,0-1.739,1.968,21.9,21.9,0,0,0-1.157,3,9.22,9.22,0,0,0-.5,3.116c.048,1.216.335,2.061,1.476,2.418,1.429.446,2.52.611,3.415.179.872-.421,1.393-1.359,1.909-2.817a15.385,15.385,0,0,0,.7-2.664,6.911,6.911,0,0,0,.165-2.751A3.485,3.485,0,0,0,171.889,178.669Z" fill="#231815"/><path d="M230.743,178.77c-1.178-.647-1.185-.69-2.481-.1a3.281,3.281,0,0,0-1.666,1.9,21.5,21.5,0,0,0-1.1,2.993,9.513,9.513,0,0,0-.382,3.146,2.212,2.212,0,0,0,1.774,2.215,4.211,4.211,0,0,0,3.253-.121,4.04,4.04,0,0,0,1.987-2.642,15.265,15.265,0,0,0,.443-2.7,6.294,6.294,0,0,0-.243-2.658A3.236,3.236,0,0,0,230.743,178.77Z" fill="#231815"/><path d="M196.183,205.054c-1.766.137-1.765-.112-3.357,1.1a7.474,7.474,0,0,0-1.856,2.995,9.436,9.436,0,0,0-.924,3.365,13.336,13.336,0,0,0,.12,3.488,11.105,11.105,0,0,0,1.162,3.328,9.956,9.956,0,0,0,2.512,2.438,8.019,8.019,0,0,0,2.987,1.627" fill="none" stroke="#231815" stroke-linecap="round" stroke-miterlimit="10" stroke-width="6.875"/><path d="M184.289,184.511c1.64.039,1.241.077,3.281.09.938.006,2.047.128,3.281.122,1.016-.005,2.119-.091,3.282-.109,1.049-.016,2.145-.183,3.277-.215,1.068-.029,2.165-.071,3.277-.117,1.085-.045,2.195.112,3.294.049s2.177-.421,3.261-.506c1.111-.087,2.234.092,3.3-.021,1.125-.118,2.17-.633,3.213-.783,1.144-.165,2.252-.186,3.255-.394" fill="none" stroke="#231815" stroke-linecap="round" stroke-miterlimit="10" stroke-width="6.875"/><path d="M323.218,196.572c1.607-.808,1.384-.521,3.435-1.078a22.107,22.107,0,0,1,3.528-.575,17.275,17.275,0,0,1,3.6-.351,15.167,15.167,0,0,1,3.457,1.065,13.376,13.376,0,0,1,3.135,1.7,7.9,7.9,0,0,1,2.391,2.178,13.65,13.65,0,0,1,1.244,3.009,19.347,19.347,0,0,1,.464,3.2,22.528,22.528,0,0,1,.069,3.2,24.29,24.29,0,0,1,.074,3.237,29.535,29.535,0,0,1-1.78,6.216,19.235,19.235,0,0,1-3.366,5.48,25.734,25.734,0,0,1-1.843,2.663,27.133,27.133,0,0,1-2.417,2.154,29.318,29.318,0,0,1-2.806,1.6,28.264,28.264,0,0,1-2.691,1.745,31.154,31.154,0,0,1-2.9,1.42c-.976.37-1.968.836-3.036,1.131" fill="none" stroke="#231815" stroke-linecap="round" stroke-miterlimit="10" stroke-width="6.875"/><path d="M77.905,196.766a10.68,10.68,0,0,0-3.312-1.365,21.23,21.23,0,0,0-3.528-.737,18.694,18.694,0,0,0-3.578.347,14.193,14.193,0,0,0-3.535.536,13.549,13.549,0,0,0-3.212,1.634,8.266,8.266,0,0,0-1.888,2.573,12.494,12.494,0,0,0-1.346,2.86,17.656,17.656,0,0,0-.866,3.091,22.28,22.28,0,0,0-.257,3.221A26.692,26.692,0,0,0,57,212.1a32.876,32.876,0,0,0,4.588,11.878,27.055,27.055,0,0,0,2.294,2.27,26.212,26.212,0,0,0,2.289,2.236,27.186,27.186,0,0,0,2.391,2.195,30.748,30.748,0,0,0,2.9,1.441c.934.466,1.973.767,3.007,1.159.975.37,2.024.572,3.092.868" fill="none" stroke="#231815" stroke-linecap="round" stroke-miterlimit="10" stroke-width="6.875"/><path d="M165.275,92.352c-.554,1.522-.274,1.188-1.019,3.077-.338.857-.83,1.836-1.3,2.968-.38.922-.726,1.956-1.183,3.017-.407.945-.866,1.927-1.327,2.953-.429.955-.94,1.912-1.411,2.915-.451.96-1.053,1.87-1.538,2.854-.474.96-.669,2.074-1.171,3.039s-1.042,1.9-1.566,2.844-1.3,1.759-1.85,2.679c-.562.943-1.186,1.821-1.766,2.711-.6.928-1.107,1.887-1.726,2.736-.661.905-1.183,1.872-1.855,2.662a28.442,28.442,0,0,1-2.234,2.363,17.15,17.15,0,0,1-2.486,2.129,8.483,8.483,0,0,1-3.092,1.165,5.3,5.3,0,0,1-3.062-.855c-1.32-.954-.937-.85-2.253-2.3-.641-.705-1.4-1.509-2.16-2.429-.661-.8-1.607-1.464-2.268-2.366-.64-.874-1.065-1.924-1.627-2.841a25.058,25.058,0,0,1-1.681-2.806,11.465,11.465,0,0,1-.735-3.177,5.131,5.131,0,0,1,.267-3.243,5.185,5.185,0,0,1,2.645-1.93,11.286,11.286,0,0,1,3.155-.92,27.247,27.247,0,0,1,3.283.043c.953.027,1.3,1.02,1.456,2.528a12.229,12.229,0,0,1-.113,3.172,24.525,24.525,0,0,1-.593,3.164c-.28.972-.586,2.008-1,3.076-.372.961-.668,2.015-1.15,3.033-.446.942-1.139,1.8-1.681,2.776-.511.917-1.157,1.779-1.755,2.71-.57.888-1.01,1.888-1.661,2.777-.626.854-1.186,1.792-1.888,2.637-.679.817-1.559,1.482-2.31,2.281-.728.775-1.343,1.688-2.14,2.437-.777.729-1.647,1.381-2.49,2.077-.821.679-1.582,1.473-2.468,2.113-.864.625-1.842,1.119-2.768,1.7-.9.566-1.849,1.094-2.811,1.612-.938.506-1.849,1.113-2.844,1.567-.969.442-2.025.734-3.049,1.122-1,.377-2.051.624-3.1.945" fill="none" stroke="#231815" stroke-linecap="round" stroke-miterlimit="10" stroke-width="6.875"/><path d="M109.014,154.688a11.459,11.459,0,0,1-2.154,2.6c-.647.678-1.753,1.14-2.722,1.984-.763.665-1.478,1.542-2.454,2.267-.836.62-1.71,1.323-2.71,1.961-.892.568-1.923,1.016-2.95,1.581-.935.513-1.844,1.191-2.9,1.687-.97.458-2.033.823-3.106,1.256-1,.4-2.11.6-3.2.972-1.022.349-2.073.692-3.178,1.007-1.041.3-2.067.77-3.183,1.031-1.057.248-2.179.331-3.3.541-1.069.2-2.143.528-3.275.69-1.078.154-2.2.2-3.332.316-1.084.111-2.189.285-3.327.358-1.09.07-2.207.1-3.347.129-1.093.032-2.209-.02-3.349-.025" fill="none" stroke="#231815" stroke-linecap="round" stroke-miterlimit="10" stroke-width="6.875"/><path d="M286.883,142.321a6.862,6.862,0,0,0,1.652,2.258,10.95,10.95,0,0,0,5.434,2.28c8.68,1.587,17.61-.77,25.794-4.069a113.335,113.335,0,0,0,25.885-14.647" fill="none" stroke="#231815" stroke-linecap="round" stroke-linejoin="round" stroke-width="6.875"/><path d="M186.757,75.266a86.447,86.447,0,0,0-3.849,25.988c.028,4.679.461,9.456,2.343,13.74,5.172,11.77,20.172,16.534,32.8,14.1s23.415-10.309,33.735-17.977c-2.724,7.083-3.3,16.64,3.069,20.767a16.3,16.3,0,0,0,7.747,2.134,48.452,48.452,0,0,0,29.651-7.581c-2.233,2.614-4.517,5.317-5.6,8.581a10.189,10.189,0,0,0,.232,7.3" fill="none" stroke="#231815" stroke-linecap="round" stroke-linejoin="round" stroke-width="6.875"/><path d="M176.389,233.775s16.593,14.33,20.364,15.084,21.872-15.084,21.872-15.084" fill="none" stroke="#231815" stroke-linecap="round" stroke-miterlimit="10" stroke-width="6.875"/><path d="M40.461,310.784l-9.146-12.575a42.32,42.32,0,0,0-8-2.286C7.474,293.354,8.451,274.2,9.6,265.056s21.72-13.718,21.72-13.718-8-29.724,2.287-35.44,16.005,32.01,16.005,32.01,10.288,1.143,13.718,16.005-11.432,25.15-11.432,25.15l8,12.576" fill="#ffe200" stroke="#231815" stroke-linecap="round" stroke-linejoin="round" stroke-width="6.875"/><polyline points="45.873 336.002 32.605 317.426 69.756 296.197 83.025 324.503" fill="#ffe200" stroke="#231815" stroke-linecap="round" stroke-linejoin="round" stroke-width="6.875"/><path d="M155.623,310.666s-12.384,2.653-23.883,17.691" fill="#fff" stroke="#231815" stroke-linecap="round" stroke-linejoin="round" stroke-width="6.875"/><path d="M273.27,302.705s11.5,1.769,19.461,19.46" fill="#fff" stroke="#231815" stroke-linecap="round" stroke-linejoin="round" stroke-width="6.875"/><rect x="343.486" y="190.054" width="92.413" height="154.928" rx="12.869" stroke-width="6.875" fill="#fff" stroke="#231815" stroke-linecap="round" stroke-miterlimit="10" transform="translate(96.833 -103.507) rotate(17.246)"/><path d="M339.629,223.755H445.5a3.125,3.125,0,0,1,3.125,3.125v62.75a3.125,3.125,0,0,1-3.125,3.125H339.631a3.124,3.124,0,0,1-3.124-3.124V226.877A3.122,3.122,0,0,1,339.629,223.755Z" transform="translate(755.599 -40.096) rotate(107.246)" fill="#ffe200"/><circle cx="370.388" cy="325.799" r="6.795" fill="#231815"/><path d="M322.893,286.442s12.086-10.361,18.126-3-.842,21.873-6.4,22.974-12.15,3.5-12.524-1.9S322.893,286.442,322.893,286.442Z" fill="#ffe200" stroke="#231815" stroke-linecap="round" stroke-linejoin="round" stroke-width="6.875"/><path d="M430.94,305.277s-9.241-4.107-13.347,2.053-14.374,18.481-5.134,23.614S429.913,331.971,430.94,305.277Z" fill="#ffe200" stroke="#231815" stroke-linecap="round" stroke-linejoin="round" stroke-width="6.875"/><path d="M.883,79.362l.048-.095q1.5-2.938,5.747-4.063l-.659-.335Q4.137,73.911,4.9,72.405l.193-.378q.768-1.5,4.342.318,2.331.953,3.106,1.347,9.222,4.7,16.833,9.53l.047-.094a42.113,42.113,0,0,0-2.3-8.282q-1.59-2-1.11-2.938l.239-.47q1.148-1.432,2.321-.831l.095.047q3.387,1.728,5.214,15.579-.108.211,1.736,1.477,11.007,10.028,7.758,16.4-1.786,3.5-6.351,2.924a8.027,8.027,0,0,1-1.507-.532l-.753-.383q-5.175-2.637-4.665-13.4.044-4.038-.3-4.3a90.621,90.621,0,0,0-11.375-6.985l-.093-.047-.049.094a32.465,32.465,0,0,1,4.759,7.405q1.858,5.421.36,8.362-1.666,3.27-6.877,3.724a14.315,14.315,0,0,1-5.326-1.411Q5,96.4,1.187,88.762-1.024,83.1.883,79.362ZM13.126,96.035q3.528,1.8,6.187-.047a2.429,2.429,0,0,1,.524-.561,8.692,8.692,0,0,0-.9-5.911A38.836,38.836,0,0,0,13.66,82.2q-2.274-2.107-3.469-3.427a6.176,6.176,0,0,0-4.447,1.051,3.338,3.338,0,0,0-1.286,1.359q-1.343,2.637,1.17,7.472A19.206,19.206,0,0,0,13.126,96.035Zm23.938,6.752q2.048.865,2.743-.5,1.644-3.222-5.679-10.481l-.048.094q-.355,9.183,2.514,10.645Z"/><path d="M26.289,57.312q4.3-5.215,12.524-1.587a14.437,14.437,0,0,1,1.847,1.246l1.223,1.008.067-.082a15,15,0,0,0,1.275-6.2,1.469,1.469,0,0,1,.359-.934l.336-.408a1.988,1.988,0,0,1,2.622-.029q1.57,1.293-.478,8.223l-1.43,3.064A13.693,13.693,0,0,1,46.6,67.2a9.054,9.054,0,0,1-1.922,6.487l-.336.407q-3.558,4.323-10.016,2.7a13.411,13.411,0,0,1-3.649-2.048,17.713,17.713,0,0,1-4.47-5.869q-2.079-1.712-2.1-6.247A10.041,10.041,0,0,1,26.289,57.312Zm2.8,8.732.326.268q3.28,2.7,9.216-3.217l1.074-1.3c.134-.162-.152-.536-.858-1.117l-.571-.47a8.146,8.146,0,0,0-6.919-1.73q-.617.039-1.966,1.39a.094.094,0,0,1,.014.149l-.082-.067a5.082,5.082,0,0,0-.656,5.615Zm3.491,5.064.163.133q3.73,3.072,7.12,1.487a4.507,4.507,0,0,0,1.252-1.021l.4-.489q1.9-2.3.493-5.751l-.081-.067-.336.408A17.54,17.54,0,0,1,33.981,70.9,6.786,6.786,0,0,0,32.576,71.108Z"/><path d="M46.553,36.466q5.226-4.283,12.594.875a14.44,14.44,0,0,1,1.569,1.582l1,1.225.082-.067a14.967,14.967,0,0,0,2.455-5.834,1.479,1.479,0,0,1,.535-.848l.408-.334a1.984,1.984,0,0,1,2.578.481q1.288,1.572-2.067,7.974l-2,2.728a13.712,13.712,0,0,1,.844,5.861A9.059,9.059,0,0,1,61.413,56.1l-.408.335q-4.331,3.549-10.35.7a13.414,13.414,0,0,1-3.182-2.717,17.726,17.726,0,0,1-3.245-6.624q-1.707-2.085-.851-6.539A10.05,10.05,0,0,1,46.553,36.466ZM47.6,45.575l.268.328q2.694,3.287,9.665-1.368l1.307-1.071q.246-.2-.625-1.263l-.468-.572A8.153,8.153,0,0,0,51.3,38.588a4.247,4.247,0,0,0-2.2.983.093.093,0,0,1-.016.148l-.066-.081a5.08,5.08,0,0,0-1.735,5.38Zm2.442,5.645.133.164q3.063,3.735,6.7,2.84a4.553,4.553,0,0,0,1.426-.758l.49-.4q2.307-1.892,1.6-5.544l-.068-.082-.408.335a17.537,17.537,0,0,1-8.453,3.512A6.945,6.945,0,0,0,50.042,51.22Z"/><path d="M69.858,10.876q1.578-.858,2.889,1.554.3-.165,10.238,17.272,2.876,5.287,3.8,4.783l.186-.1Q90.707,32.353,89.2,25q-.765-2.346.787-3.193,1.952-.61,2.722.8a18.976,18.976,0,0,1,.808,8.336,9.079,9.079,0,0,1-4.626,6.964,4.649,4.649,0,0,1-5.5-.612,6.966,6.966,0,0,1-1.726-2.067l-.458,3.134a7,7,0,0,1-3.553,5.18q-3.757,2.042-8-2.986a13.18,13.18,0,0,1-1.346-2.031l-.051-.093q-3.066-5.635-2-8.768a5.636,5.636,0,0,1,2.819-4.539,9.386,9.386,0,0,1,6.212-.735l-.049-.093q-3.882-6.693-4.98-8.711-1.817-3.339-1.167-3.693A1.556,1.556,0,0,1,69.858,10.876Zm1.927,25.639q1.981,3.641,4.042,3.451,2.457-1.335,1.485-8.981a7.905,7.905,0,0,1-.429-1.45q-2.349-1.667-3.26-1.353-.1-.186-1.93.209c-.467.174-.731.277-.793.311q-1.02.555-.755,4.136A24.091,24.091,0,0,0,71.785,36.515Z"/><path d="M94.9.049q1.9-.3,2.388,1.235l1.25,3.924Q98.91,6.39,101.66,16.07l2.244,7.042q.224,1.925-1.234,2.389l-.3.1q-.906.289-2.16-.864-.909-2.508-1.382-3.992l-.545-1.71Q93.051,1.3,93.879,1.037A2.879,2.879,0,0,1,94.9.049Zm8.738,27.7.1-.033q1.61-.511,2.552,1.4.1,1.963-1.133,2.357l-.4.128q-1.459.463-2.421-1.335Q102.048,28.248,103.633,27.744Z"/></svg>