<svg xmlns="http://www.w3.org/2000/svg" width="560.414" height="455.944" viewBox="0 0 560.414 455.944"><path d="M451.809,340.8c3.726,18.63-1.863,62.409-10.246,71.724s-60.546,2.795-60.546,2.795L377.291,441.4s54.025,7.452,81.038,2.794,34.465-68.929,28.876-112.708S446.22,272.8,446.22,272.8A132.339,132.339,0,0,0,395,260.251c-29-1-78.691,17.876-86.345,26.438S290.722,309.556,282,337.944s-12,108-12,108l80,1.307,51-7,52-14,17-36-5-63" fill="#ffe200"/><path d="M531.965,147.45c-.068,1.122-.3,2.232-.389,3.347s-.456,2.212-.567,3.324-.194,2.235-.328,3.345-.158,2.242-.314,3.349-.076,2.262-.255,3.365-.483,2.2-.686,3.3-.606,2.17-.833,3.265-.117,2.275-.368,3.365-.954,2.08-1.23,3.164-.272,2.251-.574,3.328-.817,2.1-1.144,3.171-.423,2.223-.775,3.285-.91,2.063-1.289,3.115-.681,2.143-1.086,3.186-.809,2.1-1.241,3.129-1.117,1.961-1.577,2.981-.54,2.226-1.027,3.234-1.168,1.93-1.683,2.924-1.062,1.979-1.6,2.958-.917,2.065-1.487,3.029-1.392,1.783-1.989,2.73-1.07,1.982-1.695,2.912-1.4,1.763-2.049,2.674-1.468,1.7-2.148,2.591-1.13,1.961-1.837,2.832-1.439,1.722-2.172,2.571-1.657,1.524-2.416,2.351-1.344,1.811-2.129,2.614-1.526,1.649-2.335,2.427-1.759,1.4-2.592,2.154-1.7,1.459-2.555,2.186-1.6,1.585-2.475,2.285-1.761,1.389-2.661,2.062-1.767,1.385-2.688,2.03-1.979,1.073-2.919,1.69-1.842,1.272-2.8,1.86-1.847,1.277-2.823,1.837-1.955,1.1-2.947,1.628-2.115.779-3.122,1.282-1.865,1.284-2.887,1.758-2.055.893-3.09,1.338-2.147.661-3.194,1.077-2.057.88-3.115,1.268-2.1.783-3.164,1.144-2.183.511-3.26.844-2.029,1.028-3.115,1.334-2.2.454-3.29.733-2.141.672-3.24.925-2.2.442-3.3.669-2.26.083-3.37.285c-1.095.2-2.2.337-3.318.515s-2.182.491-3.3.646-2.187.519-3.307.65-2.219.307-3.343.415-2.25-.055-3.376.031c-1.111.086-2.211.469-3.338.534s-2.251-.258-3.379-.214-2.23.136-3.358.16-2.234.291-3.363.3-2.239-.126-3.368-.141-2.229-.288-3.358-.321-2.248.238-3.377.187-2.243-.038-3.371-.106-2.269-.146-3.389-.23c-1.136-.084-2.246-.4-3.365-.5-1.135-.1-2.272-.1-3.389-.213-1.134-.116-2.223-.543-3.338-.675-1.132-.133-2.253-.257-3.365-.406-1.13-.151-2.248-.3-3.358-.465-1.127-.169-2.237-.362-3.344-.547-1.124-.188-2.241-.346-3.344-.55-1.121-.208-2.257-.278-3.356-.5-1.116-.227-2.194-.584-3.289-.829-1.112-.248-2.232-.413-3.321-.679-1.107-.269-2.269-.29-3.353-.578-1.1-.291-2.208-.55-3.286-.86-1.095-.314-2.146-.759-3.217-1.092-1.088-.338-2.1-.878-3.166-1.234-1.08-.363-2.189-.618-3.244-1-1.072-.387-2.173-.678-3.219-1.085-1.063-.414-2.053-.988-3.089-1.42s-2.023-1.038-3.047-1.5c-1.04-.466-2.049-.967-3.061-1.453s-2.059-.948-3.058-1.462-2.035-1-3.019-1.543-2.016-1.042-2.984-1.613-2.057-.989-3.008-1.589-1.936-1.2-2.868-1.824-1.608-1.658-2.52-2.316-1.979-1.133-2.87-1.819-1.643-1.57-2.512-2.286-1.738-1.444-2.582-2.187-1.713-1.475-2.533-2.247-1.745-1.451-2.538-2.25-1.511-1.686-2.277-2.512-1.5-1.694-2.234-2.546-1.546-1.655-2.254-2.532-1.534-1.676-2.213-2.577-1.206-1.922-1.854-2.846-1.488-1.728-2.1-2.674-.988-2.052-1.573-3.018-1.227-1.9-1.781-2.886-1.2-1.921-1.725-2.924-.759-2.147-1.249-3.166-.886-2.072-1.344-3.106-1.173-1.953-1.6-3-.745-2.134-1.142-3.194-.964-2.055-1.33-3.126-.522-2.207-.858-3.288-.667-2.156-.973-3.247-.543-2.19-.821-3.288-.477-2.2-.727-3.309-.383-2.221-.605-3.332-.6-2.18-.792-3.3-.5-2.2-.673-3.324-.241-2.245-.386-3.369-.189-2.248-.309-3.375-.152-2.249-.248-3.379-.346-2.235-.419-3.367-.255-2.246-.307-3.378-.124-2.256-.153-3.389-.134-2.258-.143-3.391.042-2.261.054-3.4.265-2.253.3-3.386-.011-2.26.039-3.393.08-2.258.148-3.39-.013-2.251.085-3.362.641-2.187.768-3.3.13-2.238.287-3.342.374-2.206.561-3.306.071-2.266.288-3.361.478-2.193.724-3.282.687-2.14.963-3.222.607-2.155.913-3.229.652-2.141.986-3.206.852-2.072,1.216-3.129.367-2.245.76-3.291.931-2.042,1.352-3.077.682-2.146,1.13-3.169,1.076-1.973,1.552-2.984.942-2.033,1.445-3.031,1.291-1.847,1.821-2.832.967-2.017,1.523-2.986.871-2.085,1.453-3.04,1.5-1.7,2.107-2.639.938-2.061,1.569-2.984,1.533-1.656,2.189-2.562,1.183-1.905,1.862-2.793,1.231-1.88,1.933-2.751,1.62-1.563,2.344-2.416,1.305-1.83,2.051-2.663,1.427-1.732,2.194-2.547,1.72-1.451,2.508-2.245,1.6-1.566,2.4-2.34,1.566-1.6,2.394-2.353,1.537-1.642,2.383-2.374,1.912-1.2,2.776-1.915,1.707-1.443,2.589-2.132,1.62-1.566,2.519-2.233,1.971-1.093,2.886-1.737,1.716-1.451,2.647-2.073,2.046-.954,2.991-1.552,1.869-1.221,2.829-1.8,1.748-1.443,2.722-1.994,1.948-1.108,2.935-1.635,2.109-.794,3.109-1.3,1.885-1.239,2.9-1.717,2.115-.756,3.139-1.209,2.116-.732,3.151-1.161,2-1.016,3.044-1.419,2.076-.833,3.131-1.211,2.056-.906,3.119-1.257,2.213-.426,3.285-.752,2.16-.57,3.239-.87,2.121-.718,3.207-.992,2.21-.363,3.3-.611,2.146-.645,3.244-.866,2.193-.434,3.3-.629,2.191-.46,3.3-.629,2.252-.029,3.363-.171,2.171-.688,3.286-.8,2.263.2,3.38.109,2.218-.278,3.337-.341,2.23-.1,3.351-.137,2.232-.117,3.353-.127,2.231.162,3.353.178,2.236-.133,3.358-.091,2.218.324,3.338.392,2.256-.154,3.367-.061,2.207.439,3.316.558,2.254.01,3.36.155,2.185.533,3.287.7,2.267.027,3.365.224,2.19.488,3.284.711,2.2.424,3.29.672,2.18.527,3.262.8,2.1.809,3.177,1.109,2.123.7,3.191,1.028,2.262.276,3.322.628,2.064.888,3.116,1.265,2.061.876,3.1,1.278,2.132.7,3.164,1.123,2.083.826,3.105,1.277,2.026.956,3.036,1.432,2.115.778,3.113,1.279,1.883,1.239,2.869,1.764,2.055.912,3.028,1.461,1.739,1.462,2.7,2.034,2.13.807,3.075,1.4,1.741,1.431,2.671,2.05,1.838,1.272,2.753,1.914,2.01,1.04,2.909,1.7,1.738,1.419,2.62,2.1,1.746,1.4,2.611,2.11,1.639,1.529,2.487,2.257,1.817,1.324,2.646,2.073,1.632,1.536,2.442,2.306,1.573,1.594,2.364,2.384,1.511,1.652,2.282,2.461,1.477,1.679,2.227,2.508,1.61,1.561,2.339,2.408,1.585,1.6,2.292,2.462,1.344,1.8,2.029,2.678,1.368,1.776,2.03,2.676,1.081,1.977,1.721,2.9,1.475,1.7,2.09,2.635,1.244,1.863,1.835,2.813,1.082,1.962,1.649,2.926,1.207,1.889,1.748,2.868,1.07,1.967,1.585,2.96.971,2.018,1.46,3.024,1.01,2,1.472,3.018.867,2.065,1.3,3.1.832,2.077,1.239,3.119.784,2.1,1.163,3.148.573,2.166.923,3.229.71,2.117,1.032,3.189.741,2.111,1.034,3.192.665,2.138.929,3.226.619,2.155.853,3.25.353,2.213.557,3.314.434,2.2.608,3.3.006,2.256.15,3.367.533,2.187.647,3.3.286,2.221.369,3.338.022,2.24.074,3.359.216,2.231.239,3.352.125,2.238.117,3.359-.323,2.231-.361,3.352S532.033,146.33,531.965,147.45Z" fill="#ffe200"/><path d="M261.817,165.887c.145,1.118.6,2.19.756,3.3s-.088,2.291.09,3.4.635,2.177.833,3.28.408,2.213.626,3.312.291,2.24.53,3.335.518,2.193.779,3.282.771,2.127,1.057,3.21.336,2.242.647,3.319.955,2.061,1.293,3.129.4,2.238.762,3.3.628,2.17,1.024,3.219,1.015,2.021,1.442,3.058.657,2.17,1.116,3.193,1.119,1.964,1.612,2.971,1.083,1.971,1.61,2.962,1.14,1.934,1.7,2.907.957,2.045,1.555,3,1.448,1.733,2.082,2.662.976,2.06,1.645,2.964,1.51,1.674,2.215,2.552,1.507,1.66,2.247,2.51,1.259,1.885,2.034,2.705,1.56,1.619,2.367,2.408,1.747,1.418,2.586,2.174,1.787,1.35,2.656,2.072,1.751,1.379,2.648,2.068,1.575,1.629,2.5,2.283c.908.644,2,1.037,2.946,1.656.931.61,1.81,1.315,2.78,1.9.953.575,1.833,1.3,2.823,1.852.972.541,1.954,1.1,2.963,1.617.99.507,2.155.686,3.181,1.171,1,.475,2.013.962,3.054,1.415,1.019.444,2.09.782,3.144,1.2,1.032.413,2.039.91,3.105,1.3,1.043.383,2.115.709,3.191,1.072,1.053.355,2.119.692,3.2,1.027,1.062.327,2.093.792,3.186,1.1,1.069.3,2.085.851,3.184,1.134,1.076.276,2.18.506,3.285.764,1.081.252,2.207.378,3.317.612,1.087.23,2.237.2,3.352.416,1.092.208,2.175.518,3.3.709,1.1.187,2.176.554,3.3.725,1.1.167,2.263-.029,3.389.122,1.1.148,2.16.735,3.287.867,1.1.13,2.255-.05,3.384.065,1.107.112,2.207.425,3.338.523,1.11.1,2.252-.072,3.385.009,1.11.081,2.218.353,3.351.419,1.113.066,2.243.024,3.378.076,1.115.05,2.285.094,3.421.132,1.085,1.208-.149,1.412.289,3.287a31.179,31.179,0,0,0,1.36,2.977,18.572,18.572,0,0,0,1.213,2.994,14.424,14.424,0,0,0,1.922,2.6,11.637,11.637,0,0,0,2.629,1.844,10.747,10.747,0,0,0,2.868,1.469,13.639,13.639,0,0,0,3.234.214" fill="none" stroke="#231815" stroke-linecap="round" stroke-miterlimit="10" stroke-width="7.042"/><path d="M499.082,215.577c-.658.931-1.333,1.85-2.017,2.766s-1.357,1.833-2.064,2.73-1.3,1.883-2.033,2.761-1.5,1.724-2.254,2.582-1.678,1.558-2.456,2.394-1.5,1.721-2.3,2.535-1.711,1.509-2.536,2.3-1.564,1.662-2.411,2.429-1.608,1.626-2.478,2.368-1.829,1.368-2.721,2.085-1.617,1.639-2.529,2.329-1.928,1.235-2.861,1.9-1.949,1.189-2.9,1.824-1.954,1.17-2.925,1.777-1.763,1.492-2.752,2.07-2.141.844-3.148,1.392-1.983,1.117-3.006,1.635-1.935,1.23-2.972,1.717-2.055.994-3.107,1.451-2.141.791-3.206,1.216-2.191.642-3.268,1.037-2.044,1.052-3.132,1.417-2.293.3-3.391.636-2.105.907-3.213,1.211-2.2.59-3.316.863-2.248.373-3.37.616-2.219.5-3.347.71-2.2.648-3.332.834c-1.119.183-2.288.1-3.428.256-1.123.155-2.215.627-3.357.757s-2.3-.066-3.445.037c-1.13.1-2.277.059-3.426.135" fill="none" stroke="#231815" stroke-linecap="round" stroke-miterlimit="10" stroke-width="7.042"/><path d="M448.85,14.178c1.038.435,2.092.832,3.116,1.293s1.99,1.054,3,1.539,2.12.792,3.119,1.3,1.973,1.088,2.96,1.624,2.022,1,2.995,1.559,1.843,1.306,2.8,1.891,2.034.993,2.978,1.6,1.778,1.394,2.707,2.025,1.888,1.225,2.8,1.88,1.807,1.341,2.7,2.018,1.7,1.477,2.579,2.176,1.74,1.42,2.6,2.141,1.863,1.281,2.707,2.023,1.7,1.48,2.523,2.242,1.536,1.65,2.342,2.433,1.443,1.733,2.229,2.536,1.647,1.529,2.414,2.351,1.591,1.589,2.337,2.43,1.518,1.659,2.243,2.518,1.46,1.711,2.163,2.587,1.351,1.8,2.033,2.691,1.305,1.83,1.964,2.74,1.36,1.791,2,2.717,1.41,1.763,2.024,2.7,1.244,1.878,1.835,2.834,1.146,1.939,1.712,2.91.834,2.111,1.377,3.1,1.3,1.854,1.814,2.852.837,2.094,1.33,3.105.941,2.037,1.409,3.06,1,2.014,1.437,3.049.865,2.072,1.281,3.117.841,2.082,1.231,3.138.916,2.059,1.28,3.124.683,2.143,1.02,3.217.454,2.208.764,3.29.693,2.137.976,3.226.411,2.209.666,3.305.626,2.159.854,3.262.58,2.176.781,3.284.257,2.235.43,3.347.608,2.185.753,3.3.115,2.251.232,3.371.077,2.248.166,3.371.07,2.244.132,3.369.457,2.228.49,3.354-.28,2.252-.275,3.379.048,2.244.026,3.371" fill="none" stroke="#231815" stroke-linecap="round" stroke-miterlimit="10" stroke-width="7.042"/><path d="M261.3,127.693c.1-1.127.175-2.252.3-3.369s.105-2.264.257-3.378.745-2.171.923-3.281.274-2.238.48-3.344.391-2.22.625-3.32.47-2.2.731-3.3.286-2.256.575-3.343.815-2.117,1.131-3.2.422-2.232.765-3.3.672-2.16,1.042-3.223,1.149-1.983,1.546-3.037.825-2.093,1.248-3.136.582-2.2,1.031-3.233,1.176-1.942,1.65-2.963.563-2.232,1.063-3.241,1.411-1.812,1.936-2.808.826-2.116,1.376-3.1.967-2.05,1.541-3.019,1.509-1.722,2.107-2.676.847-2.138,1.469-3.077,1.408-1.775,2.053-2.7,1.556-1.656,2.224-2.563,1.164-1.943,1.854-2.833,1.359-1.8,2.072-2.673,1.632-1.57,2.366-2.425,1.19-1.955,1.945-2.791,1.805-1.4,2.58-2.218,1.4-1.784,2.19-2.582,1.74-1.442,2.555-2.221,1.542-1.646,2.376-2.4,1.521-1.686,2.374-2.422,1.913-1.229,2.784-1.944,1.646-1.548,2.534-2.242,1.766-1.405,2.671-2.076,1.916-1.2,2.838-1.845,1.662-1.565,2.6-2.191,2.094-.916,3.047-1.518,1.729-1.492,2.7-2.07,2.052-.959,3.034-1.513,1.955-1.121,2.951-1.651,1.922-1.193,2.931-1.7,2.01-1.031,3.03-1.51,2.132-.763,3.164-1.217,2.026-1,3.07-1.426,2.136-.728,3.191-1.13,2.092-.842,3.156-1.217,2.171-.611,3.244-.959,2.084-.89,3.166-1.211,2.181-.573,3.271-.867,2.156-.672,3.253-.938,2.238-.325,3.341-.564,2.162-.683,3.271-.9,2.252-.216,3.366-.4,2.216-.414,3.335-.569,2.237-.273,3.359-.4,2.253-.1,3.378-.2,2.243-.167,3.37-.238,2.237-.354,3.366-.4,2.254-.1,3.384-.11,2.253.14,3.383.153,2.243.264,3.373.305,2.252-.024,3.38.044c1.208.073,2.417.07,3.615.174s2.412.179,3.608.315,2.4.264,3.595.432,2.382.41,3.568.609,2.369.474,3.55.705,2.379.417,3.554.679,2.4.371,3.563.664" fill="none" stroke="#231815" stroke-linecap="round" stroke-miterlimit="10" stroke-width="7.042"/><path d="M341.314,126.366c-1.617-.768-1.422-.357-3.5-.378a11.981,11.981,0,0,0-3.513.346,11.251,11.251,0,0,0-3.338,1.3,13.339,13.339,0,0,0-2.527,2.542,16.959,16.959,0,0,0-1.868,3.015,21.241,21.241,0,0,0-1.707,3.148,33.448,33.448,0,0,0-.875,3.484c-.264,1.176-.6,2.3-.81,3.417-.224,1.189-.186,2.382-.348,3.5-.176,1.2-.306,2.358-.414,3.474-.118,1.219-.521,2.367-.562,3.479-.045,1.235.133,2.413.178,3.512.051,1.254-.027,2.449.134,3.519a20.863,20.863,0,0,0,.793,3.448,10.81,10.81,0,0,0,1.666,3.134,5,5,0,0,0,3,1.666,14.8,14.8,0,0,0,3.425.625,10.019,10.019,0,0,0,3.389-.716,9.638,9.638,0,0,0,3.053-1.619,13.445,13.445,0,0,0,2.389-2.55,21.037,21.037,0,0,0,1.763-3.03,32.162,32.162,0,0,0,1.313-3.25c.367-1.033.559-2.187.884-3.388.29-1.069.982-2.107,1.237-3.315.247-1.173.376-2.316.581-3.387.227-1.184.39-2.317.561-3.385.192-1.2.334-2.336.449-3.4.132-1.221-.049-2.37-.028-3.429a23.9,23.9,0,0,0,.056-3.427,12.549,12.549,0,0,0-1.09-3.226,9.855,9.855,0,0,0-1.812-2.81A12.483,12.483,0,0,0,341.314,126.366Z" fill="none" stroke="#231815" stroke-miterlimit="10" stroke-width="7.042"/><path d="M400.781,127.2c-1.617-.768-1.443-.353-3.521-.373a12.209,12.209,0,0,0-3.488.473,11.1,11.1,0,0,0-3.31,1.29,12.72,12.72,0,0,0-2.734,2.33A17.588,17.588,0,0,0,385.885,134a23.2,23.2,0,0,0-1.391,3.282,32.1,32.1,0,0,0-.926,3.45c-.265,1.175-.668,2.285-.877,3.4-.224,1.189-.532,2.328-.695,3.445-.175,1.2-.2,2.382-.309,3.5-.118,1.219-.066,2.394-.107,3.506-.045,1.235-.212,2.406-.167,3.5a30.614,30.614,0,0,0,.472,3.474,21.949,21.949,0,0,0,.593,3.465,9.8,9.8,0,0,0,1.891,2.928,5.2,5.2,0,0,0,2.624,2.2,15.2,15.2,0,0,0,3.5.563,10.429,10.429,0,0,0,3.428-.847,9.848,9.848,0,0,0,3.056-1.679,14.033,14.033,0,0,0,2.21-2.7,20.231,20.231,0,0,0,1.85-2.955,33.406,33.406,0,0,0,1.212-3.28c.367-1.032.819-2.1,1.145-3.305.289-1.068.779-2.155,1.034-3.364.247-1.172.273-2.334.479-3.405.226-1.183.3-2.325.468-3.393.192-1.2.665-2.286.78-3.351.131-1.22.107-2.37.128-3.429a23.046,23.046,0,0,0-.074-3.44,12.673,12.673,0,0,0-1.093-3.244,10.027,10.027,0,0,0-1.809-2.845A12.7,12.7,0,0,0,400.781,127.2Z" fill="none" stroke="#231815" stroke-miterlimit="10" stroke-width="7.042"/><path d="M337.21,141.444c-1.156-.718-1.161-.988-2.5-.466a3.623,3.623,0,0,0-1.737,1.97,21.8,21.8,0,0,0-1.157,3,9.23,9.23,0,0,0-.493,3.115c.048,1.216.33,2.06,1.472,2.416,1.43.447,2.52.615,3.416.182.872-.421,1.39-1.36,1.906-2.819a12.352,12.352,0,0,0,.816-4.025A3.574,3.574,0,0,0,337.21,141.444Z" fill="#231815"/><path d="M396.089,141.542c-1.178-.648-1.183-.689-2.479-.1a3.281,3.281,0,0,0-1.666,1.9,21.686,21.686,0,0,0-1.106,2.993,9.542,9.542,0,0,0-.382,3.147,2.208,2.208,0,0,0,1.775,2.212,4.2,4.2,0,0,0,3.25-.121,4.033,4.033,0,0,0,1.991-2.639,12.294,12.294,0,0,0,.486-4.062A3.654,3.654,0,0,0,396.089,141.542Z" fill="#231815"/><path d="M358.677,167.836c-1.767.137-1.769-.118-3.362,1.092a7.492,7.492,0,0,0-1.849,3,9.428,9.428,0,0,0-.928,3.364,13.357,13.357,0,0,0,.117,3.49,11.186,11.186,0,0,0,1.16,3.332,9.963,9.963,0,0,0,2.52,2.434,8.034,8.034,0,0,0,2.987,1.627" fill="none" stroke="#231815" stroke-linecap="round" stroke-miterlimit="10" stroke-width="7.042"/><path d="M349.618,147.285c1.64.039,1.241.078,3.282.091.939.006,2.048.13,3.282.125,1.017,0,2.12-.093,3.284-.111,1.049-.017,2.146-.187,3.278-.219,1.069-.029,2.166-.071,3.278-.117,1.086-.045,2.2.117,3.3.054s2.177-.428,3.262-.513c1.111-.087,2.235.1,3.3-.014,1.125-.119,2.169-.643,3.212-.793,1.146-.165,2.254-.182,3.258-.39" fill="none" stroke="#231815" stroke-linecap="round" stroke-miterlimit="10" stroke-width="7.042"/><path d="M499.9,160.567c1.386-1.147,1.235-.814,3.11-1.817a22.247,22.247,0,0,1,3.311-1.349,17.317,17.317,0,0,1,3.429-1.156,15.234,15.234,0,0,1,3.61.27,13.423,13.423,0,0,1,3.437.959,8.043,8.043,0,0,1,2.986,1.751,14.2,14.2,0,0,1,1.953,2.9,20.036,20.036,0,0,1,1.161,3.259,23.332,23.332,0,0,1,.728,3.355,24.993,24.993,0,0,1,.7,3.4,22.449,22.449,0,0,1-3.367,13.255,26.1,26.1,0,0,1-1.561,3.1,27.922,27.922,0,0,1-2.252,2.64,30.872,30.872,0,0,1-2.742,2.113,30.292,30.292,0,0,1-2.623,2.225,34.018,34.018,0,0,1-2.88,1.914" fill="none" stroke="#231815" stroke-linecap="round" stroke-miterlimit="10" stroke-width="7.042"/><path d="M378.922,33.359c-.407,1.592-.182,1.214-.62,3.235-.2.914-.382,2.009-.619,3.235-.193.992-.249,2.1-.45,3.262-.178,1.028-.581,2.078-.753,3.213-.159,1.049-.428,2.126-.573,3.247-.137,1.065-.061,2.184-.177,3.3-.113,1.077-.077,2.183-.163,3.29-.085,1.087-.379,2.171-.431,3.273s.129,2.2.116,3.3-.1,2.2-.062,3.292c.032,1.108.255,2.192.341,3.274.089,1.112.066,2.214.219,3.283.159,1.11.332,2.194.569,3.24a30.272,30.272,0,0,0,1.017,3.127A23.567,23.567,0,0,0,378.468,82a17.117,17.117,0,0,0,1.666,2.842,13.334,13.334,0,0,0,2.3,2.391,12.058,12.058,0,0,0,3,1.366,13.027,13.027,0,0,0,3.169.677c1.143.144,2.266.452,3.424.515s2.305.24,3.464.228,2.31-.131,3.465-.209,2.279-.417,3.427-.553,2.334-.009,3.472-.2,2.283-.419,3.409-.654,2.245-.6,3.359-.877c1.132-.281,2.276-.489,3.376-.8,1.127-.321,2.238-.654,3.323-1,1.121-.36,2.257-.626,3.324-1,1.117-.4,2.106-1.066,3.155-1.472,1.115-.432,2.149-.953,3.175-1.385,1.119-.47,2.253-.769,3.251-1.223,1.131-.513,2.19-.991,3.146-1.462,1.172-.577,2.123-1.265,3-1.737,1.5-.811,2.705-1.152,3.156-1.477.913-.659,1.6-1.24,2.245-1.228,1.415.025,1.965.095,2.241,1.338.39,1.759-.073,1.463-.168,3.612-.047,1.059-.348,2.285-.31,3.6.033,1.154.359,2.352.509,3.577a27.248,27.248,0,0,0,.372,3.6,16.235,16.235,0,0,0,1.485,3.293,9.065,9.065,0,0,0,2.233,2.726,6.675,6.675,0,0,0,3.092,1.57c1.116.237,2.162.547,3.2.7,1.12.169,2.195.324,3.257.386a26.747,26.747,0,0,0,3.273-.071,23.829,23.829,0,0,0,3.269-.267,25.168,25.168,0,0,0,3.2-.786c.992-.338,1.863-1.078,2.9-1.562.944-.44,2.033-.694,3.034-1.264.9-.514,1.867-1.043,2.832-1.67.877-.57,1.918-1.408,2.853-2.075.976,1.338-.469,1.52-.765,3.39a19.725,19.725,0,0,0-.481,3.272,11.9,11.9,0,0,0,.349,3.314,6.082,6.082,0,0,0,2,2.627c1.052,1.359.617,1.225,2.326,2.428a11.47,11.47,0,0,0,3.016,1.522,14.364,14.364,0,0,0,3.32.736,18.428,18.428,0,0,0,3.429.2,29.349,29.349,0,0,0,3.339-.828,32.413,32.413,0,0,0,3.313-.839c1.022-.336,2.227-.391,3.35-.863,1-.419,1.971-1.071,3.054-1.608.977-.484,1.919-1.146,2.965-1.734.956-.537,1.866-1.234,2.883-1.863.936-.581,2.084-.911,3.073-1.575.919-.616,1.89-1.234,2.854-1.926.9-.646,1.614-1.609,2.556-2.324.886-.674,1.815-1.341,2.738-2.077.872-.7,1.94-1.2,2.846-1.957.859-.716,1.592-1.627,2.482-2.4" fill="none" stroke="#231815" stroke-linecap="round" stroke-miterlimit="10" stroke-width="7.042"/><path d="M355.017,54.132c-.59,1.622-.3,1.269-1.094,3.277-.362.916-.885,1.962-1.385,3.167-.408.984-.782,2.082-1.272,3.21-.437,1.008-.93,2.056-1.426,3.147-.464,1.02-1.012,2.04-1.521,3.1-.488,1.023-1.131,1.993-1.656,3.035-.516,1.024-.748,2.206-1.3,3.226s-1.139,2.02-1.711,3.015c-.583,1.013-1.414,1.863-2.019,2.826-.626,1-1.314,1.918-1.959,2.839-.685.978-1.266,1.974-1.965,2.835a33.5,33.5,0,0,1-2.172,2.7,18.054,18.054,0,0,1-2.673,2.215,9.194,9.194,0,0,1-3.153,1.533,5.8,5.8,0,0,1-3.528-.524c-1.326-.946-.662-1.214-1.978-2.662-.642-.706-1.406-1.5-2.166-2.422-.662-.8-1.371-1.636-2.032-2.538-.641-.875-1.546-1.6-2.109-2.516a23.513,23.513,0,0,1-1.316-3,12.415,12.415,0,0,1-1.108-3.081,4.891,4.891,0,0,1,.71-3.142,4.792,4.792,0,0,1,2.362-2.21,12.843,12.843,0,0,1,3.236-.578,22.54,22.54,0,0,1,3.268-.3c.994.028,1.647,1.219,1.773,2.843a16.217,16.217,0,0,1-.542,3.377,27.07,27.07,0,0,1-.767,3.309c-.315,1.024-.579,2.136-1.036,3.256-.412,1.012-.844,2.071-1.375,3.137-.492.988-.909,2.069-1.506,3.086-.563.96-1.367,1.807-2.025,2.776-.628.926-1.387,1.777-2.1,2.7-.689.887-1.256,1.9-2.028,2.765-.746.842-1.435,1.771-2.26,2.587-.8.792-1.794,1.405-2.67,2.163-.854.738-1.608,1.626-2.534,2.323-.9.679-1.894,1.265-2.866,1.9-.946.615-1.848,1.351-2.861,1.913-.987.547-2.078.944-3.129,1.434-1.022.476-2.086.905-3.17,1.321-1.052.4-2.1.911-3.206,1.251" fill="none" stroke="#231815" stroke-linecap="round" stroke-miterlimit="10" stroke-width="7.042"/><path d="M298.74,116.5a11.445,11.445,0,0,1-2.155,2.6c-.647.678-1.761,1.133-2.73,1.977-.763.665-1.476,1.547-2.451,2.272-.837.621-1.71,1.325-2.711,1.963-.891.569-1.925,1.015-2.953,1.579-.935.514-1.842,1.2-2.895,1.692-.97.459-2.035.822-3.108,1.255-1,.4-2.113.595-3.2.967-1.022.349-2.074.692-3.178,1.008-1.042.3-2.067.775-3.184,1.036-1.058.248-2.18.328-3.307.538-1.069.2-2.143.532-3.276.694-1.078.154-2.2.2-3.333.313-1.085.111-2.189.287-3.329.361-1.09.07-2.207.1-3.348.128-1.093.032-2.21-.022-3.35-.027" fill="none" stroke="#231815" stroke-linecap="round" stroke-miterlimit="10" stroke-width="7.042"/><path d="M361.178,375.2c-.095-1.616.206-1.269.127-3.248-.037-.936-.385-2.023-.418-3.227-.027-1.015.3-2.113.284-3.245-.013-1.053-.275-2.14-.27-3.238,0-1.081-.153-2.177-.123-3.249.031-1.108.224-2.2.288-3.24.071-1.145.241-2.231.361-3.227a24.476,24.476,0,0,1,.488-3.213c.439-1.593,1.1-2.244,1.927-2a8.068,8.068,0,0,1,3,1.731,34.549,34.549,0,0,1,2.587,2.43c.781.845,1.673,1.672,2.441,2.59s1.341,2.02,2.044,2.918c.8,1.018,1.354,2.113,1.977,2.95,1.264,1.7.5,2.47,2.27,2.533,1.655.06.688-.951,1.842-2.555.57-.792,1.19-1.745,1.921-2.7.648-.847,1.62-1.507,2.336-2.372s1.126-2,1.855-2.783a23.091,23.091,0,0,1,2.635-2.038,5.028,5.028,0,0,1,2.795-1.465c.765,0,1.479.839,1.919,2.478.25.934.125,2.132.292,3.394.139,1.052.646,2.151.737,3.336.084,1.1.044,2.257.094,3.4s.107,2.286.131,3.4c.025,1.181-.063,2.331-.059,3.4,0,1.256-.16,2.409-.172,3.395-.023,2.062.362,1.705.307,3.4" fill="none" stroke="#040000" stroke-linecap="round" stroke-linejoin="round" stroke-width="10.563"/><path d="M347.722,201.11s1.91,6.685,11.46,6.208A47.588,47.588,0,0,0,386.4,197.29" fill="none" stroke="#231815" stroke-linecap="round" stroke-linejoin="round" stroke-width="7.042"/><path d="M335.865,272.337s-36.522,7.94-50.08,54.778-10.546,39.253-10.546,39.253" fill="none" stroke="#231815" stroke-linecap="round" stroke-miterlimit="10" stroke-width="7.042"/><line x1="556.893" y1="448.943" x2="3.521" y2="448.943" fill="none" stroke="#231815" stroke-linecap="round" stroke-miterlimit="10" stroke-width="7.042"/><rect x="279.455" y="441.341" width="80.016" height="14.603" fill="#fff"/><rect x="75.556" y="441.341" width="203.899" height="14.603" transform="translate(355.01 897.285) rotate(180)" fill="#fff"/><polygon points="279.455 441.341 75.556 441.341 37.512 263.657 245.749 246.74 279.455 441.341" fill="#fff"/><rect x="286.43" y="434.366" width="80.016" height="14.603" stroke-width="7.042" stroke="#231815" stroke-linecap="round" stroke-linejoin="round" fill="none"/><rect x="82.531" y="434.366" width="203.899" height="14.603" transform="translate(368.961 883.334) rotate(180)" stroke-width="7.042" stroke="#231815" stroke-linecap="round" stroke-linejoin="round" fill="none"/><polygon points="286.43 434.366 82.531 434.366 44.487 256.682 252.724 239.765 286.43 434.366" fill="none" stroke="#231815" stroke-linecap="round" stroke-linejoin="round" stroke-width="7.042"/><path d="M310.635,336.56s-10.055,38.974-14.09,72.6" fill="none" stroke="#231815" stroke-linecap="round" stroke-miterlimit="10" stroke-width="7.042"/><path d="M380.408,414.758s-28.3-14.149-38.908-3.537-21.223,19.454-9.728,21.223,48.142,5.52,48.142,5.52" fill="none" stroke="#231815" stroke-linecap="round" stroke-miterlimit="10" stroke-width="7.042"/><path d="M452.22,269.494s35.4,14.9,40.985,58.683-1.863,108.051-28.876,112.709-81.038-2.8-81.038-2.8l3.726-26.081s52.162,6.52,60.546-2.794,13.972-53.1,10.246-71.724" fill="none" stroke="#231815" stroke-linecap="round" stroke-linejoin="round" stroke-width="7.042"/><path d="M21.157,165.891l.128-.161a1.751,1.751,0,0,1,2.3-.4q2.448,1.833,4.072,3.134l.16.129q.482.386,2.27,1.953t3.854,3.223l6.957,5.449q.863.691,4.938,3.7,1.063.852.141,2.616-1.093,1.364-2.905.173-.129.161-14.22-11.012-8.208-7.011-8.2-7.322A5.617,5.617,0,0,1,21.157,165.891Z"/><path d="M26.808,157.679q.9-.95,2.473.086,1.063,1.157,2.011,2.06l.447.426,2.269-2.38q1.533-1.236,2.686-.137l.149.142q1.134,1.082-.009,2.689l-2.2,2.306-.067.22q2.2,2.238,3.276,3.265l.669.638q9.816,9.362,10.454,8.692a3.544,3.544,0,0,0,2.152-1.214q2.376-2.492-.5-8.71-2.521-3.611-1.918-4.243-.131-.123.347-.662l.355-.372q.851-.893,2.473.087,1.431,1.365,3.649,6.745,1.626,6.484-1.725,10a6.475,6.475,0,0,1-6.273,2.112q-1.358.268-11.563-9.465L32.546,166.7a.091.091,0,0,1,0-.145.091.091,0,0,0-.145,0l-.3-.429-.223-.212q-3.12,3.272-3.566,2.846a1.964,1.964,0,0,1-1.318-.405,1.687,1.687,0,0,1-.059-2.469,31.6,31.6,0,0,1,2.334-2.745q-3.726-3.836-2.946-4.654A1.938,1.938,0,0,1,26.808,157.679Z"/><path d="M40.128,142.757q1.648-.926,2.542.1a58.911,58.911,0,0,1,2.181,6.413q2.256,6.621,1.7,7.109c.1.117-.064.4-.495.84l-.077.068q-1.675,1.05-2.755-.19a32.536,32.536,0,0,1-1.565-4.769,73.083,73.083,0,0,1-2.118-8.376A4.177,4.177,0,0,1,40.128,142.757Z"/><path d="M56.775,145.329l.085-.058q2.879-1.978,6.192.482a8.985,8.985,0,0,1,1.593,1.773q.915,1.742-.334,2.6a1.688,1.688,0,0,1-2.429-.45q-1.624-2-2.641-1.3l-.169.116q-1.292.888-.694,3.345a3.162,3.162,0,0,0,.381.735,4.152,4.152,0,0,0,2.7,1.387q8.3,1.557,8.928,2.467,5.249-5.788,4.636-6.678.466-.32-1.089-4.488a1.936,1.936,0,0,1,.773-1.778l.169-.117q1.249-.858,2.63.562a14.6,14.6,0,0,1,1.524,4.937,9.009,9.009,0,0,1-2.223,6.017q-2.493,3.087-3.981,4.731.689,2.77-1.2,4.065-1.589,1.09-3.546-.805l-.233-.339a2.754,2.754,0,0,1,.1-2.937l.085-.058a45.639,45.639,0,0,0-8.007-1.853q-3.237-1.08-4.255-2.562l-.524-.763q-1.907-2.772-.243-7.064A6.79,6.79,0,0,1,56.775,145.329Z"/><path d="M89.585,127.639q2.238-.838,4.726,1.193a5.3,5.3,0,0,1,1.273,1.937q1.668,4.45-3.1,10.485a.808.808,0,0,0-.252.205q2.608,2.863,4.725,2.071l.193-.072q3.584-1.343,5.452-8.3.2-4.242.844-4.486l.542-.312.288-.108q1.762-.276,2.213.927l.144.385q.489,2.917-1.3,7.949-2.6,6.021-6.811,7.6-5.63,2.108-10.617-4.913a10.4,10.4,0,0,1-.913-1.852l-.4-1.059q-2.414-6.447,1.208-10.547A6.77,6.77,0,0,1,89.585,127.639Zm.632,10.187.072.192q2.4-3.835,1.567-6.073a1.277,1.277,0,0,0-1-.613q-1.2.45-1.3,3.559A11.783,11.783,0,0,0,90.217,137.826Z"/><path d="M115.62,120.575l.1-.021q2.328-.535,3.085,5.761.672,3.746,1.3,6.763.833,3.132,2.076,2.927l.6-.125q2.112-.44,3.32-6.252.036-3.364,1.747-3.72,1.974-.1,2.287,1.414.366,1.761-1.179,6.961-1.7,4.446-5.361,5.521a5.773,5.773,0,0,1-5.473-1.593,2.552,2.552,0,0,1-.611-.923,9.683,9.683,0,0,1-1.75,3.2,7.062,7.062,0,0,1-3.33,2.161q-3.4.7-6.637-3.661a12.5,12.5,0,0,1-1.539-3.878q-1.494-7.194,2.373-11.827A5.111,5.111,0,0,1,109,122.054l.1-.021a7.02,7.02,0,0,1,5.146,1.03l.1-.02Q113.909,120.929,115.62,120.575Zm-7.753,14.793a4.33,4.33,0,0,0,3.051,3.512q2.335.631,3.25-2.734a17.888,17.888,0,0,0,.24-7.566q-.675-4.2-4.615-2.7a5.879,5.879,0,0,0-2.055,3.811A12.564,12.564,0,0,0,107.867,135.368Z"/><path d="M132.612,117.7l.1-.005q3.49-.156,5,3.685a8.956,8.956,0,0,1,.414,2.348q-.144,1.961-1.658,2.028t-1.823-1.667q-.321-2.556-1.552-2.5l-.205.009q-1.566.07-2.358,2.472a3.18,3.18,0,0,0-.066.826,4.156,4.156,0,0,0,1.556,2.6q6.222,5.712,6.272,6.816,7.515-2.136,7.467-3.215.566-.025,1.45-4.385a1.937,1.937,0,0,1,1.6-1.1l.206-.01q1.513-.066,1.935,1.868a14.6,14.6,0,0,1-1.32,5,9.011,9.011,0,0,1-5.069,3.93q-3.749,1.3-5.881,1.909-.88,2.713-3.165,2.817-1.925.085-2.583-2.56l-.019-.41a2.754,2.754,0,0,1,1.64-2.439l.1-.005a45.621,45.621,0,0,0-5.814-5.808q-2.176-2.628-2.256-4.425l-.041-.924q-.151-3.362,3.531-6.124A6.782,6.782,0,0,1,132.612,117.7Z"/><path d="M151.11,117.38q1.587.557,1.445,1.729l-.522,4.285-.165.5.1.013a.792.792,0,0,0-.139.293q-1.176,9.639.58,10.526-.032.256,1.149.761l.51.063q2.907.354,6.787-6.419.51-.79,2.647-5.577a2.793,2.793,0,0,1,1.744-.719q2,.606,1.8,2.187l-.05.407q-.716,10.11-1.008,12.507l-.261,2.142q4-1.608,6.568-7.17.741-3.326,1.43-3.241c.03-.238.424-.363,1.185-.373l.2.024q1.789.608,1.612,2.06-.51,4.183-4.486,8.77-3.683,3.457-6.513,4.174-.548.245-.56.346-1.1,9.027-6.123,11.158a8.463,8.463,0,0,1-4.217.624q-4.284-.522-5.038-5.376a5.476,5.476,0,0,1,.023-1.032l.087-.714q.556-4.566,7.69-7.033l4.038-.854.734-6.018-.04-.523.1.013a1.7,1.7,0,0,1,0-.828l-.1-.013q-4.011,5.929-9.034,5.317l-.2-.025q-3.57-.436-5.292-4.994a28.1,28.1,0,0,1-.051-8.908,42.19,42.19,0,0,1,1.6-7.156q.09-.738,1.667-.935Zm2.659,32.519-.062.51q.017,1.97,1.6,2.162,3.544.432,5.073-4.246a24.49,24.49,0,0,0,.642-2.717l-.1-.013q-4.914.825-6.708,3.219A3.7,3.7,0,0,0,153.769,149.9Z"/><path d="M182.733,140.992l.1.032q1.563.507,1.222,2.558-1.036,1.608-2.233,1.219l-.391-.127q-1.417-.461-1.156-2.428Q181.194,140.493,182.733,140.992Zm8.807-26.851q1.673.84,1.188,2.331l-1.239,3.811q-.374,1.149-3.691,10.362l-2.223,6.84q-.915,1.648-2.331,1.188l-.293-.095q-.88-.287-1.217-1.909.7-2.5,1.173-3.94l.539-1.662q5.925-16.982,6.731-16.721A2.8,2.8,0,0,1,191.54,114.141Z"/></svg>