<svg xmlns="http://www.w3.org/2000/svg" width="350.741" height="113.418" viewBox="0 0 350.741 113.418"><polygon points="37.491 0.672 43.779 0.672 43.779 47.646 37.021 47.646 37.021 11.096 22.578 29.253 21.335 29.253 6.725 11.096 6.725 47.646 0 47.646 0 0.672 6.367 0.672 21.975 19.964 37.491 0.672"/><path d="M78.611,0a23.714,23.714,0,0,1,17.4,6.893,23.345,23.345,0,0,1,6.95,17.283,22.955,22.955,0,0,1-7.015,17.2q-7.014,6.809-17.689,6.809A23.237,23.237,0,0,1,54.488,24.311q0-10.524,6.836-17.418A23.337,23.337,0,0,1,78.611,0m.259,6.389a17.109,17.109,0,0,0-12.72,5.044,17.551,17.551,0,0,0-4.982,12.878,17.229,17.229,0,0,0,5,12.643A16.894,16.894,0,0,0,78.676,42a16.922,16.922,0,0,0,12.591-5.143,17.57,17.57,0,0,0,5.046-12.812,17.152,17.152,0,0,0-5.046-12.558,16.774,16.774,0,0,0-12.4-5.094"/><path d="M129.662,47.646h-15.9V.673h12.306a21.416,21.416,0,0,1,9.079,1.564,11.6,11.6,0,0,1,4.976,4.3,11.686,11.686,0,0,1,1.716,6.337q0,6.929-7.163,9.919a14.53,14.53,0,0,1,8.188,4.238,11.041,11.041,0,0,1,3.043,7.8,11.466,11.466,0,0,1-1.849,6.421,13.458,13.458,0,0,1-5.43,4.606,20.031,20.031,0,0,1-8.962,1.783m-3.4-40.988h-5.784V20.781h4.473q5.379,0,7.649-2.052a6.827,6.827,0,0,0,2.27-5.312q0-6.76-8.608-6.759m.5,20.108h-6.289v14.9h6.625q5.514,0,7.481-.857a7.129,7.129,0,0,0,3.161-2.673,6.981,6.981,0,0,0,1.194-3.9,6.668,6.668,0,0,0-1.261-3.935,7.471,7.471,0,0,0-3.581-2.657,22.459,22.459,0,0,0-7.33-.873"/><path d="M172.763.4h4.726l21.064,47.241h-6.884l-6.261-13.92h-20.04l-5.87,13.92h-6.911Zm9.881,27.336-7.58-17.014L168.037,27.74Z"/><path d="M207.246,47.646V.672h11.768q7.128,0,11.315,3.531a11.845,11.845,0,0,1,4.186,9.55,12.233,12.233,0,0,1-2.051,7.094,12.233,12.233,0,0,1-5.885,4.473,20.724,20.724,0,0,1,4.406,4.035,81.531,81.531,0,0,1,6.053,8.909q2.452,4,3.933,6.02l2.488,3.362h-8l-2.048-3.094c-.068-.113-.2-.3-.4-.572L231.7,42.129,229.615,38.7l-2.251-3.667a36.585,36.585,0,0,0-3.816-4.605,14.534,14.534,0,0,0-3.13-2.467,10.578,10.578,0,0,0-4.7-.755h-1.75V47.646Zm8.743-41.257h-2.018V21.218h2.555q5.112,0,7.011-.876A6.55,6.55,0,0,0,226.5,17.7a7.661,7.661,0,0,0,1.06-4.018,7.187,7.187,0,0,0-1.177-4.019,6.294,6.294,0,0,0-3.312-2.537,23.888,23.888,0,0,0-7.078-.741"/><polygon points="252.408 0.672 279.038 0.672 279.038 6.658 259.133 6.658 259.133 20.982 278.367 20.982 278.367 27.001 259.133 27.001 259.133 41.594 279.677 41.594 279.677 47.578 252.408 47.578 252.408 0.672"/><polygon points="319.258 0.672 327.662 0.672 307.286 22.965 332.671 47.646 323.493 47.646 299.484 24.446 299.484 47.646 292.759 47.646 292.759 0.672 299.484 0.672 299.484 22.159 319.258 0.672"/><rect x="344.016" y="0.672" width="6.725" height="46.973"/><path d="M69.075,93.172l-5.116-3.109a23.272,23.272,0,0,1-6.853-5.785,10.965,10.965,0,0,1-2.037-6.548,11.577,11.577,0,0,1,3.854-9.024A14.413,14.413,0,0,1,68.94,65.237a18.956,18.956,0,0,1,10.809,3.309v7.642Q74.667,71.3,68.808,71.3a9.06,9.06,0,0,0-5.422,1.526,4.637,4.637,0,0,0-2.121,3.908,6.015,6.015,0,0,0,1.563,3.957,19.637,19.637,0,0,0,5.025,3.873L73,87.606Q81.6,92.747,81.6,100.692a12,12,0,0,1-3.788,9.192,13.859,13.859,0,0,1-9.849,3.534,20.691,20.691,0,0,1-12.694-4.284v-8.552q5.456,6.912,12.626,6.91a7.93,7.93,0,0,0,5.269-1.76,5.525,5.525,0,0,0,2.105-4.413Q75.271,97.026,69.075,93.172Z"/><path d="M119.446,65.844h8.174L110.247,88V112.88h-6.9V88L85.972,65.844H94.1L106.688,82.06Z"/><path d="M146.6,93.172l-5.117-3.109a23.266,23.266,0,0,1-6.852-5.785A10.965,10.965,0,0,1,132.6,77.73a11.577,11.577,0,0,1,3.854-9.024,14.413,14.413,0,0,1,10.017-3.469,18.959,18.959,0,0,1,10.809,3.309v7.642q-5.084-4.889-10.941-4.89a9.06,9.06,0,0,0-5.422,1.526,4.637,4.637,0,0,0-2.121,3.908,6.015,6.015,0,0,0,1.563,3.957,19.637,19.637,0,0,0,5.025,3.873l5.142,3.044q8.607,5.141,8.607,13.086a12,12,0,0,1-3.788,9.192,13.859,13.859,0,0,1-9.849,3.534,20.7,20.7,0,0,1-12.695-4.284v-8.552q5.457,6.912,12.626,6.91a7.931,7.931,0,0,0,5.27-1.76,5.525,5.525,0,0,0,2.1-4.413Q152.8,97.026,146.6,93.172Z"/><path d="M165.394,65.777h39.29v5.992h-16.4V112.88h-6.767V71.769H165.394Z"/><path d="M213.912,65.844h26.665v5.993H220.645V86.18h19.26v6.027h-19.26v14.612h20.574v5.994H213.912Z"/><path d="M289.377,65.844h6.3V112.88h-6.766v-36.6L274.444,94.463H273.2L258.568,76.281v36.6h-6.733V65.844h6.374l15.63,19.317Z"/></svg>