<svg xmlns="http://www.w3.org/2000/svg" xmlns:xlink="http://www.w3.org/1999/xlink" width="264.573" height="362.085" viewBox="0 0 264.573 362.085"><defs><clipPath id="a" transform="translate(0 -25.731)"><circle cx="176.529" cy="127" r="127" fill="none"/></clipPath></defs><g clip-path="url(#a)"><path d="M110.882,284.31c1.147-2.31,18.257-63.893,22.2-67.6s3.648-7.2,6.3-7.953,3.282-4.825,5.965-7.29,8.141-1.594,14.912,4.971S167.029,213,177.029,213s22.994-5.57,22.994-5.57,11.819-10.465,14.912-8.948.094,6.518,3.094,7.518,10,5,11,7,21.38,64.981,22.69,68.991,10.273,41.422,10.273,41.422L251.029,344h-127l-14.142-2.029s-11.7-3.854-9.278-14.912S110.882,284.31,110.882,284.31Z" transform="translate(0 -25.731)" fill="#ffe200"/><path d="M127.25,123.833c-.023.588-.074,1.179-.088,1.773s-.071,1.181-.076,1.775.112,1.181.115,1.775-.146,1.184-.134,1.778.2,1.177.222,1.77.059,1.18.088,1.772-.093,1.19-.055,1.781.176,1.174.222,1.765.113,1.177.168,1.767-.027,1.192.037,1.78.288,1.159.361,1.746.212,1.165.293,1.752.183,1.167.274,1.752.134,1.177.234,1.76.139,1.178.249,1.76.137,1.181.257,1.76.225,1.166.356,1.743.258,1.159.4,1.733.515,1.092.666,1.663.095,1.2.257,1.772.381,1.125.555,1.689.488,1.089.674,1.649.341,1.135.539,1.691.268,1.166.479,1.717.576,1.048.8,1.594.4,1.116.642,1.656.359,1.142.611,1.676.756.951,1.023,1.477.328,1.168.61,1.686.747.941,1.045,1.45.475,1.1.789,1.6.77.914,1.1,1.4.519,1.087.868,1.562.813.874,1.179,1.336.827.851,1.212,1.3.587,1.067.991,1.5.953.728,1.375,1.14.882.787,1.323,1.18.847.828,1.307,1.2.949.705,1.428,1.053.862.838,1.357,1.162,1.075.516,1.587.814,1.01.618,1.538.888,1.11.415,1.652.657,1.075.479,1.631.692,1.1.429,1.663.612,1.112.39,1.688.543,1.142.291,1.725.415,1.174.112,1.764.207,1.153.232,1.748.3,1.167.13,1.764.169,1.176.012,1.776.024,1.2.091,1.8.078c.318.841.065.9.1,1.8s.008.9.045,1.795.107.9.144,1.794.031.9.068,1.8.036.9.073,1.8-.058.9-.021,1.8-.091.907-.054,1.809.2.9.233,1.8" transform="translate(0 -25.731)" fill="none" stroke="#231815" stroke-linecap="round" stroke-linejoin="round" stroke-width="4.217"/><path d="M173.39,124.126c.123-.913.342-.887.213-1.832a2.744,2.744,0,0,0-.891-1.579,2.411,2.411,0,0,0-1.648-.649,2.587,2.587,0,0,0-1.835.571,4.239,4.239,0,0,0-1.065,1.634,8.93,8.93,0,0,0-.667,1.867,8,8,0,0,0-.094,1.987,4.06,4.06,0,0,0,.774,1.888,2.157,2.157,0,0,0,1.84.822,6.885,6.885,0,0,0,1.623-.407,1.9,1.9,0,0,0,1.211-1.016,4.725,4.725,0,0,0,.543-1.586A15.071,15.071,0,0,0,173.39,124.126Z" transform="translate(0 -25.731)" fill="#231815"/><path d="M194.889,123.869a6.127,6.127,0,0,0,.015-1.515,4.273,4.273,0,0,0-.586-1.381,1.644,1.644,0,0,0-1.085-.945,3.406,3.406,0,0,0-1.8.089,3.6,3.6,0,0,0-1.507,1.025,5.3,5.3,0,0,0-.825,1.62,6.282,6.282,0,0,0-.415,1.764c-.036.663.032,1.323.009,1.931a6.284,6.284,0,0,0,.087,1.91,1.694,1.694,0,0,0,1.311,1.209,3.179,3.179,0,0,0,1.751.175,3.784,3.784,0,0,0,1.42-1.042,4.053,4.053,0,0,0,1.189-1.316,8.158,8.158,0,0,0,.3-1.761A11.256,11.256,0,0,0,194.889,123.869Z" transform="translate(0 -25.731)" fill="#231815"/><path d="M199.3,193.094c-.513.122-1.009.247-1.494.342-.521.1-1.009.3-1.493.368-.531.076-.965.041-1.445.08a4.892,4.892,0,0,0,0,1.837c.05.926-.06.932-.01,1.858s.311.913.361,1.84.02.929.07,1.857-.133.937-.083,1.864.212.92.262,1.849.062.93.112,1.86.012.933.063,1.863" transform="translate(0 -25.731)" fill="none" stroke="#231815" stroke-linecap="round" stroke-linejoin="round" stroke-width="4.217"/><path d="M199.339,193.247c.581-.138,1.138-.379,1.714-.536s1.161-.288,1.732-.468,1.131-.385,1.694-.592,1.091-.481,1.644-.717,1.132-.389,1.673-.655.988-.674,1.514-.972,1.066-.526,1.575-.854q.739-.477,1.478-1.015c.473-.345.956-.7,1.427-1.084.453-.37.776-.906,1.227-1.315.432-.393.99-.67,1.42-1.1.412-.413.865-.809,1.274-1.258.393-.431.693-.962,1.084-1.429.374-.447.843-.837,1.216-1.318.357-.462.743-.923,1.1-1.418.341-.474.672-.976,1.012-1.482.326-.486.571-1.041.9-1.557.312-.5.721-.949,1.032-1.473.3-.5.414-1.128.711-1.66.286-.51.546-1.045.831-1.582.275-.518.614-1.013.888-1.555.264-.524.421-1.111.685-1.659.255-.53.73-.967.985-1.52.245-.534.319-1.156.564-1.711.238-.54.642-1.018.879-1.579.23-.543.371-1.134.6-1.7.22-.54.467-1.1.669-1.712.187-.561.361-1.151.531-1.761.161-.573.305-1.17.451-1.78.14-.583.348-1.167.475-1.777.122-.591.111-1.22.221-1.831s.261-1.194.356-1.806.187-1.209.268-1.821.169-1.215.237-1.827-.005-1.235.05-1.846.346-1.208.389-1.818-.157-1.246-.128-1.855.133-1.231.149-1.837c.016-.624.186-1.239.188-1.844,0-.626-.04-1.243-.056-1.842-.017-.63-.257-1.313-.292-1.906.575-.165,1.253-.252,1.808-.459s1.155-.353,1.69-.6,1.042-.607,1.555-.9.94-.752,1.426-1.082,1.042-.6,1.494-.971a17.8,17.8,0,0,0,1.372-1.148,14.271,14.271,0,0,0,1.03-1.464,11.7,11.7,0,0,0,.974-1.472,10.214,10.214,0,0,0,.93-1.531,8.082,8.082,0,0,0,.426-1.754,6.558,6.558,0,0,0-.659-3.509,8.031,8.031,0,0,0-.944-1.518,8.239,8.239,0,0,0-1.164-1.379,6.735,6.735,0,0,0-1.533-.981,6.659,6.659,0,0,0-1.768-.4,7.923,7.923,0,0,0-1.795,0,10.407,10.407,0,0,0-1.74.4,13.843,13.843,0,0,0-1.695.556c-.584.24-1.193.376-1.681.639a16.671,16.671,0,0,0-1.5.985" transform="translate(0 -25.731)" fill="none" stroke="#231815" stroke-linecap="round" stroke-linejoin="round" stroke-width="4.217"/><path d="M174.656,144.742a2.467,2.467,0,0,1,1.17-1.335,3.574,3.574,0,0,1,1.65-.631,3.973,3.973,0,0,1,1.766.148,6.534,6.534,0,0,1,1.669.7,10.169,10.169,0,0,1,1.609.942" transform="translate(0 -25.731)" fill="none" stroke="#231815" stroke-linecap="round" stroke-linejoin="round" stroke-width="4.217"/><path d="M171.363,160.059c.61.7.354.63,1.333,1.269a12.22,12.22,0,0,0,1.624.909,14.208,14.208,0,0,0,1.721.724c.548.17,1.191.175,1.841.3a17.839,17.839,0,0,0,1.82.383c.583.054,1.21.029,1.86.033.589,0,1.213.026,1.858-.02.59-.042,1.213-.1,1.852-.189.589-.082,1.185-.285,1.815-.412.586-.117,1.206-.191,1.828-.351" transform="translate(0 -25.731)" fill="none" stroke="#231815" stroke-linecap="round" stroke-linejoin="round" stroke-width="4.217"/><path d="M185.047,74.062a5.438,5.438,0,0,1,1.023-1.387,15.787,15.787,0,0,1,1.217-1.237c.406-.352.841-.749,1.336-1.113.445-.328.956-.618,1.466-.936.476-.3,1-.556,1.526-.828.5-.26,1.085-.37,1.63-.6.526-.217,1.022-.527,1.583-.7a17.042,17.042,0,0,1,1.667-.485,16.737,16.737,0,0,1,1.735-.095,7.21,7.21,0,0,1,3.434.095,14.133,14.133,0,0,1,1.738.152,16.186,16.186,0,0,1,1.57.768,15.785,15.785,0,0,1,1.612.632,8.353,8.353,0,0,1,1.492.977,9.818,9.818,0,0,1,1.229,1.294,12.29,12.29,0,0,1,1.113,1.406,16.936,16.936,0,0,1,.774,1.618c.245.525.371,1.114.582,1.686.2.546.408,1.1.583,1.682.167.559.245,1.15.391,1.738.142.569.405,1.118.529,1.709s.317,1.146.424,1.74.122,1.183.215,1.776.333,1.153.417,1.747,0,1.2.078,1.8.266,1.169.339,1.761.09,1.194.162,1.786.241,1.175.313,1.765-.053,1.214.024,1.8.291,1.171.374,1.756.191,1.185.285,1.765c.1.6.13,1.2.239,1.772.113.6.139,1.2.268,1.773.135.6.31,1.172.467,1.729.167.595.491,1.117.687,1.658.211.584.307,1.189.557,1.7a10.819,10.819,0,0,0,1.035,1.454,7.7,7.7,0,0,0,1.081,1.4,13.451,13.451,0,0,0,1.466,1.073,14.162,14.162,0,0,0,1.487,1.073,14.771,14.771,0,0,0,1.74.576,15.224,15.224,0,0,0,1.775.386,16.275,16.275,0,0,0,1.771.434,17.277,17.277,0,0,0,1.822-.106,18.125,18.125,0,0,0,1.832.154c.6-.067,1.187-.282,1.784-.409s1.2-.217,1.78-.4,1.138-.43,1.7-.666,1.152-.412,1.69-.7.906-.843,1.416-1.179,1.123-.506,1.6-.887.814-.9,1.253-1.328,1.01-.712,1.408-1.176" transform="translate(0 -25.731)" fill="none" stroke="#231815" stroke-linecap="round" stroke-linejoin="round" stroke-width="4.217"/><path d="M172.422,72.282a7.687,7.687,0,0,0-.843-1.548,15.641,15.641,0,0,0-.934-1.491,13.1,13.1,0,0,0-.977-1.486,11.569,11.569,0,0,0-1.246-1.284,9.823,9.823,0,0,0-1.519-.955,8.624,8.624,0,0,0-1.651-.71,8.4,8.4,0,0,0-1.779-.262,28.4,28.4,0,0,0-3.475.722,11.5,11.5,0,0,0-1.694.559,14,14,0,0,0-1.566.875,16.77,16.77,0,0,0-1.42,1.1c-.445.379-.769.9-1.2,1.34-.409.419-.9.773-1.294,1.24-.376.45-.767.905-1.123,1.4-.344.476-.673.978-1,1.491s-.608,1.021-.9,1.551-.556,1.051-.82,1.595-.512,1.074-.748,1.629-.544,1.068-.751,1.634-.326,1.151-.506,1.725-.355,1.141-.508,1.724-.1,1.2-.223,1.788-.268,1.158-.366,1.752-.262,1.165-.332,1.762c-.068.577-.256,1.15-.362,1.75-.1.574-.146,1.171-.282,1.763-.131.571-.179,1.176-.342,1.759-.158.566-.305,1.15-.493,1.724s-.493,1.087-.7,1.651-.308,1.16-.542,1.714-.629,1.024-.885,1.567-.54,1.059-.817,1.591-.6,1.027-.9,1.547-.419,1.14-.738,1.645-.661,1-1,1.49-.711.964-1.073,1.439-.748.935-1.133,1.391-.865.83-1.272,1.266-.828.858-1.257,1.272-.9.78-1.352,1.168-.921.751-1.4,1.111-.9.787-1.4,1.115-1,.662-1.515.955-1.022.629-1.561.884-1.116.433-1.674.647-1.129.381-1.7.551-1.122.432-1.71.555-1.2.078-1.793.153-1.173.245-1.776.271" transform="translate(0 -25.731)" fill="none" stroke="#231815" stroke-linecap="round" stroke-linejoin="round" stroke-width="4.217"/><path d="M179.287,29.192a12.145,12.145,0,0,0-1.715-.5c-.493-.087-1.1-.114-1.772-.209-.537-.075-1.133-.112-1.773-.182-.556-.06-1.142-.191-1.768-.24-.565-.044-1.168.107-1.784.078-.573-.028-1.16-.2-1.771-.21-.577-.011-1.173-.1-1.782-.091-.58.007-1.177.046-1.782.071-.582.025-1.174.124-1.777.168-.583.043-1.187-.011-1.787.053-.583.062-1.163.241-1.759.325s-1.156.255-1.748.359-1.177.141-1.765.267-1.113.429-1.694.576-1.218.04-1.793.21-1.086.5-1.654.694-1.131.355-1.69.571-1.075.5-1.624.738-1.091.46-1.629.725-1.082.486-1.607.774-1.03.586-1.541.9-.993.646-1.489.982-.884.794-1.364,1.153-1.123.487-1.586.868-.863.821-1.308,1.224-.714.965-1.14,1.39-.857.81-1.262,1.254-.846.828-1.231,1.29-.744.917-1.108,1.4-.675.969-1.019,1.463-.767.912-1.091,1.421-.617,1.01-.919,1.531-.562,1.045-.845,1.579-.525,1.062-.788,1.606-.529,1.058-.778,1.581-.44,1.1-.687,1.625-.483,1.079-.726,1.606-.571,1.039-.812,1.567-.444,1.1-.681,1.626c-.245.544-.574,1.041-.809,1.57-.241.546-.3,1.163-.528,1.693-.239.547-.493,1.077-.722,1.608-.236.548-.628,1.019-.854,1.551-.234.549-.43,1.1-.653,1.636-.232.551-.306,1.156-.527,1.688-.23.551-.689,1-.908,1.528-.229.553-.241,1.183-.459,1.715-.227.555-.463,1.093-.68,1.625-.227.557-.551,1.059-.769,1.591-.227.557-.4,1.122-.619,1.653-.229.557-.621,1.03-.841,1.559-.232.557-.225,1.2-.449,1.723-.237.556-.584,1.045-.814,1.566-.244.553-.464,1.1-.7,1.611-.254.55-.565,1.05-.816,1.559-.269.544-.6,1.029-.869,1.527-.289.534-.42,1.131-.714,1.614-.316.519-.719.955-1.047,1.416-.35.494-.771.9-1.142,1.327a15.014,15.014,0,0,1-1.145,1.322,12.825,12.825,0,0,1-1.324,1.154,12.405,12.405,0,0,1-1.507.91,13.767,13.767,0,0,1-1.62.7c-.535.182-1.154.127-1.747.259-.55.123-1.109.261-1.714.343" transform="translate(0 -25.731)" fill="none" stroke="#231815" stroke-linecap="round" stroke-linejoin="round" stroke-width="4.217"/><path d="M128.17,77.661a9.735,9.735,0,0,1,.234,1.771c0,.5-.17,1.1-.209,1.773-.031.544-.063,1.135-.129,1.767-.058.56-.169,1.141-.264,1.755-.087.565-.037,1.177-.161,1.777-.116.566-.286,1.139-.44,1.727-.147.563-.424,1.1-.611,1.673-.18.556-.293,1.144-.514,1.7s-.389,1.12-.647,1.663-.563,1.042-.859,1.563-.651.986-.987,1.483-.625,1-1,1.472-.831.838-1.246,1.272-.862.793-1.316,1.189-.893.752-1.382,1.106c-.473.341-.87.815-1.39,1.124-.5.3-1.036.563-1.582.826-.523.252-1.071.487-1.636.7-.542.209-1.158.23-1.74.4-.556.167-1.082.49-1.677.623-.564.127-1.142.289-1.742.383-.574.09-1.19-.031-1.8.027-.579.056-1.158.325-1.768.351" transform="translate(0 -25.731)" fill="none" stroke="#231815" stroke-linecap="round" stroke-linejoin="round" stroke-width="4.217"/><path d="M191.61,28.8a15.41,15.41,0,0,1,1.774-.067c.5-.006,1.1.008,1.781.025.544.013,1.139-.006,1.784.031.56.032,1.158.01,1.785.065.566.049,1.151.166,1.766.239.571.067,1.162.121,1.769.211.573.085,1.183.046,1.784.154.573.1,1.135.337,1.73.462.572.121,1.175.155,1.765.3.569.138,1.176.189,1.759.351.566.157,1.069.564,1.645.745s1.181.2,1.751.4,1.058.557,1.62.777,1.115.4,1.667.644,1.137.371,1.68.631,1.044.574,1.577.855.971.7,1.492,1,1.03.584,1.538.907,1.112.472,1.606.815.942.731,1.421,1.094.816.879,1.279,1.263,1.036.615,1.482,1.018.836.847,1.264,1.269.772.9,1.182,1.344.843.837,1.233,1.3.87.826,1.241,1.3.563,1.062.913,1.553.834.868,1.163,1.374.494,1.09.8,1.609.739.946,1.027,1.477.343,1.158.611,1.7.746.96.992,1.511.456,1.1.682,1.664.237,1.182.444,1.751.586,1.092.788,1.655c.209.583.474,1.134.674,1.7.207.584.192,1.234.389,1.8.2.585.462,1.14.656,1.7.2.588.329,1.187.52,1.752.2.588.624,1.087.812,1.652.2.591.375,1.173.56,1.738.194.591.339,1.184.521,1.748.191.593.311,1.193.489,1.757.189.594.369,1.174.544,1.737.187.6.275,1.206.448,1.769.184.6.5,1.138.672,1.7q.274.9.528,1.743c.182.607.443,1.164.61,1.724.181.609.335,1.2.5,1.752.183.611.25,1.224.418,1.773.189.617.482,1.159.656,1.7.2.619.23,1.245.417,1.776.219.622.543,1.142.757,1.655a14.987,14.987,0,0,0,.79,1.629,7.455,7.455,0,0,0,1.04,1.46,5.236,5.236,0,0,0,1.408,1.1,7.33,7.33,0,0,0,1.678.645,17.641,17.641,0,0,0,1.8.221" transform="translate(0 -25.731)" fill="none" stroke="#231815" stroke-linecap="round" stroke-linejoin="round" stroke-width="4.217"/><path d="M158.306,202.973c.3.833.317.594.881,1.542a15.7,15.7,0,0,0,1,1.457,14.775,14.775,0,0,0,1.029,1.454c.381.4.9.722,1.374,1.128.426.366.939.662,1.444,1.015.464.324.918.7,1.453,1,.5.279,1.021.546,1.58.8.519.234,1.1.37,1.674.572.537.189,1.076.429,1.666.585.552.145,1.115.335,1.715.446.563.1,1.139.285,1.745.356.569.067,1.171.026,1.78.059.573.032,1.166-.017,1.776-.017.592,0,1.184.093,1.769.068s1.182-.067,1.765-.115,1.179-.109,1.759-.179,1.18-.122,1.757-.214,1.141-.345,1.713-.457,1.192-.089,1.759-.219,1.135-.352,1.7-.5c.577-.153,1.146-.307,1.7-.472.573-.171,1.09-.486,1.638-.667.57-.188,1.175-.238,1.717-.434.568-.207,1.121-.416,1.655-.626.565-.224,1.066-.558,1.59-.782.563-.24,1.167-.33,1.679-.565.564-.26.994-.727,1.491-.972.569-.281,1.119-.492,1.593-.743.594-.315,1.136-.55,1.566-.8.972-.557,1.525-.888,1.525-.888" transform="translate(0 -25.731)" fill="none" stroke="#231815" stroke-linecap="round" stroke-linejoin="round" stroke-width="4.217"/><path d="M150.525,196.9a3.991,3.991,0,0,0-1.669.91,10.174,10.174,0,0,0-1.167,1.489,7.635,7.635,0,0,0-1.252,1.423,9.491,9.491,0,0,0-.439,1.843,9.762,9.762,0,0,0-.267,1.841,11.965,11.965,0,0,0-.01,1.889c-.528.789-.776.122-1.83.584-.506.221-1.082.524-1.715.826-.539.258-1.006.752-1.587,1.058-.552.29-1.116.581-1.664.906s-1.15.577-1.659.93a16.641,16.641,0,0,0-1.559,1.1,7.484,7.484,0,0,0-1.287,1.421,13.3,13.3,0,0,0-.734,1.634c-.187.464-.306,1.055-.548,1.691-.191.5-.463,1.034-.686,1.638-.191.52-.307,1.108-.521,1.7-.192.53-.413,1.08-.622,1.664-.191.536-.278,1.133-.482,1.712-.19.539-.559,1.035-.759,1.609-.19.542-.417,1.089-.615,1.661-.189.545-.248,1.15-.444,1.721-.189.548-.352,1.116-.547,1.687-.188.549-.544,1.052-.737,1.622-.188.551-.27,1.147-.462,1.716-.187.552-.367,1.116-.558,1.684s-.462,1.086-.652,1.654-.43,1.1-.619,1.664-.316,1.136-.5,1.7-.355,1.124-.542,1.691-.291,1.145-.477,1.712-.419,1.1-.605,1.671-.252,1.158-.436,1.725-.538,1.066-.722,1.633-.173,1.181-.355,1.745-.543,1.063-.725,1.628-.343,1.128-.524,1.693-.307,1.14-.487,1.705-.493,1.082-.672,1.648-.09,1.21-.268,1.776-.569,1.06-.746,1.626-.291,1.148-.468,1.714-.311,1.142-.487,1.709-.237,1.162-.412,1.728-.578,1.059-.753,1.625-.135,1.2-.308,1.762-.565,1.066-.738,1.633-.288,1.152-.46,1.719-.394,1.121-.565,1.689-.223,1.172-.394,1.74-.306,1.149-.475,1.717-.307,1.149-.475,1.718-.284,1.156-.452,1.725-.5,1.094-.663,1.664-.417,1.118-.582,1.688-.269,1.162-.433,1.732-.308,1.151-.471,1.721-.421,1.119-.582,1.69-.147,1.2-.307,1.767-.3,1.155-.454,1.725-.539,1.088-.7,1.659-.14,1.2-.3,1.768-.367,1.136-.521,1.706-.3,1.154-.45,1.724-.436,1.119-.585,1.689-.275,1.16-.421,1.73-.257,1.165-.4,1.735-.216,1.173-.358,1.743-.428,1.121-.567,1.69-.1,1.2-.231,1.77-.226,1.168-.357,1.736c-.135.585-.313,1.15-.44,1.719-.132.587-.416,1.131-.539,1.7-.128.59-.169,1.187-.287,1.756-.123.591-.063,1.206-.175,1.774-.117.594-.406,1.141-.511,1.707-.11.6-.241,1.175-.337,1.74-.1.6-.263,1.177-.349,1.741-.092.609.071,1.229,0,1.792-.078.616-.368,1.178-.421,1.735-.059.627-.031,1.223-.056,1.771-.029.645-.032,1.25-.011,1.779.313.817.333.6.975,1.468.3.4.676.862,1.07,1.385.328.435.77.838,1.145,1.328.343.447.592,1,.962,1.47.355.453.823.831,1.192,1.29s.729.921,1.1,1.367.654,1,1.027,1.432c.4.46.841.861,1.218,1.266.433.466.855.885,1.238,1.245a7.415,7.415,0,0,0,1.415,1.024c.234.837-.02.875.064,1.74s.232.851.316,1.716.059.868.142,1.733.1.861.189,1.723.016.873.1,1.738,0,.873.084,1.737.112.863.2,1.728.117.864.2,1.73-.014.875.07,1.74.306.846.39,1.713-.033.88.051,1.749-.527,1.248.135,1.816.951-.1,1.83-.145.873-.137,1.751-.178.883.052,1.762.01.886.078,1.765.036.875-.117,1.754-.158.871-.237,1.752-.279.882-.032,1.764-.074.889.093,1.771.051" transform="translate(0 -25.731)" fill="none" stroke="#231815" stroke-linecap="round" stroke-linejoin="round" stroke-width="4.217"/><path d="M226.587,347.579c.311-.854.3-.858.611-1.712s.145-.915.456-1.77.277-.866.588-1.721.428-.809.738-1.661.324-.85.635-1.706.327-.847.638-1.7.2-.895.511-1.75.427-.813.738-1.669.39-.826.7-1.68.244-.882.555-1.738.214-.894.526-1.752.453-.81.738-1.677c.127-.567.281-1.147.391-1.733s.125-1.17.217-1.758.257-1.15.332-1.74.169-1.165.23-1.756-.089-1.188-.042-1.78.277-1.159.312-1.751-.131-1.182-.107-1.774.06-1.172.074-1.764.142-1.174.147-1.766.068-1.178.064-1.769-.07-1.178-.082-1.769-.2-1.173-.224-1.763.148-1.186.12-1.776.006-1.182-.028-1.772-.069-1.179-.11-1.768-.191-1.171-.237-1.759-.26-1.163-.312-1.75.156-1.2.1-1.787-.346-1.157-.408-1.744.088-1.2.021-1.783-.249-1.162-.321-1.745-.115-1.178-.191-1.76-.06-1.188-.14-1.769-.221-1.167-.306-1.747-.127-1.182-.215-1.76-.4-1.14-.49-1.718-.237-1.164-.332-1.74-.1-1.188-.2-1.763c-.1-.59-.151-1.181-.253-1.753q-.159-.886-.318-1.741c-.11-.591-.086-1.2-.195-1.764-.114-.593-.251-1.169-.363-1.733-.118-.6-.309-1.16-.424-1.72-.123-.6-.251-1.179-.369-1.737-.127-.6-.183-1.195-.3-1.745-.132-.611-.242-1.193-.363-1.733-.14-.624-.286-1.2-.406-1.718-.154-.662-.354-1.222-.47-1.7a6.868,6.868,0,0,0-.611-1.7" transform="translate(0 -25.731)" fill="none" stroke="#231815" stroke-linecap="round" stroke-linejoin="round" stroke-width="4.217"/><path d="M132.163,258.705c-.22.853-.15.607-.417,1.714-.116.481-.138,1.084-.292,1.746-.121.522-.358,1.075-.5,1.7-.121.54-.141,1.14-.274,1.75-.119.549-.327,1.108-.454,1.711-.117.555-.232,1.134-.354,1.732-.115.56-.166,1.151-.284,1.746-.112.563-.128,1.159-.242,1.751-.109.566-.335,1.123-.445,1.713-.1.569-.328,1.128-.434,1.717-.1.571-.067,1.177-.168,1.766-.1.573-.26,1.144-.358,1.732s-.063,1.178-.157,1.766-.362,1.131-.451,1.72-.05,1.18-.136,1.769-.116,1.17-.2,1.758-.256,1.15-.333,1.737-.163,1.165-.235,1.753.033,1.188-.035,1.776-.281,1.154-.344,1.742-.156,1.169-.213,1.758-.061,1.18-.113,1.769-.117,1.174-.164,1.764-.115,1.175-.156,1.765.085,1.188.051,1.777-.217,1.172-.244,1.761.081,1.187.061,1.776-.144,1.179-.156,1.768-.113,1.184-.117,1.773.084,1.186.089,1.774.067,1.184.081,1.772.1,1.18.127,1.766,0,1.185.038,1.77.158,1.176.2,1.76.042,1.185.1,1.767.128,1.177.2,1.757-.032,1.2.058,1.781.378,1.139.486,1.712.044,1.213.171,1.781c.284.863.452.806.763,1.66s.311.855.622,1.71.325.849.636,1.7.349.838.659,1.691.3.859.609,1.714.191.9.5,1.751.4.824.708,1.679.228.886.539,1.741.445.806.756,1.661.152.914.464,1.771.4.826.712,1.684.2.9.512,1.756" transform="translate(0 -25.731)" fill="none" stroke="#231815" stroke-linecap="round" stroke-linejoin="round" stroke-width="4.217"/><path d="M134.244,343.367a10.168,10.168,0,0,1,1.872.241c.487.1,1.023.448,1.7.582.528.106,1.14.074,1.776.2.545.1,1.133.187,1.753.3.556.1,1.124.3,1.736.406.563.1,1.131.305,1.739.406.568.1,1.17.1,1.775.195.571.091,1.151.233,1.754.326.575.087,1.191-.017,1.793.071.577.084,1.153.253,1.753.336.579.08,1.158.236,1.758.315.58.077,1.157.255,1.756.33.582.072,1.2-.115,1.8-.044.583.068,1.148.357,1.747.423.584.065,1.193-.033,1.791.029s1.181.071,1.779.128,1.168.217,1.765.27,1.169.243,1.766.291,1.189,0,1.786.045,1.178.154,1.775.192,1.2-.183,1.8-.148,1.169.29,1.764.32,1.183.044,1.779.068,1.192-.181,1.787-.162,1.18.211,1.776.225,1.187,0,1.783.009,1.187.1,1.783.1,1.188-.105,1.784-.108,1.187-.073,1.783-.082,1.187-.047,1.783-.063,1.189,0,1.784-.026,1.187-.075,1.782-.1,1.188-.05,1.782-.085,1.2.106,1.794.064,1.187-.1,1.78-.147,1.191-.071,1.783-.128,1.175-.225,1.766-.29,1.2,0,1.792-.071,1.165-.288,1.754-.37,1.168-.244,1.755-.336,1.2-.066,1.782-.167,1.186-.15,1.769-.261,1.168-.244,1.75-.365,1.175-.218,1.753-.35,1.148-.339,1.724-.482,1.154-.3,1.726-.458,1.133-.378,1.7-.546,1.12-.406,1.685-.586,1.117-.41,1.677-.6" transform="translate(0 -25.731)" fill="none" stroke="#231815" stroke-linecap="round" stroke-linejoin="round" stroke-width="4.217"/><path d="M121.484,367a11.132,11.132,0,0,0-.01,1.8c-.02.512.038,1.114.062,1.787.019.553.035,1.15.1,1.783.061.567.066,1.171.181,1.782.107.569.247,1.153.411,1.744.156.563.437,1.1.655,1.667a16.683,16.683,0,0,0,.638,1.674,15.626,15.626,0,0,0,.822,1.6,15.187,15.187,0,0,0,1.15,1.386,14.557,14.557,0,0,0,1.218,1.319,15.557,15.557,0,0,0,1.506.979,14.81,14.81,0,0,0,1.37,1.189" transform="translate(0 -25.731)" fill="none" stroke="#231815" stroke-linecap="round" stroke-linejoin="round" stroke-width="4.217"/><path d="M212.865,196.936c.882.326.7.322,1.588,1a8.2,8.2,0,0,1,1.368,1.275,7.932,7.932,0,0,1,1.126,1.521,8.684,8.684,0,0,1,.663,1.783,10.6,10.6,0,0,1,.118,1.888,11.912,11.912,0,0,1,0,1.881s.684.236,1.739.7c.505.222,1.068.544,1.7.847.54.258,1.063.633,1.644.938.552.291,1.24.372,1.788.7s1.058.741,1.567,1.094a14.925,14.925,0,0,1,1.431,1.253,6.808,6.808,0,0,1,1.18,1.444,6.642,6.642,0,0,1,.885,1.522c.187.464.237,1.08.478,1.716.191.5.581.989.8,1.593q.286.78.607,1.668.288.8.6,1.671c.191.536.377,1.1.582,1.677.19.539.455,1.071.656,1.645.189.543.307,1.127.506,1.7.189.545.246,1.15.443,1.721.188.547.521,1.058.716,1.628.188.549.385,1.107.578,1.676.187.551.361,1.117.553,1.686.187.552.451,1.087.642,1.656.186.553.15,1.19.34,1.758s.359,1.12.548,1.688.511,1.07.7,1.638.313,1.137.5,1.7.485,1.082.671,1.649.306,1.14.492,1.707.284,1.148.468,1.715.305,1.142.489,1.709.4,1.1.586,1.67.485,1.081.667,1.646.368,1.12.549,1.685.195,1.176.375,1.741.546,1.065.725,1.631.176,1.183.354,1.749.612,1.046.79,1.612.191,1.179.368,1.745.392,1.117.568,1.683.273,1.152.448,1.718.482,1.088.656,1.654.229,1.168.4,1.735.38,1.122.553,1.689.407,1.115.579,1.683.424,1.111.595,1.679.229,1.171.4,1.739.312,1.147.482,1.715.467,1.1.635,1.67.207,1.18.374,1.749.413,1.119.579,1.688.159,1.194.324,1.763.561,1.078.725,1.648.07,1.219.232,1.789.518,1.092.679,1.662.233,1.173.393,1.743.473,1.106.631,1.676.235,1.172.391,1.743.145,1.2.3,1.767.541,1.088.694,1.659.33,1.146.481,1.716.268,1.162.417,1.733.23,1.172.376,1.742.28,1.158.425,1.727.419,1.124.561,1.693.18,1.182.318,1.751.408,1.126.544,1.695.193,1.177.324,1.745c.136.584.115,1.2.243,1.764.131.587.462,1.12.585,1.689.128.589,0,1.221.121,1.79.123.591.392,1.14.5,1.708.117.594.218,1.177.323,1.744.11.6.292,1.165.388,1.73.1.6.037,1.211.122,1.775.092.609.355,1.171.427,1.733.078.616-.031,1.223.021,1.78.059.627.1,1.211.128,1.759.029.645.082,1.222.061,1.751-.313.817-.319.589-.961,1.457-.3.4-.8.767-1.2,1.29-.328.435-.591.973-.966,1.463-.343.447-.749.875-1.12,1.347-.354.453-.641.974-1.01,1.433s-.686.957-1.057,1.4-.78.9-1.153,1.326c-.4.461-.921.783-1.3,1.188-.434.465-.772.957-1.154,1.317a8.255,8.255,0,0,1-1.294,1.095,6.545,6.545,0,0,0-.273,1.706c-.084.865-.035.87-.119,1.735s-.044.869-.128,1.734-.168.855-.251,1.718-.077.866-.161,1.732-.131.86-.214,1.724.122.885.038,1.751-.228.852-.312,1.719-.058.868-.141,1.733-.021.873-.1,1.74-.07.87-.154,1.739.475,1.248-.188,1.816-.955-.126-1.834-.168-.876-.077-1.753-.119-.884.073-1.763.031-.873-.186-1.753-.228-.882.039-1.761,0-.876-.135-1.756-.177-.88-.095-1.762-.137-.888.077-1.77.035" transform="translate(0 -25.731)" fill="none" stroke="#231815" stroke-linecap="round" stroke-linejoin="round" stroke-width="4.217"/><path d="M241.7,367.032c.137.883.33.654.373,1.76.019.512-.02,1.124-.043,1.8-.019.554-.2,1.144-.271,1.777-.062.567-.147,1.155-.261,1.766-.107.569-.125,1.18-.289,1.771-.157.563-.466,1.09-.683,1.659a17.04,17.04,0,0,1-.636,1.676,16.236,16.236,0,0,1-1,1.484,14.614,14.614,0,0,1-.892,1.572,14.954,14.954,0,0,1-1.345,1.2,14.7,14.7,0,0,1-1.419,1.088,15.092,15.092,0,0,1-1.476,1.015" transform="translate(0 -25.731)" fill="none" stroke="#231815" stroke-linecap="round" stroke-linejoin="round" stroke-width="4.217"/><path d="M202.015,49.713a5.9,5.9,0,0,1,1.677-.683,16.2,16.2,0,0,1,1.782-.286,12.011,12.011,0,0,1,1.775-.244,11.5,11.5,0,0,1,1.79.1,10.854,10.854,0,0,1,1.739.406,10.457,10.457,0,0,1,1.774.411,11.9,11.9,0,0,1,1.544.959,14.322,14.322,0,0,1,1.243,1.319,14.577,14.577,0,0,1,1.251,1.275,16.623,16.623,0,0,1,1.234,1.32c.326.474.724.943,1.035,1.49.284.5.415,1.114.686,1.679.249.522.439,1.092.675,1.671.219.537.4,1.108.6,1.7.191.55.405,1.109.584,1.706.171.569.273,1.152.434,1.713s.568,1.069.722,1.632.276,1.152.422,1.716.078,1.2.218,1.766.5,1.1.636,1.664.164,1.179.293,1.747.29,1.15.414,1.718c.128.584.158,1.181.278,1.749.125.585.417,1.126.535,1.694.121.587.128,1.187.243,1.754.121.588.337,1.145.452,1.71.12.59.152,1.184.268,1.747.122.59.172,1.181.292,1.741.126.592.408,1.133.534,1.69.135.593.318,1.152.455,1.7.148.594.12,1.209.273,1.751.168.594.423,1.132.6,1.661.2.592.4,1.144.623,1.651a12.541,12.541,0,0,0,.784,1.578,6.285,6.285,0,0,0,1.187,1.277c.45.418.816.952,1.365,1.134a4.564,4.564,0,0,0,1.787.055" transform="translate(0 -25.731)" fill="none" stroke="#231815" stroke-linecap="round" stroke-linejoin="round" stroke-width="4.217"/></g><path d="M7.6,122.918s-4.24,2.97-5.167,6.289,18.112,90.884,18.112,90.884-.548,4.169,4.31,5.815,41.858-7.481,41.858-7.481a4.747,4.747,0,0,0,3.378-4.209c.424-3.53-3.543-19.96-3.543-19.96,15.237-1.7,27.3-23.991,17.179-38.83-6.794-12.421-18.576-13.978-27.812-13.446l-4.458-21.371s-2.576-3.635-5.165-4.554S7.6,122.918,7.6,122.918Z" transform="translate(0 -25.731)" fill="#fff"/><path d="M19.4,214.629s1.162,6.064,3.343,9.148,2.819,1.28,5.6,2S67.8,218.9,67.8,218.9s2.62-1.674,2.283-6.065a48.5,48.5,0,0,0-1.511-8.488Z" transform="translate(0 -25.731)" fill="#fff"/><path d="M3.661,139.361s-1.365-6.021-.6-9.721,2.07-2.3,4.33-4.071,38.9-9.514,38.9-9.514,3.071.484,4.522,4.641a48.461,48.461,0,0,1,2.017,8.383Z" transform="translate(0 -25.731)" fill="#fff"/><path d="M52.827,142.641a26.767,26.767,0,1,0,33.714,17.213A26.767,26.767,0,0,0,52.827,142.641ZM67.14,186.818a19.671,19.671,0,1,1,12.65-24.777A19.67,19.67,0,0,1,67.14,186.818Z" transform="translate(0 -25.731)" fill="#ffe200"/><path d="M71.635,126.148a1.2,1.2,0,0,0-1.386-.832,1.175,1.175,0,0,0-.9,1.316,12.161,12.161,0,0,0,.94,4.235,2.07,2.07,0,0,0,.4.526,1.367,1.367,0,0,0,1.5.15,1.324,1.324,0,0,0,.686-1.476A15.813,15.813,0,0,0,71.635,126.148Z" transform="translate(0 -25.731)" fill="#ffe200"/><path d="M93.973,138.088a11.881,11.881,0,0,0-4.318,1.145,1.245,1.245,0,0,0-.725,1.652,1.345,1.345,0,0,0,1.721.879,13.552,13.552,0,0,0,3.507-1.272,6.161,6.161,0,0,0,.75-.555C95.508,138.945,95.011,138.038,93.973,138.088Z" transform="translate(0 -25.731)" fill="#ffe200"/><path d="M80.678,125.741a1.049,1.049,0,0,0-1.247.594,12.74,12.74,0,0,0-1.465,4.039,1.288,1.288,0,0,0,.969,1.541c.763.216,1.269-.184,1.673-.907a14.927,14.927,0,0,0,.844-4C81.462,126.444,81.324,125.915,80.678,125.741Z" transform="translate(0 -25.731)" fill="#ffe200"/><path d="M89.013,130.251c-.664-.545-1.293-.1-1.776.34a30.218,30.218,0,0,0-2.325,2.383c-.6.681-.845,1.51,0,2.178.829.656,1.592.248,2.17-.441.687-.818,1.309-1.69,1.827-2.365C89.354,131.518,89.729,130.838,89.013,130.251Z" transform="translate(0 -25.731)" fill="#ffe200"/><path d="M23.438,129.486c1.5-.167,2.992-.548,4.472-.85s2.985-.572,4.449-.958a1.482,1.482,0,1,0-.607-2.9c-1.495.232-2.98.588-4.46.905s-2.994.564-4.437,1.013a1.426,1.426,0,0,0,.583,2.791Z" transform="translate(0 -25.731)"/><path d="M45.439,214.888a2.058,2.058,0,0,0-1.519,2.766,2.007,2.007,0,0,0,2.5,1.513,2.2,2.2,0,1,0-.977-4.279Z" transform="translate(0 -25.731)"/><path d="M40.831,170.652a20.132,20.132,0,0,0,24.138,17.254h0a20.159,20.159,0,1,0-24.14-17.254ZM49.2,159.107a14.751,14.751,0,1,1,2.556,20.711A14.755,14.755,0,0,1,49.2,159.107Z" transform="translate(0 -25.731)"/><path d="M111.87,200.21l-2.585-2.008c-7.19-5.583-14.624-11.357-21.959-17.014-.112-.086-.23-.19-.365-.308a29.027,29.027,0,0,0-28.547-41.627q-1.443-6.876-2.859-13.729c-1.545-7.5-5.114-11.214-11.574-12.056l-.093-.012-37.729,7.89-.085.054c-6.906,4.363-6.606,10.8-5.4,16.516,3.839,18.25,7.684,36.818,11.4,54.775q2.607,12.591,5.219,25.18a17.917,17.917,0,0,0,2.542,6.543c2.945,4.371,6.408,5.97,10.9,5.03l.106-.023c2.913-.634,6.072-1.306,9.942-2.115q3.428-.717,6.858-1.426t6.859-1.427c4.04-.845,7.328-1.545,10.35-2.205,5.324-1.161,8.607-5.586,8.361-11.273a35.969,35.969,0,0,0-.739-5.9q-1.01-4.745-2.032-9.486a29.066,29.066,0,0,0,9.212-5.286q3.468,2.757,6.951,5.507l.049.039c4.984,3.943,10.138,8.02,15.161,12.084l.1.084c2.6,2.1,4.035,3.265,5.664,3.078,1.369-.156,2.458-1.24,3.877-3.057.367-.471.785-1.029,1.356-1.81C114.519,203.9,114.229,202.041,111.87,200.21ZM75.649,149.194a24.114,24.114,0,1,1-19.767-4.574A24.116,24.116,0,0,1,75.649,149.194ZM21.434,211.809c-1.284-5.863-2.54-11.746-3.766-17.488q-.867-4.065-1.738-8.13c-.515-2.4-1.015-4.81-1.515-7.217l-.807-3.874L11.23,163.806c-1.553-7.432-3.273-14.828-4.919-22.24,15.316-2.813,30.6-6.159,45.81-9.5q.744,3.989,1.526,7.977a29.036,29.036,0,0,0,11.849,56.8q.563,2.725,1.116,5.444C51.538,205.282,36.4,208.3,21.434,211.809ZM5.341,128.254a6.625,6.625,0,0,1,4.382-2.823c.086-.018.172-.034.259-.05,5.565-1,11.1-2.073,16.455-3.193,5.4-1.129,10.774-2.338,15.982-3.595l.227-.051a6.965,6.965,0,0,1,5.313.989,6.173,6.173,0,0,1,2.632,4.083q.322,1.849.659,3.7c-15.329,3.048-30.726,6.116-45.94,9.691q-.375-1.737-.742-3.475A6.95,6.95,0,0,1,5.341,128.254Zm54.827,90c-.988.207-2.07.388-3.306.553-2.677.359-5.586.869-8.894,1.561-2.96.619-5.956,1.322-8.853,2-2.423.569-4.928,1.157-7.4,1.692l-.107.022c-4.787,1-7.638-.852-8.717-5.666-.151-.674-.3-1.353-.449-2.028,15.077-2.78,30.12-6.07,45.1-9.356C68.684,213.585,68.074,216.6,60.168,218.253Z" transform="translate(0 -25.731)"/><path d="M70.282,172.952A115.64,115.64,0,0,0,67.605,160.5a1.731,1.731,0,0,0-3.387.708,115.791,115.791,0,0,0,2.536,12.479A1.8,1.8,0,0,0,70.282,172.952Z" transform="translate(0 -25.731)"/><path d="M64.025,174.659A69.847,69.847,0,0,0,61.931,165c-.469-1.666-3.625-1.009-3.387.708A69.82,69.82,0,0,0,60.5,175.4C61,177.13,64.261,176.45,64.025,174.659Z" transform="translate(0 -25.731)"/><path d="M57.775,176.4a32.861,32.861,0,0,0-1.458-6.617c-.358-1.134-3.513-.476-3.386.709a32.866,32.866,0,0,0,1.315,6.646C54.631,178.317,57.9,177.636,57.775,176.4Z" transform="translate(0 -25.731)"/></svg>