<svg xmlns="http://www.w3.org/2000/svg" xmlns:xlink="http://www.w3.org/1999/xlink" width="135.018" height="182.219" viewBox="0 0 135.018 182.219"><defs><clipPath id="a" transform="translate(-36.145 -24.181)"><circle cx="101.6" cy="101.6" r="101.6" fill="none"/></clipPath></defs><g clip-path="url(#a)"><path d="M38.4,199.2s2.4-21.6,8.8-26.4,20.952-7.654,20.952-7.654a57.019,57.019,0,0,0,19.335,3.709C97.6,168.8,136.8,167.2,136.8,167.2l5.6.8s18.678,8.111,20.139,18.456S164.8,206.4,164.8,206.4Z" transform="translate(-36.145 -24.181)" fill="#ffe200"/><path d="M130.921,134.772c6.805.361,14.512,1.754,18.143,7.521,4.778,7.59-.241,18.449,4.357,26.148,3.136,5.25,9.984,7.28,16.055,6.554-7.229,5.222-16.039,8.841-24.918,8.02s-17.581-6.895-19.606-15.58c-1.639-7.026.709-15.64-4.432-20.7" transform="translate(-36.145 -24.181)" fill="#fff" stroke="#231815" stroke-linecap="round" stroke-linejoin="round" stroke-width="3.374"/><path d="M160.436,181.752a33.01,33.01,0,0,1,3.861,16.854" transform="translate(-36.145 -24.181)" fill="none" stroke="#231815" stroke-linecap="round" stroke-linejoin="round" stroke-width="3.374"/><path d="M52.725,94.1c-.018.469-.071.941-.082,1.415s.011.944.006,1.418.061.944.063,1.418.059.942.069,1.417-.114.948-.1,1.421.169.939.192,1.413.006.946.036,1.419.023.947.06,1.419.19.933.234,1.405-.006.952.045,1.423.13.938.188,1.409.024.952.09,1.422.261.919.334,1.387.146.936.227,1.4.208.924.3,1.39.134.938.231,1.4.156.936.261,1.4.188.93.3,1.39.174.935.3,1.392.383.879.513,1.334.28.905.419,1.357.2.932.346,1.381.337.887.5,1.332.409.859.578,1.3.2.941.379,1.378.4.863.587,1.3.311.9.513,1.33.551.788.764,1.209.463.828.688,1.242.423.85.661,1.257.48.818.731,1.218.531.786.8,1.176.532.784.811,1.165.49.82.783,1.19.576.758.884,1.115.616.728.939,1.072.67.677,1.008,1.007.693.653,1.046.967.8.517,1.173.814.663.692,1.045.971.831.464,1.228.723.772.549,1.183.787.831.451,1.254.668.873.361,1.307.554.823.481,1.268.651.933.19,1.386.336.9.266,1.36.389.9.286,1.364.385.93.135,1.4.211.91.3,1.386.354.948-.027,1.426,0,.938.1,1.418.109.959,0,1.439-.01c.254.673.108.721.137,1.44s-.066.722-.037,1.439.141.714.17,1.433-.019.721.01,1.441-.007.719.023,1.438.018.72.048,1.44.012.722.042,1.444.127.717.156,1.438" transform="translate(-36.145 -24.181)" fill="none" stroke="#231815" stroke-linecap="round" stroke-linejoin="round" stroke-width="3.374"/><path d="M89.634,94.33a3.432,3.432,0,0,0,.073-1.436,1.991,1.991,0,0,0-.577-1.259,1.86,1.86,0,0,0-1.3-.487,1.991,1.991,0,0,0-1.444.427,3.3,3.3,0,0,0-.8,1.313,7.375,7.375,0,0,0-.629,1.457,4.5,4.5,0,0,0,.113,1.57,2.968,2.968,0,0,0,.476,1.51A1.656,1.656,0,0,0,87,98.07a5.568,5.568,0,0,0,1.32-.236,1.661,1.661,0,0,0,1.052-.816,4.712,4.712,0,0,0,.257-1.33A11.758,11.758,0,0,0,89.634,94.33Z" transform="translate(-36.145 -24.181)" fill="#231815"/><path d="M106.919,94.133a4.574,4.574,0,0,0,.035-1.22,3.571,3.571,0,0,0-.393-1.167,1.424,1.424,0,0,0-.993-.673,2.57,2.57,0,0,0-1.407.146,2.834,2.834,0,0,0-1.26.712,4.279,4.279,0,0,0-.692,1.3,4.972,4.972,0,0,0-.166,1.437c-.03.532-.062,1.055-.081,1.543a5.226,5.226,0,0,0,.01,1.538,1.493,1.493,0,0,0,1.049,1.082,3.069,3.069,0,0,0,1.4-.133,2.706,2.706,0,0,0,1.243-.616,3.422,3.422,0,0,0,.872-1.13,6.222,6.222,0,0,0,.28-1.4A9.1,9.1,0,0,0,106.919,94.133Z" transform="translate(-36.145 -24.181)" fill="#231815"/><path d="M110.405,149.421c-.411.1-.769.38-1.159.456-.416.08-.836.055-1.223.11-.424.061-.825.113-1.208.144a4,4,0,0,0,.047,1.484c.04.741-.019.744.021,1.485s.016.743.056,1.484.147.737.187,1.48.016.742.057,1.484-.041.747,0,1.49.074.743.114,1.487.225.734.266,1.479" transform="translate(-36.145 -24.181)" fill="none" stroke="#231815" stroke-linecap="round" stroke-linejoin="round" stroke-width="3.374"/><path d="M110.428,149.517c.464-.11.956-.12,1.417-.246s.9-.321,1.36-.465.9-.314,1.351-.48.841-.454,1.284-.643.91-.29,1.342-.5.895-.344,1.316-.582.806-.508,1.213-.77.712-.636,1.1-.922.847-.451,1.223-.759.645-.7,1.005-1.029c.346-.313.7-.627,1.047-.971.329-.33.691-.644,1.018-1,.315-.344.57-.753.882-1.127.3-.358.588-.735.887-1.12.286-.369.6-.731.881-1.127.273-.379.566-.756.837-1.161.261-.389.442-.84.7-1.253.249-.4.62-.729.869-1.149.238-.4.431-.843.669-1.268.229-.408.546-.78.774-1.21.22-.414.413-.853.632-1.287s.371-.875.582-1.313.487-.821.691-1.263c.2-.427.39-.866.586-1.31s.366-.88.556-1.328.416-.86.6-1.311c.176-.433.212-.946.373-1.432.149-.449.226-.936.363-1.424.128-.459.266-.926.383-1.414.112-.467.179-.952.28-1.44.1-.473.251-.941.339-1.431s.234-.949.31-1.437.084-.977.149-1.466.247-.959.3-1.448-.09-1-.046-1.486.277-.966.311-1.454-.027-.993,0-1.481.089-.986.1-1.471c.013-.5-.022-.993-.021-1.476,0-.5-.016-.992-.028-1.47-.013-.5.022-.971-.007-1.445.46-.132.919-.2,1.363-.361s.821-.522,1.25-.72.9-.347,1.308-.579.806-.522,1.195-.787.734-.615,1.1-.912.829-.518,1.156-.85A11.58,11.58,0,0,0,146.3,96.8a10.379,10.379,0,0,0,.926-1.106,7.636,7.636,0,0,0,.383-1.392,5.98,5.98,0,0,0,.3-1.368,5.237,5.237,0,0,0-.03-1.4,5.3,5.3,0,0,0-.388-1.349,6.134,6.134,0,0,0-.66-1.259,5.959,5.959,0,0,0-1.053-.96,5.033,5.033,0,0,0-1.186-.755,5.268,5.268,0,0,0-1.341-.489,6.284,6.284,0,0,0-1.429.069,8.345,8.345,0,0,0-1.421.165,11.074,11.074,0,0,0-1.316.574c-.467.193-.954.291-1.344.5-.487.262-.931.486-1.251.7" transform="translate(-36.145 -24.181)" fill="none" stroke="#231815" stroke-linecap="round" stroke-linejoin="round" stroke-width="3.374"/><path d="M63.589,57.678c-6.006,2.989-8.011,10.469-8.958,17.11a163.922,163.922,0,0,0-1.631,25" transform="translate(-36.145 -24.181)" fill="none" stroke="#231815" stroke-linecap="round" stroke-linejoin="round" stroke-width="3.374"/><path d="M101.108,53.961A37.337,37.337,0,0,1,136.854,87.21" transform="translate(-36.145 -24.181)" fill="none" stroke="#231815" stroke-linecap="round" stroke-linejoin="round" stroke-width="3.374"/><path d="M92.749,54.884c-5.4-.342-10.944.009-15.964,2.025C69.078,60,63.311,66.787,59.737,74.284s-5.214,15.746-6.768,23.9" transform="translate(-36.145 -24.181)" fill="none" stroke="#231815" stroke-linecap="round" stroke-linejoin="round" stroke-width="3.374"/><path d="M49.248,93.207c-2.1-1.278-5.009-.365-6.6,1.5a11.366,11.366,0,0,0-2.247,6.88,8.355,8.355,0,0,0,.875,4.825c1.749,2.857,5.7,3.168,9.054,3.16" transform="translate(-36.145 -24.181)" fill="none" stroke="#231815" stroke-linecap="round" stroke-linejoin="round" stroke-width="3.374"/><path d="M94.908,27.875c-15.043-4.527-31.73,4.407-40.192,17.642s-10.162,29.7-9.54,45.4" transform="translate(-36.145 -24.181)" fill="none" stroke="#231815" stroke-linecap="round" stroke-linejoin="round" stroke-width="3.374"/><path d="M99.929,25.98c14.321-1.14,28.626,6.485,37.028,18.138s11.2,26.81,9.2,41.036" transform="translate(-36.145 -24.181)" fill="none" stroke="#231815" stroke-linecap="round" stroke-linejoin="round" stroke-width="3.374"/><path d="M37.832,134.152l8.887.562c-.1-6.825.682-13.839.236-20.6C44.252,115.642,38.005,134.163,37.832,134.152Z" transform="translate(-36.145 -24.181)" fill="#ffe200" stroke="#231815" stroke-linecap="round" stroke-linejoin="round" stroke-width="3.374"/><path d="M141.413,123.791l8.276.009c-1.732-4.478-3.939-15.81-8.062-17.892C141.372,107.33,141.323,123.791,141.413,123.791Z" transform="translate(-36.145 -24.181)" fill="#ffe200" stroke="#231815" stroke-linecap="round" stroke-linejoin="round" stroke-width="3.374"/><path d="M94.679,100.815a72.168,72.168,0,0,0,.29,12.023" transform="translate(-36.145 -24.181)" fill="none" stroke="#231815" stroke-linecap="round" stroke-linejoin="round" stroke-width="3.374"/><path d="M40.384,190.242l3.7-10.614a23.709,23.709,0,0,1,3.251-6.853c2.234-2.892,5.689-4.6,9.194-5.632a67.43,67.43,0,0,1,11.618-2l16.266-1.825" transform="translate(-36.145 -24.181)" fill="none" stroke="#231815" stroke-linecap="round" stroke-linejoin="round" stroke-width="3.374"/><path d="M107.933,162.329l12.528,1.268" transform="translate(-36.145 -24.181)" fill="none" stroke="#231815" stroke-linecap="round" stroke-linejoin="round" stroke-width="3.374"/><path d="M66,165.582c1.511,1.658,3.974,1.941,6.211,2.1a341.373,341.373,0,0,0,50.786-.271" transform="translate(-36.145 -24.181)" fill="none" stroke="#231815" stroke-linecap="round" stroke-linejoin="round" stroke-width="3.374"/><path d="M95.505,128.731a3.573,3.573,0,0,1-4.053-2.719,4.02,4.02,0,0,1,2.425-4.37,4.6,4.6,0,0,1,4.957,1.2,3.571,3.571,0,0,1,.794,1.3,3.21,3.21,0,0,1-1.146,3.4,4.158,4.158,0,0,1-3.628.617" transform="translate(-36.145 -24.181)" fill="none" stroke="#231815" stroke-linecap="round" stroke-linejoin="round" stroke-width="3.374"/></g></svg>