<svg xmlns="http://www.w3.org/2000/svg" xmlns:xlink="http://www.w3.org/1999/xlink" width="212.567" height="243.282" viewBox="0 0 212.567 243.282"><defs><clipPath id="a" transform="translate(-38.502 -20)"><circle cx="127" cy="127" r="127" fill="none"/></clipPath></defs><g clip-path="url(#a)"><path d="M174,259s-14-32-14-40v-3s33,3,38,5,9,8,11,11,6,9,6,11,1,10,1,10S190,261,174,259Z" transform="translate(-38.502 -20)" fill="#ffe200"/><path d="M100,258s8-31,4-40c0,0-14,2-21,4s-8,2-12,6-9,22-9,22S89,259,100,258Z" transform="translate(-38.502 -20)" fill="#ffe200"/><path d="M77.981,129.63c-.023.588-.074,1.179-.088,1.773s-.071,1.18-.076,1.775.112,1.181.115,1.775-.146,1.184-.134,1.777.2,1.177.222,1.771.059,1.179.088,1.772-.093,1.189-.055,1.781.176,1.174.222,1.765.113,1.176.168,1.766-.027,1.192.037,1.781.288,1.158.361,1.746.212,1.165.293,1.751.183,1.168.274,1.753.134,1.177.234,1.76.139,1.178.249,1.759.137,1.182.257,1.761.225,1.166.356,1.742.258,1.159.4,1.733.515,1.092.666,1.664.095,1.2.257,1.771.381,1.126.555,1.69.488,1.088.674,1.649.341,1.135.539,1.691.268,1.165.479,1.717.576,1.048.8,1.593.4,1.117.642,1.657.359,1.142.611,1.675.756.952,1.023,1.478.328,1.168.61,1.686.747.941,1.045,1.45.475,1.1.789,1.6.77.914,1.1,1.4.519,1.086.868,1.562.813.874,1.179,1.336.827.851,1.212,1.3.587,1.067.991,1.5.953.729,1.375,1.141.882.787,1.323,1.179.847.829,1.307,1.2.949.7,1.428,1.054.862.838,1.357,1.161,1.075.517,1.587.814,1.01.618,1.538.889,1.11.414,1.652.656,1.075.48,1.631.692,1.1.43,1.663.613,1.112.389,1.688.543,1.142.291,1.725.414,1.174.113,1.764.208,1.153.232,1.748.3,1.167.13,1.764.168,1.176.013,1.776.025,1.2.091,1.8.077c.318.841.065.905.1,1.8s.008.9.045,1.795.107.9.144,1.793.031.9.068,1.8.036.9.073,1.8-.058.9-.021,1.8-.091.907-.054,1.808.2.9.233,1.8" transform="translate(-38.502 -20)" fill="none" stroke="#231815" stroke-linecap="round" stroke-linejoin="round" stroke-width="4.217"/><path d="M124.121,129.923c.123-.914.342-.887.213-1.832a2.746,2.746,0,0,0-.891-1.58,2.41,2.41,0,0,0-1.648-.648,2.587,2.587,0,0,0-1.835.571,4.227,4.227,0,0,0-1.065,1.634,8.91,8.91,0,0,0-.667,1.867,7.989,7.989,0,0,0-.094,1.986,4.064,4.064,0,0,0,.774,1.889,2.16,2.16,0,0,0,1.84.822,6.885,6.885,0,0,0,1.623-.407,1.9,1.9,0,0,0,1.211-1.017,4.718,4.718,0,0,0,.543-1.585A15.071,15.071,0,0,0,124.121,129.923Z" transform="translate(-38.502 -20)" fill="#231815"/><path d="M145.62,129.666a6.127,6.127,0,0,0,.015-1.515,4.264,4.264,0,0,0-.586-1.381,1.645,1.645,0,0,0-1.085-.946,3.426,3.426,0,0,0-1.8.089,3.6,3.6,0,0,0-1.507,1.026,5.272,5.272,0,0,0-.825,1.62,6.283,6.283,0,0,0-.415,1.763c-.036.664.032,1.323.009,1.932a6.279,6.279,0,0,0,.087,1.909,1.694,1.694,0,0,0,1.311,1.21,3.179,3.179,0,0,0,1.751.175,3.784,3.784,0,0,0,1.42-1.042,4.064,4.064,0,0,0,1.189-1.316,8.158,8.158,0,0,0,.3-1.761A11.277,11.277,0,0,0,145.62,129.666Z" transform="translate(-38.502 -20)" fill="#231815"/><path d="M150.021,198.837c-.512.123-1.015.2-1.5.3-.521.1-1.021.179-1.5.248-.531.077-1.007.246-1.486.285a4.969,4.969,0,0,0,.012,1.855c.05.926.244.915.294,1.841s.024.929.074,1.856-.067.934-.017,1.862.2.919.253,1.845-.141.94-.091,1.869.228.92.278,1.851-.182.943-.132,1.873" transform="translate(-38.502 -20)" fill="none" stroke="#231815" stroke-linecap="round" stroke-linejoin="round" stroke-width="4.217"/><path d="M150.05,198.959c.58-.139,1.157-.3,1.734-.455s1.139-.355,1.709-.536,1.145-.338,1.708-.545,1.073-.521,1.626-.757,1.173-.3,1.714-.563,1.026-.609,1.552-.906,1.017-.615,1.526-.943c.493-.318.921-.748,1.412-1.1.473-.345,1.041-.587,1.512-.972.453-.37.8-.881,1.251-1.291.432-.393.915-.749,1.345-1.18.412-.413.911-.764,1.32-1.214.393-.431.727-.935,1.118-1.4.374-.447.625-1.009,1-1.49.358-.462.849-.838,1.2-1.333.341-.475.75-.92,1.09-1.427.326-.486.563-1.047.888-1.563.312-.5.558-1.045.869-1.57.3-.5.6-1.018.9-1.549.286-.511.735-.947,1.02-1.484.274-.517.353-1.15.626-1.692.265-.524.511-1.067.775-1.615.255-.53.648-1.006.9-1.559.246-.534.4-1.119.645-1.675.238-.54.478-1.088.716-1.648.229-.544.539-1.065.768-1.628.22-.541.5-1.1.707-1.7.187-.561.111-1.226.282-1.836.16-.573.494-1.118.64-1.728.14-.583.214-1.195.341-1.806.123-.591.187-1.2.3-1.815.108-.6.207-1.2.3-1.813s.286-1.194.366-1.806.233-1.209.3-1.82.072-1.23.127-1.841-.008-1.236.034-1.846.278-1.221.308-1.83.028-1.238.044-1.845c.017-.624-.189-1.243-.187-1.848,0-.626,0-1.237-.019-1.836-.017-.63.083-1.223.047-1.816.576-.165,1.143-.287,1.7-.494s1.135-.408,1.671-.656,1.036-.617,1.55-.906,1.029-.62,1.514-.95c.5-.34,1.03-.637,1.482-1.008a17.13,17.13,0,0,0,1.183-1.352,14.659,14.659,0,0,0,1.191-1.315A12.684,12.684,0,0,0,196,131.6a9.934,9.934,0,0,0,.766-1.635,7.913,7.913,0,0,0,.224-1.786,6.748,6.748,0,0,0-.091-1.765,6.825,6.825,0,0,0-.342-1.764,8.438,8.438,0,0,0-1.074-1.443,8.156,8.156,0,0,0-1.145-1.377,6.3,6.3,0,0,0-3.28-1.328,7.945,7.945,0,0,0-1.783-.129,10.451,10.451,0,0,0-1.723.484,14.9,14.9,0,0,0-1.774.343,16.048,16.048,0,0,0-1.562.9c-.61.327-1.2.546-1.6.811" transform="translate(-38.502 -20)" fill="none" stroke="#231815" stroke-linecap="round" stroke-linejoin="round" stroke-width="4.217"/><path d="M73.56,128.508c-2.624-1.6-6.261-.456-8.255,1.88s-2.65,5.533-2.809,8.6a10.445,10.445,0,0,0,1.094,6.031c2.186,3.571,7.129,3.96,11.317,3.95" transform="translate(-38.502 -20)" fill="none" stroke="#231815" stroke-linecap="round" stroke-linejoin="round" stroke-width="4.217"/><path d="M62.48,249.8l4.631-13.269a29.686,29.686,0,0,1,4.063-8.565c2.793-3.615,7.112-5.747,11.493-7.041a84.267,84.267,0,0,1,14.523-2.5l20.332-2.282" transform="translate(-38.502 -20)" fill="none" stroke="#231815" stroke-linecap="round" stroke-linejoin="round" stroke-width="4.217"/><path d="M146.917,214.911l15.659,1.585" transform="translate(-38.502 -20)" fill="none" stroke="#231815" stroke-linecap="round" stroke-linejoin="round" stroke-width="4.217"/><path d="M131.858,147.836v1.307" transform="translate(-38.502 -20)" fill="none" stroke="#231815" stroke-linecap="round" stroke-linejoin="round" stroke-width="4.217"/><path d="M125.8,170.424a9.688,9.688,0,0,1,13.859-.969" transform="translate(-38.502 -20)" fill="none" stroke="#231815" stroke-linecap="round" stroke-linejoin="round" stroke-width="4.217"/><path d="M122.652,77.726a84.347,84.347,0,0,0,16.553,24.1c6.027,6.134,13.579,11.555,22.17,11.961" transform="translate(-38.502 -20)" fill="none" stroke="#231815" stroke-linecap="round" stroke-linejoin="round" stroke-width="4.217"/><path d="M114.271,85.235c-.907,8.322-4.49,16.2-9.358,23.008s-10.992,12.628-17.407,18.006" transform="translate(-38.502 -20)" fill="none" stroke="#231815" stroke-linecap="round" stroke-linejoin="round" stroke-width="4.217"/><path d="M157.739,69.815a104.361,104.361,0,0,1,7.685,31.07c.378,4.274.5,8.6,1.485,12.772s2.962,8.282,6.357,10.905a13.9,13.9,0,0,0,14.677,1.237" transform="translate(-38.502 -20)" fill="none" stroke="#231815" stroke-linecap="round" stroke-linejoin="round" stroke-width="4.217"/><path d="M104.2,42.44A33.126,33.126,0,0,0,81.161,53.372c-4.8,5.392-7.682,12.21-9.971,19.058a146.542,146.542,0,0,0-6.46,28.585" transform="translate(-38.502 -20)" fill="none" stroke="#231815" stroke-linecap="round" stroke-linejoin="round" stroke-width="4.217"/><path d="M67.915,162.942a187.753,187.753,0,0,1-4.573,19.344c-1.432,4.885-3.352,10.095-7.661,12.805-4.372,2.751-10,2.167-15.071,1.207" transform="translate(-38.502 -20)" fill="none" stroke="#231815" stroke-linecap="round" stroke-linejoin="round" stroke-width="4.217"/><path d="M81.518,197.47a23.476,23.476,0,0,1-4.408,6.3,7.95,7.95,0,0,1-7.08,2.2" transform="translate(-38.502 -20)" fill="none" stroke="#231815" stroke-linecap="round" stroke-linejoin="round" stroke-width="4.217"/><path d="M123.2,38.026c4.133-2.366,8.974-3.205,13.731-3.438a60.166,60.166,0,0,1,62.925,64.738" transform="translate(-38.502 -20)" fill="none" stroke="#231815" stroke-linecap="round" stroke-linejoin="round" stroke-width="4.217"/><path d="M199.141,145.879l.515,23.084c.122,5.5.254,11.071,1.706,16.381a20.2,20.2,0,0,0,5.86,10.155c3.007,2.587,7.369,3.819,11.075,2.405" transform="translate(-38.502 -20)" fill="none" stroke="#231815" stroke-linecap="round" stroke-linejoin="round" stroke-width="4.217"/><path d="M183.7,192.38a34.759,34.759,0,0,0,1.27,7.521,7.955,7.955,0,0,0,1.744,3.494,3.189,3.189,0,0,0,3.595.81" transform="translate(-38.502 -20)" fill="none" stroke="#231815" stroke-linecap="round" stroke-linejoin="round" stroke-width="4.217"/><path d="M171.38,217.891l15.189,1.656c4.349.475,8.8.979,12.723,2.925a25.029,25.029,0,0,1,10.162,10.215,74.641,74.641,0,0,1,5.557,13.5" transform="translate(-38.502 -20)" fill="none" stroke="#231815" stroke-linecap="round" stroke-linejoin="round" stroke-width="4.217"/><path d="M103.436,219.905c.056,3.035,3.414,4.786,6.316,5.678a72.012,72.012,0,0,0,46.884-1.72c2.352-.916,4.9-2.22,5.66-4.628" transform="translate(-38.502 -20)" fill="none" stroke="#231815" stroke-linecap="round" stroke-linejoin="round" stroke-width="4.217"/><path d="M104.391,218.932a80.4,80.4,0,0,1-5.357,41.479" transform="translate(-38.502 -20)" fill="none" stroke="#231815" stroke-linecap="round" stroke-linejoin="round" stroke-width="4.217"/><path d="M160.164,217.777a75.638,75.638,0,0,0,14.622,43.4" transform="translate(-38.502 -20)" fill="none" stroke="#231815" stroke-linecap="round" stroke-linejoin="round" stroke-width="4.217"/><path d="M170.1,138.084a76.337,76.337,0,0,0-2.793,10.9,8.609,8.609,0,0,0,.017,4.343,3.183,3.183,0,0,0,3.328,2.268c1.574-.31,2.388-2.115,2.461-3.718s-.331-3.225-.039-4.8" transform="translate(-38.502 -20)" fill="none" stroke="#231815" stroke-linecap="round" stroke-linejoin="round" stroke-width="4.217"/></g><path d="M215.094,21.657c.307.076,14.774,12.141,14.774,12.141L244.1,21.657l3.3.69,1.151,1.612V64.173L229.868,81.824,209.884,64.4V26.415l2.217-3.837Z" transform="translate(-38.502 -20)" fill="#fff"/><path d="M216.263,24.9c-1.67-1.948-2.818-1.605-4.905-.917a3.135,3.135,0,0,0-1.3.891,20.841,20.841,0,0,0,.053,2.658c.074,1.176.173,2.345.173,3.524,0,3.174,0,6.349-.132,9.52-.073,1.76-.17,3.519-.272,5.277.105,4.131.262,8.259.4,12.388q.117,3.419.2,6.838,1.029,1.278,2.13,2.485c1.525,1.671,3.135,3.244,4.79,4.757s3.378,2.984,5.1,4.425q1.28,1.069,2.566,2.128c.692.573,4.1,1.893,4.79,2.463L229.8,36.448S217.933,26.843,216.263,24.9Z" transform="translate(-38.502 -20)" fill="#ffe200"/><path d="M251.05,62.75c-.008-.176-.017-.347-.017-.506q0-6.828-.008-13.655c-.008-6.162-.016-12.534,0-18.8a16.362,16.362,0,0,0-.646-4.9c-.906-2.99-3.121-4.848-5.782-4.848a6.068,6.068,0,0,0-3.83,1.433l-.063.052a88.914,88.914,0,0,0-9.595,8.6c-.58.63-1.081,1.173-1.317,1.173s-.757-.561-1.355-1.211a65.982,65.982,0,0,0-10.329-9.059A5.467,5.467,0,0,0,214.927,20a5.312,5.312,0,0,0-4.227,2.077,10.23,10.23,0,0,0-2.139,6.186c-.05,4.115-.041,8.3-.031,12.344q0,2.454.007,4.908l.01.428V62.566a9.472,9.472,0,0,0,.041,1.185c.125,1.076.719,1.694,1.627,1.694h.014a1.586,1.586,0,0,0,1.6-1.737c.036-.942.052-1.973.052-3.152q-.012-15.444-.039-30.888a9.04,9.04,0,0,1,.964-4.611,2.542,2.542,0,0,1,2.122-1.551,3.091,3.091,0,0,1,1.74.659,73.757,73.757,0,0,1,9.474,8.493q.9.9,1.8,1.8c.707.7,1.235,1.107,1.839,1.107s1.152-.419,1.878-1.143q.789-.786,1.573-1.579a75.393,75.393,0,0,1,9.827-8.8,2.712,2.712,0,0,1,1.537-.537,2.359,2.359,0,0,1,1.969,1.206,8.938,8.938,0,0,1,1.164,5c-.029,12.733-.034,23.1-.014,32.615,0,.164-.011.343-.022.529a2.724,2.724,0,0,0,.409,2.082,1.585,1.585,0,0,0,1.206.448l.095,0a1.647,1.647,0,0,0,1.207-.485A2.907,2.907,0,0,0,251.05,62.75Z" transform="translate(-38.502 -20)" fill="#231815"/><path d="M247.486,65.127a2.172,2.172,0,0,0-1.329.62c-.453.389-.913.771-1.373,1.153-1.047.868-2.129,1.766-3.12,2.745a118.107,118.107,0,0,1-11.451,9.615.793.793,0,0,1-.434.209.653.653,0,0,1-.365-.166A104.468,104.468,0,0,1,218.2,69.892a33.773,33.773,0,0,0-2.743-2.389c-.741-.6-1.507-1.219-2.213-1.88a1.683,1.683,0,0,0-1.14-.508,1.383,1.383,0,0,0-1.071.535,1.625,1.625,0,0,0,.131,2.249,6.027,6.027,0,0,0,.641.726q1.167,1.069,2.329,2.146a142.3,142.3,0,0,0,13.822,11.713,3.25,3.25,0,0,0,1.963.76l.047,0a3.78,3.78,0,0,0,1.78-.852l.07-.05c3.262-2.32,6.347-4.977,9.331-7.548l.468-.4c1.792-1.543,3.512-3.235,5.175-4.871q.727-.716,1.458-1.43a2.051,2.051,0,0,0,.715-1.41,1.535,1.535,0,0,0-.493-1.109A1.363,1.363,0,0,0,247.486,65.127Z" transform="translate(-38.502 -20)" fill="#231815"/></svg>