<svg xmlns="http://www.w3.org/2000/svg" xmlns:xlink="http://www.w3.org/1999/xlink" width="201.073" height="253.262" viewBox="0 0 201.073 253.262"><defs><clipPath id="a" transform="translate(-12.881 -5.738)"><circle cx="127" cy="127" r="127" fill="none"/></clipPath></defs><g clip-path="url(#a)"><path d="M48,250s3-27,11-33,26.19-9.567,26.19-9.567a71.266,71.266,0,0,0,24.169,4.636C122,212,171,210,171,210l7,1s23.348,10.139,25.174,23.07S206,259,206,259Z" transform="translate(-12.881 -5.738)" fill="#ffe200"/><path d="M163.651,169.465c8.507.452,18.14,2.193,22.679,9.4,5.972,9.486-.3,23.06,5.447,32.684,3.919,6.563,12.479,9.1,20.068,8.192-9.036,6.528-20.048,11.052-31.148,10.025s-21.976-8.618-24.507-19.474c-2.049-8.783.886-19.55-5.539-25.88" transform="translate(-12.881 -5.738)" fill="#fff" stroke="#231815" stroke-linecap="round" stroke-linejoin="round" stroke-width="4.217"/><path d="M200.546,228.19a41.278,41.278,0,0,1,4.825,21.067" transform="translate(-12.881 -5.738)" fill="none" stroke="#231815" stroke-linecap="round" stroke-linejoin="round" stroke-width="4.217"/><path d="M65.907,118.627c-.023.588-.089,1.179-.1,1.774s.014,1.182.009,1.776.075,1.182.078,1.776.074,1.18.086,1.774-.142,1.186-.121,1.779.211,1.175.24,1.767.007,1.184.045,1.776.029,1.183.075,1.774.238,1.166.293,1.756-.007,1.189.057,1.778.162,1.172.235,1.76.03,1.191.112,1.777.327,1.149.418,1.734.183,1.17.284,1.753.26,1.155.371,1.737.168,1.173.288,1.752.2,1.17.326,1.747.236,1.162.377,1.737.218,1.169.37,1.74.478,1.1.641,1.666.35,1.132.524,1.7.246,1.166.432,1.726.422,1.109.62,1.665.512,1.073.723,1.624.25,1.176.474,1.722.5,1.079.734,1.619.389,1.129.641,1.662.689.985.956,1.511.577,1.034.859,1.552.529,1.062.827,1.571.6,1.022.914,1.521.663.982.994,1.47.665.98,1.014,1.455.612,1.025.979,1.487.72.948,1.105,1.394.77.909,1.174,1.339.836.846,1.259,1.259.866.815,1.307,1.208,1.006.645,1.466,1.016.829.865,1.307,1.213,1.039.58,1.535.9.965.687,1.477.984,1.04.564,1.568.835,1.091.45,1.634.692,1.028.6,1.584.813,1.166.237,1.733.42,1.124.332,1.7.486,1.121.358,1.7.481,1.162.169,1.752.264,1.137.377,1.732.443,1.185-.034,1.781,0,1.173.125,1.773.137c.585.011,1.2,0,1.8-.013.317.841.134.9.171,1.8s-.083.9-.046,1.8.175.892.212,1.79-.024.9.013,1.8-.009.9.028,1.8.023.9.06,1.8.015.9.052,1.8.159.9.2,1.8" transform="translate(-12.881 -5.738)" fill="none" stroke="#231815" stroke-linecap="round" stroke-linejoin="round" stroke-width="4.217"/><path d="M112.042,118.912a4.294,4.294,0,0,0,.092-1.794,2.488,2.488,0,0,0-.721-1.574,2.325,2.325,0,0,0-1.621-.609,2.491,2.491,0,0,0-1.8.533,4.127,4.127,0,0,0-1,1.642,9.185,9.185,0,0,0-.786,1.821,5.657,5.657,0,0,0,.14,1.963,3.71,3.71,0,0,0,.6,1.887,2.067,2.067,0,0,0,1.8.806,6.9,6.9,0,0,0,1.65-.3,2.07,2.07,0,0,0,1.314-1.02,5.852,5.852,0,0,0,.322-1.662A14.658,14.658,0,0,0,112.042,118.912Z" transform="translate(-12.881 -5.738)" fill="#231815"/><path d="M133.649,118.666a5.689,5.689,0,0,0,.043-1.524,4.445,4.445,0,0,0-.491-1.46,1.782,1.782,0,0,0-1.241-.841,3.213,3.213,0,0,0-1.758.183,3.561,3.561,0,0,0-1.576.889,5.363,5.363,0,0,0-.865,1.62,6.23,6.23,0,0,0-.208,1.8c-.037.664-.077,1.317-.1,1.925a6.625,6.625,0,0,0,.01,1.922,1.873,1.873,0,0,0,1.313,1.357,3.841,3.841,0,0,0,1.75-.166,3.394,3.394,0,0,0,1.554-.77,4.262,4.262,0,0,0,1.089-1.414,7.76,7.76,0,0,0,.352-1.749A11.449,11.449,0,0,0,133.649,118.666Z" transform="translate(-12.881 -5.738)" fill="#231815"/><path d="M138.059,188c-.512.122-1.031.151-1.517.245-.521.1-1.034.122-1.518.192-.531.076-1.058.183-1.537.221-.183.911.025.936.075,1.863s.011.928.061,1.854.009.929.06,1.856.184.921.234,1.849.035.927.085,1.854.054.929.1,1.858-.018.934.032,1.864.108.928.158,1.858" transform="translate(-12.881 -5.738)" fill="none" stroke="#231815" stroke-linecap="round" stroke-linejoin="round" stroke-width="4.217"/><path d="M138.067,188.029c.58-.139,1.132-.4,1.709-.554s1.121-.408,1.692-.588,1.191-.2,1.754-.407,1.059-.56,1.612-.8,1.151-.346,1.691-.613,1.076-.518,1.6-.816,1-.647,1.508-.975.873-.817,1.364-1.175c.473-.345.922-.727,1.393-1.112.453-.37.968-.678,1.419-1.087.433-.393.807-.86,1.237-1.291.412-.413.83-.83,1.24-1.28.392-.431.765-.89,1.155-1.357.375-.447.946-.752,1.319-1.233.357-.462.689-.963,1.044-1.458.341-.475.685-.966,1.024-1.472.326-.486.665-.982.99-1.5.312-.5.424-1.127.735-1.652.3-.5.792-.909,1.089-1.44.286-.511.443-1.1.728-1.642.275-.517.5-1.069.778-1.611.264-.525.543-1.052.806-1.6.255-.53.55-1.051.8-1.6.245-.534.633-1.015.878-1.571.238-.539.379-1.132.616-1.693.23-.543.516-1.074.746-1.638.219-.54.471-1.108.673-1.716.186-.561.128-1.22.3-1.83.16-.573.3-1.164.449-1.774.14-.583.432-1.145.559-1.755.122-.591.279-1.187.389-1.8.107-.6.246-1.2.341-1.81s.148-1.217.229-1.828,0-1.235.071-1.847.067-1.226.123-1.837.106-1.224.149-1.834.24-1.22.27-1.829.14-1.233.156-1.839c.016-.625-.2-1.243-.2-1.848,0-.626.259-1.243.243-1.842-.017-.63-.095-1.177-.131-1.769.575-.165,1.02-.5,1.574-.709s1.172-.3,1.708-.543,1.094-.5,1.607-.794,1-.671,1.486-1,1.055-.605,1.507-.977a16.7,16.7,0,0,0,1.212-1.329,15.071,15.071,0,0,0,1.257-1.275,11.812,11.812,0,0,0,.865-1.569,9.8,9.8,0,0,0,.811-1.584,7.864,7.864,0,0,0,.374-1.745,7,7,0,0,0,.083-1.8,7.09,7.09,0,0,0-.533-1.737,8.335,8.335,0,0,0-1.018-1.492,7.3,7.3,0,0,0-1.348-1.167,6.7,6.7,0,0,0-1.4-1.1,6.445,6.445,0,0,0-1.748-.388,7.875,7.875,0,0,0-1.78-.077,10.612,10.612,0,0,0-1.767.292,13.721,13.721,0,0,0-1.652.694c-.584.241-1.146.453-1.634.715-.61.328-1.208.529-1.608.794" transform="translate(-12.881 -5.738)" fill="none" stroke="#231815" stroke-linecap="round" stroke-linejoin="round" stroke-width="4.217"/><path d="M79.487,73.1c-7.508,3.735-10.014,13.085-11.2,21.388a205.115,205.115,0,0,0-2.04,31.243" transform="translate(-12.881 -5.738)" fill="none" stroke="#231815" stroke-linecap="round" stroke-linejoin="round" stroke-width="4.217"/><path d="M126.385,68.452a46.673,46.673,0,0,1,44.683,41.56" transform="translate(-12.881 -5.738)" fill="none" stroke="#231815" stroke-linecap="round" stroke-linejoin="round" stroke-width="4.217"/><path d="M115.937,69.605c-6.748-.428-13.681.011-19.955,2.531-9.634,3.869-16.843,12.347-21.311,21.719s-6.517,19.682-8.46,29.881" transform="translate(-12.881 -5.738)" fill="none" stroke="#231815" stroke-linecap="round" stroke-linejoin="round" stroke-width="4.217"/><path d="M61.56,117.508c-2.624-1.6-6.261-.456-8.255,1.88s-2.65,5.533-2.809,8.6a10.445,10.445,0,0,0,1.094,6.031c2.186,3.571,7.129,3.96,11.317,3.95" transform="translate(-12.881 -5.738)" fill="none" stroke="#231815" stroke-linecap="round" stroke-linejoin="round" stroke-width="4.217"/><path d="M118.635,35.844C99.831,30.185,78.973,41.352,68.4,57.9s-12.7,37.126-11.926,56.747" transform="translate(-12.881 -5.738)" fill="none" stroke="#231815" stroke-linecap="round" stroke-linejoin="round" stroke-width="4.217"/><path d="M124.911,33.475c17.9-1.425,35.783,8.107,46.285,22.673s14,33.512,11.5,51.294" transform="translate(-12.881 -5.738)" fill="none" stroke="#231815" stroke-linecap="round" stroke-linejoin="round" stroke-width="4.217"/><path d="M47.29,168.691l11.109.7c-.129-8.531.852-17.3.3-25.752C55.316,145.552,47.506,168.7,47.29,168.691Z" transform="translate(-12.881 -5.738)" fill="#ffe200" stroke="#231815" stroke-linecap="round" stroke-linejoin="round" stroke-width="4.217"/><path d="M176.767,155.739l10.344.011c-2.164-5.6-4.923-19.763-10.078-22.365C176.715,135.163,176.653,155.739,176.767,155.739Z" transform="translate(-12.881 -5.738)" fill="#ffe200" stroke="#231815" stroke-linecap="round" stroke-linejoin="round" stroke-width="4.217"/><path d="M118.348,127.019a90.244,90.244,0,0,0,.364,15.029" transform="translate(-12.881 -5.738)" fill="none" stroke="#231815" stroke-linecap="round" stroke-linejoin="round" stroke-width="4.217"/><path d="M50.48,238.8l4.631-13.269a29.686,29.686,0,0,1,4.063-8.565c2.793-3.615,7.112-5.747,11.493-7.041a84.267,84.267,0,0,1,14.523-2.5l20.332-2.282" transform="translate(-12.881 -5.738)" fill="none" stroke="#231815" stroke-linecap="round" stroke-linejoin="round" stroke-width="4.217"/><path d="M134.917,203.911l15.659,1.585" transform="translate(-12.881 -5.738)" fill="none" stroke="#231815" stroke-linecap="round" stroke-linejoin="round" stroke-width="4.217"/><path d="M82.494,207.978c1.888,2.071,4.968,2.426,7.764,2.619a426.643,426.643,0,0,0,63.482-.338" transform="translate(-12.881 -5.738)" fill="none" stroke="#231815" stroke-linecap="round" stroke-linejoin="round" stroke-width="4.217"/><path d="M119.769,163.6a4.672,4.672,0,0,1-4.605-3.086,5.329,5.329,0,0,1,1.392-5.468,5.664,5.664,0,0,1,6.648-.761,5.445,5.445,0,0,1,2.279,6.246,5.244,5.244,0,0,1-5.7,3.343" transform="translate(-12.881 -5.738)" fill="none" stroke="#231815" stroke-linecap="round" stroke-linejoin="round" stroke-width="4.217"/><path d="M127.743,93.475a23.216,23.216,0,0,1,14.312,3.983" transform="translate(-12.881 -5.738)" fill="none" stroke="#231815" stroke-linecap="round" stroke-linejoin="round" stroke-width="4.217"/></g><path d="M18.629,25.774a4.691,4.691,0,0,1-3.624-4.409,9.347,9.347,0,0,1,1.919-5.745C20.884,9.8,28.55,6.47,35.32,8.392S46.981,17.9,45.164,24.7c-1.177,4.405-4.629,7.761-7.71,11.122a2.137,2.137,0,0,0-.635,1.048,2.181,2.181,0,0,0,.536,1.479l3.438,5.057" transform="translate(-12.881 -5.738)" fill="none" stroke="#231815" stroke-linecap="round" stroke-linejoin="round" stroke-width="4.217"/><path d="M50.193,59.255c-1.11,1.328-3.54.881-4.357-.645a3.7,3.7,0,0,1,1.3-4.564,4.013,4.013,0,0,1,5.491.923c1.115,1.749.081,4.524-1.959,4.9" transform="translate(-12.881 -5.738)" fill="none" stroke="#231815" stroke-linecap="round" stroke-linejoin="round" stroke-width="4.217"/></svg>